<svg width="18" height="18" viewBox="0 0 18 18" fill="none" xmlns="http://www.w3.org/2000/svg">
    <path
        d="M9.00033 0.666748C4.40535 0.666748 0.666992 4.40511 0.666992 9.00008C0.666992 13.5951 4.40535 17.3334 9.00033 17.3334C13.5953 17.3334 17.3337 13.5951 17.3337 9.00008C17.3337 4.40511 13.5953 0.666748 9.00033 0.666748ZM9.00033 1.91675C12.9197 1.91675 16.0837 5.08066 16.0837 9.00008C16.0837 12.9195 12.9197 16.0834 9.00033 16.0834C5.0809 16.0834 1.91699 12.9195 1.91699 9.00008C1.91699 5.08066 5.0809 1.91675 9.00033 1.91675ZM8.99056 4.82446C8.82494 4.82705 8.66712 4.89527 8.55177 5.01413C8.43641 5.133 8.37295 5.29279 8.37533 5.45841V8.37508H5.45866C5.37584 8.37391 5.29361 8.38921 5.21676 8.42009C5.1399 8.45098 5.06995 8.49683 5.01097 8.55498C4.95199 8.61313 4.90515 8.68243 4.87319 8.75884C4.84122 8.83525 4.82476 8.91725 4.82476 9.00008C4.82476 9.08291 4.84122 9.16491 4.87319 9.24132C4.90515 9.31773 4.95199 9.38703 5.01097 9.44518C5.06995 9.50333 5.1399 9.54918 5.21676 9.58007C5.29361 9.61095 5.37584 9.62625 5.45866 9.62508H8.37533V12.5417C8.37415 12.6246 8.38946 12.7068 8.42034 12.7837C8.45122 12.8605 8.49707 12.9305 8.55523 12.9894C8.61338 13.0484 8.68267 13.0953 8.75908 13.1272C8.83549 13.1592 8.9175 13.1756 9.00033 13.1756C9.08315 13.1756 9.16516 13.1592 9.24157 13.1272C9.31798 13.0953 9.38727 13.0484 9.44543 12.9894C9.50358 12.9305 9.54943 12.8605 9.58031 12.7837C9.6112 12.7068 9.6265 12.6246 9.62533 12.5417V9.62508H12.542C12.6248 9.62625 12.707 9.61095 12.7839 9.58007C12.8607 9.54918 12.9307 9.50333 12.9897 9.44518C13.0487 9.38703 13.0955 9.31773 13.1275 9.24132C13.1594 9.16491 13.1759 9.08291 13.1759 9.00008C13.1759 8.91725 13.1594 8.83525 13.1275 8.75884C13.0955 8.68243 13.0487 8.61313 12.9897 8.55498C12.9307 8.49683 12.8607 8.45098 12.7839 8.42009C12.707 8.38921 12.6248 8.37391 12.542 8.37508H9.62533V5.45841C9.62652 5.37476 9.61092 5.29172 9.57943 5.21421C9.54795 5.1367 9.50122 5.0663 9.44203 5.00718C9.38283 4.94806 9.31237 4.90143 9.23482 4.87004C9.15727 4.83865 9.07421 4.82316 8.99056 4.82446Z"
        fill="#C49664" />
</svg>
