<svg width="18" height="18" viewBox="0 0 18 18" fill="none" xmlns="http://www.w3.org/2000/svg">
<path d="M8.99996 0.666687C4.40499 0.666687 0.666626 4.40505 0.666626 9.00002C0.666626 13.595 4.40499 17.3334 8.99996 17.3334C13.5949 17.3334 17.3333 13.595 17.3333 9.00002C17.3333 4.40505 13.5949 0.666687 8.99996 0.666687ZM8.99996 1.91669C12.9194 1.91669 16.0833 5.0806 16.0833 9.00002C16.0833 12.9194 12.9194 16.0834 8.99996 16.0834C5.08054 16.0834 1.91663 12.9194 1.91663 9.00002C1.91663 5.0806 5.08054 1.91669 8.99996 1.91669ZM8.99019 4.8244C8.82458 4.82699 8.66676 4.89521 8.5514 5.01407C8.43604 5.13294 8.37258 5.29273 8.37496 5.45835V8.37502H5.45829C5.37547 8.37385 5.29325 8.38915 5.21639 8.42003C5.13954 8.45092 5.06958 8.49677 5.0106 8.55492C4.95162 8.61307 4.90479 8.68237 4.87282 8.75878C4.84085 8.83519 4.82439 8.91719 4.82439 9.00002C4.82439 9.08285 4.84085 9.16485 4.87282 9.24126C4.90479 9.31767 4.95162 9.38697 5.0106 9.44512C5.06958 9.50327 5.13954 9.54912 5.21639 9.58001C5.29325 9.61089 5.37547 9.62619 5.45829 9.62502H8.37496V12.5417C8.37379 12.6245 8.38909 12.7067 8.41997 12.7836C8.45086 12.8604 8.49671 12.9304 8.55486 12.9894C8.61301 13.0484 8.68231 13.0952 8.75872 13.1272C8.83513 13.1591 8.91713 13.1756 8.99996 13.1756C9.08279 13.1756 9.16479 13.1591 9.2412 13.1272C9.31761 13.0952 9.38691 13.0484 9.44506 12.9894C9.50321 12.9304 9.54906 12.8604 9.57995 12.7836C9.61083 12.7067 9.62613 12.6245 9.62496 12.5417V9.62502H12.5416C12.6244 9.62619 12.7067 9.61089 12.7835 9.58001C12.8604 9.54912 12.9303 9.50327 12.9893 9.44512C13.0483 9.38697 13.0951 9.31767 13.1271 9.24126C13.1591 9.16485 13.1755 9.08285 13.1755 9.00002C13.1755 8.91719 13.1591 8.83519 13.1271 8.75878C13.0951 8.68237 13.0483 8.61307 12.9893 8.55492C12.9303 8.49677 12.8604 8.45092 12.7835 8.42003C12.7067 8.38915 12.6244 8.37385 12.5416 8.37502H9.62496V5.45835C9.62616 5.3747 9.61055 5.29166 9.57907 5.21415C9.54758 5.13664 9.50086 5.06624 9.44166 5.00712C9.38247 4.948 9.31201 4.90136 9.23446 4.86998C9.15691 4.83859 9.07384 4.82309 8.99019 4.8244Z" fill="#C49664"/>
</svg>
