<svg width="19" height="20" viewBox="0 0 19 20" fill="none" xmlns="http://www.w3.org/2000/svg">
<path d="M0.599609 0.800049V17.6H1.39961V1.60005H12.5996V0.800049H0.599609ZM2.19961 2.40005V19.2H14.9996V14.1891L18.8246 11L14.9996 7.81099V2.40005H2.19961ZM8.54961 6.80005C8.98867 6.80005 9.31992 7.01099 9.44961 7.23911C10.6715 7.23911 10.3559 8.93286 10.1699 9.48755C10.2387 9.5563 10.323 9.74224 10.323 9.99536C10.323 10.3579 9.97617 10.575 9.97617 10.575C9.91055 11.036 9.58398 11.4188 9.38398 11.5125C9.38398 11.8032 9.35586 12.025 9.38398 12.3438C9.73086 13.2704 12.0918 13.011 12.1996 14.8H4.99961C5.10742 13.011 7.42617 13.2704 7.77305 12.3438C7.80117 12.0266 7.77305 11.8047 7.77305 11.5141C7.62773 11.4375 7.22305 11.0297 7.16055 10.575C7.16055 10.575 6.83242 10.4204 6.81367 9.9313C6.8043 9.67192 6.98867 9.48755 6.98867 9.48755C6.64648 8.18442 6.79492 6.8313 8.54961 6.80005ZM14.9996 8.8563L17.5746 11L14.9996 13.1438V11.6H12.1996V10.4H14.9996V8.8563Z" fill="#727272"/>
</svg>
