<svg width="18" height="18" viewBox="0 0 18 18" fill="none" xmlns="http://www.w3.org/2000/svg">
<path d="M8.99935 0.666626C4.40438 0.666626 0.666016 4.40499 0.666016 8.99996C0.666016 13.5949 4.40438 17.3333 8.99935 17.3333C13.5943 17.3333 17.3327 13.5949 17.3327 8.99996C17.3327 4.40499 13.5943 0.666626 8.99935 0.666626ZM8.99935 1.91663C12.9188 1.91663 16.0827 5.08054 16.0827 8.99996C16.0827 12.9194 12.9188 16.0833 8.99935 16.0833C5.07993 16.0833 1.91602 12.9194 1.91602 8.99996C1.91602 5.08054 5.07993 1.91663 8.99935 1.91663ZM8.98958 4.82434C8.82397 4.82693 8.66615 4.89515 8.55079 5.01401C8.43543 5.13288 8.37197 5.29267 8.37435 5.45829V8.37496H5.45768C5.37486 8.37379 5.29264 8.38909 5.21578 8.41997C5.13893 8.45086 5.06897 8.49671 5.00999 8.55486C4.95101 8.61301 4.90418 8.68231 4.87221 8.75872C4.84024 8.83513 4.82378 8.91713 4.82378 8.99996C4.82378 9.08279 4.84024 9.16479 4.87221 9.2412C4.90418 9.31761 4.95101 9.38691 5.00999 9.44506C5.06897 9.50321 5.13893 9.54906 5.21578 9.57995C5.29264 9.61083 5.37486 9.62613 5.45768 9.62496H8.37435V12.5416C8.37318 12.6244 8.38848 12.7067 8.41936 12.7835C8.45025 12.8604 8.4961 12.9303 8.55425 12.9893C8.6124 13.0483 8.6817 13.0951 8.75811 13.1271C8.83452 13.1591 8.91652 13.1755 8.99935 13.1755C9.08218 13.1755 9.16418 13.1591 9.24059 13.1271C9.317 13.0951 9.3863 13.0483 9.44445 12.9893C9.5026 12.9303 9.54845 12.8604 9.57934 12.7835C9.61022 12.7067 9.62552 12.6244 9.62435 12.5416V9.62496H12.541C12.6238 9.62613 12.7061 9.61083 12.7829 9.57995C12.8598 9.54906 12.9297 9.50321 12.9887 9.44506C13.0477 9.38691 13.0945 9.31761 13.1265 9.2412C13.1585 9.16479 13.1749 9.08279 13.1749 8.99996C13.1749 8.91713 13.1585 8.83513 13.1265 8.75872C13.0945 8.68231 13.0477 8.61301 12.9887 8.55486C12.9297 8.49671 12.8598 8.45086 12.7829 8.41997C12.7061 8.38909 12.6238 8.37379 12.541 8.37496H9.62435V5.45829C9.62555 5.37464 9.60994 5.2916 9.57846 5.21409C9.54697 5.13658 9.50025 5.06618 9.44105 5.00706C9.38186 4.94794 9.3114 4.9013 9.23385 4.86992C9.1563 4.83853 9.07323 4.82303 8.98958 4.82434Z" fill="#727272"/>
</svg>
