<svg width="26" height="26" viewBox="0 0 26 26" fill="none" xmlns="http://www.w3.org/2000/svg">
<path d="M3.39844 0.398438C1.75116 0.398438 0.398438 1.75116 0.398438 3.39844V22.5984C0.398438 24.2457 1.75116 25.5984 3.39844 25.5984H22.5984C24.2457 25.5984 25.5984 24.2457 25.5984 22.5984V3.39844C25.5984 1.75116 24.2457 0.398438 22.5984 0.398438H3.39844ZM3.39844 1.59844H22.5984C23.5912 1.59844 24.3984 2.40571 24.3984 3.39844V22.5984C24.3984 23.5912 23.5912 24.3984 22.5984 24.3984H3.39844C2.40571 24.3984 1.59844 23.5912 1.59844 22.5984V3.39844C1.59844 2.40571 2.40571 1.59844 3.39844 1.59844ZM12.3984 5.79844V12.3984H5.79844V13.5984H12.3984V20.1984H13.5984V13.5984H20.1984V12.3984H13.5984V5.79844H12.3984Z" fill="#999999"/>
</svg>
