<svg width="26" height="26" viewBox="0 0 26 26" fill="none" xmlns="http://www.w3.org/2000/svg">
<path d="M3.40002 0.400024C1.75031 0.400024 0.400024 1.75031 0.400024 3.40002V22.6C0.400024 24.2497 1.75031 25.6 3.40002 25.6H22.6C24.2497 25.6 25.6 24.2497 25.6 22.6V3.40002C25.6 1.75031 24.2497 0.400024 22.6 0.400024H3.40002ZM3.40002 1.60002H22.6C23.6011 1.60002 24.4 2.39893 24.4 3.40002V5.42854C23.9601 4.925 23.3212 4.60002 22.6 4.60002H3.40002C2.67889 4.60002 2.03998 4.925 1.60002 5.42854V3.40002C1.60002 2.39893 2.39893 1.60002 3.40002 1.60002ZM7.00002 8.20002C7.33182 8.20002 7.60002 8.46882 7.60002 8.80002C7.60002 11.7772 10.0222 14.2 13 14.2C15.9778 14.2 18.4 11.7772 18.4 8.80002C18.4 8.46882 18.6682 8.20002 19 8.20002C19.3318 8.20002 19.6 8.46882 19.6 8.80002C19.6 12.439 16.639 15.4 13 15.4C9.36102 15.4 6.40002 12.439 6.40002 8.80002C6.40002 8.46882 6.66822 8.20002 7.00002 8.20002Z" fill="#915858"/>
</svg>
