<svg width="26" height="26" viewBox="0 0 26 26" fill="none" xmlns="http://www.w3.org/2000/svg">
<path d="M3.39844 0.398438C1.74873 0.398438 0.398438 1.74873 0.398438 3.39844V7.59844V21.9984V22.5984C0.398438 24.2481 1.74873 25.5984 3.39844 25.5984H22.5984C24.2481 25.5984 25.5984 24.2481 25.5984 22.5984V21.9984V7.59844V3.39844C25.5984 1.74873 24.2481 0.398438 22.5984 0.398438H3.39844ZM3.39844 1.59844H22.5984C23.5995 1.59844 24.3984 2.39735 24.3984 3.39844V5.21602C23.895 4.83409 23.2752 4.59844 22.5984 4.59844H3.39844C2.72168 4.59844 2.10187 4.83409 1.59844 5.21602V3.39844C1.59844 2.39735 2.39735 1.59844 3.39844 1.59844ZM3.39844 5.79844H22.5984C23.5995 5.79844 24.3984 6.59735 24.3984 7.59844V21.9984V22.5984C24.3984 23.5995 23.5995 24.3984 22.5984 24.3984H3.39844C2.39735 24.3984 1.59844 23.5995 1.59844 22.5984V21.9984V7.59844C1.59844 6.59735 2.39735 5.79844 3.39844 5.79844ZM6.98906 8.79023C6.83014 8.79272 6.67869 8.85815 6.56796 8.97218C6.45723 9.08621 6.39626 9.23951 6.39844 9.39844C6.39844 13.0365 9.36039 15.9984 12.9984 15.9984C16.6365 15.9984 19.5984 13.0365 19.5984 9.39844C19.5996 9.31893 19.5849 9.23999 19.5552 9.16621C19.5256 9.09243 19.4816 9.02528 19.4257 8.96865C19.3699 8.91203 19.3034 8.86707 19.23 8.83638C19.1567 8.80569 19.0779 8.78989 18.9984 8.78989C18.9189 8.78989 18.8402 8.80569 18.7668 8.83638C18.6935 8.86707 18.627 8.91203 18.5711 8.96865C18.5153 9.02528 18.4713 9.09243 18.4416 9.16621C18.412 9.23999 18.3973 9.31893 18.3984 9.39844C18.3984 12.388 15.988 14.7984 12.9984 14.7984C10.0089 14.7984 7.59844 12.388 7.59844 9.39844C7.59954 9.31816 7.58452 9.23849 7.55427 9.16412C7.52402 9.08976 7.47915 9.02222 7.42233 8.96551C7.36551 8.90879 7.29789 8.86406 7.22346 8.83395C7.14904 8.80385 7.06933 8.78898 6.98906 8.79023Z" fill="#999999"/>
</svg>
