<svg width="156" height="75" viewBox="0 0 156 75" fill="none" xmlns="http://www.w3.org/2000/svg">
<path d="M100 2.6011V38.6066C99.999 41.6474 98.9575 44.5976 97.0463 46.9734C95.1352 49.3492 92.4677 51.0096 89.4815 51.6822H89.4239C87.498 52.1059 85.502 52.1059 83.5761 51.6822H83.5249C80.5375 51.0108 77.8686 49.351 75.9562 46.9751C74.0437 44.5992 73.0013 41.6483 73 38.6066V2.6011C73 2.17646 73.1699 1.76922 73.4722 1.46895C73.7746 1.16869 74.1847 1 74.6123 1H82.6164C82.8278 0.999998 83.0371 1.04146 83.2324 1.122C83.4277 1.20254 83.605 1.32057 83.7542 1.46933C83.9034 1.61809 84.0216 1.79465 84.1019 1.98886C84.1822 2.18308 84.2231 2.39114 84.2223 2.6011V38.6066C84.2223 39.2065 84.4622 39.7818 84.8894 40.206C85.3166 40.6302 85.8959 40.8685 86.5 40.8685C87.1041 40.8685 87.6834 40.6302 88.1106 40.206C88.5378 39.7818 88.7777 39.2065 88.7777 38.6066V2.6011C88.7777 2.17646 88.9476 1.76922 89.25 1.46895C89.5523 1.16869 89.9624 1 90.3901 1H98.3877C98.8153 1 99.2254 1.16869 99.5278 1.46895C99.8301 1.76922 100 2.17646 100 2.6011Z" fill="#915858"/>
<path d="M69 30.648V38.4547C68.9993 41.5962 67.9788 44.6443 66.1056 47.0993C64.2325 49.5543 61.6178 51.2707 58.6902 51.9672H58.6401L58.502 52C58.3468 51.8696 58.2213 51.7048 58.1345 51.5174C58.0477 51.3301 58.0017 51.1249 58 50.9166V30.648C58.0017 30.2103 58.169 29.7912 58.4654 29.4823C58.7617 29.1734 59.163 29 59.5813 29H67.425C67.8422 29.0017 68.2419 29.1759 68.5369 29.4846C68.8319 29.7933 68.9983 30.2115 69 30.648Z" fill="#915858"/>
<path d="M155.835 23.7775C155.317 18.8879 153.392 14.2535 150.293 10.4362C147.194 6.61881 143.054 3.78236 138.375 2.27071C135.911 1.46971 133.342 1.04141 130.751 1H130.503C126.011 1.00124 121.601 2.20568 117.733 4.48811C117.524 4.6144 117.286 4.68299 117.043 4.68684C116.799 4.69068 116.559 4.62964 116.347 4.50999C116.135 4.39033 115.958 4.21636 115.835 4.00595C115.713 3.79554 115.648 3.55626 115.649 3.31269C115.649 2.69933 115.405 2.11109 114.971 1.67737C114.537 1.24366 113.949 1 113.336 1H107.516C106.903 1 106.314 1.24366 105.881 1.67737C105.447 2.11109 105.203 2.69933 105.203 3.31269C105.203 3.31269 105 25.8615 105 26.4968C105.005 33.258 107.693 39.741 112.473 44.5225C117.253 49.304 123.736 51.9933 130.497 52H130.751C137.468 51.9264 143.884 49.2087 148.611 44.436C153.337 39.6633 155.992 33.2201 156 26.5032C155.992 25.5924 155.937 24.6826 155.835 23.7775ZM132.962 41.1354C132.214 41.261 131.458 41.3311 130.7 41.3451H130.446C126.719 41.359 123.123 39.971 120.372 37.4565C117.622 34.942 115.917 31.4851 115.597 27.772C115.277 24.0588 116.365 20.3612 118.645 17.4131C120.925 14.465 124.23 12.4822 127.905 11.8582C128.847 11.7186 129.799 11.6676 130.751 11.7057C134.646 11.7707 138.36 13.3624 141.093 16.1383C143.826 18.9141 145.36 22.6521 145.364 26.5476C145.364 27.3991 145.294 28.2491 145.154 29.0891C144.638 32.1177 143.187 34.909 141.005 37.0723C138.824 39.2357 136.02 40.663 132.987 41.1545L132.962 41.1354Z" fill="#915858"/>
<path d="M146.897 24.1859C146.554 20.9247 145.272 17.8331 143.208 15.2857C141.143 12.7383 138.384 10.8444 135.265 9.83338C133.607 9.30058 131.879 9.01967 130.138 9.00005H129.971C126.977 8.9992 124.037 9.80285 121.46 11.327C121.321 11.411 121.162 11.4566 121 11.4591C120.838 11.4617 120.678 11.4212 120.537 11.3416C120.395 11.2621 120.277 11.1464 120.195 11.0065C120.113 10.8665 120.07 10.7072 120.069 10.5449C120.069 10.1348 119.908 9.7412 119.621 9.44877C119.478 9.30516 119.308 9.19149 119.121 9.11444C118.934 9.03738 118.733 8.99849 118.531 9.00005H114.686C114.276 9.00005 113.883 9.16282 113.593 9.45254C113.304 9.74226 113.141 10.1352 113.141 10.5449C113.141 10.5449 113 25.5705 113 26C113.007 30.5077 114.801 34.8288 117.988 38.0156C121.175 41.2024 125.496 42.9949 130.003 43H130.17C134.647 42.9511 138.925 41.1391 142.075 37.9568C145.226 34.7745 146.995 30.4784 147 26C146.998 25.3939 146.963 24.7884 146.897 24.1859ZM139.751 27.6795C139.414 29.6992 138.454 31.563 137.006 33.011C135.559 34.4589 133.695 35.4187 131.676 35.7564C131.176 35.8409 130.67 35.8881 130.163 35.8975H129.997C127.52 35.8933 125.135 34.9609 123.311 33.2841C121.488 31.6074 120.359 29.3081 120.148 26.8398C119.936 24.3715 120.657 21.9136 122.168 19.9508C123.679 17.9881 125.871 16.6631 128.311 16.2372C128.923 16.1357 129.543 16.0907 130.163 16.1026C132.757 16.1496 135.228 17.2118 137.047 19.0611C138.866 20.9104 139.888 23.3994 139.892 25.9936C139.889 26.5584 139.842 27.1221 139.751 27.6795Z" fill="#915858"/>
<path d="M146.897 24.1859C146.554 20.9247 145.272 17.8331 143.208 15.2857C141.143 12.7383 138.384 10.8444 135.265 9.83338C133.607 9.30058 131.879 9.01967 130.138 9.00005H129.971C126.977 8.9992 124.037 9.80285 121.46 11.327C121.321 11.411 121.162 11.4566 121 11.4591C120.838 11.4617 120.678 11.4212 120.537 11.3416C120.395 11.2621 120.277 11.1464 120.195 11.0065C120.113 10.8665 120.07 10.7072 120.069 10.5449C120.069 10.1348 119.908 9.7412 119.621 9.44877C119.478 9.30516 119.308 9.19149 119.121 9.11444C118.934 9.03738 118.733 8.99849 118.531 9.00005H114.686C114.276 9.00005 113.883 9.16282 113.593 9.45254C113.304 9.74226 113.141 10.1352 113.141 10.5449C113.141 10.5449 113 25.5705 113 26C113.007 30.5077 114.801 34.8288 117.988 38.0156C121.175 41.2024 125.496 42.9949 130.003 43H130.17C134.647 42.9511 138.925 41.1391 142.075 37.9568C145.226 34.7745 146.995 30.4784 147 26C146.998 25.3939 146.963 24.7884 146.897 24.1859ZM139.751 27.6795C139.414 29.6992 138.454 31.563 137.006 33.011C135.559 34.4589 133.695 35.4187 131.676 35.7564C131.176 35.8409 130.67 35.8881 130.163 35.8975H129.997C127.52 35.8933 125.135 34.9609 123.311 33.2841C121.488 31.6074 120.359 29.3081 120.148 26.8398C119.936 24.3715 120.657 21.9136 122.168 19.9508C123.679 17.9881 125.871 16.6631 128.311 16.2372C128.923 16.1357 129.543 16.0907 130.163 16.1026C132.757 16.1496 135.228 17.2118 137.047 19.0611C138.866 20.9104 139.888 23.3994 139.892 25.9936C139.889 26.5584 139.842 27.1221 139.751 27.6795Z" fill="#915858"/>
<path d="M41.7274 5.44362C37.4375 2.54599 32.3585 0.996841 27.1586 1H25.5749C19.4458 1.06234 13.5388 3.27088 8.90858 7.23123C4.27841 11.1916 1.22663 16.6458 0.298215 22.62C-0.630202 28.5942 0.625208 34.6993 3.84025 39.845C7.05529 44.9908 12.0206 48.8422 17.8495 50.7113C20.3455 51.5143 22.9498 51.9423 25.5749 51.9809H26.9011C31.5371 52.0321 36.0989 50.8313 40.0922 48.5086C40.304 48.3842 40.5455 48.3174 40.792 48.3148C41.0386 48.3122 41.2814 48.374 41.4959 48.494C41.7104 48.6139 41.8888 48.7877 42.0132 48.9976C42.1375 49.2075 42.2033 49.4462 42.2038 49.6893C42.2038 49.9933 42.2646 50.2943 42.3828 50.575C42.5009 50.8558 42.6741 51.1108 42.8924 51.3255C43.1107 51.5401 43.3698 51.7102 43.6548 51.8259C43.9399 51.9417 44.2453 52.0008 44.5536 52H50.4442C51.0663 52 51.663 51.7567 52.1035 51.3236C52.544 50.8904 52.7923 50.3027 52.794 49.6893C52.794 49.6893 53 27.1538 53 26.519C53.0038 22.3665 51.9789 18.2759 50.0143 14.6029C48.0497 10.9298 45.205 7.78563 41.7274 5.44362ZM29.708 41.1195C28.7806 41.2712 27.841 41.3392 26.9011 41.3226H25.5749C21.8264 41.2604 18.2365 39.8211 15.5076 37.2863C12.7787 34.7515 11.1074 31.3038 10.8207 27.6179C10.534 23.9321 11.6527 20.2734 13.9576 17.358C16.2626 14.4425 19.588 12.4802 23.283 11.8551C24.0409 11.7317 24.8069 11.6638 25.5749 11.652H26.9011C29.1143 11.6149 31.3086 12.0597 33.3276 12.9546C35.3465 13.8495 37.1405 15.1725 38.5815 16.8293C40.0226 18.4861 41.0753 20.4359 41.6647 22.5398C42.2541 24.6437 42.3656 26.8499 41.9913 29.0011C41.9205 29.4328 41.8368 29.8517 41.7274 30.2707C40.9993 33.0299 39.4771 35.5224 37.3444 37.4474C35.2116 39.3724 32.5595 40.6477 29.708 41.1195Z" fill="#915858"/>
<path d="M27.1566 9.01922H26.99C17.6173 9.01922 10 15.9832 10 26.0096C10.0271 30.5362 11.8487 34.8672 15.0651 38.0524C18.2815 41.2377 22.63 43.0169 27.1566 42.9999C28.0152 42.9946 28.8721 42.9218 29.7192 42.7821C30.5882 42.6329 31.4448 42.4187 32.2818 42.1414C36.1137 40.8906 39.376 38.3182 41.4861 34.8838C43.5961 31.4493 44.4164 27.3765 43.8004 23.393C43.1843 19.4095 41.1721 15.7748 38.1232 13.1381C35.0743 10.5015 31.1873 9.03481 27.1566 9V9.01922ZM27.1566 35.8949H26.9836C26.4236 35.8942 25.8645 35.8492 25.3115 35.7604C22.8575 35.3339 20.6545 33.9977 19.1421 32.0186C17.6297 30.0395 16.919 27.563 17.1519 25.083C17.3847 22.6031 18.544 20.3021 20.3984 18.6391C22.2529 16.9762 24.6661 16.0736 27.1566 16.1113C27.6632 16.1242 28.1683 16.1713 28.6686 16.2523C31.1005 16.6657 33.2903 17.9729 34.8083 19.9175C36.3262 21.8621 37.0628 24.3037 36.8735 26.7634C36.6841 29.223 35.5826 31.5232 33.7849 33.2126C31.9873 34.9019 29.6232 35.8586 27.1566 35.8949Z" fill="#915858"/>
<path d="M67.9999 19.5003C68.0014 19.8134 67.9788 20.126 67.9324 20.4349C67.7624 21.5579 67.2787 22.5942 66.5491 23.3992C65.8194 24.2042 64.88 24.7378 63.8622 24.9254C63.6107 24.9734 63.3561 24.9983 63.1009 24.9999H63.015C61.7613 25.0082 60.5508 24.4951 59.6247 23.5627C58.6987 22.6304 58.125 21.3473 58.0182 19.9692C57.9113 18.5911 58.279 17.2191 59.0481 16.1268C59.8171 15.0344 60.931 14.3019 62.1678 14.0752C62.4763 14.0205 62.7885 13.9956 63.1009 14.0006C64.4075 14.0272 65.6526 14.6182 66.5686 15.6465C67.4846 16.6748 67.9986 18.0585 67.9999 19.5003Z" fill="#915858"/>
<path d="M62.595 61H59.405C59.1813 61 59 61.1952 59 61.436V74.564C59 74.8048 59.1813 75 59.405 75H62.595C62.8187 75 63 74.8048 63 74.564V61.436C63 61.1952 62.8187 61 62.595 61Z" fill="#915858"/>
<path d="M30.3808 66.3192H28.7643C28.6532 66.3192 28.5468 66.2746 28.4683 66.1954C28.3897 66.1161 28.3456 66.0086 28.3456 65.8965V62.4177C28.3447 62.3423 28.3239 62.2685 28.2853 62.204C28.2467 62.1395 28.1916 62.0866 28.1259 62.0508C28.0602 62.015 27.9862 61.9975 27.9116 62.0003C27.837 62.0031 27.7645 62.0259 27.7016 62.0665L24.9064 63.367C24.7936 63.4408 24.7009 63.542 24.6368 63.6613C24.5727 63.7805 24.5392 63.9141 24.5393 64.0498V65.89C24.5393 66.0021 24.4952 66.1096 24.4167 66.1889C24.3382 66.2681 24.2317 66.3127 24.1207 66.3127H23.4251C23.3693 66.3127 23.314 66.3238 23.2624 66.3453C23.2108 66.3669 23.164 66.3985 23.1245 66.4384C23.085 66.4782 23.0537 66.5255 23.0324 66.5776C23.011 66.6297 23 66.6855 23 66.7418V68.9527C23 69.009 23.011 69.0648 23.0324 69.1169C23.0537 69.169 23.085 69.2163 23.1245 69.2561C23.164 69.296 23.2108 69.3276 23.2624 69.3492C23.314 69.3707 23.3693 69.3818 23.4251 69.3818H24.1207C24.2317 69.3818 24.3382 69.4264 24.4167 69.5056C24.4952 69.5849 24.5393 69.6924 24.5393 69.8045V74.5708C24.5409 74.6841 24.5863 74.7923 24.6656 74.8724C24.745 74.9526 24.8521 74.9983 24.9644 75H27.9334C28.0462 75 28.1543 74.9548 28.234 74.8743C28.3137 74.7938 28.3585 74.6847 28.3585 74.5708V69.8435C28.3585 69.7314 28.4026 69.6239 28.4811 69.5447C28.5596 69.4654 28.6661 69.4208 28.7771 69.4208H30.3937C30.5513 69.4116 30.7 69.3442 30.8116 69.2315C30.9232 69.1188 30.9899 68.9687 30.9991 68.8096V66.9629C31.0036 66.8788 30.9908 66.7947 30.9616 66.7159C30.9323 66.6371 30.8873 66.5652 30.8292 66.5047C30.7712 66.4443 30.7014 66.3966 30.6242 66.3647C30.5471 66.3328 30.4642 66.3173 30.3808 66.3192Z" fill="#915858"/>
<path d="M119.33 66.3192H117.58C117.46 66.3192 117.345 66.2746 117.26 66.1954C117.175 66.1161 117.127 66.0086 117.127 65.8965V62.4177C117.126 62.3423 117.104 62.2685 117.062 62.204C117.02 62.1395 116.961 62.0866 116.889 62.0508C116.818 62.015 116.738 61.9975 116.657 62.0003C116.577 62.0031 116.498 62.0259 116.43 62.0665L113.056 63.367C112.936 63.442 112.837 63.5436 112.769 63.6627C112.701 63.7818 112.666 63.9148 112.666 64.0498V65.89C112.666 65.9461 112.654 66.0015 112.631 66.0533C112.608 66.105 112.574 66.1519 112.531 66.1912C112.488 66.2305 112.437 66.2615 112.381 66.2824C112.326 66.3032 112.266 66.3135 112.206 66.3127H111.453C111.332 66.3144 111.217 66.3603 111.132 66.4406C111.047 66.5209 111 66.6291 111 66.7418V68.9527C111 69.0654 111.047 69.1736 111.132 69.2539C111.217 69.3342 111.332 69.3801 111.453 69.3818H112.206C112.464 69.3818 112.666 70.1816 112.666 70.4157V74.5708C112.666 74.6835 112.713 74.7917 112.798 74.872C112.883 74.9523 112.998 74.9983 113.119 75H116.688C116.809 74.9983 116.924 74.9523 117.009 74.872C117.094 74.7917 117.141 74.6835 117.141 74.5708V70.4548C117.141 70.2207 117.343 69.4208 117.594 69.4208H119.344C119.514 69.4116 119.675 69.3442 119.796 69.2315C119.917 69.1188 119.989 68.9687 119.999 68.8096V66.9629C120.004 66.8788 119.99 66.7947 119.958 66.7159C119.927 66.6371 119.878 66.5652 119.815 66.5047C119.752 66.4443 119.677 66.3966 119.593 66.3647C119.51 66.3328 119.42 66.3173 119.33 66.3192Z" fill="#915858"/>
<path d="M45.2084 61H44.7916C42.9904 61 41.2629 61.7372 39.9892 63.0493C38.7155 64.3614 38 66.141 38 67.9967C38 69.8523 38.7155 71.6319 39.9892 72.944C41.2629 74.2562 42.9904 74.9933 44.7916 74.9933H45.1367C46.3563 75.0074 47.5564 74.678 48.6074 74.0407C48.6628 74.0062 48.7261 73.9875 48.7908 73.9865C48.8555 73.9855 48.9193 74.0022 48.9756 74.035C49.0319 74.0678 49.0788 74.1154 49.1114 74.173C49.1439 74.2306 49.161 74.2961 49.1609 74.3627C49.1688 74.5291 49.2365 74.6865 49.3509 74.8043C49.4652 74.9221 49.618 74.9919 49.7795 75H51.3293C51.4897 74.9903 51.6409 74.9198 51.7539 74.8022C51.8669 74.6845 51.9336 74.528 51.9414 74.3627C51.9414 74.3627 52 68.1711 52 67.9967C51.9983 66.1416 51.2822 64.363 50.0089 63.0512C48.7356 61.7395 47.0091 61.0018 45.2084 61ZM45.0781 65.2664C45.2113 65.2702 45.344 65.2836 45.4754 65.3067C45.8174 65.3335 46.151 65.4296 46.457 65.5892C46.763 65.7489 47.0355 65.9691 47.2589 66.2373C47.4824 66.5054 47.6523 66.8163 47.7591 67.1521C47.8659 67.488 47.9075 67.8422 47.8814 68.1945C47.8553 68.5469 47.7621 68.8905 47.6071 69.2058C47.4521 69.5211 47.2384 69.8018 46.9781 70.032C46.7178 70.2622 46.416 70.4372 46.09 70.5473C45.764 70.6573 45.4202 70.7001 45.0781 70.6732C44.9145 70.6765 44.7509 70.663 44.5898 70.633C44.0569 70.5408 43.565 70.2801 43.1823 69.887C42.7997 69.494 42.5451 68.9881 42.454 68.4394C42.3831 68.0467 42.3982 67.6426 42.4982 67.2567C42.5982 66.8708 42.7806 66.5127 43.0321 66.2087C43.2836 65.9047 43.5977 65.6623 43.9517 65.4993C44.3057 65.3363 44.6905 65.2567 45.0781 65.2664Z" fill="#915858"/>
<path d="M97.5341 61H97.4659C95.7511 61 94.1064 61.7372 92.8938 63.0493C91.6812 64.3614 91 66.141 91 67.9967C91 69.8523 91.6812 71.6319 92.8938 72.944C94.1064 74.2562 95.7511 74.9933 97.4659 74.9933C98.627 75.0074 99.7695 74.678 100.77 74.0407C100.823 74.0062 100.883 73.9875 100.945 73.9865C101.006 73.9855 101.067 74.0022 101.121 74.035C101.174 74.0678 101.219 74.1154 101.25 74.173C101.281 74.2306 101.297 74.2961 101.297 74.3627C101.305 74.5291 101.369 74.6865 101.478 74.8043C101.587 74.9221 101.732 74.9919 101.886 75H103.361C103.514 74.9903 103.658 74.9198 103.766 74.8022C103.873 74.6845 103.937 74.528 103.944 74.3627C103.944 74.3627 104 68.1778 104 67.9967C103.998 66.1416 103.317 64.363 102.104 63.0512C100.892 61.7395 99.2485 61.0018 97.5341 61ZM95.0544 67.5405C95.1411 66.9918 95.3835 66.4859 95.7478 66.0928C96.1121 65.6998 96.5804 65.4391 97.0877 65.3469C97.2123 65.3202 97.339 65.3068 97.4659 65.3067C98.1236 65.24 98.7788 65.4587 99.2874 65.9147C99.7961 66.3707 100.116 67.0267 100.178 67.7384C100.24 68.45 100.038 69.159 99.6162 69.7094C99.1948 70.2598 98.5885 70.6065 97.9309 70.6732C97.7771 70.6994 97.6216 70.7129 97.4659 70.7135C97.1063 70.7054 96.7526 70.6128 96.4293 70.4421C96.1061 70.2713 95.821 70.0265 95.594 69.7246C95.3669 69.4228 95.2032 69.071 95.1143 68.6939C95.0254 68.3167 95.0134 67.9232 95.0792 67.5405H95.0544Z" fill="#915858"/>
<path d="M70.0397 68.748C70.2223 70.4527 71.0251 72.0309 72.2954 73.1824C73.5656 74.3339 75.2148 74.9784 76.9293 74.9933C78.1857 75.0074 79.4221 74.678 80.5049 74.0407C80.5619 74.0062 80.6271 73.9875 80.6938 73.9865C80.7604 73.9855 80.8261 74.0022 80.8842 74.035C80.9422 74.0678 80.9905 74.1154 81.0241 74.173C81.0576 74.2306 81.0752 74.2961 81.0751 74.3627C81.0833 74.5291 81.153 74.6865 81.2708 74.8043C81.3886 74.9221 81.546 74.9919 81.7124 75H83.309C83.4742 74.9903 83.63 74.9198 83.7464 74.8022C83.8628 74.6845 83.9316 74.528 83.9396 74.3627C83.9396 74.3627 84 68.1778 84 67.9967C83.9982 66.1416 83.2605 64.363 81.9487 63.0512C80.6369 61.7395 78.8583 61.0018 77.0031 61H76.9293C75.9531 61.0104 74.9897 61.2247 74.1012 61.6293C73.2127 62.0339 72.4185 62.6198 71.7698 63.3493C71.121 64.0789 70.632 64.9361 70.3341 65.8658C70.0361 66.7955 69.9359 67.7772 70.0397 68.748ZM74.3466 67.5405C74.4405 66.9918 74.7027 66.4859 75.0969 66.0928C75.4912 65.6998 75.9979 65.4391 76.5469 65.3469C76.6817 65.3202 76.8188 65.3068 76.9561 65.3067C77.6678 65.24 78.3768 65.4587 78.9273 65.9147C79.4777 66.3707 79.8244 67.0267 79.8911 67.7384C79.9578 68.45 79.7391 69.159 79.283 69.7094C78.827 70.2598 78.1709 70.6065 77.4593 70.6732C77.2928 70.6994 77.1246 70.7129 76.9561 70.7135C76.5647 70.7093 76.1789 70.6195 75.8259 70.4504C75.4728 70.2814 75.161 70.0371 74.9123 69.7347C74.6637 69.4324 74.4842 69.0793 74.3864 68.7003C74.2887 68.3212 74.2751 67.9254 74.3466 67.5405Z" fill="#915858"/>
<path d="M133.578 61.0022H133.516C132.656 60.9785 131.8 61.1432 131 61.4863C130.201 61.8295 129.474 62.3439 128.865 62.9984C128.256 63.6529 127.777 64.4339 127.456 65.2938C127.136 66.1538 126.981 67.0749 127.002 68.0011C127.015 69.8645 127.713 71.6466 128.943 72.958C130.173 74.2695 131.835 75.0036 133.566 75C134.229 74.9884 134.887 74.8715 135.518 74.6531C136.983 74.1375 138.231 73.0785 139.038 71.665C139.845 70.2515 140.159 68.5755 139.924 66.9357C139.69 65.296 138.922 63.7993 137.757 62.7125C136.593 61.6258 135.107 61.0196 133.566 61.0022H133.578ZM133.578 70.6766C133.425 70.6796 133.271 70.6661 133.12 70.6365C132.612 70.5448 132.144 70.2855 131.78 69.8946C131.416 69.5037 131.173 69.0005 131.087 68.4548C131.023 68.0674 131.039 67.6695 131.135 67.2897C131.23 66.9098 131.403 66.5575 131.64 66.2578C131.876 65.9581 132.172 65.7185 132.505 65.5562C132.838 65.3939 133.2 65.3129 133.566 65.319C133.695 65.3224 133.823 65.3358 133.95 65.359C134.608 65.4139 135.218 65.7477 135.647 66.287C136.076 66.8262 136.288 67.5268 136.238 68.2346C136.187 68.9424 135.876 69.5995 135.375 70.0612C134.874 70.5229 134.224 70.7514 133.566 70.6966L133.578 70.6766Z" fill="#915858"/>
<path d="M67.8078 4.20929L63.8032 9.61626C63.6868 9.78092 63.5192 9.89986 63.3281 9.95347L65.7603 4.26743L65.1494 2.24417C65.9186 1.99998 66.4503 1.65115 66.5974 1.23254C66.6662 1.28957 66.7271 1.35608 66.7783 1.43022L67.8417 3.10464C67.9468 3.27018 67.9999 3.46488 67.9938 3.66244C67.9877 3.86 67.9228 4.05089 67.8078 4.20929Z" fill="#915858"/>
<path d="M62.785 9.94188C62.6023 9.89663 62.4416 9.78515 62.3325 9.62792L58.1922 4.15118C58.0797 3.99731 58.0133 3.81301 58.0013 3.6209C57.9892 3.4288 58.032 3.23725 58.1244 3.06978L59.0067 1.5349C59.0958 1.38111 59.2251 1.2562 59.38 1.17444C59.5044 1.62793 60.0927 2.02328 60.9524 2.33723L60.3529 4.3256L62.785 9.94188Z" fill="#915858"/>
<path d="M66.5973 1.23259C66.4503 1.6512 65.9186 2.00003 65.1494 2.24421H65.0249C64.3643 2.42437 63.6835 2.51429 63 2.51166C62.3561 2.51155 61.7144 2.43349 61.0883 2.2791H60.9525C60.0928 2.02328 59.5046 1.62793 59.3801 1.11631C59.5082 1.04282 59.652 1.00288 59.7987 1.00003L65.9865 0.941895C66.2183 0.956752 66.4363 1.06049 66.5973 1.23259Z" fill="#915858"/>
<path d="M65.7601 4.26749L63.328 9.95354C63.1592 10.012 62.9764 10.012 62.8076 9.95354L60.3755 4.27911L60.975 2.29074H61.1108C61.7369 2.44514 62.3786 2.5232 63.0225 2.52331C63.706 2.52594 64.3868 2.43601 65.0474 2.25586H65.1719L65.7601 4.26749Z" fill="#915858"/>
</svg>
