<svg width="62" height="77" viewBox="0 0 62 77" fill="none" xmlns="http://www.w3.org/2000/svg">
<path d="M30.9996 0C28.0499 0 25.6548 2.06982 24.9246 4.8H18.1996H5.39961C2.75961 4.8 0.599609 6.96 0.599609 9.6V72C0.599609 74.64 2.75961 76.8 5.39961 76.8H56.5996C59.2396 76.8 61.3996 74.64 61.3996 72V9.6C61.3996 6.96 59.2396 4.8 56.5996 4.8H43.7996H37.0746C36.3444 2.06982 33.9494 0 30.9996 0ZM30.9996 3.2C32.7863 3.2 34.1996 4.61333 34.1996 6.4C34.1997 6.82433 34.3682 7.23128 34.6683 7.53132C34.9683 7.83137 35.3753 7.99996 35.7996 8H42.1996V12.8H19.7996V8H26.1996C26.6239 7.99996 27.0309 7.83137 27.3309 7.53132C27.631 7.23128 27.7996 6.82433 27.7996 6.4C27.7996 4.61333 29.2129 3.2 30.9996 3.2ZM45.2621 32.0031C45.6701 31.9711 46.0962 32.0964 46.4402 32.3844C47.1122 32.9444 47.1912 33.9526 46.6152 34.6406L29.0152 55.4406C28.7432 55.7606 28.3597 55.968 27.9277 56H27.7996C27.4156 56 27.047 55.8716 26.759 55.6156L15.559 46.0156C14.887 45.4396 14.808 44.4314 15.384 43.7594C15.96 43.0874 16.9682 43.0084 17.6402 43.5844L27.6246 52.1438L44.184 32.5594C44.464 32.2234 44.8541 32.0351 45.2621 32.0031Z" fill="#00A745"/>
</svg>
