<svg width="23" height="24" viewBox="0 0 23 24" fill="none" xmlns="http://www.w3.org/2000/svg">
<path fill-rule="evenodd" clip-rule="evenodd" d="M15.344 0.364956L15.5873 0L15.9387 0.256821L22.0348 4.48761L22.3998 4.74443L22.1565 5.09587L14.3167 16.423L14.0734 16.788L13.722 16.5312L12.0864 15.3822L11.9242 15.585C11.2534 16.4484 10.3039 17.011 9.26138 17.2476L5.86864 18.0045L6.11195 18.829L6.24711 19.2345L5.82809 19.3562L3.40857 20.0996L2.98954 20.2213L2.86789 19.8023L0.921457 13.2736L0.799805 12.8681L1.20531 12.7329L4.04386 11.8814L4.15199 12.2328L7.07164 7.73167V7.71815L7.08516 7.70463C7.34029 7.34812 7.67146 7.06765 8.09893 6.90714H8.11245L8.12596 6.89362L11.5052 5.89337L15.344 0.364956ZM21.1968 4.9607L15.8036 1.203L12.8434 5.50138C13.2235 5.26145 13.6611 5.11277 14.1275 5.06884C14.9419 4.9928 15.8357 5.21414 16.5875 5.74468C16.5892 5.74637 16.5918 5.74553 16.5943 5.74468C16.5968 5.74384 16.5994 5.74299 16.6011 5.74468C16.6027 5.74553 16.6019 5.74848 16.6011 5.75144C16.6002 5.7544 16.5994 5.75735 16.6011 5.7582C17.8902 6.65369 18.4985 8.16928 18.1014 9.4348L21.1968 4.9607ZM17.0066 4.09562C17.1502 3.88611 17.3783 3.76953 17.6148 3.77121C17.7568 3.7729 17.9088 3.82021 18.0338 3.90638C18.3684 4.13617 18.4529 4.58561 18.2231 4.92015C17.9933 5.25469 17.5303 5.33917 17.1958 5.10939C16.8613 4.8796 16.7768 4.43016 17.0066 4.09562ZM16.0874 6.44756C15.5011 6.03023 14.8337 5.86633 14.2356 5.9204C13.6375 5.97447 13.1103 6.2465 12.8028 6.69086C12.4007 7.26533 12.4311 8.07128 12.8434 8.81302C13.5243 8.36189 14.4434 8.45989 15.0331 9.0428C15.0348 9.04449 15.0373 9.04365 15.0399 9.0428C15.0424 9.04196 15.0449 9.04112 15.0466 9.0428C15.4335 9.40607 15.6093 9.89944 15.5873 10.3945C16.231 10.3641 16.7497 10.1039 17.0606 9.62403H17.0741C17.6909 8.73361 17.3259 7.30419 16.1009 6.46108L16.0874 6.44756ZM8.66664 10.2864L10.7347 7.02879L8.40982 7.71815C8.40475 7.71984 8.40053 7.72237 8.3963 7.72491C8.39208 7.72744 8.38785 7.72998 8.38278 7.73167C8.13441 7.83135 7.95869 7.97835 7.78804 8.21827L4.77377 12.8681L4.69267 12.9897L4.54398 13.0438L4.40882 13.0979L5.62534 17.18L9.07215 16.4095C9.93385 16.2135 10.7077 15.7387 11.2484 15.0443L14.533 10.8946C14.8388 10.4959 14.8067 9.98899 14.4519 9.66458H14.4384V9.65107C14.1207 9.33342 13.5935 9.30976 13.2489 9.597L13.1407 9.6781C13.0867 9.78117 12.9954 9.85889 12.8839 9.89437L10.6942 11.6651L10.4509 11.8678L10.194 11.7056L8.81532 10.8811L8.43685 10.6648L8.66664 10.2864ZM12.154 9.36721C11.7231 8.65082 11.5542 7.83473 11.7215 7.08285L9.63986 10.3675L10.3833 10.8135L12.154 9.36721ZM13.8571 15.585L17.2364 10.6919C16.7109 11.0991 16.0333 11.2799 15.3305 11.2596C15.2967 11.3153 15.2629 11.3694 15.2223 11.4218H15.2088V11.4353L12.6136 14.7064L13.8571 15.585ZM5.16576 18.6668L3.46263 12.9492L1.86764 13.4493L3.57077 19.1534L5.16576 18.6668ZM16.2472 15.4807C16.8607 15.2616 17.6554 15.1385 18.5332 15.1385C19.4111 15.1385 20.2057 15.2616 20.8193 15.4807C21.126 15.5902 21.3898 15.7219 21.6024 15.9014C21.7843 16.055 21.9343 16.2692 21.9758 16.5232V16.524C21.9881 16.5657 21.9941 16.609 21.9936 16.6524V18.3826V20.1128V21.8429C21.9936 22.1558 21.815 22.4144 21.6024 22.5939C21.3898 22.7734 21.1261 22.9051 20.8193 23.0147C20.2057 23.2338 19.4111 23.3568 18.5332 23.3568C17.6554 23.3568 16.8607 23.2338 16.2472 23.0147C15.9593 22.9118 15.7108 22.7882 15.5054 22.6252C15.3001 22.7882 15.0516 22.9118 14.7637 23.0147C14.1502 23.2338 13.3555 23.3568 12.4777 23.3568C11.5998 23.3568 10.8052 23.2338 10.1916 23.0147C9.88484 22.9051 9.62105 22.7734 9.40848 22.5939C9.19591 22.4144 9.01733 22.1558 9.01733 21.8429V18.3826C9.0171 18.3403 9.02308 18.2981 9.03508 18.2576C9.07556 18.0018 9.2256 17.786 9.40848 17.6316C9.62104 17.4521 9.88484 17.3204 10.1916 17.2108C10.8052 16.9917 11.5998 16.8687 12.4777 16.8687C13.3555 16.8687 14.1502 16.9917 14.7637 17.2108C14.8689 17.2484 14.9627 17.2925 15.0568 17.3367L15.0729 17.3443V16.6524C15.0727 16.6101 15.0786 16.568 15.0906 16.5274C15.1311 16.2716 15.2812 16.0558 15.464 15.9014C15.6766 15.7219 15.9404 15.5902 16.2472 15.4807ZM20.5287 16.2951C20.0464 16.1228 19.3276 16.0036 18.5332 16.0036C17.7389 16.0036 17.0201 16.1228 16.5378 16.2951C16.2966 16.3812 16.1163 16.4828 16.0225 16.562C15.9611 16.6139 15.9439 16.6427 15.9393 16.6524C15.9439 16.6622 15.9611 16.691 16.0225 16.7428C16.1163 16.8221 16.2966 16.9237 16.5378 17.0098C17.0201 17.182 17.7389 17.3012 18.5332 17.3012C19.3276 17.3012 20.0464 17.182 20.5287 17.0098C20.7698 16.9237 20.9501 16.8221 21.044 16.7428C21.1054 16.691 21.1226 16.6622 21.1272 16.6524C21.1226 16.6427 21.1054 16.6139 21.044 16.562C20.9501 16.4828 20.7698 16.3812 20.5287 16.2951ZM15.9541 17.6983L15.938 17.6907V18.3795C15.9397 18.3844 15.9521 18.4135 16.0225 18.473C16.1163 18.5522 16.2967 18.6538 16.5378 18.7399C17.0201 18.9122 17.7389 19.0314 18.5332 19.0314C19.3276 19.0314 20.0464 18.9122 20.5287 18.7399C20.7698 18.6538 20.9501 18.5522 21.044 18.473C21.1144 18.4135 21.1267 18.3844 21.1285 18.3795V17.6907L21.1124 17.6983C21.0183 17.7425 20.9244 17.7866 20.8193 17.8242C20.2057 18.0433 19.4111 18.1663 18.5332 18.1663C17.6554 18.1663 16.8607 18.0433 16.2472 17.8242C16.142 17.7866 16.0481 17.7425 15.9541 17.6983ZM14.4731 18.0252C13.9908 17.853 13.272 17.7338 12.4777 17.7338C11.6833 17.7338 10.9645 17.853 10.4822 18.0252C10.2411 18.1114 10.0608 18.2129 9.9669 18.2922C9.90551 18.344 9.88828 18.3729 9.88371 18.3826C9.88828 18.3923 9.90551 18.4212 9.9669 18.473C10.0608 18.5522 10.2411 18.6538 10.4822 18.7399C10.9645 18.9122 11.6833 19.0314 12.4777 19.0314C13.272 19.0314 13.9908 18.9122 14.4731 18.7399C14.7142 18.6538 14.8946 18.5522 14.9884 18.473C15.0498 18.4212 15.067 18.3923 15.0716 18.3826C15.067 18.3729 15.0498 18.344 14.9884 18.2922C14.8946 18.2129 14.7142 18.1114 14.4731 18.0252ZM9.89851 19.4284L9.88241 19.4209V20.1097C9.88417 20.1145 9.89648 20.1437 9.9669 20.2031C10.0608 20.2824 10.2411 20.384 10.4822 20.4701C10.9645 20.6423 11.6833 20.7616 12.4777 20.7616C13.272 20.7616 13.9908 20.6423 14.4731 20.4701C14.7142 20.384 14.8946 20.2824 14.9884 20.2031C15.0588 20.1437 15.0711 20.1145 15.0729 20.1097V19.4209L15.0568 19.4284C14.9627 19.4726 14.8689 19.5168 14.7637 19.5543C14.1502 19.7735 13.3555 19.8965 12.4777 19.8965C11.5998 19.8965 10.8052 19.7735 10.1916 19.5543C10.0864 19.5168 9.99257 19.4726 9.89851 19.4284ZM15.9542 19.4285L15.938 19.4209V20.1097C15.9397 20.1145 15.9521 20.1437 16.0225 20.2031C16.1163 20.2824 16.2967 20.384 16.5378 20.4701C17.0201 20.6423 17.7389 20.7616 18.5332 20.7616C19.3276 20.7616 20.0464 20.6423 20.5287 20.4701C20.7698 20.384 20.9501 20.2824 21.044 20.2031C21.1144 20.1437 21.1267 20.1145 21.1285 20.1097V19.4209L21.1123 19.4285C21.0182 19.4727 20.9244 19.5168 20.8193 19.5543C20.2057 19.7734 19.4111 19.8965 18.5332 19.8965C17.6554 19.8965 16.8607 19.7734 16.2472 19.5543C16.1421 19.5168 16.0482 19.4727 15.9542 19.4285ZM9.89858 21.1586L9.88241 21.151V21.8399C9.88417 21.8447 9.89648 21.8738 9.9669 21.9333C10.0608 22.0126 10.2411 22.1141 10.4822 22.2003C10.9645 22.3725 11.6833 22.4917 12.4777 22.4917C13.272 22.4917 13.9908 22.3725 14.4731 22.2003C14.7142 22.1141 14.8946 22.0126 14.9884 21.9333C15.0588 21.8739 15.0711 21.8447 15.0729 21.8399V21.151L15.0567 21.1586C14.9627 21.2028 14.8689 21.2469 14.7637 21.2845C14.1502 21.5036 13.3555 21.6266 12.4777 21.6266C11.5998 21.6266 10.8052 21.5036 10.1916 21.2845C10.0865 21.2469 9.99262 21.2028 9.89858 21.1586ZM15.9541 21.1586L15.938 21.151V21.8399C15.9397 21.8447 15.9521 21.8738 16.0225 21.9333C16.1163 22.0126 16.2967 22.1141 16.5378 22.2003C17.0201 22.3725 17.7389 22.4917 18.5332 22.4917C19.3276 22.4917 20.0464 22.3725 20.5287 22.2003C20.7698 22.1141 20.9501 22.0126 21.044 21.9333C21.1144 21.8739 21.1267 21.8447 21.1285 21.8399V21.151L21.1123 21.1586C21.0183 21.2028 20.9244 21.2469 20.8193 21.2845C20.2057 21.5036 19.4111 21.6266 18.5332 21.6266C17.6554 21.6266 16.8607 21.5036 16.2472 21.2845C16.142 21.2469 16.0482 21.2028 15.9541 21.1586Z" fill="#C49664"/>
</svg>
