<svg width="26" height="26" viewBox="0 0 26 26" fill="none" xmlns="http://www.w3.org/2000/svg">
<path d="M23.7999 25.6H15.3999C14.4075 25.6 13.5999 24.7924 13.5999 23.8V15.4C13.5999 14.4076 14.4075 13.6 15.3999 13.6H23.7999C24.7923 13.6 25.5999 14.4076 25.5999 15.4V23.8C25.5999 24.7924 24.7923 25.6 23.7999 25.6ZM23.7999 12.4H15.3999C14.4075 12.4 13.5999 11.5924 13.5999 10.6V2.20002C13.5999 1.20762 14.4075 0.400024 15.3999 0.400024H23.7999C24.7923 0.400024 25.5999 1.20762 25.5999 2.20002V10.6C25.5999 11.5924 24.7923 12.4 23.7999 12.4ZM10.5999 25.6H2.1999C1.2075 25.6 0.399902 24.7924 0.399902 23.8V15.4C0.399902 14.4076 1.2075 13.6 2.1999 13.6H10.5999C11.5923 13.6 12.3999 14.4076 12.3999 15.4V23.8C12.3999 24.7924 11.5923 25.6 10.5999 25.6ZM10.5999 12.4H2.1999C1.2075 12.4 0.399902 11.5924 0.399902 10.6V2.20002C0.399902 1.20762 1.2075 0.400024 2.1999 0.400024H10.5999C11.5923 0.400024 12.3999 1.20762 12.3999 2.20002V10.6C12.3999 11.5924 11.5923 12.4 10.5999 12.4Z" fill="#C49664"/>
</svg>
