<svg width="26" height="26" viewBox="0 0 26 26" fill="none" xmlns="http://www.w3.org/2000/svg">
<path d="M14.2 15.4V23.8C14.2 24.463 14.737 25 15.4 25H23.8C24.463 25 25 24.463 25 23.8V15.4C25 14.737 24.463 14.2 23.8 14.2H15.4C14.737 14.2 14.2 14.737 14.2 15.4ZM25 10.6V2.2C25 1.537 24.463 1 23.8 1H15.4C14.737 1 14.2 1.537 14.2 2.2V10.6C14.2 11.263 14.737 11.8 15.4 11.8H23.8C24.463 11.8 25 11.263 25 10.6ZM1 15.4V23.8C1 24.463 1.537 25 2.2 25H10.6C11.263 25 11.8 24.463 11.8 23.8V15.4C11.8 14.737 11.263 14.2 10.6 14.2H2.2C1.537 14.2 1 14.737 1 15.4ZM11.8 10.6V2.2C11.8 1.537 11.263 1 10.6 1H2.2C1.537 1 1 1.537 1 2.2V10.6C1 11.263 1.537 11.8 2.2 11.8H10.6C11.263 11.8 11.8 11.263 11.8 10.6Z" stroke="#999999" stroke-width="1.25"/>
</svg>
