<svg width="26" height="26" viewBox="0 0 26 26" fill="none" xmlns="http://www.w3.org/2000/svg">
<circle cx="13" cy="13" r="13" fill="#915858"/>
<path fill-rule="evenodd" clip-rule="evenodd" d="M7 10.6667C7 10.1185 7.45182 9.66667 8 9.66667C8.54818 9.66667 9 10.1185 9 10.6667C9 11.2148 8.54818 11.6667 8 11.6667C7.45182 11.6667 7 11.2148 7 10.6667ZM8.33333 10.6667C8.33333 10.4818 8.1849 10.3333 8 10.3333C7.8151 10.3333 7.66667 10.4818 7.66667 10.6667C7.66667 10.8516 7.8151 11 8 11C8.1849 11 8.33333 10.8516 8.33333 10.6667Z" fill="white"/>
<path fill-rule="evenodd" clip-rule="evenodd" d="M9.33333 14C9.33333 11.9792 10.9792 10.3333 13 10.3333C15.0208 10.3333 16.6667 11.9792 16.6667 14C16.6667 16.0208 15.0208 17.6667 13 17.6667C10.9792 17.6667 9.33333 16.0208 9.33333 14ZM16 14C16 12.3398 14.6602 11 13 11C11.3398 11 10 12.3398 10 14C10 15.6602 11.3398 17 13 17C14.6602 17 16 15.6602 16 14Z" fill="white"/>
<path fill-rule="evenodd" clip-rule="evenodd" d="M10.1875 7.47917C10.3685 7.20833 10.6706 7 11.0312 7H14.9375C15.2982 7 15.6003 7.20833 15.7812 7.47917V7.48958L16.3125 8.33333H19.3333C20.2487 8.33333 21 9.08464 21 10V18C21 18.9154 20.2487 19.6667 19.3333 19.6667H6.66667C5.7513 19.6667 5 18.9154 5 18V10C5 9.08464 5.7513 8.33333 6.66667 8.33333H9.65625L10.1875 7.48958V7.47917ZM14.9375 7.66667H11.0312C10.9297 7.66667 10.8333 7.72656 10.75 7.84375L10.7396 7.85417L10.1146 8.84375C10.0534 8.9401 9.94792 9 9.83333 9H6.66667C6.11458 9 5.66667 9.44792 5.66667 10V18C5.66667 18.5521 6.11458 19 6.66667 19H19.3333C19.8854 19 20.3333 18.5521 20.3333 18V10C20.3333 9.44792 19.8854 9 19.3333 9H16.1354C16.0208 9 15.9154 8.9401 15.8542 8.84375L15.2188 7.85417C15.1328 7.72526 15.0443 7.66667 14.9375 7.66667Z" fill="white"/>
</svg>
