<svg width="17" height="18" viewBox="0 0 17 18" fill="none" xmlns="http://www.w3.org/2000/svg">
<path d="M2.13664 3.40345C-0.937993 6.81818 -0.661299 12.0978 2.75343 15.1724C6.16816 18.247 11.4478 17.9704 14.5224 14.5556C17.597 11.1409 17.3203 5.8613 13.9056 2.78667C10.4909 -0.287967 5.21128 -0.0112772 2.13664 3.40345ZM3.06557 4.23987C5.68818 1.32717 10.1565 1.09299 13.0692 3.7156C15.9819 6.3382 16.2161 10.8065 13.5935 13.7192C10.9709 16.6319 6.50254 16.8661 3.58984 14.2435C0.677145 11.6209 0.442969 7.15256 3.06557 4.23987ZM5.21989 6.19276C5.111 6.31757 5.05609 6.4805 5.06724 6.64577C5.07838 6.81103 5.15467 6.96511 5.27934 7.07417L7.44684 9.0258L5.49521 11.1933C5.43893 11.2541 5.39528 11.3254 5.3668 11.4032C5.33833 11.481 5.32559 11.5636 5.32934 11.6464C5.33309 11.7291 5.35325 11.8103 5.38864 11.8852C5.42404 11.9601 5.47396 12.0272 5.53552 12.0826C5.59707 12.138 5.66902 12.1807 5.7472 12.208C5.82537 12.2354 5.90821 12.247 5.99089 12.242C6.07357 12.2371 6.15445 12.2158 6.22883 12.1794C6.30321 12.1429 6.3696 12.092 6.42414 12.0297L8.37578 9.86221L10.5433 11.8138C10.604 11.8701 10.6754 11.9138 10.7532 11.9423C10.8309 11.9707 10.9136 11.9835 10.9964 11.9797C11.0791 11.976 11.1603 11.9558 11.2352 11.9204C11.31 11.885 11.3771 11.8351 11.4326 11.7735C11.488 11.712 11.5306 11.64 11.558 11.5619C11.5854 11.4837 11.5969 11.4008 11.592 11.3182C11.5871 11.2355 11.5658 11.1546 11.5293 11.0802C11.4929 11.0059 11.442 10.9395 11.3797 10.8849L9.21219 8.93328L11.1638 6.76578C11.2201 6.70501 11.2638 6.63367 11.2922 6.55589C11.3207 6.47811 11.3334 6.39545 11.3297 6.3127C11.3259 6.22996 11.3058 6.14879 11.2704 6.0739C11.235 5.99902 11.1851 5.93191 11.1235 5.87649C11.062 5.82107 10.99 5.77843 10.9118 5.75106C10.8337 5.72369 10.7508 5.71212 10.6681 5.71704C10.5855 5.72196 10.5046 5.74327 10.4302 5.77971C10.3558 5.81616 10.2894 5.86703 10.2349 5.92936L8.28326 8.09687L6.11575 6.14524C6.05439 6.08837 5.98223 6.0444 5.90357 6.01594C5.8249 5.98747 5.74131 5.97509 5.65777 5.97952C5.57423 5.98395 5.49242 6.00511 5.41721 6.04174C5.34199 6.07837 5.27489 6.12972 5.21989 6.19276Z" fill="#999999"/>
</svg>
