<svg width="13" height="13" viewBox="0 0 13 13" fill="none" xmlns="http://www.w3.org/2000/svg">
<path d="M6.42031 0C2.89656 0 0 2.47942 0 5.58031C0 7.37996 0.994461 8.96456 2.50031 9.97992C2.49796 10.0403 2.50258 10.1389 2.42375 10.4311C2.3261 10.7931 2.1288 11.3012 1.72758 11.8705C1.70018 11.9094 1.68397 11.955 1.68071 12.0025C1.67745 12.05 1.68726 12.0974 1.70908 12.1397C1.73089 12.182 1.76388 12.2175 1.80446 12.2423C1.84503 12.2672 1.89164 12.2804 1.93922 12.2806C3.66885 12.2882 4.66999 11.1537 4.82562 10.9709C5.33768 11.0849 5.86827 11.1606 6.42031 11.1606C9.94379 11.1606 12.8406 8.68123 12.8406 5.58031C12.8406 2.4794 9.94379 0 6.42031 0ZM6.42031 0.520625C9.70083 0.520625 12.32 2.80515 12.32 5.58031C12.32 8.35548 9.70083 10.64 6.42031 10.64C5.85976 10.64 5.31808 10.5731 4.80484 10.448C4.75676 10.4363 4.70632 10.4385 4.65944 10.4544C4.61256 10.4702 4.57118 10.4992 4.54016 10.5377C4.54016 10.5377 3.73088 11.4561 2.4407 11.673C2.67395 11.2545 2.84616 10.8639 2.92633 10.5667C3.03805 10.1526 3.03953 9.87164 3.03953 9.87164C3.03954 9.82778 3.02846 9.78463 3.00734 9.7462C2.98621 9.70776 2.95571 9.67529 2.91867 9.6518C1.45513 8.72404 0.520625 7.24443 0.520625 5.58031C0.520625 2.80513 3.13951 0.520625 6.42031 0.520625ZM3.34031 3.62031C3.30321 3.61979 3.26637 3.62664 3.23194 3.64048C3.19751 3.65431 3.16617 3.67486 3.13975 3.70091C3.11332 3.72696 3.09234 3.758 3.07802 3.79224C3.0637 3.82647 3.05632 3.86321 3.05632 3.90031C3.05632 3.93742 3.0637 3.97416 3.07802 4.00839C3.09234 4.04262 3.11332 4.07367 3.13975 4.09972C3.16617 4.12577 3.19751 4.14631 3.23194 4.16015C3.26637 4.17398 3.30321 4.18084 3.34031 4.18031H9.50031C9.53741 4.18084 9.57425 4.17398 9.60868 4.16015C9.64311 4.14631 9.67445 4.12577 9.70088 4.09972C9.7273 4.07367 9.74828 4.04262 9.7626 4.00839C9.77692 3.97416 9.7843 3.93742 9.7843 3.90031C9.7843 3.86321 9.77692 3.82647 9.7626 3.79224C9.74828 3.758 9.7273 3.72696 9.70088 3.70091C9.67445 3.67486 9.64311 3.65431 9.60868 3.64048C9.57425 3.62664 9.53741 3.61979 9.50031 3.62031H3.34031ZM2.22031 5.30031C2.18321 5.29979 2.14637 5.30664 2.11194 5.32048C2.07751 5.33431 2.04617 5.35486 2.01975 5.38091C1.99332 5.40696 1.97234 5.438 1.95802 5.47224C1.9437 5.50647 1.93632 5.54321 1.93632 5.58031C1.93632 5.61742 1.9437 5.65416 1.95802 5.68839C1.97234 5.72262 1.99332 5.75367 2.01975 5.77972C2.04617 5.80577 2.07751 5.82631 2.11194 5.84015C2.14637 5.85398 2.18321 5.86084 2.22031 5.86031H6.98031C7.01742 5.86084 7.05425 5.85398 7.08868 5.84015C7.12311 5.82631 7.15445 5.80577 7.18088 5.77972C7.2073 5.75367 7.22828 5.72262 7.2426 5.68839C7.25692 5.65416 7.2643 5.61742 7.2643 5.58031C7.2643 5.54321 7.25692 5.50647 7.2426 5.47224C7.22828 5.438 7.2073 5.40696 7.18088 5.38091C7.15445 5.35486 7.12311 5.33431 7.08868 5.32048C7.05425 5.30664 7.01742 5.29979 6.98031 5.30031H2.22031ZM8.66031 5.30031C8.62321 5.29979 8.58637 5.30664 8.55194 5.32048C8.51751 5.33431 8.48617 5.35486 8.45975 5.38091C8.43332 5.40696 8.41234 5.438 8.39802 5.47224C8.3837 5.50647 8.37632 5.54321 8.37632 5.58031C8.37632 5.61742 8.3837 5.65416 8.39802 5.68839C8.41234 5.72262 8.43332 5.75367 8.45975 5.77972C8.48617 5.80577 8.51751 5.82631 8.55194 5.84015C8.58637 5.85398 8.62321 5.86084 8.66031 5.86031H10.6203C10.6574 5.86084 10.6943 5.85398 10.7287 5.84015C10.7631 5.82631 10.7945 5.80577 10.8209 5.77972C10.8473 5.75367 10.8683 5.72262 10.8826 5.68839C10.8969 5.65416 10.9043 5.61742 10.9043 5.58031C10.9043 5.54321 10.8969 5.50647 10.8826 5.47224C10.8683 5.438 10.8473 5.40696 10.8209 5.38091C10.7945 5.35486 10.7631 5.33431 10.7287 5.32048C10.6943 5.30664 10.6574 5.29979 10.6203 5.30031H8.66031ZM3.34031 6.98031C3.30321 6.97979 3.26637 6.98664 3.23194 7.00048C3.19751 7.01432 3.16617 7.03486 3.13975 7.06091C3.11332 7.08696 3.09234 7.11801 3.07802 7.15224C3.0637 7.18647 3.05632 7.22321 3.05632 7.26031C3.05632 7.29742 3.0637 7.33416 3.07802 7.36839C3.09234 7.40262 3.11332 7.43367 3.13975 7.45972C3.16617 7.48577 3.19751 7.50631 3.23194 7.52015C3.26637 7.53398 3.30321 7.54084 3.34031 7.54031H9.50031C9.53741 7.54084 9.57425 7.53398 9.60868 7.52015C9.64311 7.50631 9.67445 7.48577 9.70088 7.45972C9.7273 7.43367 9.74828 7.40262 9.7626 7.36839C9.77692 7.33416 9.7843 7.29742 9.7843 7.26031C9.7843 7.22321 9.77692 7.18647 9.7626 7.15224C9.74828 7.11801 9.7273 7.08696 9.70088 7.06091C9.67445 7.03486 9.64311 7.01432 9.60868 7.00048C9.57425 6.98664 9.53741 6.97979 9.50031 6.98031H3.34031Z" fill="#272727"/>
</svg>
