<svg width="360" height="121" viewBox="0 0 360 121" fill="none" xmlns="http://www.w3.org/2000/svg">
<path fill-rule="evenodd" clip-rule="evenodd" d="M178.213 0C177.754 0 177.296 0.249366 177.076 0.745712L173.438 8.93362L164.316 9.78374C163.213 9.88555 162.78 11.2757 163.627 11.996L170.347 17.6982L168.432 26.4678C168.197 27.5419 169.353 28.3825 170.293 27.82L178.218 23.0773L186.28 27.7753C187.243 28.3352 188.406 27.4452 188.116 26.3634L185.807 17.7032L192.721 12.006C193.586 11.2933 193.16 9.88312 192.047 9.77876L182.994 8.93362L179.356 0.745712C179.135 0.249366 178.673 0 178.213 0ZM179.527 31.0447C170.293 31.0447 166.469 36.9672 166.469 44.1027C166.469 46.5054 167.619 48.9201 167.619 48.9201C167.158 49.1871 166.391 50.0355 166.582 51.5329C166.939 54.3244 168.151 55.0284 168.923 55.0864C169.216 57.6922 172.02 61.0288 172.998 61.5134V65.407C172.18 67.8587 169.215 69.2499 165.83 70.838C160.201 73.4791 153.411 76.6647 153.411 86.1786H205.643C205.643 76.6647 198.853 73.4791 193.223 70.838C189.838 69.2499 186.873 67.8587 186.056 65.407V61.5134C187.037 61.0288 189.838 57.6922 190.131 55.0864C190.903 55.0284 192.114 54.3244 192.471 51.5329C192.663 50.0326 191.896 49.1871 191.434 48.9201C191.434 48.9201 192.585 46.7404 192.585 44.1027C192.585 38.8186 190.51 34.3092 186.056 34.3092C186.056 34.3092 184.509 31.0447 179.527 31.0447ZM201.29 36.8426C199.804 36.8426 198.54 37.1113 197.379 37.4944C198.015 39.4647 198.388 41.6623 198.388 44.1027C198.388 45.6465 198.146 47.0618 197.839 48.2457C198.259 49.4905 198.404 50.8595 198.224 52.264C197.815 55.4588 196.574 57.6303 195.016 58.997C194.563 60.0939 193.944 61.1331 193.276 62.1255C194.1 63.8172 195.307 65.3233 195.849 65.628V65.662C201.76 68.4332 211.446 73.0915 211.446 86.1786H223.053C223.053 77.2351 217.447 74.6494 212.768 72.4919C209.921 71.1787 207.417 70.0241 206.731 67.691V65.6224C207.546 65.1639 209.882 62.0131 210.126 59.5524C210.767 59.4973 211.779 58.835 212.075 56.1972C212.235 54.7812 211.597 53.9843 211.214 53.7319C211.214 53.7319 212.172 51.6677 212.172 49.1808C212.172 44.1898 210.442 39.9314 206.731 39.9314C206.731 39.9314 205.443 36.8426 201.29 36.8426ZM157.763 36.8483C153.611 36.8483 152.323 39.9314 152.323 39.9314C148.611 39.9314 146.882 44.1954 146.882 49.1865C146.882 51.6762 147.839 53.7319 147.839 53.7319C147.454 53.9814 146.818 54.7812 146.978 56.1972C147.274 58.835 148.286 59.503 148.928 59.5581C149.171 62.0188 151.507 65.1696 152.323 65.628V67.691C151.636 70.0226 149.134 71.177 146.287 72.49C141.608 74.6478 136 77.2341 136 86.1786H147.607C147.607 73.0915 157.293 68.4361 163.204 65.662V65.6224C163.747 65.3177 164.953 63.8201 165.777 62.1255C165.11 61.1331 164.49 60.0882 164.037 58.9913C162.479 57.6275 161.236 55.4559 160.829 52.264C160.647 50.8421 160.797 49.4511 161.226 48.1947C160.913 47.002 160.665 45.5855 160.665 44.1027C160.665 41.7029 161.005 39.4969 161.623 37.483C160.477 37.1087 159.229 36.8483 157.763 36.8483ZM223.053 86.1786V87H360V121H223L136 121L0 121V87H136V86.1786H223.053ZM187.636 99.1073C188.108 99.58 188.108 100.344 187.636 100.817L178.495 109.958C178.268 110.185 177.961 110.312 177.64 110.312C177.32 110.312 177.012 110.185 176.785 109.958L172.61 105.783C172.138 105.31 172.138 104.546 172.61 104.073C173.083 103.6 173.847 103.6 174.32 104.073L177.64 107.393L185.926 99.1073C186.399 98.6345 187.163 98.6345 187.636 99.1073ZM179.526 89.0804C171.514 89.0804 165.017 95.5768 165.017 103.589C165.017 111.602 171.514 118.098 179.526 118.098C187.539 118.098 194.035 111.602 194.035 103.589C194.035 95.5768 187.539 89.0804 179.526 89.0804Z" fill="#00A745"/>
</svg>
