<svg width="48" height="46" viewBox="0 0 48 46" fill="none" xmlns="http://www.w3.org/2000/svg">
<path d="M19.877 0C16.193 0.083 13.499 1.21061 11.873 3.34961C9.94705 5.88261 9.58687 9.76548 10.7969 14.8965C10.3839 15.4275 10.0124 16.2755 10.1094 17.4355C10.4044 19.5995 11.2265 20.4876 11.8965 20.8516C12.2145 22.5706 13.116 24.5251 14 25.4551V29.0098C13.354 30.4678 11.1675 31.3673 8.85547 32.3203C4.91047 33.9433 0 35.966 0 42V43H30.2832L29.8613 44.6113C29.7613 45.0113 29.9617 45.5109 30.2617 45.7109C30.4617 45.8109 30.6613 45.9102 30.8613 45.9102C31.0623 45.9102 31.2639 45.8109 31.4629 45.7109L37.0625 42.1113L42.6621 45.8105C42.9621 46.1105 43.4617 46.0105 43.7617 45.8105C44.1617 45.5105 44.2621 45.1109 44.1621 44.7109L42.4629 38.2109L47.6621 34.0117C47.9621 33.7117 48.0629 33.3102 47.9629 32.9102C47.8629 32.5102 47.4625 32.2109 47.0625 32.2109L40.3613 31.8105L37.9629 25.5117C37.8629 25.2117 37.4625 24.9102 37.0625 24.9102C36.6625 24.9102 36.2625 25.2102 36.0625 25.4102L33.6621 31.7109L29.6289 31.9512C27.9518 31.0487 26.8848 30.1133 26.8848 30.1133C26.8848 30.1133 26.194 29.4061 26 28.9961V25.4473C26.845 24.5313 27.691 22.6209 28.002 20.8789C28.714 20.5289 29.5929 19.6368 29.7969 17.3828C29.8909 16.2568 29.5803 15.4305 29.1543 14.8965C30.0033 12.1685 30.7482 7.49444 28.9512 4.52344C28.0982 3.11444 26.798 2.22877 25.082 1.88477C24.116 0.666766 22.3009 0 19.8789 0H19.877ZM19.9004 2C21.7914 2 23.1537 2.47569 23.6367 3.30469L23.8809 3.72266L24.3613 3.78906C25.6933 3.97706 26.6332 4.55559 27.2402 5.55859C28.6892 7.95359 27.9266 12.4353 27.0586 14.8633L26.7422 15.6895L27.5352 16.0859C27.6242 16.1489 27.8647 16.4949 27.8047 17.2109C27.6707 18.6889 27.2006 19.0836 27.0996 19.1016H26.1914L26.1055 20.0059C25.9245 21.9019 24.8649 23.8608 24.5039 24.1328L24 24.4199V29.1992C23.982 29.5732 22.535 30.6992 20 30.6992C17.511 30.6992 16 29.6572 16 29.1992V25L16.0156 24.4297L15.5117 24.1406C15.1467 23.8776 13.9769 21.8959 13.7969 20.0059L13.7832 19.1094H12.873C12.731 19.0544 12.2847 18.5798 12.0977 17.2168C12.0277 16.3788 12.4531 16.0312 12.4531 16.0312L13.043 15.6387L12.8691 14.9531C11.6581 10.1691 11.8578 6.67259 13.4648 4.55859C14.7048 2.93059 16.8774 2.068 19.9004 2ZM37.0625 28.7109L38.6621 33.2109C38.8621 33.5109 39.1625 33.8105 39.5625 33.8105L44.3633 34.1113L40.6621 37.1113C40.3621 37.3113 40.2633 37.7113 40.3633 38.1113L41.5625 42.7109L37.5625 40.1113C37.4625 40.0113 37.2625 39.9102 37.0625 39.9102C36.8615 39.9102 36.6629 40.0117 36.4629 40.0117L32.4629 42.6113L33.6621 38.0117C33.7621 37.7117 33.6633 37.2117 33.3633 37.0117L29.6621 34.0117L34.4629 33.8105C34.8629 33.7105 35.1633 33.5113 35.3633 33.1113L37.0625 28.7109Z" fill="#E2E2E2"/>
</svg>
