<svg width="23" height="23" viewBox="0 0 23 23" fill="none" xmlns="http://www.w3.org/2000/svg">
<path d="M11.5 0C11.0576 0 10.629 0.0293369 10.2129 0.0761719L10.4365 2.06348C10.7934 2.02331 11.1464 2 11.5 2C16.7586 2 21 6.24144 21 11.5C21 16.7586 16.7586 21 11.5 21C11.1483 21 10.7974 20.9768 10.4424 20.9375L10.2217 22.9258C10.6347 22.9715 11.0607 23 11.5 23C17.8394 23 23 17.8394 23 11.5C23 5.16056 17.8394 0 11.5 0ZM7.70312 0.65332C6.88407 0.940208 6.10784 1.31628 5.38477 1.77148L6.4502 3.46387C7.04712 3.08808 7.68731 2.77813 8.36426 2.54102L7.70312 0.65332ZM3.36719 3.36914C2.7536 3.98273 2.22443 4.66527 1.76953 5.3877L3.46191 6.45312C3.84701 5.84155 4.28583 5.27862 4.78125 4.7832L3.36719 3.36914ZM15.668 5.94531L10.3057 13.9893L6.66406 10.7529L5.33594 12.2471L10.6943 17.0107L17.332 7.05469L15.668 5.94531ZM0.652344 7.70703C0.373593 8.503 0.172667 9.34218 0.0751953 10.2178L2.0625 10.4385C2.14203 9.72407 2.30679 9.0342 2.54004 8.36816L0.652344 7.70703ZM2.06445 12.5674L0.0771484 12.79C0.175175 13.6657 0.376704 14.5044 0.655273 15.2998L2.54297 14.6387C2.30954 13.9721 2.14443 13.2817 2.06445 12.5674ZM3.46582 16.5518L1.77441 17.6191C2.23008 18.3419 2.75939 19.0226 3.37305 19.6357L4.78613 18.2207C4.28979 17.7248 3.85116 17.163 3.46582 16.5518ZM6.45605 19.5391L5.3916 21.2324C6.11472 21.6871 6.89127 22.0623 7.71094 22.3486L8.37109 20.4609C7.69376 20.2243 7.05294 19.9144 6.45605 19.5391Z" fill="#00A745"/>
</svg>
