<svg width="30" height="30" viewBox="0 0 30 30" fill="none" xmlns="http://www.w3.org/2000/svg">
<path d="M16.1438 3C10.8234 3 8.84766 7.11094 10.3688 10.5937C10.1789 10.7203 9.87422 11.1164 9.9375 11.8125C10.0641 13.0781 10.6336 13.3805 10.95 13.4437C11.0766 14.6461 11.8383 16.0477 12.2813 16.2375C12.2813 17.0602 12.2695 17.7492 12.2063 18.6375C11.2359 21.1852 5.03438 20.5945 4.2375 25.1625C4.20234 25.3617 4.40859 25.8 4.81875 25.8H25.2C25.8094 25.8 25.7977 25.35 25.7625 25.1437C24.9516 20.5945 18.7641 21.1828 17.7938 18.6375C17.7305 17.6859 17.7188 17.0602 17.7188 16.2375C18.1617 16.0477 18.8672 14.5828 18.9938 13.4437C19.3102 13.4437 19.8164 13.0617 20.0063 11.7937C20.0695 11.0977 19.8094 10.657 19.5563 10.5937C20.5688 9.32812 20.3859 4.14375 16.65 4.14375L16.1438 3ZM9.09375 6C5.08828 6.06797 3.33281 9.25547 4.5375 11.9812C4.40859 12.0445 4.15547 12.3797 4.21875 12.9562C4.34766 13.9828 4.72969 14.2312 4.9875 14.2312C5.11406 15.1922 5.68125 16.2703 6 16.4625C6 17.1023 6.00703 17.0836 5.94375 17.85C5.42344 19.4906 0 19.3687 0 23.4C0 23.4 0 24 0.6 24H3.31875C4.23516 21.4078 6.72656 20.4094 8.60625 19.6687C9.64219 19.2609 10.7039 18.8484 11.025 18.3375C11.0602 17.7797 11.0789 17.3062 11.0813 16.7812C10.5117 16.1297 10.0875 15.1148 9.88125 14.25C9.39375 13.8891 8.86641 13.1953 8.7375 11.9062C8.68125 11.2945 8.81016 10.7859 9.01875 10.3875C8.54297 8.90859 8.57344 7.36406 9.09375 6ZM22.8 6C22.2258 6 21.5484 6.04687 20.9062 6.15C21.3867 7.55859 21.4055 9.24141 20.9813 10.4437C21.1688 10.8562 21.2555 11.3578 21.2063 11.9062L21.1875 11.9437V11.9812C21.0094 13.1602 20.5758 13.8773 20.0625 14.2687C19.868 15.0797 19.4719 16.1039 18.9188 16.7625C18.9211 17.2781 18.9398 17.7422 18.975 18.3375C19.2961 18.8484 20.3602 19.2609 21.3938 19.6687C23.2711 20.407 25.7625 21.4078 26.6813 24H29.4C30 24 30 23.4187 30 23.4187C30.0023 18.7781 24.8648 19.8773 24.0938 17.7562C24.0281 17.0484 24.0188 17.1141 24.0188 16.4062C24.3398 16.2141 24.9305 15.1336 24.9938 14.2312C25.2516 14.2312 25.6336 13.9664 25.7625 12.9375C25.8258 12.4242 25.6359 12.0445 25.4438 11.9812C26.2172 10.9523 26.0906 6.9 23.1938 6.9L22.8 6Z" fill="#915858"/>
</svg>
