<svg width="30" height="30" viewBox="0 0 30 30" fill="none" xmlns="http://www.w3.org/2000/svg">
<g clip-path="url(#clip0_39_9584)">
<path d="M16.0875 3C13.4133 3 11.4586 4.05703 10.425 5.625C10.2117 5.94609 10.0523 6.28359 9.91875 6.6375L9.76875 6.3375C9.67031 6.13594 9.46875 6.00469 9.24375 6C7.16719 6 5.61562 6.84375 4.8 8.1C4.05469 9.24609 4.01015 10.6875 4.48125 12.0375C4.44375 12.0984 4.36406 12.1312 4.33125 12.2062C4.21875 12.457 4.15781 12.7734 4.2 13.1437C4.2 13.1508 4.2 13.1555 4.2 13.1625C4.26797 13.7086 4.40625 14.1 4.63125 14.4C4.72734 14.5266 4.87969 14.5266 5.00625 14.6062C5.09531 15.0516 5.22187 15.4945 5.4 15.8625C5.50547 16.0828 5.61797 16.2727 5.7375 16.4437C5.77734 16.5023 5.84531 16.5422 5.8875 16.5937C5.8875 17.0531 5.87109 17.4656 5.83125 18C5.72344 18.2742 5.46094 18.5156 4.96875 18.7687C4.46484 19.0266 3.78984 19.2656 3.09375 19.575C2.39765 19.8844 1.65469 20.2594 1.06875 20.8687C0.482811 21.4781 0.0679665 22.3312 -2.0726e-06 23.4187C-0.00937707 23.5852 0.0492167 23.7469 0.161717 23.8664C0.276561 23.9883 0.433591 24.0562 0.599998 24.0562H4.33125C4.23984 24.3984 4.16719 24.7664 4.14375 25.1625C4.13437 25.3289 4.19297 25.4906 4.30547 25.6102C4.42031 25.732 4.57734 25.8 4.74375 25.8H25.2562C25.4227 25.8 25.5797 25.732 25.6945 25.6102C25.807 25.4906 25.8656 25.3289 25.8562 25.1625C25.8305 24.743 25.7508 24.3609 25.65 24H29.4C29.5664 24 29.7234 23.932 29.8383 23.8102C29.9508 23.6906 30.0094 23.5289 30 23.3625C29.932 22.2773 29.5125 21.4219 28.9312 20.8125C28.35 20.2031 27.6328 19.8281 26.9437 19.5187C26.2547 19.2094 25.5867 18.9703 25.0875 18.7125C24.6117 18.4664 24.3586 18.2133 24.2437 17.9437C24.2039 17.4586 24.1875 17.0273 24.1875 16.5375C24.2273 16.4859 24.2977 16.4437 24.3375 16.3875C24.457 16.2187 24.5531 16.0242 24.6562 15.8062C24.8227 15.4523 24.9445 15.0305 25.0125 14.6062C25.1344 14.5289 25.2773 14.5219 25.3687 14.4C25.5937 14.1 25.732 13.7086 25.8 13.1625C25.8422 12.832 25.8047 12.5227 25.7062 12.2625C25.6781 12.1898 25.575 12.1453 25.5375 12.075C25.6687 11.768 25.8187 11.4773 25.8562 11.1C25.9102 10.5398 25.8656 9.91172 25.7062 9.3C25.5469 8.68828 25.2703 8.08125 24.7875 7.6125C24.3984 7.23281 23.85 7.01016 23.2312 6.91875L22.9875 6.35625C22.8914 6.14062 22.6781 6.00234 22.4437 6C21.6141 6 20.7305 6.08203 19.9125 6.3375C19.6992 5.86406 19.418 5.41406 19.0312 5.04375C18.518 4.54922 17.7961 4.25391 16.9687 4.1625L16.6312 3.35625C16.5352 3.14062 16.3219 3.00234 16.0875 3ZM15.6937 4.2375L16.0125 4.93125C16.1086 5.14687 16.3219 5.28516 16.5562 5.2875C17.3016 5.2875 17.8078 5.52422 18.2062 5.90625C18.6047 6.28828 18.8883 6.83203 19.05 7.44375C19.2117 8.05547 19.2562 8.72344 19.2 9.28125C19.1437 9.83906 18.9539 10.2891 18.8437 10.425C18.7289 10.5703 18.6891 10.7602 18.7312 10.9383C18.7758 11.1187 18.9 11.2687 19.0687 11.3437C19.0594 11.3391 19.0687 11.3391 19.0875 11.3812C19.1203 11.4586 19.1555 11.632 19.1437 11.85C19.1414 11.8687 19.1461 11.8687 19.1437 11.8875C19.0617 12.3844 18.9211 12.6797 18.825 12.8062C18.7758 12.8719 18.7406 12.893 18.7312 12.9C18.4477 12.9234 18.2227 13.1437 18.1875 13.425C18.1383 13.8727 17.9648 14.4562 17.7562 14.9062C17.6531 15.1312 17.5289 15.3211 17.4375 15.45C17.3672 15.5461 17.2969 15.6 17.3062 15.6C17.1047 15.7055 16.9828 15.9164 16.9875 16.1437C16.9875 16.9242 16.9828 17.55 17.0437 18.4687C17.0484 18.5273 17.0602 18.5836 17.0812 18.6375C17.4023 19.4812 18.1266 19.9898 18.9187 20.3812C19.7109 20.7727 20.6062 21.0656 21.45 21.4312C22.2937 21.7969 23.0789 22.2375 23.6437 22.8187C24.082 23.2687 24.3492 23.8641 24.5062 24.6H5.49375C5.65078 23.8641 5.91797 23.2687 6.35625 22.8187C6.92109 22.2375 7.70625 21.7969 8.55 21.4312C9.39375 21.0656 10.2891 20.7727 11.0812 20.3812C11.8734 19.9898 12.5977 19.4812 12.9187 18.6375C12.9398 18.5836 12.9516 18.5273 12.9562 18.4687C13.0172 17.6062 13.0125 16.9242 13.0125 16.1437C13.0172 15.9164 12.8953 15.7055 12.6937 15.6C12.6937 15.6 12.6891 15.593 12.675 15.5812C12.6703 15.5789 12.6633 15.5836 12.6562 15.5812C12.6281 15.5578 12.5883 15.5086 12.5437 15.45C12.4477 15.3234 12.3164 15.1266 12.2062 14.9062C11.9859 14.468 11.8055 13.9125 11.7562 13.4437C11.7281 13.1812 11.5289 12.968 11.2687 12.9187C11.2102 12.907 10.9031 12.9211 10.8 11.8875C10.7578 11.4258 10.9758 11.2898 10.95 11.3062C11.2008 11.1469 11.2969 10.8281 11.175 10.5562C10.7906 9.67266 10.6687 8.76094 10.8 7.9125C10.9359 7.76016 10.9875 7.54687 10.9312 7.35C11.0437 6.97734 11.2031 6.62812 11.4187 6.3C12.1664 5.16797 13.5727 4.33828 15.6937 4.2375ZM22.0687 7.25625L22.2562 7.66875C22.3453 7.89141 22.5609 8.03906 22.8 8.04375C23.3344 8.04375 23.6672 8.20547 23.9437 8.475C24.2203 8.74453 24.4242 9.14531 24.5437 9.6C24.6633 10.0547 24.6961 10.5492 24.6562 10.9687C24.6164 11.3883 24.4734 11.7305 24.4125 11.8125C24.307 11.9484 24.2672 12.1219 24.3 12.2906C24.3305 12.4594 24.4336 12.607 24.5812 12.6937C24.6023 12.7477 24.6187 12.8648 24.6 13.0125C24.5484 13.425 24.457 13.6266 24.4125 13.6875C24.1312 13.7227 23.9109 13.9477 23.8875 14.2312C23.8664 14.5406 23.7234 14.9719 23.5687 15.3C23.4914 15.4641 23.4117 15.5953 23.3437 15.6937C23.2922 15.7664 23.2453 15.8227 23.25 15.825C23.0883 15.9352 22.9898 16.118 22.9875 16.3125C22.9875 16.9734 22.9805 17.482 23.0437 18.1687C23.0508 18.2203 23.0625 18.2695 23.0812 18.3187C23.3367 19.0242 23.9133 19.4648 24.525 19.7812C25.1367 20.0977 25.8258 20.3227 26.4562 20.6062C27.0867 20.8898 27.6586 21.225 28.0687 21.6562C28.3547 21.9562 28.5445 22.3359 28.6687 22.8H25.2C25.1812 22.8 25.1625 22.8 25.1437 22.8C24.9562 22.493 24.7453 22.2211 24.5062 21.975C23.7656 21.2133 22.8422 20.7352 21.9375 20.3437C21.0328 19.9523 20.1422 19.65 19.4625 19.3125C18.8062 18.9867 18.4148 18.6398 18.2437 18.2437C18.1992 17.5242 18.1875 16.9852 18.1875 16.35C18.2508 16.2773 18.3539 16.2234 18.4125 16.1437C18.5648 15.9305 18.7148 15.6914 18.8437 15.4125C19.0687 14.925 19.2023 14.3578 19.2937 13.8C19.4578 13.7016 19.6547 13.7062 19.7812 13.5375C20.0437 13.1883 20.2242 12.7055 20.325 12.0375C20.332 12.0258 20.3391 12.0117 20.3437 12C20.3812 11.5875 20.3227 11.2195 20.1937 10.9125C20.1609 10.8352 20.0508 10.8164 20.0062 10.7437C20.2008 10.35 20.3297 9.90703 20.3812 9.39375C20.4422 8.79375 20.4211 8.13984 20.2875 7.48125C20.8266 7.33359 21.4594 7.27969 22.0687 7.25625ZM8.90625 7.275L9.13125 7.70625C9.21562 7.88672 9.38437 8.01328 9.58125 8.04375C9.50156 8.91562 9.6375 9.82031 9.95625 10.6875C9.7289 10.9992 9.54609 11.4164 9.6 12C9.70547 13.0477 10.1742 13.5445 10.6312 13.8187C10.7273 14.393 10.9008 14.9742 11.1375 15.45C11.2758 15.7266 11.4281 15.9727 11.5875 16.1812C11.6461 16.2586 11.7492 16.3008 11.8125 16.3687C11.8125 17.0039 11.8008 17.5734 11.7562 18.2437C11.5852 18.6398 11.1937 18.9867 10.5375 19.3125C9.85781 19.65 8.96719 19.9523 8.0625 20.3437C7.15781 20.7352 6.23437 21.2133 5.49375 21.975C5.24062 22.2352 5.01328 22.5258 4.81875 22.8562C4.81172 22.8562 4.80703 22.8562 4.8 22.8562H1.35C1.47656 22.3922 1.66172 22.0125 1.95 21.7125C2.36484 21.2812 2.94375 20.9461 3.58125 20.6625C4.21875 20.3789 4.89609 20.1539 5.5125 19.8375C6.1289 19.5211 6.71719 19.1016 6.975 18.3937C6.99609 18.3398 7.00781 18.2836 7.0125 18.225C7.07344 17.482 7.0875 16.9875 7.0875 16.3875C7.09219 16.1742 6.98672 15.975 6.80625 15.8625C6.7875 15.8414 6.74765 15.7992 6.7125 15.75C6.64219 15.6492 6.55078 15.5086 6.46875 15.3375C6.30469 14.9977 6.16172 14.557 6.1125 14.1937C6.07265 13.9266 5.85703 13.718 5.5875 13.6875C5.54297 13.6266 5.45156 13.425 5.4 13.0125C5.38125 12.8414 5.41406 12.743 5.4375 12.6937C5.68125 12.5273 5.76797 12.2109 5.64375 11.9437C5.14687 10.8187 5.23359 9.64687 5.8125 8.75625C6.34453 7.93594 7.37812 7.36875 8.90625 7.275Z" fill="#999999"/>
</g>
<defs>
<clipPath id="clip0_39_9584">
<rect width="30" height="30" fill="white"/>
</clipPath>
</defs>
</svg>
