<svg width="360" height="268" viewBox="0 0 360 268" fill="none" xmlns="http://www.w3.org/2000/svg">
<g clip-path="url(#clip0_43_9973)">
<path d="M360 235.519H0V235.698H360V235.519Z" fill="#EBEBEB"/>
<path d="M305.359 245.61H297.72V245.79H305.359V245.61Z" fill="#EBEBEB"/>
<path d="M292.435 245.696H261.367V245.876H292.435V245.696Z" fill="#EBEBEB"/>
<path d="M222.963 243.977H170.532V244.157H222.963V243.977Z" fill="#EBEBEB"/>
<path d="M140.371 247.106H123.732V247.286H140.371V247.106Z" fill="#EBEBEB"/>
<path d="M84.9241 244.071H62.0137V244.25H84.9241V244.071Z" fill="#EBEBEB"/>
<path d="M110.333 244.071H88.9199V244.25H110.333V244.071Z" fill="#EBEBEB"/>
<path d="M68.8752 240.92H47.0088V241.1H68.8752V240.92Z" fill="#EBEBEB"/>
<path d="M170.647 203.44H31.6151C29.3471 203.44 27.5039 201.599 27.5039 199.333V4.10692C27.5039 1.84128 29.3471 0 31.6151 0H170.647C172.915 0 174.758 1.84128 174.758 4.10692V199.333C174.758 201.599 172.915 203.44 170.647 203.44ZM31.6151 0.179813C29.4479 0.179813 27.6839 1.94198 27.6839 4.10692V199.333C27.6839 201.498 29.4479 203.26 31.6151 203.26H170.647C172.814 203.26 174.578 201.498 174.578 199.333V4.10692C174.578 1.94198 172.814 0.179813 170.647 0.179813H31.6151Z" fill="#EBEBEB"/>
<path d="M326.383 203.44H187.351C185.083 203.44 183.24 201.599 183.24 199.333V4.10692C183.24 1.84128 185.083 0 187.351 0H326.383C328.651 0 330.495 1.84128 330.495 4.10692V199.333C330.495 201.599 328.651 203.44 326.383 203.44ZM187.351 0.179813C185.184 0.179813 183.42 1.94198 183.42 4.10692V199.333C183.42 201.498 185.184 203.26 187.351 203.26H326.383C328.551 203.26 330.315 201.498 330.315 199.333V4.10692C330.315 1.94198 328.551 0.179813 326.383 0.179813H187.351Z" fill="#EBEBEB"/>
<path d="M309.946 14.759H48.6146C45.6243 14.759 43.2002 17.1806 43.2002 20.1678V216.164C43.2002 219.151 45.6243 221.572 48.6146 221.572H309.946C312.936 221.572 315.36 219.151 315.36 216.164V20.1678C315.36 17.1806 312.936 14.759 309.946 14.759Z" fill="#EBEBEB"/>
<path d="M311.386 14.759H50.0545C47.0642 14.759 44.6401 17.1806 44.6401 20.1678V216.164C44.6401 219.151 47.0642 221.572 50.0545 221.572H311.386C314.376 221.572 316.8 219.151 316.8 216.164V20.1678C316.8 17.1806 314.376 14.759 311.386 14.759Z" fill="#F3F8FF"/>
<path d="M44.6401 28.7412V216.164C44.6401 219.141 47.0737 221.572 50.0545 221.572H311.386C314.367 221.572 316.8 219.141 316.8 216.164V28.7412H44.6401Z" fill="#EBEBEB"/>
<path d="M315.799 35.9337H45.6411V214.38H315.799V35.9337Z" fill="white"/>
<path d="M56.5203 25.0227C54.7347 25.0227 53.2803 23.5698 53.2803 21.7861C53.2803 20.0023 54.7347 18.5494 56.5203 18.5494C58.3059 18.5494 59.7603 20.0023 59.7603 21.7861C59.7603 23.5698 58.3059 25.0227 56.5203 25.0227ZM56.5203 19.2687C55.1307 19.2687 54.0003 20.3979 54.0003 21.7861C54.0003 23.1742 55.1307 24.3034 56.5203 24.3034C57.9099 24.3034 59.0403 23.1742 59.0403 21.7861C59.0403 20.3979 57.9099 19.2687 56.5203 19.2687Z" fill="white"/>
<path d="M66.7224 25.0227C64.9368 25.0227 63.4824 23.5698 63.4824 21.7861C63.4824 20.0023 64.9368 18.5494 66.7224 18.5494C68.508 18.5494 69.9624 20.0023 69.9624 21.7861C69.9624 23.5698 68.508 25.0227 66.7224 25.0227ZM66.7224 19.2687C65.3328 19.2687 64.2024 20.3979 64.2024 21.7861C64.2024 23.1742 65.3328 24.3034 66.7224 24.3034C68.112 24.3034 69.2424 23.1742 69.2424 21.7861C69.2424 20.3979 68.112 19.2687 66.7224 19.2687Z" fill="white"/>
<path d="M76.9324 25.0227C75.1468 25.0227 73.6924 23.5698 73.6924 21.7861C73.6924 20.0023 75.1468 18.5494 76.9324 18.5494C78.718 18.5494 80.1724 20.0023 80.1724 21.7861C80.1724 23.5698 78.718 25.0227 76.9324 25.0227ZM76.9324 19.2687C75.5428 19.2687 74.4124 20.3979 74.4124 21.7861C74.4124 23.1742 75.5428 24.3034 76.9324 24.3034C78.322 24.3034 79.4524 23.1742 79.4524 21.7861C79.4524 20.3979 78.322 19.2687 76.9324 19.2687Z" fill="white"/>
<path d="M316.8 28.3816H44.6401V29.1008H316.8V28.3816Z" fill="#EBEBEB"/>
<path d="M193.385 53.6561H68.8828V180.417H193.385V53.6561Z" fill="white"/>
<path d="M300.082 53.6561H217.879V94.8908H300.082V53.6561Z" fill="#F2F2F2"/>
<path d="M233.28 78.4343C238.45 78.4343 242.64 74.248 242.64 69.084C242.64 63.92 238.45 59.7338 233.28 59.7338C228.111 59.7338 223.92 63.92 223.92 69.084C223.92 74.248 228.111 78.4343 233.28 78.4343Z" fill="white"/>
<path d="M291.838 59.7338H251.28V63.5674H291.838V59.7338Z" fill="white"/>
<path d="M277.603 66.7681H251.28V70.6017H277.603V66.7681Z" fill="white"/>
<path d="M300.082 110.319H217.879V214.38H300.082V110.319Z" fill="#F2F2F2"/>
<path d="M256.594 118.166H221.53V153.193H256.594V118.166Z" fill="white"/>
<path d="M256.867 157.638H221.803V192.666H256.867V157.638Z" fill="white"/>
<path d="M296.439 118.166H261.375V136.744H296.439V118.166Z" fill="white"/>
<path d="M296.439 141.196H261.375V176.224H296.439V141.196Z" fill="white"/>
<path d="M256.867 196.866H221.803V214.38H256.867V196.866Z" fill="white"/>
<path d="M296.439 180.424H261.375V214.38H296.439V180.424Z" fill="white"/>
<path d="M180 268C257.1 268 319.601 264.355 319.601 259.858C319.601 255.361 257.1 251.716 180 251.716C102.901 251.716 40.3994 255.361 40.3994 259.858C40.3994 264.355 102.901 268 180 268Z" fill="#DFE0DF"/>
<path d="M195.314 218.825H64.3465C60.7915 218.825 57.9097 221.704 57.9097 225.255V248.595C57.9097 252.146 60.7915 255.025 64.3465 255.025H195.314C198.869 255.025 201.751 252.146 201.751 248.595V225.255C201.751 221.704 198.869 218.825 195.314 218.825Z" fill="#999999"/>
<path opacity="0.8" d="M196.833 220.342H65.8655C62.3106 220.342 59.4287 223.221 59.4287 226.773V250.112C59.4287 253.663 62.3106 256.542 65.8655 256.542H196.833C200.388 256.542 203.27 253.663 203.27 250.112V226.773C203.27 223.221 200.388 220.342 196.833 220.342Z" fill="#EAEAEA"/>
<path opacity="0.8" d="M198.353 221.86H67.385C63.8301 221.86 60.9482 224.739 60.9482 228.29V251.637C60.9482 255.188 63.8301 258.067 67.385 258.067H198.353C201.908 258.067 204.79 255.188 204.79 251.637V228.29C204.79 224.739 201.908 221.86 198.353 221.86Z" fill="#EAEAEA"/>
<path d="M169.625 227.981H99.7058C98.9463 227.981 98.3306 228.596 98.3306 229.355V232.088C98.3306 232.846 98.9463 233.462 99.7058 233.462H169.625C170.384 233.462 171 232.846 171 232.088V229.355C171 228.596 170.384 227.981 169.625 227.981Z" fill="#999999"/>
<path d="M131.026 237.223H99.7058C98.9463 237.223 98.3306 237.838 98.3306 238.597V241.33C98.3306 242.089 98.9463 242.704 99.7058 242.704H131.026C131.785 242.704 132.401 242.089 132.401 241.33V238.597C132.401 237.838 131.785 237.223 131.026 237.223Z" fill="#999999"/>
<path d="M161.266 237.223H137.225C136.465 237.223 135.85 237.838 135.85 238.597V241.33C135.85 242.089 136.465 242.704 137.225 242.704H161.266C162.025 242.704 162.641 242.089 162.641 241.33V238.597C162.641 237.838 162.025 237.223 161.266 237.223Z" fill="#999999"/>
<path d="M183.6 246.466H99.0794C98.6658 246.466 98.3306 246.801 98.3306 247.214V247.782C98.3306 248.195 98.6658 248.53 99.0794 248.53H183.6C184.014 248.53 184.349 248.195 184.349 247.782V247.214C184.349 246.801 184.014 246.466 183.6 246.466Z" fill="#A0A0A0"/>
<path d="M89.0786 239.964C89.0786 241.805 88.6106 243.531 87.7898 245.034C85.9898 248.35 82.469 250.609 78.4226 250.609C74.3762 250.609 70.8482 248.35 69.0554 245.034C68.2346 243.531 67.7666 241.805 67.7666 239.964C67.7666 234.08 72.5402 229.319 78.4226 229.319C84.305 229.319 89.0786 234.087 89.0786 239.964Z" fill="white"/>
<path d="M87.7896 245.034C85.9896 248.35 82.4688 250.608 78.4224 250.608C74.376 250.608 70.848 248.35 69.0552 245.034C71.7408 243.243 74.9592 242.2 78.4224 242.2C81.8856 242.2 85.1112 243.243 87.7896 245.034Z" fill="#BFBFBF"/>
<path d="M78.4225 241.057C81.043 241.057 83.1673 238.935 83.1673 236.317C83.1673 233.699 81.043 231.577 78.4225 231.577C75.8021 231.577 73.6777 233.699 73.6777 236.317C73.6777 238.935 75.8021 241.057 78.4225 241.057Z" fill="#BFBFBF"/>
<path d="M195.314 176.936H64.3465C60.7915 176.936 57.9097 179.815 57.9097 183.366V206.705C57.9097 210.257 60.7915 213.136 64.3465 213.136H195.314C198.869 213.136 201.751 210.257 201.751 206.705V183.366C201.751 179.815 198.869 176.936 195.314 176.936Z" fill="#999999"/>
<path opacity="0.8" d="M196.833 178.453H65.8655C62.3106 178.453 59.4287 181.332 59.4287 184.883V208.23C59.4287 211.781 62.3106 214.66 65.8655 214.66H196.833C200.388 214.66 203.27 211.781 203.27 208.23V184.883C203.27 181.332 200.388 178.453 196.833 178.453Z" fill="#EAEAEA"/>
<path opacity="0.8" d="M198.353 179.971H67.385C63.8301 179.971 60.9482 182.85 60.9482 186.401V209.741C60.9482 213.292 63.8301 216.171 67.385 216.171H198.353C201.908 216.171 204.79 213.292 204.79 209.741V186.401C204.79 182.85 201.908 179.971 198.353 179.971Z" fill="#EAEAEA"/>
<path d="M120.543 186.092H99.7058C98.9463 186.092 98.3306 186.707 98.3306 187.466V190.199C98.3306 190.957 98.9463 191.572 99.7058 191.572H120.543C121.302 191.572 121.918 190.957 121.918 190.199V187.466C121.918 186.707 121.302 186.092 120.543 186.092Z" fill="#999999"/>
<path d="M142.445 186.092H126.353C125.593 186.092 124.978 186.707 124.978 187.466V190.199C124.978 190.957 125.593 191.572 126.353 191.572H142.445C143.204 191.572 143.82 190.957 143.82 190.199V187.466C143.82 186.707 143.204 186.092 142.445 186.092Z" fill="#999999"/>
<path d="M172.865 195.334H99.7058C98.9463 195.334 98.3306 195.949 98.3306 196.708V199.441C98.3306 200.2 98.9463 200.815 99.7058 200.815H172.865C173.624 200.815 174.24 200.2 174.24 199.441V196.708C174.24 195.949 173.624 195.334 172.865 195.334Z" fill="#999999"/>
<path d="M150.091 204.576H99.0794C98.6658 204.576 98.3306 204.911 98.3306 205.324V205.893C98.3306 206.306 98.6658 206.641 99.0794 206.641H150.091C150.505 206.641 150.84 206.306 150.84 205.893V205.324C150.84 204.911 150.505 204.576 150.091 204.576Z" fill="#A0A0A0"/>
<path d="M89.0786 198.074C89.0786 199.916 88.6106 201.642 87.7898 203.145C85.9898 206.461 82.469 208.719 78.4226 208.719C74.3762 208.719 70.8482 206.461 69.0554 203.145C68.2346 201.642 67.7666 199.916 67.7666 198.074C67.7666 192.191 72.5402 187.43 78.4226 187.43C84.305 187.43 89.0786 192.198 89.0786 198.074Z" fill="white"/>
<path d="M87.7896 203.145C85.9896 206.461 82.4688 208.719 78.4224 208.719C74.376 208.719 70.848 206.461 69.0552 203.145C71.7408 201.354 74.9592 200.311 78.4224 200.311C81.8856 200.311 85.1112 201.354 87.7896 203.145Z" fill="#BFBFBF"/>
<path d="M78.4225 199.168C81.043 199.168 83.1673 197.046 83.1673 194.428C83.1673 191.81 81.043 189.688 78.4225 189.688C75.8021 189.688 73.6777 191.81 73.6777 194.428C73.6777 197.046 75.8021 199.168 78.4225 199.168Z" fill="#BFBFBF"/>
<path d="M195.314 135.047H64.3465C60.7915 135.047 57.9097 137.925 57.9097 141.477V164.823C57.9097 168.375 60.7915 171.254 64.3465 171.254H195.314C198.869 171.254 201.751 168.375 201.751 164.823V141.477C201.751 137.925 198.869 135.047 195.314 135.047Z" fill="#999999"/>
<path opacity="0.8" d="M196.833 136.564H65.8655C62.3106 136.564 59.4287 139.443 59.4287 142.994V166.334C59.4287 169.885 62.3106 172.764 65.8655 172.764H196.833C200.388 172.764 203.27 169.885 203.27 166.334V142.994C203.27 139.443 200.388 136.564 196.833 136.564Z" fill="#EAEAEA"/>
<path opacity="0.8" d="M198.353 138.082H67.385C63.8301 138.082 60.9482 140.961 60.9482 144.512V167.859C60.9482 171.41 63.8301 174.289 67.385 174.289H198.353C201.908 174.289 204.79 171.41 204.79 167.859V144.512C204.79 140.961 201.908 138.082 198.353 138.082Z" fill="#EAEAEA"/>
<path d="M169.107 144.203H99.7058C98.9463 144.203 98.3306 144.818 98.3306 145.576V148.31C98.3306 149.068 98.9463 149.683 99.7058 149.683H169.107C169.866 149.683 170.482 149.068 170.482 148.31V145.576C170.482 144.818 169.866 144.203 169.107 144.203Z" fill="#999999"/>
<path d="M145.743 153.445H99.7058C98.9463 153.445 98.3306 154.06 98.3306 154.819V157.552C98.3306 158.311 98.9463 158.926 99.7058 158.926H145.743C146.502 158.926 147.118 158.311 147.118 157.552V154.819C147.118 154.06 146.502 153.445 145.743 153.445Z" fill="#999999"/>
<path d="M156.845 153.445H152.568C151.809 153.445 151.193 154.06 151.193 154.819V157.552C151.193 158.311 151.809 158.926 152.568 158.926H156.845C157.604 158.926 158.22 158.311 158.22 157.552V154.819C158.22 154.06 157.604 153.445 156.845 153.445Z" fill="#999999"/>
<path d="M136.21 162.687H99.0794C98.6658 162.687 98.3306 163.022 98.3306 163.435V164.004C98.3306 164.417 98.6658 164.752 99.0794 164.752H136.21C136.623 164.752 136.959 164.417 136.959 164.004V163.435C136.959 163.022 136.623 162.687 136.21 162.687Z" fill="#A0A0A0"/>
<path d="M184.212 162.687H141.638C141.225 162.687 140.89 163.022 140.89 163.435V164.004C140.89 164.417 141.225 164.752 141.638 164.752H184.212C184.626 164.752 184.961 164.417 184.961 164.004V163.435C184.961 163.022 184.626 162.687 184.212 162.687Z" fill="#A0A0A0"/>
<path d="M89.0786 156.185C89.0786 158.027 88.6106 159.753 87.7898 161.256C85.9898 164.572 82.469 166.83 78.4226 166.83C74.3762 166.83 70.8482 164.572 69.0554 161.256C68.2346 159.753 67.7666 158.027 67.7666 156.185C67.7666 150.302 72.5402 145.54 78.4226 145.54C84.305 145.54 89.0786 150.309 89.0786 156.185Z" fill="white"/>
<path d="M87.7896 161.256C85.9896 164.572 82.4688 166.83 78.4224 166.83C74.376 166.83 70.848 164.572 69.0552 161.256C71.7408 159.465 74.9592 158.422 78.4224 158.422C81.8856 158.422 85.1112 159.465 87.7896 161.256Z" fill="#BFBFBF"/>
<path d="M83.1673 152.539C83.1673 155.157 81.0433 157.279 78.4225 157.279C75.8017 157.279 73.6777 155.157 73.6777 152.539C73.6777 149.921 75.8017 147.799 78.4225 147.799C81.0433 147.799 83.1673 149.921 83.1673 152.539Z" fill="#BFBFBF"/>
<path d="M195.314 51.261H64.3465C60.7915 51.261 57.9097 54.1398 57.9097 57.6911V81.038C57.9097 84.5892 60.7915 87.4681 64.3465 87.4681H195.314C198.869 87.4681 201.751 84.5892 201.751 81.038V57.6911C201.751 54.1398 198.869 51.261 195.314 51.261Z" fill="#999999"/>
<path opacity="0.8" d="M196.833 52.7858H65.8655C62.3106 52.7858 59.4287 55.6646 59.4287 59.2159V82.5627C59.4287 86.114 62.3106 88.9929 65.8655 88.9929H196.833C200.388 88.9929 203.27 86.114 203.27 82.5627V59.2159C203.27 55.6646 200.388 52.7858 196.833 52.7858Z" fill="#EAEAEA"/>
<path opacity="0.8" d="M198.353 54.3035H67.385C63.8301 54.3035 60.9482 57.1823 60.9482 60.7336V84.0804C60.9482 87.6317 63.8301 90.5105 67.385 90.5105H198.353C201.908 90.5105 204.79 87.6317 204.79 84.0804V60.7336C204.79 57.1823 201.908 54.3035 198.353 54.3035Z" fill="#EAEAEA"/>
<path d="M163.383 60.4242H99.7058C98.9463 60.4242 98.3306 61.0392 98.3306 61.798V64.5311C98.3306 65.2898 98.9463 65.9049 99.7058 65.9049H163.383C164.142 65.9049 164.758 65.2898 164.758 64.5311V61.798C164.758 61.0392 164.142 60.4242 163.383 60.4242Z" fill="#999999"/>
<path d="M185.343 69.6666H99.7058C98.9463 69.6666 98.3306 70.2817 98.3306 71.0404V73.7735C98.3306 74.5323 98.9463 75.1473 99.7058 75.1473H185.343C186.102 75.1473 186.718 74.5323 186.718 73.7735V71.0404C186.718 70.2817 186.102 69.6666 185.343 69.6666Z" fill="#999999"/>
<path d="M122.451 78.9089H99.0794C98.6658 78.9089 98.3306 79.2438 98.3306 79.657V80.2252C98.3306 80.6383 98.6658 80.9732 99.0794 80.9732H122.451C122.864 80.9732 123.199 80.6383 123.199 80.2252V79.657C123.199 79.2438 122.864 78.9089 122.451 78.9089Z" fill="#A0A0A0"/>
<path d="M89.0786 72.407C89.0786 74.2483 88.6106 75.9745 87.7898 77.4777C85.9898 80.7935 82.469 83.0519 78.4226 83.0519C74.3762 83.0519 70.8482 80.7935 69.0554 77.4777C68.2346 75.9745 67.7666 74.2483 67.7666 72.407C67.7666 66.5235 72.5402 61.7621 78.4226 61.7621C84.305 61.7621 89.0786 66.5307 89.0786 72.407Z" fill="white"/>
<path d="M87.7896 77.4776C85.9896 80.7934 82.4688 83.0518 78.4224 83.0518C74.376 83.0518 70.848 80.7934 69.0552 77.4776C71.7408 75.6867 74.9592 74.6438 78.4224 74.6438C81.8856 74.6438 85.1112 75.6867 87.7896 77.4776Z" fill="#BFBFBF"/>
<path d="M78.4225 73.5002C81.043 73.5002 83.1673 71.3781 83.1673 68.7604C83.1673 66.1426 81.043 64.0205 78.4225 64.0205C75.8021 64.0205 73.6777 66.1426 73.6777 68.7604C73.6777 71.3781 75.8021 73.5002 78.4225 73.5002Z" fill="#BFBFBF"/>
<path d="M287.374 148.273L282.651 150.726L287.936 154.84C287.936 154.84 291.492 151.863 290.124 149.798L287.374 148.273Z" fill="#FF8B7B"/>
<path d="M279.951 155.732L284.465 158.868L287.943 154.84L282.651 150.726L279.951 155.732Z" fill="#FF8B7B"/>
<path d="M289.202 107.492C289.858 108.341 290.412 109.103 290.966 109.923C291.521 110.729 292.068 111.549 292.594 112.376C293.645 114.03 294.638 115.727 295.567 117.468C296.51 119.201 297.353 121.014 298.13 122.87L298.699 124.272L299.21 125.718C299.383 126.192 299.527 126.696 299.678 127.192L299.902 127.94L299.959 128.127L300.038 128.437C300.103 128.674 300.132 128.89 300.168 129.113C300.384 130.824 300.139 132.04 299.88 133.184C299.606 134.313 299.246 135.327 298.865 136.298C298.087 138.233 297.18 140.002 296.215 141.714C294.271 145.138 292.097 148.281 289.67 151.337L286.358 149.208C287.95 145.893 289.505 142.476 290.858 139.132C291.535 137.456 292.14 135.773 292.601 134.147C292.831 133.342 293.018 132.543 293.112 131.831C293.213 131.134 293.198 130.45 293.126 130.292C293.119 130.278 293.112 130.263 293.112 130.278C293.105 130.263 293.126 130.321 293.098 130.249L293.04 130.098L292.81 129.508C292.658 129.113 292.514 128.717 292.327 128.329L291.802 127.149L291.233 125.969C290.448 124.402 289.606 122.841 288.698 121.294C287.784 119.755 286.841 118.216 285.854 116.706C284.897 115.195 283.817 113.663 282.852 112.275L289.202 107.492Z" fill="#FF8B7B"/>
<path d="M299.038 118.525L287.18 126.833C287.18 126.833 286.474 125.279 285.459 123.013C284.645 121.208 283.63 118.957 282.622 116.684C282.212 115.763 281.808 114.843 281.412 113.944C278.669 107.701 281.873 103.205 287.504 104.04C292.464 104.78 299.038 118.525 299.038 118.525Z" fill="#272727"/>
<path d="M286.028 109.88C286.265 112.117 286.28 119.007 285.459 123.013C284.645 121.208 283.63 118.957 282.622 116.684L286.028 109.88Z" fill="#383838"/>
<path d="M303.768 166.449L177.207 132.817C173.787 131.911 171.728 128.365 172.642 124.948L178.647 102.393C179.554 98.9761 183.104 96.9191 186.524 97.8325L313.085 131.465C316.505 132.371 318.564 135.917 317.65 139.333L311.645 161.889C310.738 165.305 307.188 167.362 303.768 166.449Z" fill="#915858"/>
<path opacity="0.5" d="M304.841 168.305L178.28 134.673C174.86 133.766 172.8 130.22 173.715 126.804L179.72 104.248C180.627 100.832 184.176 98.7748 187.596 99.6882L314.158 133.32C317.578 134.227 319.637 137.773 318.723 141.189L312.718 163.745C311.811 167.161 308.261 169.218 304.841 168.305Z" fill="#F09191"/>
<path d="M305.921 170.16L179.36 136.528C175.94 135.622 173.88 132.076 174.795 128.66L180.8 106.104C181.707 102.687 185.256 100.63 188.676 101.544L315.238 135.176C318.658 136.082 320.717 139.628 319.803 143.045L313.798 165.6C312.891 169.017 309.341 171.074 305.921 170.16Z" fill="#D69292"/>
<path d="M298.801 137.158L218.332 115.769C217.598 115.574 216.845 116.01 216.65 116.743L215.946 119.384C215.751 120.118 216.188 120.87 216.922 121.065L297.39 142.454C298.124 142.649 298.877 142.213 299.072 141.48L299.776 138.838C299.971 138.105 299.535 137.353 298.801 137.158Z" fill="#DFE0DF"/>
<path d="M266.779 138.213L215.951 124.702C215.217 124.507 214.464 124.944 214.268 125.677L213.565 128.318C213.37 129.051 213.806 129.804 214.54 129.999L265.368 143.509C266.102 143.704 266.855 143.268 267.05 142.535L267.754 139.893C267.949 139.16 267.513 138.408 266.779 138.213Z" fill="#DFE0DF"/>
<path d="M287.129 153.189L212.964 133.476C212.565 133.37 212.155 133.607 212.048 134.006L211.902 134.556C211.796 134.955 212.033 135.365 212.433 135.471L286.597 155.184C286.997 155.29 287.407 155.053 287.513 154.653L287.66 154.104C287.766 153.705 287.528 153.295 287.129 153.189Z" fill="#DFE0DF"/>
<path d="M204.984 124.61C204.509 126.387 203.616 127.933 202.435 129.177C199.843 131.925 195.862 133.198 191.945 132.162C188.028 131.119 185.206 128.034 184.327 124.366C183.924 122.697 183.917 120.913 184.385 119.137C185.897 113.455 191.736 110.074 197.424 111.585C203.112 113.095 206.496 118.928 204.984 124.61Z" fill="white"/>
<path d="M202.436 129.177C199.844 131.925 195.862 133.198 191.945 132.162C188.028 131.119 185.206 128.034 184.328 124.366C187.38 123.323 190.764 123.143 194.112 124.028C197.46 124.919 200.304 126.754 202.436 129.177Z" fill="#915858"/>
<path d="M200.211 119.568C199.534 122.1 196.935 123.603 194.4 122.934C191.866 122.258 190.361 119.662 191.031 117.13C191.707 114.598 194.307 113.095 196.841 113.764C199.375 114.44 200.88 117.037 200.211 119.568Z" fill="#915858"/>
<path d="M280.037 88.5901C278.683 92.2583 276.833 99.0768 279.079 102.026C279.079 102.026 277.423 105.701 270.389 104.572C262.649 103.335 267.307 100.141 267.307 100.141C271.692 99.8104 272.088 96.6601 271.822 93.6033L280.044 88.5973L280.037 88.5901Z" fill="#FF8B7B"/>
<path d="M265.709 101.357C266.105 100.695 265.752 98.077 265.752 98.077C265.752 98.077 276.955 97.2499 280.843 98.9042C282.939 99.796 280.829 103.522 280.829 103.522L265.709 101.357Z" fill="#383838"/>
<path d="M267.099 82.1385C267.034 82.5556 266.753 82.8577 266.48 82.8146C266.206 82.7714 266.041 82.3974 266.105 81.9803C266.17 81.5631 266.451 81.261 266.725 81.3042C266.998 81.3473 267.164 81.7213 267.099 82.1385Z" fill="#915858"/>
<path d="M267.07 82.347C267.07 82.347 265.731 84.6055 264.5 85.5981C265.126 86.4036 266.436 86.2885 266.436 86.2885L267.07 82.347Z" fill="#FF5652"/>
<path d="M268.805 80.851C268.719 80.851 268.633 80.8007 268.589 80.7216C268.078 79.7506 267.185 79.6571 267.149 79.6499C267.013 79.6355 266.912 79.5132 266.926 79.3766C266.941 79.2399 267.056 79.1392 267.193 79.1536C267.243 79.1536 268.381 79.2759 269.029 80.4842C269.093 80.6065 269.05 80.7575 268.928 80.8223C268.892 80.8438 268.849 80.851 268.813 80.851H268.805Z" fill="#915858"/>
<path d="M234.425 247.624L229.227 246.926L229.471 234.713L234.67 235.411L234.425 247.624Z" fill="#FF8B7B"/>
<path d="M273.233 253.356H267.991L263.902 241.222H269.143L273.233 253.356Z" fill="#FF8B7B"/>
<path d="M267.286 252.752H273.68C273.896 252.752 274.083 252.903 274.126 253.112L275.163 257.772C275.271 258.254 274.889 258.715 274.393 258.707C272.333 258.671 270.836 258.549 268.244 258.549C266.653 258.549 263.362 258.715 261.159 258.715C258.956 258.715 258.668 256.542 259.568 256.341C263.607 255.456 265.133 254.241 266.429 253.076C266.66 252.867 266.969 252.752 267.279 252.752H267.286Z" fill="#282828"/>
<path d="M229.047 245.739L234.728 246.502C234.944 246.53 235.102 246.703 235.124 246.919L235.527 251.673C235.57 252.169 235.145 252.572 234.656 252.493C232.611 252.184 229.666 251.666 227.096 251.313C224.086 250.911 222.077 250.68 218.549 250.206C216.418 249.918 216.116 247.681 217.037 247.609C221.228 247.271 223.942 247.66 227.751 245.969C228.161 245.782 228.608 245.675 229.061 245.732L229.047 245.739Z" fill="#282828"/>
<path d="M229.471 234.713L229.342 241.007L234.547 241.711L234.67 235.418L229.471 234.713Z" fill="#EA7063"/>
<path d="M269.151 241.222H263.902L266.011 247.48H271.26L269.151 241.222Z" fill="#EA7063"/>
<path d="M259.2 100.659C259.2 100.659 250.942 115.512 252.821 145.504C261.202 146.634 276.552 148.705 280.628 149.259C281.398 145.023 281.528 123.855 288.36 104.32C288.36 104.32 283.724 102.723 279.209 101.889C275.681 101.242 270.547 100.429 267.387 100.292C263.218 100.112 259.193 100.652 259.193 100.652L259.2 100.659Z" fill="#272727"/>
<path d="M262.397 108.233C261.238 110.225 260.021 112.153 258.826 114.109L255.103 119.892C253.865 121.82 252.569 123.718 251.266 125.617C250.618 126.567 249.948 127.509 249.279 128.451L248.263 129.868C247.889 130.379 247.457 130.954 247.032 131.443C245.333 133.443 243.49 135.047 241.632 136.571C239.753 138.067 237.838 139.456 235.879 140.743C231.963 143.339 227.945 145.612 223.726 147.662L221.731 144.267C225.339 141.628 228.939 138.844 232.366 136.018C234.072 134.593 235.743 133.141 237.305 131.637C238.867 130.148 240.336 128.58 241.495 127.027C241.798 126.624 242.021 126.279 242.302 125.847L243.187 124.416L244.951 121.525L248.479 115.713L252.007 109.887C253.21 107.967 254.383 106.01 255.6 104.104L262.397 108.226V108.233Z" fill="#FF8B7B"/>
<path d="M264.96 107.046C264.284 112.009 255.586 123.826 255.586 123.826L243.483 113.613C243.483 113.613 249.819 106.543 255.025 102.508C260.288 98.4295 265.709 101.594 264.968 107.046H264.96Z" fill="#272727"/>
<path d="M224.367 142.778L219.838 144.31L224.367 149.036C224.367 149.036 227.139 148.705 226.887 144.9L224.367 142.778Z" fill="#FF8B7B"/>
<path d="M216.835 147.914L222.012 150.453L224.367 149.036L219.838 144.31L216.835 147.914Z" fill="#FF8B7B"/>
<path d="M281.405 82.9655C280.268 88.0434 279.857 91.0715 276.848 93.2868C272.312 96.6169 266.357 93.258 265.954 87.9427C265.594 83.1597 267.517 75.6651 272.866 74.428C278.137 73.2125 282.55 77.8876 281.413 82.9655H281.405Z" fill="#FF8B7B"/>
<path d="M288.439 82.7858C288.295 81.9083 287.712 81.2034 287.158 80.8797C289.613 79.8081 288.382 78.5494 286.287 76.7225C283.572 74.2914 282.442 69.3933 282.557 68.3432C281.7 69.645 281.931 71.5655 282.658 73.2917C281.787 72.2919 281.009 71.1771 280.505 69.9112C278.403 64.6391 273.859 69.2495 269.475 69.4005C262.109 69.6522 267.941 65.8043 273.348 65.9193C265.291 63.4523 257.256 66.5091 258.574 71.8891C259.906 77.3266 268.891 70.429 268.841 75.4134C268.834 76.4204 269.943 77.413 271.577 78.1969C269.309 82.8577 274.839 92.2223 278.086 92.5244C281.326 92.8265 286.942 87.2307 287.187 82.383C287.59 82.4189 288.058 82.5772 288.439 82.7858Z" fill="black"/>
<path d="M274.09 84.1163C273.759 85.4829 272.837 86.5618 271.844 87.1516C270.353 88.0363 269.158 86.8063 269.201 85.1664C269.237 83.692 270.058 81.4479 271.743 81.2321C273.399 81.0236 274.472 82.5556 274.097 84.1163H274.09Z" fill="#FF8B7B"/>
<path d="M273.154 246.264H263.542C263.542 246.264 250.856 213.948 249.509 197.183C249.221 193.565 249.797 188.847 250.863 183.747C252.677 175.03 255.881 165.198 258.495 157.876C260.821 151.366 262.685 146.835 262.685 146.835C262.685 146.835 269.986 147.82 280.635 149.259C278.871 162.27 264.629 182.963 264.464 200.757C264.305 217.149 273.154 246.264 273.154 246.264Z" fill="black"/>
<path d="M263.038 161.946C262.412 170.642 255.716 179.892 250.863 183.754C252.677 175.037 255.881 165.205 258.495 157.883C259.856 157.696 262.008 160.379 263.038 161.946Z" fill="#282828"/>
<path d="M252.828 145.504C252.828 145.504 228.147 178.338 226.57 194.248C224.928 210.798 227.556 239.539 227.556 239.539L236.362 240.726C236.362 240.726 239.019 213.704 241.603 197.578C244.411 180 271.152 161.824 272.988 148.216C264.391 147.058 252.828 145.497 252.828 145.497V145.504Z" fill="black"/>
<path d="M261.843 246.48H274.399V243.1L260.359 242.884L261.843 246.48Z" fill="black"/>
<path d="M225.778 239.482L238.011 241.165L238.464 237.777L224.799 235.72L225.778 239.482Z" fill="black"/>
<path d="M265.551 253.665C265.155 253.665 264.781 253.601 264.543 253.399C264.356 253.241 264.269 253.018 264.284 252.745C264.298 252.536 264.406 252.443 264.5 252.392C265.076 252.097 266.775 253.133 266.962 253.255C267.005 253.284 267.027 253.335 267.02 253.378C267.013 253.428 266.977 253.464 266.926 253.478C266.566 253.565 266.041 253.665 265.551 253.665ZM264.773 252.579C264.709 252.579 264.651 252.587 264.615 252.608C264.579 252.622 264.543 252.658 264.536 252.752C264.521 252.946 264.579 253.097 264.701 253.205C264.989 253.45 265.673 253.478 266.566 253.299C265.976 252.953 265.177 252.579 264.773 252.579Z" fill="#915858"/>
<path d="M266.897 253.486C266.897 253.486 266.854 253.486 266.84 253.471C266.3 253.176 265.248 252.025 265.356 251.443C265.378 251.335 265.457 251.155 265.752 251.119C265.947 251.09 266.127 251.148 266.285 251.277C266.897 251.774 267.02 253.284 267.027 253.349C267.027 253.392 267.012 253.435 266.969 253.464C266.948 253.478 266.926 253.486 266.904 253.486H266.897ZM265.839 251.364C265.839 251.364 265.803 251.364 265.781 251.364C265.623 251.385 265.608 251.457 265.601 251.486C265.536 251.831 266.206 252.702 266.746 253.104C266.688 252.666 266.516 251.781 266.127 251.464C266.04 251.393 265.947 251.357 265.839 251.357V251.364Z" fill="#915858"/>
<path d="M227.722 246.408C226.901 246.408 225.922 246.307 225.54 245.862C225.389 245.689 225.339 245.473 225.389 245.229C225.418 245.085 225.504 244.977 225.634 244.927C226.311 244.66 228.262 245.998 228.478 246.156C228.521 246.185 228.543 246.243 228.528 246.293C228.514 246.343 228.471 246.379 228.413 246.379C228.211 246.394 227.967 246.401 227.715 246.401L227.722 246.408ZM225.864 245.142C225.814 245.142 225.771 245.142 225.727 245.164C225.677 245.185 225.648 245.221 225.634 245.286C225.598 245.452 225.634 245.588 225.727 245.703C226.008 246.027 226.865 246.2 228.031 246.156C227.311 245.682 226.325 245.142 225.864 245.142Z" fill="#915858"/>
<path d="M228.413 246.386C228.413 246.386 228.37 246.386 228.348 246.365C227.758 245.998 226.671 244.711 226.844 244.135C226.88 244.006 226.995 243.855 227.312 243.855H227.348C227.6 243.862 227.823 243.963 228.003 244.157C228.593 244.79 228.543 246.207 228.543 246.264C228.543 246.307 228.514 246.351 228.478 246.372C228.456 246.379 228.442 246.386 228.42 246.386H228.413ZM227.312 244.099C227.11 244.099 227.088 244.178 227.081 244.207C226.973 244.552 227.7 245.552 228.291 246.02C228.276 245.603 228.204 244.739 227.823 244.322C227.686 244.178 227.528 244.106 227.34 244.099C227.333 244.099 227.326 244.099 227.312 244.099Z" fill="#915858"/>
</g>
<defs>
<clipPath id="clip0_43_9973">
<rect width="360" height="268" fill="white"/>
</clipPath>
</defs>
</svg>
