<svg width="94" height="94" viewBox="0 0 94 94" fill="none" xmlns="http://www.w3.org/2000/svg">
<path d="M1 47C1 72.4051 21.5949 93 47 93C72.4051 93 93 72.4051 93 47C93 21.5949 72.4051 1 47 1C21.5949 1 1 21.5949 1 47Z" fill="white" stroke="#915858" stroke-width="2"/>
<path d="M46.875 23.3125C42.1836 23.418 39.2148 25.3164 37.9375 28.25C36.7227 31.043 36.9766 34.5625 37.8438 38.2188C37.3789 38.7656 36.9961 39.5352 37.0938 40.6875V40.75C37.2617 41.9688 37.6289 42.8281 38.0938 43.4375C38.3203 43.7344 38.6562 43.7422 38.9375 43.9062C39.0938 44.9609 39.3516 46.0273 39.75 46.9062C39.9766 47.4062 40.2109 47.8398 40.4688 48.2188C40.5898 48.3945 40.7734 48.5078 40.9062 48.6562V52.25C40.5859 53.0195 39.8242 53.6406 38.625 54.25C37.375 54.8828 35.7422 55.4648 34.0938 56.1875C32.4453 56.9102 30.7773 57.8047 29.4375 59.1875C28.0977 60.5703 27.1367 62.4492 27 64.9375L26.9375 66H67.0625L67 64.9375C66.8633 62.4492 65.9023 60.5703 64.5625 59.1875C63.2227 57.8047 61.5312 56.9102 59.875 56.1875C58.2188 55.4648 56.5781 54.8867 55.3125 54.25C54.0977 53.6406 53.3398 53.0273 53 52.25V48.625C53.1211 48.4844 53.293 48.3867 53.4062 48.2188C53.6641 47.8398 53.9297 47.4062 54.1562 46.9062C54.5508 46.0352 54.8125 44.9805 54.9688 43.9375C55.2891 43.7734 55.6562 43.7617 55.9062 43.4375C56.3867 42.8086 56.668 41.9141 56.7812 40.6875C56.8711 39.6289 56.5664 38.8594 56.0938 38.2812C56.6133 36.6797 57.2305 34.1172 57.0312 31.5C56.9219 30.0625 56.543 28.6289 55.6875 27.4375C54.9141 26.3594 53.6641 25.6211 52.0938 25.2812C51.0352 23.8672 49.1133 23.3125 46.9062 23.3125H46.875ZM46.9062 25.3125C46.918 25.3125 46.9258 25.3125 46.9375 25.3125C48.9336 25.3203 50.2109 25.8828 50.625 26.5938L50.875 27.0312L51.375 27.0938C52.75 27.2852 53.5039 27.8164 54.0625 28.5938C54.6211 29.3711 54.9414 30.457 55.0312 31.6562C55.2148 34.0586 54.5195 36.875 54.0625 38.1562L53.75 39L54.5312 39.4062C54.5234 39.4336 54.8516 39.7656 54.8125 40.5C54.8125 40.5156 54.8125 40.5156 54.8125 40.5312C54.7188 41.4727 54.4766 42.0039 54.3125 42.2188C54.1445 42.4375 54.0586 42.4062 54.0938 42.4062H53.1875L53.0938 43.3125C53.0078 44.2109 52.6836 45.2383 52.3125 46.0625C52.125 46.4766 51.9531 46.8438 51.7812 47.0938C51.6094 47.3438 51.4062 47.4883 51.5 47.4375L51 47.7188V52.3438C51 52.375 51 52.4062 51 52.4375V52.5C51 52.4883 50.8203 52.9297 50.0938 53.3125C49.3672 53.6953 48.2461 54 47 54C45.7422 54 44.6289 53.7148 43.9062 53.3438C43.1836 52.9727 43 52.5859 43 52.5C43.0039 52.3477 42.9688 52.1992 42.9062 52.0625V47.7188L42.4062 47.4375C42.5 47.4883 42.2969 47.3438 42.125 47.0938C41.9531 46.8438 41.75 46.4766 41.5625 46.0625C41.1914 45.2383 40.8672 44.2109 40.7812 43.3125L40.7188 42.4062H39.875C39.8398 42.3906 39.7461 42.3398 39.6562 42.2188C39.4805 41.9883 39.2305 41.4492 39.0938 40.5312C39.0938 40.5117 39.0938 40.5195 39.0938 40.5C39.0898 40.4844 39.0977 40.4844 39.0938 40.4688C39.0781 39.7109 39.5469 39.2891 39.4688 39.3438L40.0312 38.9375L39.875 38.25C38.9531 34.6055 38.8086 31.3047 39.7812 29.0625C40.7539 26.8281 42.7227 25.4141 46.9062 25.3125ZM41.9062 54.375C42.2266 54.6719 42.5938 54.918 43 55.125C44.0781 55.6797 45.457 56 47 56C48.5547 56 49.9609 55.6602 51.0312 55.0938C51.4062 54.8945 51.7617 54.6719 52.0625 54.4062C52.7188 55.0938 53.5586 55.6211 54.4375 56.0625C55.8867 56.7891 57.5391 57.3516 59.0938 58.0312C60.6484 58.7109 62.0742 59.4805 63.125 60.5625C63.9609 61.4258 64.4766 62.5742 64.75 64H29.25C29.5234 62.5742 30.0391 61.4258 30.875 60.5625C31.9219 59.4805 33.3555 58.7109 34.9062 58.0312C36.457 57.3516 38.0938 56.793 39.5312 56.0625C40.418 55.6133 41.2617 55.0781 41.9062 54.375Z" fill="#915858"/>
</svg>
