<svg width="27" height="31" viewBox="0 0 27 31" fill="none" xmlns="http://www.w3.org/2000/svg">
<path d="M10.9 0.900022C10.7278 0.897685 10.5568 0.929584 10.397 0.993866C10.2373 1.05815 10.0918 1.15353 9.96925 1.27448C9.84665 1.39543 9.7493 1.53953 9.68285 1.69841C9.6164 1.8573 9.58219 2.0278 9.58219 2.20002H1.79996C1.6277 2.19759 1.45666 2.22941 1.2968 2.29365C1.13695 2.35789 0.991449 2.45326 0.868768 2.57421C0.746088 2.69517 0.64867 2.83931 0.582178 2.99824C0.515686 3.15717 0.481445 3.32774 0.481445 3.50002C0.481445 3.6723 0.515686 3.84287 0.582178 4.0018C0.64867 4.16074 0.746088 4.30487 0.868768 4.42583C0.991449 4.54679 1.13695 4.64216 1.2968 4.70639C1.45666 4.77063 1.6277 4.80246 1.79996 4.80002H25.2C25.3722 4.80246 25.5433 4.77063 25.7031 4.70639C25.863 4.64216 26.0085 4.54679 26.1312 4.42583C26.2538 4.30487 26.3512 4.16074 26.4177 4.0018C26.4842 3.84287 26.5185 3.6723 26.5185 3.50002C26.5185 3.32774 26.4842 3.15717 26.4177 2.99824C26.3512 2.83931 26.2538 2.69517 26.1312 2.57421C26.0085 2.45326 25.863 2.35789 25.7031 2.29365C25.5433 2.22941 25.3722 2.19759 25.2 2.20002H17.4177C17.4177 2.0278 17.3835 1.8573 17.3171 1.69841C17.2506 1.53953 17.1533 1.39543 17.0307 1.27448C16.9081 1.15353 16.7627 1.05815 16.6029 0.993866C16.4431 0.929584 16.2722 0.897685 16.1 0.900022H10.9ZM1.79996 7.40002V28.2C1.79996 29.6365 2.96346 30.8 4.39996 30.8H22.6C24.0365 30.8 25.2 29.6365 25.2 28.2V7.40002H1.79996ZM9.59996 13.9C9.93243 13.9 10.265 14.0267 10.5191 14.2809L13.5 17.2617L16.4808 14.2809C16.9891 13.7726 17.8108 13.7726 18.3191 14.2809C18.8274 14.7892 18.8274 15.6109 18.3191 16.1192L15.3382 19.1L18.3191 22.0809C18.8274 22.5892 18.8274 23.4109 18.3191 23.9192C18.0656 24.1727 17.7328 24.3 17.4 24.3C17.0672 24.3 16.7343 24.1727 16.4808 23.9192L13.5 20.9383L10.5191 23.9192C10.2656 24.1727 9.93276 24.3 9.59996 24.3C9.26716 24.3 8.93432 24.1727 8.68082 23.9192C8.17252 23.4109 8.17252 22.5892 8.68082 22.0809L11.6617 19.1L8.68082 16.1192C8.17252 15.6109 8.17252 14.7892 8.68082 14.2809C8.93497 14.0267 9.26748 13.9 9.59996 13.9Z" fill="#FF0000"/>
</svg>
