<svg width="27" height="31" viewBox="0 0 27 31" fill="none" xmlns="http://www.w3.org/2000/svg">
<path d="M10.9009 0.899992C10.7287 0.897654 10.5578 0.929553 10.398 0.993836C10.2382 1.05812 10.0928 1.1535 9.97022 1.27445C9.84762 1.3954 9.75027 1.5395 9.68383 1.69838C9.61738 1.85727 9.58316 2.02777 9.58316 2.19999H1.80094C1.62867 2.19756 1.45764 2.22938 1.29778 2.29362C1.13792 2.35786 0.992425 2.45323 0.869745 2.57418C0.747064 2.69514 0.649647 2.83928 0.583155 2.99821C0.516663 3.15714 0.482422 3.32771 0.482422 3.49999C0.482422 3.67227 0.516663 3.84284 0.583155 4.00177C0.649647 4.16071 0.747064 4.30484 0.869745 4.4258C0.992425 4.54676 1.13792 4.64213 1.29778 4.70636C1.45764 4.7706 1.62867 4.80243 1.80094 4.79999H25.2009C25.3732 4.80243 25.5442 4.7706 25.7041 4.70636C25.8639 4.64213 26.0094 4.54676 26.1321 4.4258C26.2548 4.30484 26.3522 4.16071 26.4187 4.00177C26.4852 3.84284 26.5194 3.67227 26.5194 3.49999C26.5194 3.32771 26.4852 3.15714 26.4187 2.99821C26.3522 2.83928 26.2548 2.69514 26.1321 2.57418C26.0094 2.45323 25.8639 2.35786 25.7041 2.29362C25.5442 2.22938 25.3732 2.19756 25.2009 2.19999H17.4187C17.4187 2.02777 17.3845 1.85727 17.318 1.69838C17.2516 1.5395 17.1542 1.3954 17.0316 1.27445C16.909 1.1535 16.7636 1.05812 16.6039 0.993836C16.4441 0.929553 16.2731 0.897654 16.1009 0.899992H10.9009ZM1.80094 7.39999V28.2C1.80094 29.6365 2.96444 30.8 4.40094 30.8H22.6009C24.0374 30.8 25.2009 29.6365 25.2009 28.2V7.39999H1.80094ZM9.60094 13.9C9.93341 13.9 10.2659 14.0267 10.5201 14.2809L13.5009 17.2617L16.4818 14.2809C16.9901 13.7726 17.8118 13.7726 18.3201 14.2809C18.8284 14.7892 18.8284 15.6108 18.3201 16.1191L15.3392 19.1L18.3201 22.0809C18.8284 22.5892 18.8284 23.4108 18.3201 23.9191C18.0666 24.1726 17.7337 24.3 17.4009 24.3C17.0681 24.3 16.7353 24.1726 16.4818 23.9191L13.5009 20.9383L10.5201 23.9191C10.2666 24.1726 9.93374 24.3 9.60094 24.3C9.26814 24.3 8.9353 24.1726 8.6818 23.9191C8.1735 23.4108 8.1735 22.5892 8.6818 22.0809L11.6627 19.1L8.6818 16.1191C8.1735 15.6108 8.1735 14.7892 8.6818 14.2809C8.93595 14.0267 9.26846 13.9 9.60094 13.9Z" fill="#FF0000"/>
</svg>
