<svg width="45" height="45" viewBox="0 0 45 45" fill="none" xmlns="http://www.w3.org/2000/svg">
<circle cx="22.5" cy="22.5" r="22.5" fill="black" fill-opacity="0.3"/>
<g clip-path="url(#clip0_1540_25490)">
<path d="M11 12C9.895 12 9 12.895 9 14V30C9 31.105 9.895 32 11 32H24.1719L27.1719 29H12V22L14.2891 19.7109C15.2341 18.7659 16.7659 18.7659 17.7109 19.7109L20.9727 22.9727L23.1563 25.1562C23.5783 25.5782 24.2596 25.5743 24.6816 25.1523C25.1046 24.7303 25.1046 24.0441 24.6816 23.6211L23.5293 22.4707L24.2891 21.7109C25.2341 20.7659 26.7659 20.7659 27.7109 21.7109L31.0859 25.0859L35 21.1719V14C35 12.895 34.105 12 33 12H11ZM30 15C31.105 15 32 15.895 32 17C32 18.105 31.105 19 30 19C28.895 19 28 18.105 28 17C28 15.895 28.895 15 30 15ZM34.4961 25C34.1891 25 33.8829 25.1171 33.6484 25.3516L32.8008 26.1992L35.8008 29.1992L36.6484 28.3516C37.1174 27.8826 37.1174 27.1233 36.6484 26.6543L35.3457 25.3516C35.1112 25.1171 34.8031 25 34.4961 25ZM31.5996 27.4004L26.8008 32.1992L27.6992 32.5L28 34L29.5 34.3008L29.8008 35.1992L34.5996 30.4004L31.5996 27.4004ZM25.6914 34.6914L25.0254 36.5801L25.0234 36.584V36.5859C25.0084 36.6218 25.0004 36.6603 25 36.6992C24.9999 36.7387 25.0076 36.7779 25.0227 36.8144C25.0378 36.851 25.0599 36.8842 25.0879 36.9121C25.1158 36.9401 25.149 36.9622 25.1856 36.9773C25.2221 36.9924 25.2613 37.0001 25.3008 37C25.3368 36.9999 25.3726 36.9933 25.4063 36.9805H25.4082L27.3086 36.3086L25.6914 34.6914Z" fill="white"/>
</g>
<defs>
<clipPath id="clip0_1540_25490">
<rect width="30" height="30" fill="white" transform="translate(7 7)"/>
</clipPath>
</defs>
</svg>
