<svg width="25" height="27" viewBox="0 0 25 27" fill="none" xmlns="http://www.w3.org/2000/svg">
<path d="M0.5 2.375C0.5 1.06875 1.56875 0 2.875 0H17.125C18.4372 0 19.5 1.06281 19.5 2.375V14.25H17.125V2.375H2.875V21.375H13.5625V23.75H2.875C1.56875 23.75 0.5 22.6812 0.5 21.375V2.375Z" fill="white"/>
<path d="M15.9375 19V16.625H24.25V19H15.9375Z" fill="white"/>
<path d="M24.25 22.5625H15.9375V20.1875H24.25V22.5625Z" fill="white"/>
<path d="M15.9375 26.125V23.75H24.25V26.125H15.9375Z" fill="white"/>
<path d="M11.0178 12.6108C11.0152 12.884 11.0129 13.1326 11.0427 13.4571C11.2258 13.9499 11.8306 14.1887 12.4974 14.452C13.4878 14.8431 14.615 15.2881 14.7 16.7H4.82C4.90497 15.2883 6.03666 14.8432 7.03082 14.4521C7.70028 14.1888 8.30737 13.95 8.49047 13.4571C8.52066 13.1289 8.51853 12.8785 8.51617 12.6016C8.51552 12.5246 8.51484 12.4456 8.51484 12.3623C8.32391 12.2627 7.97047 11.628 7.91359 11.0917C7.7643 11.0795 7.52969 10.9343 7.45961 10.3595C7.42305 10.0507 7.57031 9.87703 7.6607 9.82219C7.15594 7.88031 7.4332 6.18422 9.73563 6.14156C10.3105 6.14156 10.7533 6.29492 10.927 6.59859C12.6068 6.83219 12.102 9.09195 11.8593 9.82219C11.9497 9.87703 12.097 10.0507 12.0604 10.3595C11.9913 10.9343 11.7557 11.0795 11.6064 11.0917C11.5495 11.628 11.2093 12.2627 11.0194 12.3623C11.0194 12.4489 11.0186 12.5309 11.0178 12.6108Z" fill="white"/>
</svg>
