<svg width="42" height="42" viewBox="0 0 42 42" fill="none" xmlns="http://www.w3.org/2000/svg">
<g filter="url(#filter0_d_1856_16846)">
<rect x="4" y="4" width="34" height="34" rx="5" fill="white"/>
</g>
<path fill-rule="evenodd" clip-rule="evenodd" d="M17.6027 10.0484C18.7188 9.45514 19.5752 9 20.56 9C21.5448 9 22.4012 9.45514 23.5173 10.0484C23.7356 10.1644 23.9639 10.2858 24.205 10.41C25.6788 11.1694 27.6569 12.0863 30.745 12.765L31.12 12.855V13.23C31.12 27.465 20.785 32.805 20.785 32.805L20.575 32.91L20.365 32.805C20.365 32.805 17.7419 31.5919 15.16 28.545C12.5781 25.4981 10 20.5837 10 13.23V12.855L10.375 12.765C13.4631 12.0863 15.4413 11.1694 16.915 10.41C17.1561 10.2858 17.3844 10.1644 17.6027 10.0484ZM23.2561 10.999C22.0481 10.3717 21.2553 9.96 20.56 9.96C19.8647 9.96 19.0719 10.3717 17.8639 10.999C17.7005 11.0839 17.5294 11.1727 17.35 11.265C15.9194 12 13.9075 12.9019 10.99 13.59C11.0781 20.5012 13.4669 25.0819 15.88 27.93C18.1694 30.6319 20.2469 31.6706 20.545 31.815C21.1619 31.4887 29.9538 26.6062 30.13 13.59C27.2125 12.9019 25.2006 12 23.77 11.265C23.5906 11.1727 23.4195 11.0839 23.2561 10.999ZM20.5 14C17.1916 14 14.5 16.6916 14.5 20C14.5 23.3084 17.1916 26 20.5 26C23.8084 26 26.5 23.3084 26.5 20C26.5 16.6916 23.8084 14 20.5 14ZM20.5 14.9C23.322 14.9 25.6 17.178 25.6 20C25.6 22.822 23.322 25.1 20.5 25.1C17.678 25.1 15.4 22.822 15.4 20C15.4 17.178 17.678 14.9 20.5 14.9ZM19.918 16.8828L20.0783 21.0141H20.7177L20.878 16.8828H19.918ZM20.398 21.6895C20.2707 21.6895 20.1486 21.7397 20.0586 21.8291C19.9685 21.9185 19.918 22.0397 19.918 22.1661C19.918 22.2926 19.9685 22.4138 20.0586 22.5032C20.1486 22.5926 20.2707 22.6428 20.398 22.6428C20.5253 22.6428 20.6474 22.5926 20.7374 22.5032C20.8274 22.4138 20.878 22.2926 20.878 22.1661C20.878 22.0397 20.8274 21.9185 20.7374 21.8291C20.6474 21.7397 20.5253 21.6895 20.398 21.6895Z" fill="#CCCCCC"/>
<defs>
<filter id="filter0_d_1856_16846" x="0" y="0" width="42" height="42" filterUnits="userSpaceOnUse" color-interpolation-filters="sRGB">
<feFlood flood-opacity="0" result="BackgroundImageFix"/>
<feColorMatrix in="SourceAlpha" type="matrix" values="0 0 0 0 0 0 0 0 0 0 0 0 0 0 0 0 0 0 127 0" result="hardAlpha"/>
<feOffset/>
<feGaussianBlur stdDeviation="2"/>
<feComposite in2="hardAlpha" operator="out"/>
<feColorMatrix type="matrix" values="0 0 0 0 0 0 0 0 0 0 0 0 0 0 0 0 0 0 0.15 0"/>
<feBlend mode="normal" in2="BackgroundImageFix" result="effect1_dropShadow_1856_16846"/>
<feBlend mode="normal" in="SourceGraphic" in2="effect1_dropShadow_1856_16846" result="shape"/>
</filter>
</defs>
</svg>
