<svg width="19" height="19" viewBox="0 0 19 19" fill="none" xmlns="http://www.w3.org/2000/svg">
<path d="M9.49105 3C8.94808 3 8.40511 3.25781 8.09652 3.77344L2.21761 13.5977C1.59261 14.6367 2.39339 15.9922 3.60824 15.9922H15.37C16.5887 15.9922 17.3895 14.6367 16.7684 13.5977L10.8856 3.77344C10.577 3.25781 10.034 3 9.49105 3ZM9.49105 3.98438C9.69808 3.98438 9.90511 4.08594 10.0301 4.28906L15.909 14.1094C16.1551 14.5195 15.8817 14.9922 15.37 14.9922H3.60824C3.10042 14.9922 2.82699 14.5195 3.07308 14.1094L8.95199 4.28906C9.07699 4.08594 9.28402 3.98438 9.49105 3.98438ZM8.98324 6.99219V11.9922H9.98324V6.99219H8.98324ZM8.98324 12.9922V13.9922H9.98324V12.9922H8.98324Z" fill="#F20000"/>
</svg>
