<svg width="42" height="42" viewBox="0 0 42 42" fill="none" xmlns="http://www.w3.org/2000/svg">
<g filter="url(#filter0_d_1856_20795)">
<rect x="4" y="4" width="34" height="34" rx="5" fill="white"/>
</g>
<path fill-rule="evenodd" clip-rule="evenodd" d="M17.6027 10.0484C18.7188 9.45514 19.5752 9 20.56 9C21.5448 9 22.4012 9.45514 23.5173 10.0484C23.7356 10.1644 23.9639 10.2858 24.205 10.41C25.6788 11.1694 27.6569 12.0863 30.745 12.765L31.12 12.855V13.23C31.12 27.465 20.785 32.805 20.785 32.805L20.575 32.91L20.365 32.805C20.365 32.805 17.7419 31.5919 15.16 28.545C12.5781 25.4981 10 20.5837 10 13.23V12.855L10.375 12.765C13.4631 12.0863 15.4413 11.1694 16.915 10.41C17.1561 10.2858 17.3844 10.1644 17.6027 10.0484ZM23.2561 10.999C22.0481 10.3717 21.2553 9.96 20.56 9.96C19.8647 9.96 19.0719 10.3717 17.8639 10.999C17.7005 11.0839 17.5294 11.1727 17.35 11.265C15.9194 12 13.9075 12.9019 10.99 13.59C11.0781 20.5012 13.4669 25.0819 15.88 27.93C18.1694 30.6319 20.2469 31.6706 20.545 31.815C21.1619 31.4887 29.9538 26.6062 30.13 13.59C27.2125 12.9019 25.2006 12 23.77 11.265C23.5906 11.1727 23.4195 11.0839 23.2561 10.999ZM14.5 20C14.5 16.6855 17.1855 14 20.5 14C23.8145 14 26.5 16.6855 26.5 20C26.5 23.3145 23.8145 26 20.5 26C17.1855 26 14.5 23.3145 14.5 20ZM25.5 20C25.5 17.2383 23.2617 15 20.5 15C17.7383 15 15.5 17.2383 15.5 20C15.5 22.7617 17.7383 25 20.5 25C23.2617 25 25.5 22.7617 25.5 20ZM19.75 20.0312L19.9688 15.9375H20.5938L20.8125 19.9844L23.3594 22.6875L22.875 23.1875L19.7969 20.4688L19.75 20.0312Z" fill="#CCCCCC"/>
<defs>
<filter id="filter0_d_1856_20795" x="0" y="0" width="42" height="42" filterUnits="userSpaceOnUse" color-interpolation-filters="sRGB">
<feFlood flood-opacity="0" result="BackgroundImageFix"/>
<feColorMatrix in="SourceAlpha" type="matrix" values="0 0 0 0 0 0 0 0 0 0 0 0 0 0 0 0 0 0 127 0" result="hardAlpha"/>
<feOffset/>
<feGaussianBlur stdDeviation="2"/>
<feComposite in2="hardAlpha" operator="out"/>
<feColorMatrix type="matrix" values="0 0 0 0 0 0 0 0 0 0 0 0 0 0 0 0 0 0 0.15 0"/>
<feBlend mode="normal" in2="BackgroundImageFix" result="effect1_dropShadow_1856_20795"/>
<feBlend mode="normal" in="SourceGraphic" in2="effect1_dropShadow_1856_20795" result="shape"/>
</filter>
</defs>
</svg>
