<svg width="96" height="20" viewBox="0 0 96 20" fill="none" xmlns="http://www.w3.org/2000/svg">
<path d="M0 0H96L84 16C82.1115 18.5181 79.1476 20 76 20H20C16.8524 20 13.8885 18.5181 12 16L0 0Z" fill="#3E301F"/>
<path d="M40.9534 7.81247C40.9584 7.97872 41.0284 8.13622 41.1471 8.25247L47.5471 14.6525C47.7971 14.9025 48.2021 14.9025 48.4521 14.6525L54.8521 8.25247C55.0196 8.09247 55.0871 7.85372 55.0284 7.62872C54.9696 7.40497 54.7946 7.22997 54.5709 7.17122C54.3459 7.11247 54.1071 7.17997 53.9471 7.34747L47.9996 13.295L42.0521 7.34747C41.8684 7.15872 41.5871 7.10122 41.3434 7.20372C41.1009 7.30747 40.9459 7.54872 40.9534 7.81247Z" fill="white"/>
</svg>
