<svg width="360" height="51" viewBox="0 0 360 51" fill="none" xmlns="http://www.w3.org/2000/svg">
<path d="M0 0H360V36C360 44.2843 353.284 51 345 51H15C6.71574 51 0 44.2843 0 36V0Z" fill="#3E301F"/>
<path d="M187.047 43.1875C187.042 43.0213 186.972 42.8638 186.853 42.7475L180.453 36.3475C180.203 36.0975 179.798 36.0975 179.548 36.3475L173.148 42.7475C172.98 42.9075 172.913 43.1463 172.972 43.3713C173.03 43.595 173.205 43.77 173.429 43.8288C173.654 43.8875 173.893 43.82 174.053 43.6525L180 37.705L185.948 43.6525C186.132 43.8413 186.413 43.8988 186.657 43.7963C186.899 43.6925 187.054 43.4513 187.047 43.1875Z" fill="white"/>
</svg>
