<svg width="14" height="15" viewBox="0 0 14 15" fill="none" xmlns="http://www.w3.org/2000/svg">
<path d="M0.312561 0.00012207C0.124573 0.00012207 6.10352e-05 0.124634 6.10352e-05 0.312622V1.25012C6.10352e-05 1.34412 0.0354613 1.40271 0.0977173 1.46497L5.09772 6.77747C5.15997 6.83972 5.25031 6.87512 5.31256 6.87512H8.43756C8.53156 6.87512 8.59015 6.83972 8.6524 6.77747L13.6524 1.46497C13.7147 1.40271 13.7501 1.34412 13.7501 1.25012V0.312622C13.7501 0.124634 13.6255 0.00012207 13.4376 0.00012207H0.312561ZM5.00006 7.50012V12.1876C5.00006 12.3121 5.06232 12.4086 5.15631 12.4708L8.28131 14.3458C8.31305 14.3776 8.37531 14.3751 8.43756 14.3751C8.49982 14.3751 8.53156 14.3776 8.59381 14.3458C8.68781 14.2836 8.75006 14.1871 8.75006 14.0626V7.50012H5.00006Z" fill="#915858"/>
</svg>
