<svg width="15" height="16" viewBox="0 0 15 16" fill="none" xmlns="http://www.w3.org/2000/svg">
<path d="M0.920677 0.666626C0.771762 0.6947 0.664348 0.826527 0.666789 0.979104V1.91654C0.668009 1.9971 0.698525 2.074 0.754673 2.13137L5.66644 7.34585V12.8533C5.66888 12.9619 5.72869 13.062 5.82268 13.1169L8.94746 14.9918C9.04267 15.0467 9.16107 15.048 9.2575 14.993C9.35271 14.9393 9.41374 14.838 9.41618 14.7281V7.34585L14.2791 2.18019C14.2828 2.17653 14.2852 2.17409 14.2889 2.17043L14.3279 2.13137C14.3426 2.11672 14.356 2.09963 14.367 2.08254C14.3743 2.07644 14.3804 2.07034 14.3865 2.06301C14.4048 2.02273 14.4146 1.98001 14.4158 1.93607C14.4158 1.92997 14.4158 1.92264 14.4158 1.91654C14.4171 1.90067 14.4171 1.88358 14.4158 1.86771V0.979104C14.4158 0.806997 14.2755 0.666626 14.1034 0.666626H0.979267C0.969502 0.666626 0.959737 0.666626 0.949972 0.666626C0.940207 0.666626 0.930442 0.666626 0.920677 0.666626ZM1.29175 1.29158H13.7909V1.79936L8.96699 6.91619H6.11563L1.29175 1.79936V1.29158ZM6.2914 7.54115H8.79122V14.1813L6.2914 12.6873V7.54115Z" fill="#727272"/>
</svg>
