<svg width="20" height="20" viewBox="0 0 20 20" fill="none" xmlns="http://www.w3.org/2000/svg">
<path d="M4.92539 0.399902C4.15352 0.399902 3.57852 0.657715 3.23789 1.0624C2.89727 1.46709 2.80039 1.97021 2.80039 2.3999C2.80039 3.42178 3.35352 4.25146 4.11289 4.7874C4.34727 4.95303 4.5957 5.08428 4.86289 5.1999H0.400391V9.5999H8.00039V5.5999H12.0004V9.5999H19.6004V5.1999H15.1379C15.4051 5.08428 15.6535 4.95303 15.8879 4.7874C16.6473 4.25146 17.2004 3.42178 17.2004 2.3999C17.2004 1.97021 17.1035 1.46709 16.7629 1.0624C16.4223 0.657715 15.8473 0.399902 15.0754 0.399902C14.277 0.399902 13.6316 0.737402 13.1504 1.1999C12.6691 1.6624 12.3238 2.24521 12.0004 2.7999C11.677 3.35459 11.3723 3.8874 11.0504 4.2499C10.7285 4.6124 10.4348 4.7999 10.0004 4.7999C9.56602 4.7999 9.27227 4.6124 8.95039 4.2499C8.62852 3.8874 8.32383 3.35459 8.00039 2.7999C7.67695 2.24521 7.33164 1.6624 6.85039 1.1999C6.36914 0.737402 5.72383 0.399902 4.92539 0.399902ZM4.92539 1.1999C5.51133 1.1999 5.91133 1.4124 6.28789 1.7749C6.66445 2.1374 6.9957 2.65459 7.31289 3.1999C7.63008 3.74521 7.94102 4.3124 8.35039 4.7749C8.3582 4.78428 8.36758 4.79053 8.37539 4.7999H6.80039C5.99414 4.7999 5.16133 4.55928 4.56289 4.1374C3.96445 3.71553 3.60039 3.14521 3.60039 2.3999C3.60039 2.09834 3.67227 1.7999 3.85039 1.5874C4.02852 1.3749 4.3207 1.1999 4.92539 1.1999ZM15.0754 1.1999C15.6785 1.1999 15.9723 1.3749 16.1504 1.5874C16.3285 1.7999 16.4004 2.09834 16.4004 2.3999C16.4004 3.14521 16.0363 3.71553 15.4379 4.1374C14.8395 4.55928 14.0066 4.7999 13.2004 4.7999H11.6254C11.6332 4.79053 11.6426 4.78428 11.6504 4.7749C12.0598 4.3124 12.3707 3.74521 12.6879 3.1999C13.0051 2.65459 13.3363 2.1374 13.7129 1.7749C14.0895 1.4124 14.4895 1.1999 15.0754 1.1999ZM1.20039 10.3999V19.5999H18.8004V10.3999H12.0004V18.7999H8.00039V10.3999H1.20039Z" fill="#F20000"/>
</svg>
