<svg width="19" height="19" viewBox="0 0 19 19" fill="none" xmlns="http://www.w3.org/2000/svg">
<path d="M16.8113 1.57793C16.6571 1.58242 16.5107 1.64675 16.4031 1.75729L1.7573 16.4031C1.70032 16.4578 1.65482 16.5234 1.62348 16.5959C1.59214 16.6684 1.57559 16.7464 1.57478 16.8254C1.57398 16.9044 1.58895 16.9828 1.61881 17.0559C1.64866 17.129 1.69282 17.1955 1.74868 17.2513C1.80453 17.3072 1.87098 17.3514 1.94411 17.3812C2.01725 17.4111 2.09561 17.426 2.1746 17.4252C2.25359 17.4244 2.33163 17.4079 2.40414 17.3765C2.47666 17.3452 2.54219 17.2997 2.5969 17.2427L6.69594 13.1437C7.39604 13.9014 8.39181 14.3807 9.50002 14.3807C11.6098 14.3807 13.3277 12.6627 13.3277 10.5569C13.3277 9.44859 12.8485 8.44992 12.0907 7.74891L13.8751 5.96457C15.7955 7.08903 17.2856 8.90501 17.8326 11.0315C17.8999 11.3007 18.1411 11.4792 18.4063 11.4792C18.4538 11.4792 18.5049 11.4749 18.5524 11.4591C18.873 11.3799 19.063 11.056 18.9799 10.7393C18.3704 8.36327 16.8076 6.36227 14.7556 5.08399L17.2427 2.59689C17.3284 2.51347 17.3869 2.40613 17.4105 2.28892C17.4342 2.17171 17.4219 2.05009 17.3753 1.93998C17.3286 1.82988 17.2499 1.73641 17.1492 1.67181C17.0486 1.60721 16.9309 1.57449 16.8113 1.57793ZM9.49615 3.56251C5.07469 3.56251 1.08887 6.5791 0.0201171 10.7393C-0.0630079 11.056 0.127023 11.3799 0.447648 11.4591C0.764315 11.5422 1.08825 11.3522 1.16742 11.0315C2.08971 7.44925 5.6724 4.75001 9.49615 4.75001C10.173 4.75001 10.8417 4.83279 11.4869 4.99508L12.461 4.02174C11.515 3.7209 10.5174 3.56251 9.49615 3.56251ZM9.50002 6.72917C7.39022 6.72917 5.6762 8.44706 5.6762 10.5569C5.6762 10.636 5.67998 10.7189 5.68394 10.7981L7.18455 9.29822C7.426 8.85093 7.79796 8.47897 8.24525 8.23751L9.74509 6.7369C9.66197 6.73295 9.58314 6.72917 9.50002 6.72917ZM11.2519 8.58773C11.7944 9.07112 12.1402 9.77213 12.1402 10.5569C12.1402 12.0096 10.9567 13.1932 9.50002 13.1932C8.71839 13.1932 8.01801 12.8474 7.53476 12.3049L11.2519 8.58773Z" fill="white"/>
</svg>
