<svg width="17" height="17" viewBox="0 0 17 17" fill="none" xmlns="http://www.w3.org/2000/svg">
<path d="M2.13664 2.75343C-0.937993 6.16816 -0.661299 11.4478 2.75343 14.5224C6.16816 17.597 11.4478 17.3203 14.5224 13.9056C17.597 10.4909 17.3203 5.21128 13.9056 2.13664C10.4909 -0.937991 5.21128 -0.661302 2.13664 2.75343ZM3.06557 3.58984C5.68818 0.677143 10.1565 0.44297 13.0692 3.06557C15.9819 5.68818 16.2161 10.1565 13.5935 13.0692C10.9709 15.9819 6.50254 16.2161 3.58984 13.5935C0.677145 10.9709 0.442969 6.50254 3.06557 3.58984ZM5.21989 5.54274C5.111 5.66755 5.05609 5.83048 5.06724 5.99574C5.07838 6.16101 5.15467 6.31509 5.27934 6.42414L7.44684 8.37578L5.49521 10.5433C5.43893 10.604 5.39528 10.6754 5.3668 10.7532C5.33833 10.8309 5.32559 10.9136 5.32934 10.9964C5.33309 11.0791 5.35325 11.1603 5.38864 11.2352C5.42404 11.31 5.47396 11.3771 5.53552 11.4326C5.59707 11.488 5.66902 11.5306 5.7472 11.558C5.82537 11.5854 5.90821 11.5969 5.99089 11.592C6.07357 11.5871 6.15445 11.5658 6.22883 11.5293C6.30321 11.4929 6.3696 11.442 6.42414 11.3797L8.37578 9.21219L10.5433 11.1638C10.604 11.2201 10.6754 11.2638 10.7532 11.2922C10.8309 11.3207 10.9136 11.3334 10.9964 11.3297C11.0791 11.3259 11.1603 11.3058 11.2352 11.2704C11.31 11.235 11.3771 11.1851 11.4326 11.1235C11.488 11.062 11.5306 10.99 11.558 10.9118C11.5854 10.8337 11.5969 10.7508 11.592 10.6681C11.5871 10.5855 11.5658 10.5046 11.5293 10.4302C11.4929 10.3558 11.442 10.2894 11.3797 10.2349L9.21219 8.28326L11.1638 6.11575C11.2201 6.05499 11.2638 5.98364 11.2922 5.90586C11.3207 5.82808 11.3334 5.74542 11.3297 5.66268C11.3259 5.57994 11.3058 5.49876 11.2704 5.42388C11.235 5.34899 11.1851 5.28189 11.1235 5.22647C11.062 5.17104 10.99 5.12841 10.9118 5.10103C10.8337 5.07366 10.7508 5.0621 10.6681 5.06702C10.5855 5.07194 10.5046 5.09324 10.4302 5.12969C10.3558 5.16614 10.2894 5.21701 10.2349 5.27934L8.28326 7.44684L6.11575 5.49521C6.05439 5.43835 5.98223 5.39438 5.90357 5.36591C5.8249 5.33745 5.74131 5.32506 5.65777 5.32949C5.57423 5.33393 5.49242 5.35508 5.41721 5.39171C5.34199 5.42834 5.27489 5.4797 5.21989 5.54274Z" fill="#F20000"/>
</svg>
