<svg width="21" height="21" viewBox="0 0 21 21" fill="none" xmlns="http://www.w3.org/2000/svg">
<path d="M15.7556 6C15.7556 5.77502 15.906 5.625 16.1321 5.625H17.6394C17.8656 5.625 18.0166 5.77502 18.0166 6C18.0166 6.22498 17.8656 6.375 17.6394 6.375H16.1321C15.906 6.375 15.7556 6.22498 15.7556 6Z" fill="#999999"/>
<path d="M13.5005 11.7394C13.606 11.6321 13.7496 11.5697 13.9008 11.5653C14.018 11.562 14.1335 11.5938 14.2321 11.6564C14.3308 11.7191 14.408 11.8098 14.4537 11.9167C14.4994 12.0236 14.5115 12.1416 14.4883 12.2554C14.4651 12.3691 14.4078 12.4734 14.3238 12.5543L10.4426 16.3964C10.3334 16.5044 10.1854 16.5651 10.031 16.5651C9.87662 16.5651 9.72855 16.5044 9.61935 16.3964L7.67877 14.4753C7.62289 14.4222 7.57831 14.3586 7.54758 14.2882C7.53265 14.254 7.52112 14.2185 7.51315 14.1824C7.5047 14.144 7.50021 14.1049 7.49982 14.0654C7.49902 13.9888 7.5137 13.9127 7.54297 13.8417C7.57227 13.7708 7.61554 13.7063 7.67032 13.652C7.7251 13.5978 7.79022 13.5549 7.86194 13.526C7.93365 13.4969 8.0105 13.4824 8.08795 13.4833C8.16541 13.484 8.24191 13.5001 8.31302 13.5305C8.38412 13.5609 8.44836 13.6051 8.50201 13.6604L10.031 15.174L13.5005 11.7394Z" fill="#999999"/>
<path fill-rule="evenodd" clip-rule="evenodd" d="M6.01883 4.125C6.21057 1.81934 8.1456 0 10.4998 0C12.854 0 14.789 1.81934 14.9807 4.125H18.8076C19.4103 4.125 19.9003 4.57532 19.9378 5.17529L20.9925 19.3872C21.03 19.7247 20.9176 19.9875 20.6914 20.25C20.4657 20.5125 20.1638 20.625 19.8623 20.625H1.13724C0.836121 20.625 0.534271 20.475 0.308136 20.25C0.0820007 20.025 -0.0303955 19.7253 0.00711058 19.4253L1.02444 5.17529C1.06195 4.57532 1.55157 4.125 2.15457 4.125H6.01883ZM14.2315 4.125C14.0439 2.22668 12.4485 0.75 10.4998 0.75C8.55109 0.75 6.95566 2.22668 6.7681 4.125H14.2315ZM5.99979 4.875H2.15457C1.96594 4.875 1.77737 5.02515 1.77737 5.21265L1.74002 5.625H5.99979V4.875ZM14.2498 5.625V4.875H6.74979V5.625H14.2498ZM18.845 4.875H14.9998V5.98315C15 5.98926 15.0027 5.9939 15.0027 6C15.0027 6.0061 15 6.01074 14.9998 6.01685V7.2019C15.1834 7.26355 15.3501 7.35303 15.4678 7.48535C15.6615 7.70325 15.7498 7.97913 15.7498 8.25C15.7498 8.52087 15.6615 8.79675 15.4678 9.01465C15.2741 9.23254 14.9685 9.375 14.6248 9.375C14.281 9.375 13.9755 9.23254 13.7818 9.01465C13.588 8.79675 13.4998 8.52087 13.4998 8.25C13.4998 7.97913 13.588 7.70325 13.7818 7.48535C13.8994 7.35303 14.0662 7.26355 14.2498 7.2019V6.375H6.74979V7.2019C6.93338 7.26355 7.10013 7.35303 7.2178 7.48535C7.41153 7.70325 7.49979 7.97913 7.49979 8.25C7.49979 8.52087 7.41153 8.79675 7.2178 9.01465C7.02408 9.23254 6.71854 9.375 6.37479 9.375C6.03104 9.375 5.72549 9.23254 5.53177 9.01465C5.33804 8.79675 5.24979 8.52087 5.24979 8.25C5.24979 7.97913 5.33804 7.70325 5.53177 7.48535C5.64944 7.35303 5.81616 7.26355 5.99979 7.2019V6.375H1.66458L0.723419 19.4626C0.723419 19.5752 0.760834 19.6873 0.836212 19.7622C0.911591 19.8372 0.987 19.875 1.09988 19.875H19.8623C19.9377 19.875 20.0506 19.8372 20.126 19.7622C20.2014 19.6873 20.2395 19.5752 20.2395 19.4626L19.2222 5.21265C19.2222 5.02515 19.0333 4.875 18.845 4.875ZM6.38724 7.87939C6.37918 7.87964 6.37112 7.87964 6.36307 7.87939C6.28488 7.88135 6.22754 7.89404 6.1828 7.91516C6.14569 7.93274 6.11725 7.95593 6.0928 7.9834C6.03653 8.04675 5.99979 8.14587 5.99979 8.25C5.99979 8.35413 6.03653 8.45325 6.0928 8.5166C6.1246 8.55237 6.16061 8.58228 6.21408 8.60156C6.25525 8.61646 6.30679 8.625 6.37479 8.625C6.45132 8.625 6.50705 8.61414 6.55057 8.5957C6.59592 8.57642 6.62805 8.54895 6.65677 8.5166C6.71304 8.45325 6.74979 8.35413 6.74979 8.25C6.74979 8.14587 6.71304 8.04675 6.65677 7.9834C6.60297 7.92285 6.52957 7.88306 6.38724 7.87939ZM14.6274 7.87952L14.6131 7.87939C14.47 7.88293 14.3968 7.92273 14.3428 7.9834C14.2865 8.04675 14.2498 8.14587 14.2498 8.25C14.2498 8.35413 14.2865 8.45325 14.3428 8.5166C14.3991 8.57996 14.4685 8.625 14.6248 8.625C14.781 8.625 14.8505 8.57996 14.9068 8.5166C14.963 8.45325 14.9998 8.35413 14.9998 8.25C14.9998 8.14587 14.963 8.04675 14.9068 7.9834C14.853 7.92285 14.7796 7.88306 14.6372 7.87939L14.6274 7.87952Z" fill="#999999"/>
</svg>
