<svg width="21" height="21" viewBox="0 0 21 21" fill="none" xmlns="http://www.w3.org/2000/svg">
<path d="M15.7556 6C15.7556 5.775 15.906 5.625 16.1321 5.625H17.6394C17.8656 5.625 18.0166 5.775 18.0166 6C18.0166 6.225 17.8656 6.375 17.6394 6.375H16.1321C15.906 6.375 15.7556 6.225 15.7556 6Z" fill="#C49664"/>
<path d="M10.201 9.95385C10.278 9.87465 10.3832 9.82926 10.4937 9.82764C10.5494 9.82682 10.6047 9.83719 10.6563 9.85812C10.708 9.87905 10.7549 9.91012 10.7943 9.9495C10.8337 9.98888 10.8648 10.0358 10.8858 10.0874C10.9068 10.139 10.9172 10.1943 10.9165 10.25V11.2917C10.9172 11.3469 10.907 11.4017 10.8864 11.4529C10.8659 11.5042 10.8353 11.5508 10.7965 11.5901C10.7578 11.6294 10.7116 11.6607 10.6606 11.682C10.6097 11.7033 10.555 11.7143 10.4998 11.7143C10.4446 11.7143 10.3899 11.7033 10.339 11.682C10.288 11.6607 10.2418 11.6294 10.2031 11.5901C10.1643 11.5508 10.1337 11.5042 10.1131 11.4529C10.0925 11.4017 10.0823 11.3469 10.0831 11.2917V10.25C10.0816 10.1396 10.124 10.033 10.201 9.95385Z" fill="#C49664"/>
<path d="M12.1683 10.387C12.2329 10.3494 12.3065 10.3299 12.3813 10.3306C12.4547 10.3312 12.5266 10.3511 12.5898 10.3884C12.653 10.4257 12.7052 10.4791 12.7411 10.543C12.7771 10.607 12.7955 10.6793 12.7946 10.7527C12.7936 10.826 12.7733 10.8979 12.7357 10.9609L12.2149 11.863C12.1875 11.9104 12.1511 11.9519 12.1077 11.9852C12.0643 12.0186 12.0147 12.043 11.9618 12.0572C11.909 12.0714 11.8538 12.075 11.7996 12.0679C11.7453 12.0607 11.693 12.043 11.6456 12.0156C11.5982 11.9882 11.5566 11.9518 11.5233 11.9084C11.49 11.865 11.4656 11.8154 11.4514 11.7625C11.4372 11.7097 11.4336 11.6545 11.4408 11.6003C11.4479 11.546 11.4657 11.4937 11.493 11.4463L12.0139 10.5442C12.0503 10.4789 12.1037 10.4246 12.1683 10.387Z" fill="#C49664"/>
<path d="M8.40176 10.3935C8.46316 10.3553 8.53343 10.3338 8.60566 10.331C8.68252 10.328 8.7587 10.3463 8.82578 10.3839C8.89285 10.4216 8.94821 10.477 8.98571 10.5442L9.50654 11.4463C9.53391 11.4937 9.55168 11.546 9.55882 11.6003C9.56597 11.6545 9.56236 11.7097 9.54819 11.7625C9.53402 11.8154 9.50958 11.865 9.47626 11.9084C9.44294 11.9518 9.40139 11.9882 9.35399 12.0156C9.30659 12.043 9.25426 12.0607 9.19999 12.0679C9.14573 12.075 9.09059 12.0714 9.03773 12.0572C8.98486 12.043 8.93531 12.0186 8.89189 11.9852C8.84848 11.9519 8.81205 11.9104 8.7847 11.863L8.26387 10.9609C8.22683 10.8988 8.20658 10.8281 8.20511 10.7559C8.20364 10.6836 8.221 10.6122 8.25548 10.5486C8.28995 10.4851 8.34037 10.4316 8.40176 10.3935Z" fill="#C49664"/>
<path d="M7.00149 11.785C7.07721 11.7299 7.1693 11.7019 7.26289 11.7055C7.33267 11.7081 7.40068 11.7283 7.46064 11.7641L8.36274 12.2849C8.41015 12.3123 8.4517 12.3487 8.48503 12.3921C8.51836 12.4355 8.54281 12.4851 8.55699 12.5379C8.57116 12.5908 8.57478 12.6459 8.56765 12.7002C8.56051 12.7545 8.54275 12.8068 8.51539 12.8542C8.48803 12.9016 8.4516 12.9432 8.40818 12.9765C8.36476 13.0098 8.3152 13.0342 8.26233 13.0484C8.20947 13.0626 8.15433 13.0662 8.10006 13.059C8.0458 13.0519 7.99347 13.0341 7.94608 13.0068L7.04398 12.4859C6.96215 12.4403 6.89807 12.3685 6.86207 12.2821C6.82606 12.1956 6.82024 12.0995 6.84553 12.0093C6.87083 11.9192 6.92577 11.8401 7.00149 11.785Z" fill="#C49664"/>
<path d="M13.5389 11.7641C13.6073 11.7233 13.686 11.703 13.7656 11.7055C13.8567 11.7083 13.9443 11.7409 14.0151 11.7984C14.0859 11.8558 14.1359 11.9348 14.1575 12.0234C14.1791 12.112 14.171 12.2052 14.1345 12.2887C14.0981 12.3722 14.0352 12.4415 13.9556 12.4859L13.0535 13.0068C13.0061 13.0341 12.9538 13.0519 12.8995 13.059C12.8452 13.0662 12.7901 13.0626 12.7372 13.0484C12.6844 13.0342 12.6348 13.0098 12.5914 12.9765C12.548 12.9432 12.5115 12.9016 12.4842 12.8542C12.4568 12.8068 12.4391 12.7545 12.4319 12.7002C12.4248 12.6459 12.4284 12.5908 12.4426 12.5379C12.4568 12.4851 12.4812 12.4355 12.5145 12.3921C12.5479 12.3487 12.5894 12.3123 12.6368 12.2849L13.5389 11.7641Z" fill="#C49664"/>
<path d="M6.58852 13.6133C6.63976 13.5928 6.69457 13.5826 6.74979 13.5833H7.79145C7.84667 13.5826 7.90148 13.5928 7.95272 13.6133C8.00396 13.6339 8.05059 13.6645 8.08991 13.7033C8.12923 13.742 8.16046 13.7882 8.18177 13.8392C8.20308 13.8901 8.21405 13.9448 8.21405 14C8.21405 14.0552 8.20308 14.1099 8.18177 14.1608C8.16046 14.2118 8.12923 14.258 8.08991 14.2967C8.05059 14.3355 8.00396 14.3661 7.95272 14.3867C7.90148 14.4072 7.84667 14.4174 7.79145 14.4167H6.74979C6.69457 14.4174 6.63976 14.4072 6.58852 14.3867C6.53728 14.3661 6.49065 14.3355 6.45133 14.2967C6.41201 14.258 6.38078 14.2118 6.35947 14.1608C6.33816 14.1099 6.32719 14.0552 6.32719 14C6.32719 13.9448 6.33816 13.8901 6.35947 13.8392C6.38078 13.7882 6.41201 13.742 6.45133 13.7033C6.49065 13.6645 6.53728 13.6339 6.58852 13.6133Z" fill="#C49664"/>
<path d="M13.0469 13.6133C13.0981 13.5928 13.1529 13.5826 13.2081 13.5833H14.2498C14.305 13.5826 14.3598 13.5928 14.4111 13.6133C14.4623 13.6339 14.5089 13.6645 14.5482 13.7033C14.5876 13.742 14.6188 13.7882 14.6401 13.8392C14.6614 13.8901 14.6724 13.9448 14.6724 14C14.6724 14.0552 14.6614 14.1099 14.6401 14.1608C14.6188 14.2118 14.5876 14.258 14.5482 14.2967C14.5089 14.3355 14.4623 14.3661 14.4111 14.3867C14.3598 14.4072 14.305 14.4174 14.2498 14.4167H13.2081C13.1529 14.4174 13.0981 14.4072 13.0469 14.3867C12.9956 14.3661 12.949 14.3355 12.9097 14.2967C12.8703 14.258 12.8391 14.2118 12.8178 14.1608C12.7965 14.1099 12.7855 14.0552 12.7855 14C12.7855 13.9448 12.7965 13.8901 12.8178 13.8392C12.8391 13.7882 12.8703 13.742 12.9097 13.7033C12.949 13.6645 12.9956 13.6339 13.0469 13.6133Z" fill="#C49664"/>
<path d="M7.94608 14.9932C8.01447 14.9525 8.09312 14.9321 8.17272 14.9347C8.26383 14.9375 8.35149 14.9701 8.42228 15.0275C8.49307 15.085 8.54308 15.164 8.56464 15.2526C8.58621 15.3411 8.57814 15.4343 8.54167 15.5179C8.5052 15.6014 8.44235 15.6707 8.36274 15.7151L7.46064 16.2359C7.41325 16.2633 7.36092 16.2811 7.30666 16.2882C7.25239 16.2953 7.19725 16.2917 7.14439 16.2776C7.09152 16.2634 7.04196 16.239 6.99854 16.2056C6.95512 16.1723 6.91869 16.1308 6.89133 16.0834C6.86396 16.036 6.84621 15.9836 6.83907 15.9294C6.83193 15.8751 6.83556 15.82 6.84973 15.7671C6.86391 15.7142 6.88836 15.6647 6.92169 15.6213C6.95502 15.5779 6.99657 15.5414 7.04398 15.5141L7.94608 14.9932Z" fill="#C49664"/>
<path d="M12.5943 15.0142C12.6701 14.959 12.7622 14.931 12.8557 14.9347C12.9255 14.9373 12.9935 14.9575 13.0535 14.9932L13.9556 15.5141C14.003 15.5414 14.0446 15.5779 14.0779 15.6213C14.1112 15.6647 14.1357 15.7142 14.1498 15.7671C14.164 15.82 14.1676 15.8751 14.1605 15.9294C14.1534 15.9836 14.1356 16.036 14.1082 16.0834C14.0809 16.1308 14.0445 16.1723 14.001 16.2056C13.9576 16.239 13.9081 16.2634 13.8552 16.2776C13.8023 16.2917 13.7472 16.2953 13.6929 16.2882C13.6387 16.2811 13.5863 16.2633 13.5389 16.2359L12.6368 15.7151C12.555 15.6695 12.4909 15.5977 12.4549 15.5112C12.4189 15.4248 12.4131 15.3287 12.4384 15.2385C12.4637 15.1483 12.5186 15.0693 12.5943 15.0142Z" fill="#C49664"/>
<path d="M8.93913 15.9799C9.00378 15.9423 9.07735 15.9228 9.15213 15.9234C9.2255 15.924 9.29742 15.944 9.3606 15.9813C9.42379 16.0186 9.476 16.0719 9.51196 16.1359C9.54793 16.1998 9.56636 16.2722 9.56541 16.3455C9.56446 16.4189 9.54415 16.4907 9.50654 16.5537L8.98571 17.4558C8.95835 17.5032 8.92193 17.5448 8.87852 17.5781C8.8351 17.6114 8.78555 17.6359 8.73268 17.6501C8.67982 17.6642 8.62468 17.6679 8.57041 17.6607C8.51615 17.6536 8.46382 17.6358 8.41642 17.6085C8.36902 17.5811 8.32747 17.5447 8.29415 17.5012C8.26083 17.4578 8.23638 17.4083 8.22222 17.3554C8.20805 17.3025 8.20444 17.2474 8.21158 17.1931C8.21873 17.1389 8.2365 17.0865 8.26387 17.0391L8.7847 16.137C8.82114 16.0717 8.87448 16.0175 8.93913 15.9799Z" fill="#C49664"/>
<path d="M11.6309 15.9863C11.6923 15.9481 11.7626 15.9266 11.8348 15.9238C11.9117 15.9208 11.9879 15.9392 12.0549 15.9768C12.122 16.0144 12.1774 16.0699 12.2149 16.137L12.7357 17.0391C12.7631 17.0865 12.7808 17.1389 12.788 17.1931C12.7951 17.2474 12.7915 17.3025 12.7774 17.3554C12.7632 17.4083 12.7387 17.4578 12.7054 17.5012C12.6721 17.5447 12.6306 17.5811 12.5832 17.6085C12.5358 17.6358 12.4834 17.6536 12.4292 17.6607C12.3749 17.6679 12.3198 17.6642 12.2669 17.6501C12.214 17.6359 12.1645 17.6114 12.1211 17.5781C12.0776 17.5448 12.0412 17.5032 12.0139 17.4558L11.493 16.5537C11.456 16.4916 11.4358 16.421 11.4343 16.3487C11.4328 16.2764 11.4502 16.205 11.4846 16.1415C11.5191 16.0779 11.5695 16.0245 11.6309 15.9863Z" fill="#C49664"/>
<path d="M10.201 16.4122C10.278 16.333 10.3832 16.2876 10.4937 16.286C10.5494 16.2852 10.6047 16.2955 10.6563 16.3165C10.708 16.3374 10.7549 16.3685 10.7943 16.4078C10.8337 16.4472 10.8648 16.4941 10.8858 16.5457C10.9068 16.5973 10.9172 16.6526 10.9165 16.7083V17.75C10.9172 17.8052 10.907 17.86 10.8864 17.9113C10.8659 17.9625 10.8353 18.0091 10.7965 18.0485C10.7578 18.0878 10.7116 18.119 10.6606 18.1403C10.6097 18.1616 10.555 18.1726 10.4998 18.1726C10.4446 18.1726 10.3899 18.1616 10.339 18.1403C10.288 18.119 10.2418 18.0878 10.2031 18.0485C10.1643 18.0091 10.1337 17.9625 10.1131 17.9113C10.0925 17.86 10.0823 17.8052 10.0831 17.75V16.7083C10.0816 16.5979 10.124 16.4914 10.201 16.4122Z" fill="#C49664"/>
<path fill-rule="evenodd" clip-rule="evenodd" d="M6.01883 4.125C6.21056 1.81937 8.14559 0 10.4998 0C12.854 0 14.789 1.81937 14.9807 4.125H18.8076C19.4103 4.125 19.9003 4.57529 19.9378 5.17529L20.9925 19.3872C21.03 19.7247 20.9176 19.9875 20.6914 20.25C20.4657 20.5125 20.1638 20.625 19.8623 20.625H1.13724C0.83611 20.625 0.534259 20.475 0.308134 20.25C0.0820088 20.025 -0.0303916 19.7253 0.00710837 19.4253L1.02444 5.17529C1.06194 4.57529 1.55157 4.125 2.15457 4.125H6.01883ZM14.2315 4.125C14.0439 2.22672 12.4485 0.75 10.4998 0.75C8.55107 0.75 6.95566 2.22672 6.7681 4.125H14.2315ZM5.99978 4.875H2.15457C1.96594 4.875 1.77737 5.02515 1.77737 5.21265L1.74002 5.625H5.99978V4.875ZM14.2498 5.625V4.875H6.74978V5.625H14.2498ZM18.845 4.875H14.9998V5.98315C14.9999 5.98605 15.0006 5.98862 15.0012 5.99119C15.002 5.99399 15.0027 5.99679 15.0027 6C15.0027 6.00321 15.002 6.00601 15.0012 6.00881C15.0006 6.01138 14.9999 6.01395 14.9998 6.01685V7.2019C15.1834 7.26353 15.3501 7.35297 15.4678 7.48535C15.6615 7.70329 15.7498 7.97917 15.7498 8.25C15.7498 8.52083 15.6615 8.79671 15.4678 9.01465C15.2741 9.23259 14.9685 9.375 14.6248 9.375C14.281 9.375 13.9755 9.23259 13.7818 9.01465C13.588 8.79671 13.4998 8.52083 13.4998 8.25C13.4998 7.97917 13.588 7.70329 13.7818 7.48535C13.8994 7.35297 14.0662 7.26353 14.2498 7.2019V6.375H6.74978V7.2019C6.93339 7.26353 7.10013 7.35297 7.2178 7.48535C7.41153 7.70329 7.49978 7.97917 7.49978 8.25C7.49978 8.52083 7.41153 8.79671 7.2178 9.01465C7.02407 9.23259 6.71853 9.375 6.37478 9.375C6.03103 9.375 5.72549 9.23259 5.53177 9.01465C5.33804 8.79671 5.24978 8.52083 5.24978 8.25C5.24978 7.97917 5.33804 7.70329 5.53177 7.48535C5.64944 7.35297 5.81618 7.26353 5.99978 7.2019V6.375H1.66458L0.723417 19.4626C0.723417 19.5751 0.760835 19.6872 0.83621 19.7622C0.911585 19.8372 0.987007 19.875 1.09988 19.875H19.8623C19.9377 19.875 20.0506 19.8372 20.126 19.7622C20.2014 19.6872 20.2395 19.5751 20.2395 19.4626L19.2222 5.21265C19.2222 5.02515 19.0333 4.875 18.845 4.875ZM6.38724 7.87939C6.37918 7.87965 6.37112 7.87965 6.36307 7.87939C6.22004 7.88294 6.14674 7.92271 6.0928 7.9834C6.03653 8.04671 5.99978 8.14583 5.99978 8.25C5.99978 8.35417 6.03653 8.45329 6.0928 8.5166C6.14907 8.57991 6.21853 8.625 6.37478 8.625C6.53103 8.625 6.60049 8.57991 6.65677 8.5166C6.71304 8.45329 6.74978 8.35417 6.74978 8.25C6.74978 8.14583 6.71304 8.04671 6.65677 7.9834C6.60295 7.92286 6.52956 7.88311 6.38724 7.87939ZM14.6372 7.87939C14.6292 7.87965 14.6211 7.87965 14.6131 7.87939C14.47 7.88294 14.3967 7.92271 14.3428 7.9834C14.2865 8.04671 14.2498 8.14583 14.2498 8.25C14.2498 8.35417 14.2865 8.45329 14.3428 8.5166C14.3991 8.57991 14.4685 8.625 14.6248 8.625C14.781 8.625 14.8505 8.57991 14.9068 8.5166C14.963 8.45329 14.9998 8.35417 14.9998 8.25C14.9998 8.14583 14.963 8.04671 14.9068 7.9834C14.853 7.92286 14.7796 7.88311 14.6372 7.87939Z" fill="#C49664"/>
</svg>
