<svg width="24" height="19" viewBox="0 0 24 19" fill="none" xmlns="http://www.w3.org/2000/svg">
<path d="M24 0.839996V1.8H10.515C10.3238 1.8 10.08 2.04375 10.08 2.235V15.24H14.925C15.1537 13.8787 16.3369 12.84 17.76 12.84C19.1831 12.84 20.3662 13.8787 20.595 15.24H22.56C22.8262 15.24 23.04 15.0262 23.04 14.76V10.44H24V14.76C24 15.5494 23.3494 16.2 22.56 16.2H20.595C20.3662 17.5612 19.1831 18.6 17.76 18.6C16.3369 18.6 15.1537 17.5612 14.925 16.2H7.635C7.40625 17.5612 6.22313 18.6 4.8 18.6C3.37688 18.6 2.19375 17.5612 1.965 16.2H1.44C1.04063 16.2 0.690001 16.02 0.435001 15.765C0.180002 15.51 0 15.1594 0 14.76V10.155C0 9.615 0.206251 9.12 0.390001 8.745C0.573751 8.37 0.765001 8.1 0.765001 8.1V8.085L2.73 5.445H2.745V5.43C3.17063 4.8975 3.85313 4.2 4.8 4.2H8.64C8.8125 4.2 8.97 4.23187 9.12 4.29V2.235C9.12 1.46625 9.74625 0.839996 10.515 0.839996H24ZM24 2.76V3.72H15.36V2.76H24ZM24 4.68V5.64H16.8V4.68H24ZM8.64 5.16H6.72V9.48C6.72 9.87937 6.54 10.23 6.285 10.485C6.03 10.74 5.67937 10.92 5.28 10.92H0.960001V14.76C0.960001 14.8406 1.02 14.97 1.125 15.075C1.23 15.18 1.35938 15.24 1.44 15.24H1.965C2.19375 13.8787 3.37688 12.84 4.8 12.84C6.22313 12.84 7.40625 13.8787 7.635 15.24H9.12V5.64C9.12 5.55937 9.06 5.43 8.955 5.325C8.85 5.22 8.72063 5.16 8.64 5.16ZM5.76 5.16H4.8C4.40438 5.16 3.85312 5.60437 3.51 6.03L1.545 8.655L1.53 8.67C1.52063 8.68312 1.39125 8.86687 1.245 9.165C1.12313 9.4125 1.05938 9.70687 1.02 9.96H5.28C5.36063 9.96 5.49 9.9 5.595 9.795C5.7 9.69 5.76 9.56062 5.76 9.48V5.16ZM24 6.6V7.56H18.24V6.6H24ZM24 8.52V9.48H19.68V8.52H24ZM17.76 13.8C16.6931 13.8 15.84 14.6531 15.84 15.72C15.84 16.7869 16.6931 17.64 17.76 17.64C18.8269 17.64 19.68 16.7869 19.68 15.72C19.68 14.6531 18.8269 13.8 17.76 13.8ZM4.8 13.8C3.73313 13.8 2.88 14.6531 2.88 15.72C2.88 16.7869 3.73313 17.64 4.8 17.64C5.86688 17.64 6.72 16.7869 6.72 15.72C6.72 14.6531 5.86688 13.8 4.8 13.8Z" fill="#999999"/>
</svg>
