<svg width="24" height="24" viewBox="0 0 24 24" fill="none" xmlns="http://www.w3.org/2000/svg">
<path d="M7.67945 1.44C4.23785 1.44 1.43945 4.2384 1.43945 7.68V16.32C1.43945 19.7616 4.23785 22.56 7.67945 22.56H16.3195C19.7611 22.56 22.5595 19.7616 22.5595 16.32V7.68C22.5595 4.2384 19.7611 1.44 16.3195 1.44H7.67945ZM17.7595 5.28C18.2875 5.28 18.7195 5.712 18.7195 6.24C18.7195 6.768 18.2875 7.2 17.7595 7.2C17.2315 7.2 16.7995 6.768 16.7995 6.24C16.7995 5.712 17.2315 5.28 17.7595 5.28ZM11.9995 6.72C14.9131 6.72 17.2795 9.0864 17.2795 12C17.2795 14.9136 14.9131 17.28 11.9995 17.28C9.08585 17.28 6.71945 14.9136 6.71945 12C6.71945 9.0864 9.08585 6.72 11.9995 6.72ZM11.9995 7.68C9.61865 7.68 7.67945 9.6192 7.67945 12C7.67945 14.3808 9.61865 16.32 11.9995 16.32C14.3803 16.32 16.3195 14.3808 16.3195 12C16.3195 9.6192 14.3803 7.68 11.9995 7.68Z" fill="#727272"/>
</svg>
