<svg width="30" height="27" viewBox="0 0 30 27" fill="none" xmlns="http://www.w3.org/2000/svg">
<path fill-rule="evenodd" clip-rule="evenodd" d="M4.35026 0.338409C4.45429 0.130939 4.66595 0 4.89793 0H24.4898C24.7218 0 24.9334 0.130939 25.0375 0.338409L29.3232 8.90985C29.475 9.21238 29.3519 9.57949 29.0493 9.73136C28.9621 9.775 28.8688 9.79593 28.7767 9.79593C28.5519 9.79593 28.3355 9.67216 28.2278 9.45752L25.102 3.20592V12.4661C24.6405 12.3573 24.1657 12.2838 23.6778 12.2569C23.5415 12.2491 23.404 12.2449 23.2653 12.2449C18.8696 12.2449 15.3061 15.8084 15.3061 20.2041C15.3061 21.2893 15.5249 22.3224 15.9184 23.2653H4.89793C4.56072 23.2653 4.28569 22.9915 4.28569 22.6531V3.20592L1.15989 9.45752C1.00922 9.75946 0.642109 9.88143 0.338378 9.73136C0.0358424 9.58009 -0.0861284 9.21238 0.0645414 8.90985L4.35026 0.338409ZM17.7551 4.28572H11.6326C11.2954 4.28572 11.0204 4.55955 11.0204 4.89796C11.0204 5.00379 11.0479 5.10364 11.0945 5.19034C11.1986 5.38106 11.4006 5.51021 11.6326 5.51021H17.7551C18.0935 5.51021 18.3673 5.23637 18.3673 4.89796C18.3673 4.55955 18.0935 4.28572 17.7551 4.28572Z" fill="#727272"/>
<path fill-rule="evenodd" clip-rule="evenodd" d="M16.5306 20.2041C16.5306 16.49 19.5512 13.4694 23.2653 13.4694C26.9794 13.4694 30 16.49 30 20.2041C30 23.9182 26.9794 26.9388 23.2653 26.9388C19.5512 26.9388 16.5306 23.9182 16.5306 20.2041ZM26.3038 17.4592C25.5313 16.6048 24.4372 16.1049 23.2653 16.1049C21.0053 16.1049 19.1661 17.9441 19.1661 20.2041H19.7521C19.7521 18.2663 21.3281 16.6903 23.2653 16.6903C24.2793 16.6903 25.2264 17.1261 25.8901 17.8717L25.0219 18.7399H27.0715V16.6903L26.3038 17.4592ZM20.2268 22.9502C20.9981 23.8046 22.0958 24.3033 23.2653 24.3033C25.5253 24.3033 27.3645 22.4641 27.3645 20.2041H26.7785C26.7785 22.1419 25.2025 23.7179 23.2653 23.7179C22.2525 23.7179 21.303 23.2821 20.6405 22.5365L21.5087 21.6683H19.4591V23.7179L20.2268 22.9502Z" fill="#727272"/>
</svg>
