<svg width="16" height="15" viewBox="0 0 16 15" fill="none" xmlns="http://www.w3.org/2000/svg">
<path d="M8.00004 0C6.76747 0 5.76004 1.00743 5.76004 2.24C5.76004 2.58298 5.83951 2.90855 5.97879 3.2H2.82254C2.75016 3.19999 2.67991 3.22453 2.62327 3.26959C2.56663 3.31466 2.52693 3.37759 2.51067 3.44812L0.00816812 14.3281C-0.00263732 14.375 -0.00272311 14.4238 0.00791713 14.4707C0.0185574 14.5177 0.0396495 14.5616 0.0696233 14.5993C0.099597 14.6369 0.13768 14.6673 0.181037 14.6882C0.224395 14.7091 0.271909 14.72 0.320043 14.72H15.68C15.7282 14.72 15.7757 14.7091 15.819 14.6882C15.8624 14.6673 15.9005 14.6369 15.9305 14.5993C15.9604 14.5616 15.9815 14.5177 15.9922 14.4707C16.0028 14.4238 16.0027 14.375 15.9919 14.3281L13.4894 3.44812C13.4732 3.37759 13.4335 3.31466 13.3768 3.26959C13.3202 3.22453 13.2499 3.19999 13.1775 3.2H10.0213C10.1606 2.90855 10.24 2.58298 10.24 2.24C10.24 1.00743 9.23262 0 8.00004 0ZM8.00004 0.64C8.88587 0.64 9.60004 1.35417 9.60004 2.24C9.60004 2.60485 9.47451 2.93259 9.26942 3.2H6.73067C6.52558 2.93259 6.40004 2.60485 6.40004 2.24C6.40004 1.35417 7.11422 0.64 8.00004 0.64ZM3.07692 3.84H12.9225L15.2782 14.08H0.721918L3.07692 3.84ZM4.98317 6.52187V10.88H5.69254V9.785L5.94442 9.5325L6.94942 10.88H7.80754L6.47442 9.08437L7.72192 7.73687H6.89817L5.74129 9.01875H5.69254V6.52187H4.98317ZM9.31692 7.68125C8.51852 7.68125 8.02317 8.3044 8.02317 9.26312C8.02317 10.2042 8.51528 10.8169 9.30504 10.8169C9.73992 10.8169 10.0805 10.6338 10.2607 10.2987H10.3094V10.8912C10.3094 11.2829 10.0264 11.5119 9.54004 11.5119C9.15124 11.5119 8.89925 11.3747 8.85317 11.16H8.14067C8.19827 11.6979 8.72433 12.0531 9.52817 12.0537C10.4408 12.0537 11.0194 11.5982 11.0194 10.8744V7.7325H10.335V8.23312H10.2869C10.1151 7.89264 9.74316 7.68125 9.31692 7.68125ZM9.52817 8.28437C10.0203 8.28437 10.3213 8.66504 10.3213 9.26312C10.3213 9.86088 10.0232 10.2387 9.52817 10.2387C9.03313 10.2387 8.75317 9.86088 8.75317 9.26312C8.75317 8.66472 9.03313 8.28437 9.52817 8.28437Z" fill="#272727"/>
</svg>
