<svg width="30" height="27" viewBox="0 0 30 27" fill="none" xmlns="http://www.w3.org/2000/svg">
<path fill-rule="evenodd" clip-rule="evenodd" d="M4.54642 0.11121C4.64686 0.0400594 4.77003 0 4.89798 0H24.49C24.722 0 24.9337 0.130941 25.0377 0.338412L29.3235 8.90993C29.4753 9.21247 29.3522 9.57958 29.0496 9.73145C28.9623 9.7751 28.8691 9.79603 28.777 9.79603C28.5522 9.79603 28.3357 9.67226 28.2281 9.45761L25.1023 3.20595V12.4663C24.5116 12.3269 23.8993 12.245 23.2655 12.245C18.8698 12.245 15.3063 15.8085 15.3063 20.2043C15.3063 21.2895 15.5251 22.3227 15.9185 23.2656H4.89798C4.56077 23.2656 4.28573 22.9917 4.28573 22.6533V3.20595L1.1599 9.45761C1.00923 9.75955 0.642115 9.88153 0.338381 9.73145C0.0358427 9.58018 -0.0861293 9.21247 0.064542 8.90993L4.3503 0.338412C4.39694 0.245738 4.4651 0.168608 4.54642 0.11121ZM17.7553 4.28576H11.6327C11.2955 4.28576 11.0205 4.5596 11.0205 4.89801C11.0205 5.23643 11.2955 5.51026 11.6327 5.51026H17.7553C17.9382 5.51026 18.1032 5.43015 18.2157 5.30279C18.3101 5.19457 18.3675 5.05287 18.3675 4.89801C18.3675 4.5596 18.0937 4.28576 17.7553 4.28576Z" fill="#727272"/>
<path fill-rule="evenodd" clip-rule="evenodd" d="M18.4979 15.4372C19.8085 14.126 21.5376 13.4695 23.2655 13.4695C24.9935 13.4695 26.7226 14.126 28.0332 15.4372C30.6556 18.0596 30.6556 22.3502 28.0332 24.9726C25.4108 27.5944 21.1203 27.5944 18.4979 24.9726C15.8755 22.3502 15.8755 18.0596 18.4979 15.4372ZM21.4061 17.3918C21.2626 17.2489 21.0963 17.1771 20.9289 17.1771C20.7615 17.1771 20.5953 17.2489 20.4518 17.3918C20.166 17.6776 20.166 18.059 20.4518 18.3448L22.3125 20.2049L20.4518 22.0644C20.166 22.3502 20.166 22.7322 20.4518 23.018C20.7376 23.3038 21.1203 23.3038 21.4061 23.018L23.2655 21.158L25.125 23.018C25.4108 23.3038 25.7935 23.3038 26.0793 23.018C26.3651 22.7322 26.3651 22.3502 26.0793 22.0644L24.2186 20.2049L26.0793 18.3448C26.3651 18.059 26.3651 17.6776 26.0793 17.3918C25.7935 17.106 25.4108 17.106 25.125 17.3918L23.2655 19.2512L21.4061 17.3918Z" fill="#727272"/>
</svg>
