<svg width="70" height="19" viewBox="0 0 70 19" fill="none" xmlns="http://www.w3.org/2000/svg">
<rect x="0.25" y="0.25" width="69.5" height="18.5" rx="9.25" fill="#00A745" fill-opacity="0.1" stroke="#00A745" stroke-width="0.5"/>
<path d="M10.6689 7.49268L10.0459 8.11572L9.41748 7.4873L10.0405 6.86426L10.6689 7.49268ZM13.6445 11.0054C13.4727 11.0054 13.3097 10.9857 13.1558 10.9463C13.0054 10.9033 12.8621 10.8424 12.7261 10.7637C12.7368 10.957 12.7314 11.154 12.71 11.3545C12.6885 11.555 12.6455 11.7591 12.5811 11.9668C12.5059 12.2031 12.3949 12.418 12.248 12.6113C12.1048 12.8083 11.9258 12.9766 11.7109 13.1162C11.4746 13.2773 11.2078 13.3991 10.9106 13.4814C10.6134 13.5674 10.2804 13.6193 9.91162 13.6372H9.75586C9.41927 13.6372 9.11133 13.5889 8.83203 13.4922C8.55632 13.3955 8.31104 13.2541 8.09619 13.0679C7.89925 12.8924 7.73633 12.6829 7.60742 12.4395C7.4821 12.1995 7.39974 11.9399 7.36035 11.6606C7.33887 11.5031 7.32812 11.3455 7.32812 11.188C7.33171 11.034 7.34245 10.8854 7.36035 10.7422C7.37826 10.5954 7.40153 10.4575 7.43018 10.3286C7.45882 10.1961 7.48926 10.078 7.52148 9.97412C7.60384 9.71273 7.68978 9.49072 7.7793 9.30811C7.86882 9.12549 7.9458 8.98763 8.01025 8.89453L8.62256 9.34033C8.57243 9.40837 8.51156 9.52116 8.43994 9.67871C8.36833 9.83268 8.30208 10.0117 8.24121 10.2158C8.18392 10.4199 8.13916 10.6401 8.10693 10.8765C8.07829 11.1092 8.08008 11.3348 8.1123 11.5532C8.12305 11.6213 8.14095 11.7 8.16602 11.7896C8.19108 11.8826 8.22689 11.9775 8.27344 12.0742C8.32357 12.1745 8.38802 12.2729 8.4668 12.3696C8.54557 12.4663 8.64404 12.5522 8.76221 12.6274C8.88037 12.7062 9.02002 12.7689 9.18115 12.8154C9.34587 12.862 9.53564 12.8853 9.75049 12.8853H9.80957C9.8418 12.8853 9.86507 12.8835 9.87939 12.8799C10.4201 12.8512 10.8569 12.742 11.1899 12.5522C11.5229 12.3625 11.745 12.0903 11.856 11.7358C11.924 11.5138 11.9598 11.2918 11.9634 11.0698C11.9705 10.8514 11.9562 10.6419 11.9204 10.4414C11.8882 10.2409 11.8416 10.0547 11.7808 9.88281C11.7235 9.70736 11.6662 9.5516 11.6089 9.41553C11.5802 9.3654 11.5534 9.31348 11.5283 9.25977C11.5068 9.20605 11.4818 9.15055 11.4531 9.09326C11.4316 9.05387 11.4137 9.02344 11.3994 9.00195C11.3851 8.98047 11.3779 8.96794 11.3779 8.96436L12.0171 8.55615C12.0243 8.56689 12.0529 8.61882 12.103 8.71191C12.1567 8.80143 12.2194 8.92318 12.291 9.07715C12.4307 9.3457 12.5632 9.55697 12.6885 9.71094C12.8138 9.86491 12.932 9.98128 13.043 10.0601C13.154 10.1388 13.2596 10.189 13.3599 10.2104C13.4601 10.2319 13.555 10.2427 13.6445 10.2427C13.7484 10.2427 13.8379 10.2803 13.9131 10.3555C13.9883 10.4307 14.0259 10.5202 14.0259 10.624C14.0259 10.7279 13.9883 10.8174 13.9131 10.8926C13.8379 10.9678 13.7484 11.0054 13.6445 11.0054ZM14.9014 12.5308L14.2783 13.1538L13.6499 12.5254L14.2729 11.9023L14.9014 12.5308ZM16.2065 12.5361L15.5835 13.1592L14.9551 12.5308L15.5781 11.9077L16.2065 12.5361ZM13.2686 10.624C13.2686 10.5202 13.3062 10.4307 13.3813 10.3555C13.453 10.2803 13.5407 10.2427 13.6445 10.2427H14.1172C14.2533 10.2463 14.384 10.2463 14.5093 10.2427C14.6346 10.2355 14.7492 10.2176 14.853 10.189C14.9604 10.1567 15.0535 10.1102 15.1323 10.0493C15.2147 9.98844 15.2809 9.9043 15.3311 9.79688C15.3812 9.68587 15.3955 9.52832 15.374 9.32422C15.3525 9.12012 15.3006 8.88379 15.2183 8.61523C15.1896 8.53288 15.1556 8.44336 15.1162 8.34668C15.0804 8.25 15.0446 8.16048 15.0088 8.07812C14.9694 7.98503 14.9282 7.89014 14.8853 7.79346L15.5674 7.45508C15.5674 7.45866 15.5781 7.48551 15.5996 7.53564C15.6247 7.58577 15.6551 7.65381 15.6909 7.73975C15.7303 7.8221 15.7715 7.91878 15.8145 8.02979C15.8574 8.14079 15.8986 8.25895 15.938 8.38428C16.1743 9.11833 16.203 9.69124 16.0239 10.103C15.8413 10.5148 15.519 10.7852 15.0571 10.9141C14.9211 10.9535 14.7868 10.9785 14.6543 10.9893C14.5218 10.9964 14.3983 11 14.2837 11H13.6768H13.6445C13.5407 11 13.453 10.9642 13.3813 10.8926C13.3062 10.8174 13.2686 10.7279 13.2686 10.624ZM19.1123 10.7153V10.7314C19.1123 11.0645 19.0407 11.3831 18.8975 11.6875C18.7542 11.9919 18.5645 12.2747 18.3281 12.5361C18.0918 12.8011 17.8215 13.041 17.5171 13.2559C17.2127 13.4743 16.8994 13.6641 16.5771 13.8252L16.2441 13.1484C16.5234 13.0088 16.7938 12.8459 17.0552 12.6597C17.3201 12.4771 17.5529 12.2765 17.7534 12.0581C17.9539 11.8397 18.1097 11.6051 18.2207 11.3545C18.3317 11.1074 18.3747 10.8496 18.3496 10.5811V10.5864C18.3317 10.4432 18.3031 10.2874 18.2637 10.1191C18.2279 9.95085 18.1867 9.78613 18.1401 9.625C18.0972 9.46387 18.0542 9.31348 18.0112 9.17383C17.9683 9.0306 17.9325 8.91064 17.9038 8.81396L18.6235 8.59375V8.59912C18.645 8.66715 18.6755 8.75667 18.7148 8.86768C18.7578 8.9751 18.8062 9.08968 18.8599 9.21143C18.9172 9.33317 18.9834 9.45492 19.0586 9.57666C19.1338 9.6984 19.2161 9.80941 19.3057 9.90967C19.3988 10.0063 19.499 10.0869 19.6064 10.1514C19.7174 10.2122 19.8356 10.2427 19.9609 10.2427H20.0845H20.1167C20.2205 10.2427 20.3101 10.2803 20.3853 10.3555C20.4604 10.4307 20.498 10.5202 20.498 10.624C20.498 10.7279 20.4604 10.8174 20.3853 10.8926C20.3101 10.9642 20.2205 11 20.1167 11H20.0845H19.9609C19.7998 11 19.6476 10.9749 19.5044 10.9248C19.3647 10.8711 19.234 10.8013 19.1123 10.7153ZM21.3252 6.85352L20.7021 7.47656L20.0737 6.84814L20.6968 6.2251L21.3252 6.85352ZM22.6304 6.85889L22.0073 7.48193L21.3789 6.85352L22.002 6.23047L22.6304 6.85889ZM19.6172 10.624C19.6172 10.5202 19.6548 10.4307 19.73 10.3555C19.8016 10.2803 19.8893 10.2427 19.9932 10.2427H20.0576C20.4909 10.2427 20.8042 10.1675 20.9976 10.0171C21.1945 9.86312 21.293 9.63216 21.293 9.32422C21.293 9.17741 21.2769 9.00016 21.2446 8.79248C21.216 8.5848 21.173 8.38249 21.1157 8.18555L21.8354 7.98145C21.9035 8.21777 21.9554 8.45768 21.9912 8.70117C22.027 8.94108 22.0449 9.14876 22.0449 9.32422V9.3457C22.0449 9.4388 22.0539 9.53906 22.0718 9.64648C22.0897 9.75033 22.1219 9.84701 22.1685 9.93652C22.215 10.026 22.2795 10.0994 22.3618 10.1567C22.4442 10.214 22.5516 10.2427 22.6841 10.2427C22.7879 10.2427 22.8774 10.2803 22.9526 10.3555C23.0278 10.4307 23.0654 10.5202 23.0654 10.624C23.0654 10.7279 23.0278 10.8174 22.9526 10.8926C22.881 10.9642 22.7933 11 22.6895 11C22.4316 11 22.2186 10.9552 22.0503 10.8657C21.882 10.7762 21.7441 10.6616 21.6367 10.522C21.4756 10.6831 21.2643 10.8031 21.0029 10.8818C20.7451 10.9606 20.43 11 20.0576 11H19.9932C19.8893 11 19.8016 10.9642 19.73 10.8926C19.6548 10.8174 19.6172 10.7279 19.6172 10.624ZM23.9463 12.5308L23.3232 13.1538L22.6948 12.5254L23.3179 11.9023L23.9463 12.5308ZM25.2515 12.5361L24.6284 13.1592L24 12.5308L24.623 11.9077L25.2515 12.5361ZM22.3135 10.624C22.3135 10.5202 22.3511 10.4307 22.4263 10.3555C22.4979 10.2803 22.5856 10.2427 22.6895 10.2427H23.1621C23.2982 10.2463 23.4289 10.2463 23.5542 10.2427C23.6795 10.2355 23.7941 10.2176 23.8979 10.189C24.0054 10.1567 24.0985 10.1102 24.1772 10.0493C24.2596 9.98844 24.3258 9.9043 24.376 9.79688C24.4261 9.68587 24.4404 9.52832 24.4189 9.32422C24.3975 9.12012 24.3455 8.88379 24.2632 8.61523C24.2345 8.53288 24.2005 8.44336 24.1611 8.34668C24.1253 8.25 24.0895 8.16048 24.0537 8.07812C24.0143 7.98503 23.9731 7.89014 23.9302 7.79346L24.6123 7.45508C24.6123 7.45866 24.623 7.48551 24.6445 7.53564C24.6696 7.58577 24.7 7.65381 24.7358 7.73975C24.7752 7.8221 24.8164 7.91878 24.8594 8.02979C24.9023 8.14079 24.9435 8.25895 24.9829 8.38428C25.2192 9.11833 25.2479 9.69124 25.0688 10.103C24.8862 10.5148 24.564 10.7852 24.1021 10.9141C23.966 10.9535 23.8317 10.9785 23.6992 10.9893C23.5667 10.9964 23.4432 11 23.3286 11H22.7217H22.6895C22.5856 11 22.4979 10.9642 22.4263 10.8926C22.3511 10.8174 22.3135 10.7279 22.3135 10.624ZM26.4546 13.6426L26.084 12.9819C26.3418 12.8387 26.5835 12.6847 26.8091 12.52C27.0347 12.3553 27.2388 12.187 27.4214 12.0151C27.604 11.8433 27.7598 11.6714 27.8887 11.4995C28.0212 11.3276 28.1214 11.1611 28.1895 11C28.0856 11.0036 27.971 11.0036 27.8457 11C27.724 11 27.5933 10.9946 27.4536 10.9839C26.895 10.9445 26.485 10.7619 26.2236 10.436C25.9873 10.1424 25.9103 9.77002 25.9927 9.31885C26.0607 8.88916 26.2093 8.53109 26.4385 8.24463C26.5638 8.0835 26.7035 7.96175 26.8574 7.87939C27.0114 7.79346 27.1707 7.75049 27.3354 7.75049C27.7007 7.75049 28.0337 7.9152 28.3345 8.24463C28.4634 8.38786 28.5762 8.55436 28.6729 8.74414C28.7731 8.93034 28.8537 9.13086 28.9146 9.3457C28.979 9.56055 29.022 9.78434 29.0435 10.0171C29.0649 10.2498 29.0649 10.4826 29.0435 10.7153C29.0184 10.9624 28.936 11.2166 28.7964 11.478C28.6603 11.743 28.4688 12.0098 28.2217 12.2783C27.749 12.7939 27.16 13.2487 26.4546 13.6426ZM27.3354 8.50781C27.2424 8.50781 27.1421 8.57585 27.0347 8.71191C26.9631 8.80143 26.9022 8.90885 26.8521 9.03418C26.8055 9.15951 26.7679 9.29736 26.7393 9.44775C26.6963 9.67692 26.7231 9.85059 26.8198 9.96875C26.8592 10.0189 26.9076 10.0601 26.9648 10.0923C27.0221 10.1245 27.083 10.1514 27.1475 10.1729C27.2119 10.1908 27.2746 10.2051 27.3354 10.2158C27.3999 10.223 27.4554 10.2284 27.502 10.2319C27.6631 10.2391 27.8099 10.2427 27.9424 10.2427C28.0785 10.2391 28.1966 10.2337 28.2969 10.2266C28.2826 9.90072 28.2235 9.61068 28.1196 9.35645C28.0194 9.10221 27.903 8.90169 27.7705 8.75488C27.7204 8.70117 27.6577 8.64746 27.5825 8.59375C27.5073 8.53646 27.425 8.50781 27.3354 8.50781ZM33.9956 8.58301C34.0672 8.82292 34.1353 9.05924 34.1997 9.29199C34.2248 9.39225 34.2516 9.49609 34.2803 9.60352C34.3089 9.71094 34.334 9.81836 34.3555 9.92578C34.3805 10.0332 34.402 10.137 34.4199 10.2373C34.4378 10.3376 34.4521 10.4307 34.4629 10.5166C34.4665 10.5452 34.4683 10.5775 34.4683 10.6133C34.4718 10.6491 34.4736 10.6885 34.4736 10.7314C34.4736 11.0645 34.402 11.3831 34.2588 11.6875C34.1156 11.9919 33.9258 12.2747 33.6895 12.5361C33.4531 12.8011 33.1828 13.041 32.8784 13.2559C32.5741 13.4743 32.2607 13.6641 31.9385 13.8252L31.6055 13.1484C31.874 13.016 32.1336 12.862 32.3843 12.6865C32.6385 12.5111 32.8641 12.3195 33.061 12.1118C33.2616 11.9077 33.4209 11.6875 33.5391 11.4512C33.6608 11.2184 33.7217 10.9785 33.7217 10.7314C33.7217 10.7171 33.7199 10.6956 33.7163 10.667C33.7163 10.6383 33.7145 10.6097 33.7109 10.5811V10.5864C33.7002 10.5076 33.6859 10.4217 33.668 10.3286C33.6536 10.2355 33.634 10.1406 33.6089 10.0439C33.5874 9.94368 33.5641 9.84521 33.5391 9.74854C33.514 9.64827 33.4889 9.5516 33.4639 9.4585C33.403 9.24365 33.3368 9.02881 33.2651 8.81396L33.9956 8.58301ZM36.6167 11.0752C36.5522 11.0752 36.486 11.0734 36.418 11.0698C36.3535 11.0662 36.2855 11.0609 36.2139 11.0537C36.0527 11.0394 35.9006 11.0179 35.7573 10.9893C35.6141 10.9606 35.4888 10.9338 35.3813 10.9087C35.2739 10.88 35.1862 10.855 35.1182 10.8335C35.0537 10.812 35.0197 10.8013 35.0161 10.8013L35.2686 10.0815C35.2686 10.0815 35.2972 10.0905 35.3545 10.1084C35.4118 10.1263 35.487 10.1478 35.5801 10.1729C35.6768 10.1979 35.786 10.223 35.9077 10.248C36.033 10.2695 36.1655 10.2874 36.3052 10.3018C36.4162 10.3125 36.5361 10.3179 36.665 10.3179C36.7939 10.3179 36.9193 10.3071 37.041 10.2856C37.1663 10.2606 37.2827 10.223 37.3901 10.1729C37.5011 10.1191 37.5942 10.0475 37.6694 9.95801C37.7375 9.87565 37.7464 9.72705 37.6963 9.51221C37.6533 9.32601 37.5728 9.12728 37.4546 8.91602C37.3364 8.70475 37.1968 8.50244 37.0356 8.30908C36.8781 8.11572 36.708 7.94206 36.5254 7.78809C36.3428 7.63053 36.1655 7.51416 35.9937 7.43896L36.3052 6.74072C36.5308 6.84456 36.7581 6.99316 36.9873 7.18652C37.2165 7.37988 37.4277 7.59473 37.6211 7.83105C37.818 8.06738 37.9881 8.31803 38.1313 8.58301C38.2782 8.8444 38.3802 9.09684 38.4375 9.34033C38.4697 9.48356 38.4858 9.61247 38.4858 9.72705C38.4858 9.84163 38.4751 9.94368 38.4536 10.0332C38.4321 10.1227 38.4017 10.2015 38.3623 10.2695C38.3265 10.3376 38.2889 10.3949 38.2495 10.4414C38.0168 10.7279 37.6891 10.9159 37.2666 11.0054C37.1699 11.0304 37.0661 11.0483 36.9551 11.0591C36.8477 11.0698 36.7349 11.0752 36.6167 11.0752ZM43.4272 11.0752C43.3628 11.0752 43.2965 11.0734 43.2285 11.0698C43.1641 11.0662 43.096 11.0609 43.0244 11.0537C42.8633 11.0394 42.7111 11.0179 42.5679 10.9893C42.4246 10.9606 42.2993 10.9338 42.1919 10.9087C42.0845 10.88 41.9967 10.855 41.9287 10.8335C41.8643 10.812 41.8302 10.8013 41.8267 10.8013L42.0791 10.0815C42.0791 10.0815 42.1077 10.0905 42.165 10.1084C42.2223 10.1263 42.2975 10.1478 42.3906 10.1729C42.4873 10.1979 42.5965 10.223 42.7183 10.248C42.8436 10.2695 42.9761 10.2874 43.1157 10.3018C43.2267 10.3125 43.3467 10.3179 43.4756 10.3179C43.6045 10.3179 43.7298 10.3071 43.8516 10.2856C43.9769 10.2606 44.0933 10.223 44.2007 10.1729C44.3117 10.1191 44.4048 10.0475 44.48 9.95801C44.548 9.87565 44.557 9.72705 44.5068 9.51221C44.4639 9.32601 44.3833 9.12728 44.2651 8.91602C44.147 8.70475 44.0073 8.50244 43.8462 8.30908C43.6886 8.11572 43.5186 7.94206 43.3359 7.78809C43.1533 7.63053 42.9761 7.51416 42.8042 7.43896L43.1157 6.74072C43.3413 6.84456 43.5687 6.99316 43.7979 7.18652C44.027 7.37988 44.2383 7.59473 44.4316 7.83105C44.6286 8.06738 44.7987 8.31803 44.9419 8.58301C45.0887 8.8444 45.1908 9.09684 45.248 9.34033C45.2803 9.48356 45.2964 9.61247 45.2964 9.72705C45.2964 9.84163 45.2856 9.94368 45.2642 10.0332C45.2427 10.1227 45.2122 10.2015 45.1729 10.2695C45.137 10.3376 45.0994 10.3949 45.0601 10.4414C44.8273 10.7279 44.4997 10.9159 44.0771 11.0054C43.9805 11.0304 43.8766 11.0483 43.7656 11.0591C43.6582 11.0698 43.5454 11.0752 43.4272 11.0752ZM47.1387 8.49707C47.042 8.49707 46.9417 8.5651 46.8379 8.70117C46.7663 8.79069 46.7054 8.89811 46.6553 9.02344C46.6087 9.14518 46.5711 9.28304 46.5425 9.43701C46.5031 9.66976 46.5299 9.84163 46.623 9.95264C46.6624 10.0063 46.7108 10.0511 46.7681 10.0869C46.8289 10.1191 46.8898 10.1478 46.9507 10.1729C47.0151 10.1943 47.0778 10.2122 47.1387 10.2266C47.1995 10.2373 47.255 10.2445 47.3052 10.248H48.1001C48.0894 9.91146 48.0321 9.61426 47.9282 9.35645C47.8244 9.09505 47.7062 8.89095 47.5737 8.74414C47.5236 8.68327 47.4609 8.62777 47.3857 8.57764C47.3105 8.52393 47.2282 8.49707 47.1387 8.49707ZM46.2578 13.6265L45.8872 12.9658C46.1414 12.8226 46.3796 12.6686 46.6016 12.5039C46.8271 12.3428 47.0295 12.1763 47.2085 12.0044C47.3875 11.8361 47.5433 11.666 47.6758 11.4941C47.8083 11.3258 47.9103 11.1611 47.9819 11C47.8817 10.9964 47.7707 10.9946 47.6489 10.9946C47.5272 10.991 47.3965 10.9821 47.2568 10.9678C46.6947 10.9355 46.2847 10.7529 46.0269 10.4199C45.7941 10.1227 45.7171 9.75033 45.7959 9.30273C45.8353 9.08789 45.8908 8.89095 45.9624 8.71191C46.0376 8.53288 46.1307 8.37354 46.2417 8.23389C46.367 8.07275 46.5067 7.95101 46.6606 7.86865C46.8146 7.78271 46.974 7.73975 47.1387 7.73975C47.5075 7.73975 47.8405 7.90446 48.1377 8.23389C48.3561 8.4738 48.5262 8.77279 48.6479 9.13086C48.7733 9.48535 48.8431 9.85775 48.8574 10.248H49.1904C49.2943 10.248 49.3838 10.2856 49.459 10.3608C49.5342 10.4325 49.5718 10.522 49.5718 10.6294C49.5718 10.7332 49.5342 10.821 49.459 10.8926C49.3838 10.9642 49.2943 11 49.1904 11H48.7876C48.7303 11.2041 48.6372 11.4118 48.5083 11.623C48.3794 11.8343 48.2183 12.0492 48.0249 12.2676C47.7957 12.5146 47.5326 12.7546 47.2354 12.9873C46.9382 13.2201 46.6123 13.4331 46.2578 13.6265ZM52.687 12.3911L52.064 13.0142L51.4355 12.3857L52.0586 11.7627L52.687 12.3911ZM48.7178 10.6187C48.7178 10.5148 48.7554 10.4271 48.8306 10.3555C48.9058 10.2803 48.9953 10.2427 49.0991 10.2427H49.7705C50.1143 10.2427 50.4437 10.2104 50.7588 10.146C51.0739 10.0815 51.38 9.9974 51.6772 9.89355C51.9744 9.78971 52.2627 9.67155 52.542 9.53906C52.8249 9.40299 53.1042 9.26693 53.3799 9.13086L53.4497 9.09326C53.2778 9.03239 53.1095 8.96615 52.9448 8.89453C52.7837 8.81934 52.6243 8.74593 52.4668 8.67432C52.2305 8.55973 52.0049 8.45947 51.79 8.37354C51.5752 8.28402 51.3872 8.23926 51.2261 8.23926C51.1187 8.23926 51.0166 8.26253 50.9199 8.30908C50.8268 8.35563 50.7409 8.41471 50.6621 8.48633C50.5833 8.55436 50.5117 8.62956 50.4473 8.71191C50.3828 8.79069 50.3273 8.86589 50.2808 8.9375C50.2378 9.00553 50.2038 9.06462 50.1787 9.11475C50.1536 9.1613 50.1411 9.18457 50.1411 9.18457L49.4482 8.87305C49.4518 8.86947 49.4626 8.84798 49.4805 8.80859C49.502 8.76921 49.5306 8.71908 49.5664 8.6582C49.6022 8.59375 49.6452 8.52214 49.6953 8.44336C49.749 8.36458 49.8117 8.28402 49.8833 8.20166C50.2808 7.72184 50.7284 7.48193 51.2261 7.48193C51.4731 7.48193 51.7274 7.53385 51.9888 7.6377C52.2502 7.74154 52.5187 7.85791 52.7944 7.98682C52.9448 8.05843 53.097 8.13005 53.251 8.20166C53.4049 8.26969 53.5589 8.33057 53.7129 8.38428C53.8704 8.43799 54.028 8.48275 54.1855 8.51855C54.3431 8.55078 54.5007 8.56689 54.6582 8.56689L54.8032 9.29736C54.6242 9.36898 54.4451 9.44954 54.2661 9.53906C54.0907 9.625 53.908 9.71452 53.7183 9.80762C53.439 9.94727 53.1489 10.0887 52.8481 10.2319C52.5474 10.3716 52.2323 10.4987 51.9028 10.6133C51.577 10.7279 51.2368 10.821 50.8823 10.8926C50.5278 10.9642 50.1572 11 49.7705 11H49.1313H49.0991C48.9953 11 48.9058 10.9624 48.8306 10.8872C48.7554 10.812 48.7178 10.7225 48.7178 10.6187ZM56.6992 8.49707C56.6025 8.49707 56.5023 8.5651 56.3984 8.70117C56.3268 8.79069 56.266 8.89811 56.2158 9.02344C56.1693 9.14518 56.1317 9.28304 56.103 9.43701C56.0636 9.66976 56.0905 9.84163 56.1836 9.95264C56.223 10.0063 56.2713 10.0511 56.3286 10.0869C56.3895 10.1191 56.4504 10.1478 56.5112 10.1729C56.5757 10.1943 56.6383 10.2122 56.6992 10.2266C56.7601 10.2373 56.8156 10.2445 56.8657 10.248H57.6606C57.6499 9.91146 57.5926 9.61426 57.4888 9.35645C57.3849 9.09505 57.2668 8.89095 57.1343 8.74414C57.0841 8.68327 57.0215 8.62777 56.9463 8.57764C56.8711 8.52393 56.7887 8.49707 56.6992 8.49707ZM55.8184 13.6265L55.4478 12.9658C55.702 12.8226 55.9401 12.6686 56.1621 12.5039C56.3877 12.3428 56.59 12.1763 56.769 12.0044C56.9481 11.8361 57.1038 11.666 57.2363 11.4941C57.3688 11.3258 57.4709 11.1611 57.5425 11C57.4422 10.9964 57.3312 10.9946 57.2095 10.9946C57.0877 10.991 56.957 10.9821 56.8174 10.9678C56.2552 10.9355 55.8452 10.7529 55.5874 10.4199C55.3547 10.1227 55.2777 9.75033 55.3564 9.30273C55.3958 9.08789 55.4513 8.89095 55.5229 8.71191C55.5981 8.53288 55.6912 8.37354 55.8022 8.23389C55.9276 8.07275 56.0672 7.95101 56.2212 7.86865C56.3752 7.78271 56.5345 7.73975 56.6992 7.73975C57.068 7.73975 57.401 7.90446 57.6982 8.23389C57.9167 8.4738 58.0868 8.77279 58.2085 9.13086C58.3338 9.48535 58.4036 9.85775 58.418 10.248H58.751C58.8548 10.248 58.9443 10.2856 59.0195 10.3608C59.0947 10.4325 59.1323 10.522 59.1323 10.6294C59.1323 10.7332 59.0947 10.821 59.0195 10.8926C58.9443 10.9642 58.8548 11 58.751 11H58.3481C58.2909 11.2041 58.1978 11.4118 58.0688 11.623C57.9399 11.8343 57.7788 12.0492 57.5854 12.2676C57.3563 12.5146 57.0931 12.7546 56.7959 12.9873C56.4987 13.2201 56.1729 13.4331 55.8184 13.6265ZM58.375 10.624C58.375 10.5202 58.4108 10.4325 58.4824 10.3608C58.554 10.2856 58.6418 10.2463 58.7456 10.2427H58.751C58.9658 10.2427 59.1466 10.2087 59.2935 10.1406C59.4438 10.069 59.5728 9.97591 59.6802 9.86133C59.7912 9.74674 59.8879 9.61426 59.9702 9.46387C60.0526 9.31348 60.1331 9.15951 60.2119 9.00195C60.2799 8.86589 60.3462 8.73519 60.4106 8.60986C60.4787 8.48096 60.5557 8.36458 60.6416 8.26074C60.8708 7.98145 61.1501 7.8418 61.4795 7.8418C61.8662 7.8418 62.1867 7.99577 62.4409 8.30371C62.645 8.55078 62.7686 8.85872 62.8115 9.22754C62.8366 9.40299 62.8402 9.57666 62.8223 9.74854C62.8044 9.91683 62.7668 10.0762 62.7095 10.2266C62.6379 10.4092 62.5394 10.5614 62.4141 10.6831C62.2923 10.8013 62.1509 10.8818 61.9897 10.9248C61.6997 11 61.3757 10.966 61.0176 10.8228C60.7705 10.7225 60.5109 10.5739 60.2388 10.377C60.2209 10.3949 60.2083 10.4056 60.2012 10.4092C59.818 10.8031 59.3346 11 58.751 11H58.7456C58.6418 11 58.554 10.9642 58.4824 10.8926C58.4108 10.8174 58.375 10.7279 58.375 10.624ZM60.6792 9.75391C60.9155 9.92578 61.1286 10.0511 61.3184 10.1299C61.5117 10.2051 61.6711 10.2248 61.7964 10.189C61.8394 10.1782 61.8787 10.1496 61.9146 10.103C61.9539 10.0529 61.9862 9.99023 62.0112 9.91504C62.0399 9.83626 62.0578 9.74674 62.0649 9.64648C62.0757 9.54622 62.0739 9.4388 62.0596 9.32422C62.056 9.29557 62.0452 9.24186 62.0273 9.16309C62.0094 9.08431 61.979 9.00374 61.936 8.92139C61.8931 8.83545 61.834 8.76025 61.7588 8.6958C61.6872 8.63135 61.5941 8.59912 61.4795 8.59912C61.3757 8.59912 61.2826 8.65999 61.2002 8.78174C61.1178 8.8999 61.014 9.08431 60.8887 9.33496L60.6792 9.75391Z" fill="#00A745"/>
</svg>
