<svg width="70" height="19" viewBox="0 0 70 19" fill="none" xmlns="http://www.w3.org/2000/svg">
<rect x="0.25" y="0.25" width="69.5" height="18.5" rx="9.25" fill="#915858" fill-opacity="0.1" stroke="#915858" stroke-width="0.5"/>
<path d="M13.2847 8.01465L12.6616 8.6377L12.0332 8.00928L12.6562 7.38623L13.2847 8.01465ZM14.5898 8.02002L13.9668 8.64307L13.3384 8.01465L13.9614 7.3916L14.5898 8.02002ZM16.4644 11.3716C16.4142 11.3107 16.3695 11.2463 16.3301 11.1782C16.2907 11.1066 16.2567 11.0314 16.228 10.9526C16.1851 11.0028 16.1385 11.0493 16.0884 11.0923C16.0418 11.1353 15.9935 11.1782 15.9434 11.2212C15.2881 11.7476 14.3177 12.0107 13.0322 12.0107C12.2552 12.0072 11.6143 11.9087 11.1094 11.7153C10.6081 11.522 10.2428 11.2301 10.0137 10.8398C9.91341 10.6715 9.84359 10.4979 9.8042 10.3188C9.76839 10.1398 9.75228 9.96615 9.75586 9.79785C9.76302 9.62956 9.78271 9.47021 9.81494 9.31982C9.85075 9.16943 9.88835 9.03695 9.92773 8.92236C9.9707 8.80778 10.0083 8.71647 10.0405 8.64844C10.0763 8.57682 10.096 8.53564 10.0996 8.5249L10.7656 8.89014C10.7656 8.89372 10.7531 8.91878 10.728 8.96533C10.7065 9.01188 10.6815 9.07633 10.6528 9.15869C10.6242 9.23747 10.5955 9.33057 10.5669 9.43799C10.5418 9.54183 10.5257 9.65104 10.5186 9.76562C10.515 9.88021 10.5221 9.99837 10.54 10.1201C10.5615 10.2383 10.6045 10.3511 10.6689 10.4585C10.8229 10.7163 11.0986 10.9115 11.4961 11.0439C11.8971 11.1764 12.4092 11.2445 13.0322 11.248C13.5944 11.248 14.0742 11.1979 14.4717 11.0977C14.8727 10.9974 15.2039 10.8416 15.4653 10.6304C15.5835 10.5373 15.6838 10.4352 15.7661 10.3242C15.8521 10.2132 15.9255 10.1004 15.9863 9.98584C16.0472 9.86768 16.0973 9.74951 16.1367 9.63135C16.1797 9.5096 16.2173 9.39144 16.2495 9.27686L16.98 9.47559C16.9513 9.57943 16.9191 9.68685 16.8833 9.79785H16.8887C16.8851 9.81576 16.8761 9.86589 16.8618 9.94824C16.8511 10.0306 16.8475 10.1273 16.8511 10.2383C16.8547 10.3457 16.8708 10.4603 16.8994 10.582C16.9281 10.7002 16.9818 10.8076 17.0605 10.9043C17.2432 11.1299 17.5475 11.2427 17.9736 11.2427C18.0775 11.2427 18.167 11.2803 18.2422 11.3555C18.3174 11.4307 18.355 11.5202 18.355 11.624C18.355 11.7279 18.3174 11.8174 18.2422 11.8926C18.167 11.9642 18.0775 12 17.9736 12H17.9414C17.2754 11.9928 16.783 11.7834 16.4644 11.3716ZM20.0684 7.1123L19.4453 7.73535L18.8169 7.10693L19.4399 6.48389L20.0684 7.1123ZM17.4849 11.6187C17.4849 11.5148 17.5225 11.4271 17.5977 11.3555C17.6729 11.2803 17.7624 11.2427 17.8662 11.2427H18.5376C18.8813 11.2427 19.2108 11.2104 19.5259 11.146C19.841 11.0815 20.1471 10.9974 20.4443 10.8936C20.7415 10.7897 21.0298 10.6715 21.3091 10.5391C21.592 10.403 21.8713 10.2669 22.147 10.1309L22.2168 10.0933C22.0449 10.0324 21.8766 9.96615 21.7119 9.89453C21.5508 9.81934 21.3914 9.74593 21.2339 9.67432C20.9976 9.55973 20.772 9.45947 20.5571 9.37354C20.3423 9.28402 20.1543 9.23926 19.9932 9.23926C19.8857 9.23926 19.7837 9.26253 19.687 9.30908C19.5939 9.35563 19.508 9.41471 19.4292 9.48633C19.3504 9.55436 19.2788 9.62956 19.2144 9.71191C19.1499 9.79069 19.0944 9.86589 19.0479 9.9375C19.0049 10.0055 18.9709 10.0646 18.9458 10.1147C18.9207 10.1613 18.9082 10.1846 18.9082 10.1846L18.2153 9.87305C18.2189 9.86947 18.2297 9.84798 18.2476 9.80859C18.269 9.76921 18.2977 9.71908 18.3335 9.6582C18.3693 9.59375 18.4123 9.52214 18.4624 9.44336C18.5161 9.36458 18.5788 9.28402 18.6504 9.20166C19.0479 8.72184 19.4954 8.48193 19.9932 8.48193C20.2402 8.48193 20.4945 8.53385 20.7559 8.6377C21.0173 8.74154 21.2858 8.85791 21.5615 8.98682C21.7119 9.05843 21.8641 9.13005 22.0181 9.20166C22.172 9.26969 22.326 9.33057 22.48 9.38428C22.6375 9.43799 22.7951 9.48275 22.9526 9.51855C23.1102 9.55078 23.2677 9.56689 23.4253 9.56689L23.5703 10.2974C23.3913 10.369 23.2122 10.4495 23.0332 10.5391C22.8577 10.625 22.6751 10.7145 22.4854 10.8076C22.2061 10.9473 21.916 11.0887 21.6152 11.2319C21.3145 11.3716 20.9993 11.4987 20.6699 11.6133C20.3441 11.7279 20.0039 11.821 19.6494 11.8926C19.2949 11.9642 18.9243 12 18.5376 12H17.8984H17.8662C17.7624 12 17.6729 11.9624 17.5977 11.8872C17.5225 11.812 17.4849 11.7225 17.4849 11.6187ZM26.1001 12C25.8208 12 25.5791 11.966 25.375 11.8979C25.1745 11.8299 25.0062 11.7279 24.8701 11.5918C24.7842 11.5059 24.7179 11.4146 24.6714 11.3179C24.6284 11.2212 24.5962 11.1263 24.5747 11.0332C24.5568 10.9365 24.5461 10.8452 24.5425 10.7593C24.5389 10.6733 24.5371 10.5999 24.5371 10.5391V10.4692C24.5371 10.4657 24.5371 10.4191 24.5371 10.3296C24.5407 10.2365 24.5425 10.113 24.5425 9.95898C24.5461 9.80501 24.5479 9.62777 24.5479 9.42725C24.5479 9.22314 24.5461 9.0083 24.5425 8.78271C24.5425 8.56429 24.5389 8.33691 24.5317 8.10059C24.5282 7.86068 24.521 7.62972 24.5103 7.40771C24.4995 7.18571 24.4852 6.98161 24.4673 6.79541C24.453 6.60563 24.4333 6.44987 24.4082 6.32812L25.1602 6.18848C25.1852 6.31738 25.2067 6.47852 25.2246 6.67188C25.2425 6.86165 25.2568 7.06755 25.2676 7.28955C25.2783 7.51156 25.2855 7.7443 25.2891 7.98779C25.2962 8.2277 25.2998 8.46224 25.2998 8.69141C25.3034 8.91699 25.3052 9.13363 25.3052 9.34131C25.3052 9.54541 25.3052 9.72982 25.3052 9.89453C25.3052 10.0557 25.3034 10.1882 25.2998 10.292C25.2998 10.3958 25.2998 10.4585 25.2998 10.48V10.5498C25.2962 10.6608 25.2998 10.7593 25.3105 10.8452C25.3213 10.9312 25.3553 11.0028 25.4126 11.0601C25.5308 11.1782 25.7492 11.2391 26.0679 11.2427H26.1001C26.2039 11.2427 26.2935 11.2803 26.3687 11.3555C26.4438 11.4307 26.4814 11.5202 26.4814 11.624C26.4814 11.7279 26.4438 11.8174 26.3687 11.8926C26.2935 11.9642 26.2039 12 26.1001 12ZM25.6489 11.624C25.6489 11.5238 25.6829 11.4378 25.751 11.3662C25.819 11.291 25.9032 11.2498 26.0034 11.2427C26.1538 11.2427 26.2899 11.214 26.4116 11.1567C26.5334 11.0959 26.6408 11.0171 26.7339 10.9204C26.827 10.8201 26.9093 10.7074 26.981 10.582C27.0526 10.4531 27.1134 10.3188 27.1636 10.1792C27.2173 10.0396 27.2603 9.8999 27.2925 9.76025C27.3283 9.61702 27.3587 9.48275 27.3838 9.35742L28.1411 9.51855C28.1232 9.57943 28.0981 9.6582 28.0659 9.75488C28.0373 9.85156 28.0086 9.9554 27.98 10.0664C27.9513 10.1774 27.9263 10.292 27.9048 10.4102C27.8869 10.5247 27.8779 10.6322 27.8779 10.7324C27.8779 10.8005 27.8833 10.8685 27.894 10.9365C27.9084 11.001 27.9299 11.0583 27.9585 11.1084C27.9907 11.1585 28.0337 11.1997 28.0874 11.2319C28.1411 11.2642 28.2091 11.2803 28.2915 11.2803C28.4204 11.2803 28.5368 11.2445 28.6406 11.1729C28.7445 11.1012 28.8358 11.0081 28.9146 10.8936C28.9969 10.779 29.0685 10.6483 29.1294 10.5015C29.1903 10.3547 29.2404 10.2061 29.2798 10.0557C29.3228 9.90527 29.3568 9.75846 29.3818 9.61523C29.4105 9.47201 29.4338 9.34847 29.4517 9.24463L30.1875 9.37891C30.1875 9.37891 30.1803 9.42008 30.166 9.50244C30.1517 9.5848 30.1356 9.68685 30.1177 9.80859C30.0998 9.92676 30.0819 10.0539 30.064 10.1899C30.0496 10.3224 30.0425 10.4406 30.0425 10.5444C30.0425 10.6411 30.0496 10.7324 30.064 10.8184C30.0783 10.9007 30.1016 10.9759 30.1338 11.0439C30.166 11.1084 30.2072 11.1621 30.2573 11.2051C30.311 11.2445 30.3755 11.2695 30.4507 11.2803C30.5688 11.2946 30.6655 11.2928 30.7407 11.2749C30.8195 11.257 30.8822 11.2337 30.9287 11.2051C30.9753 11.1729 31.0093 11.1406 31.0308 11.1084C31.0522 11.0762 31.0684 11.0529 31.0791 11.0386H31.0737C31.1095 10.9813 31.1346 10.9168 31.1489 10.8452C31.1632 10.7736 31.1704 10.6966 31.1704 10.6143C31.1704 10.471 31.1507 10.3153 31.1113 10.147C31.0719 9.9751 31.0236 9.80859 30.9663 9.64746C30.9126 9.48275 30.8553 9.33236 30.7944 9.19629C30.7371 9.05664 30.687 8.94564 30.644 8.86328L31.3154 8.50879C31.3369 8.54818 31.3799 8.6377 31.4443 8.77734C31.5124 8.91699 31.5822 9.08529 31.6538 9.28223C31.7254 9.47917 31.7899 9.69401 31.8472 9.92676C31.9045 10.1595 31.9331 10.3851 31.9331 10.6035C31.9331 10.8219 31.9027 11.0207 31.8418 11.1997C31.7809 11.3787 31.6878 11.5309 31.5625 11.6562C31.4408 11.7816 31.2868 11.8783 31.1006 11.9463C30.9144 12.0143 30.6978 12.0465 30.4507 12.043C30.2537 12.0394 30.0622 11.9821 29.876 11.8711C29.6898 11.7601 29.5412 11.6222 29.4302 11.4575C29.2762 11.6401 29.1007 11.7834 28.9038 11.8872C28.7104 11.991 28.5063 12.043 28.2915 12.043C28.1984 12.043 28.0999 12.0304 27.9961 12.0054C27.8958 11.9803 27.7992 11.9445 27.7061 11.8979C27.6165 11.8478 27.5342 11.7869 27.459 11.7153C27.3838 11.6437 27.3247 11.5614 27.2817 11.4683C27.1313 11.6294 26.9577 11.7565 26.7607 11.8496C26.5674 11.9427 26.3346 11.9928 26.0625 12H26.0034C25.9032 11.9928 25.819 11.9552 25.751 11.8872C25.6829 11.8156 25.6489 11.7279 25.6489 11.624ZM42.6807 7.74072L43.3037 7.11768L43.9321 7.74609L43.3091 8.36914L42.6807 7.74072ZM41.3218 7.73535L41.9448 7.1123L42.5732 7.74072L41.9502 8.36377L41.3218 7.73535ZM41.9663 6.68262L42.5894 6.05957L43.2178 6.68799L42.5947 7.31104L41.9663 6.68262ZM44.4907 8.44971C44.5122 8.4891 44.5552 8.57324 44.6196 8.70215C44.6841 8.83105 44.7503 8.98682 44.8184 9.16943C44.89 9.34847 44.9526 9.54541 45.0063 9.76025C45.0601 9.9751 45.0869 10.1899 45.0869 10.4048C45.0833 10.6232 45.0565 10.8291 45.0063 11.0225C44.9598 11.2122 44.8828 11.3787 44.7754 11.522C44.6715 11.6652 44.5373 11.778 44.3726 11.8604C44.2114 11.9427 44.0145 11.9839 43.7817 11.9839C43.7101 11.9839 43.6331 11.9731 43.5508 11.9517C43.4684 11.9302 43.3861 11.8979 43.3037 11.855C43.2249 11.812 43.1479 11.7601 43.0728 11.6992C42.9976 11.6348 42.9331 11.5614 42.8794 11.479C42.7254 11.6616 42.5518 11.7905 42.3584 11.8657C42.1686 11.9373 41.9663 11.9785 41.7515 11.9893C41.6297 11.9964 41.5205 11.9893 41.4238 11.9678C41.3307 11.9427 41.252 11.9141 41.1875 11.8818C41.1087 11.846 41.0407 11.8031 40.9834 11.7529C40.9906 11.9749 40.978 12.1916 40.9458 12.4028C40.9136 12.6177 40.8581 12.8218 40.7793 13.0151C40.7005 13.2085 40.5949 13.3875 40.4624 13.5522C40.3299 13.7205 40.167 13.8691 39.9736 13.998C39.5081 14.3132 38.9066 14.4868 38.1689 14.519C38.1439 14.519 38.1188 14.519 38.0938 14.519C38.0687 14.5226 38.0436 14.5244 38.0186 14.5244C37.3418 14.5244 36.7868 14.3328 36.3535 13.9497C36.1602 13.7778 35.999 13.5701 35.8701 13.3267C35.7448 13.0868 35.6624 12.8254 35.623 12.5425C35.598 12.3849 35.5854 12.2274 35.5854 12.0698C35.589 11.9159 35.5998 11.7673 35.6177 11.624C35.6356 11.4772 35.6589 11.3394 35.6875 11.2104C35.7197 11.0815 35.752 10.9652 35.7842 10.8613C35.863 10.5999 35.9471 10.3761 36.0366 10.1899C36.1297 10.0037 36.2085 9.86589 36.2729 9.77637L36.8853 10.2275C36.8351 10.2956 36.7743 10.4084 36.7026 10.5659C36.631 10.7199 36.5648 10.8989 36.5039 11.103C36.4466 11.3071 36.4019 11.5256 36.3696 11.7583C36.341 11.991 36.3428 12.2166 36.375 12.4351C36.3893 12.5353 36.4215 12.6606 36.4717 12.811C36.5218 12.9614 36.606 13.1064 36.7241 13.2461C36.8459 13.3893 37.0088 13.5111 37.2129 13.6113C37.4206 13.7116 37.6855 13.7617 38.0078 13.7617H38.1367C39.2253 13.7116 39.8859 13.3302 40.1187 12.6177C40.1867 12.41 40.2225 12.1987 40.2261 11.9839C40.2332 11.769 40.2207 11.5614 40.1885 11.3608C40.1562 11.1603 40.1097 10.9688 40.0488 10.7861C39.9915 10.6035 39.9307 10.437 39.8662 10.2866C39.8053 10.1506 39.7516 10.0449 39.7051 9.96973C39.6621 9.89453 39.6406 9.85514 39.6406 9.85156L40.2798 9.43799C40.2977 9.48096 40.3192 9.5293 40.3442 9.58301C40.3657 9.63314 40.3908 9.69222 40.4194 9.76025C40.4481 9.82471 40.4821 9.90169 40.5215 9.99121C40.5895 10.1523 40.6611 10.3081 40.7363 10.4585C40.8115 10.6089 40.8957 10.7414 40.9888 10.856C41.0854 10.9705 41.1911 11.0618 41.3057 11.1299C41.4238 11.1979 41.5617 11.2284 41.7192 11.2212C41.9162 11.2176 42.0612 11.1621 42.1543 11.0547C42.251 10.9437 42.3154 10.8058 42.3477 10.6411C42.3799 10.4728 42.3924 10.2884 42.3853 10.0879C42.3817 9.88737 42.3817 9.69043 42.3853 9.49707L43.1641 9.42188C43.1641 9.46126 43.1659 9.50065 43.1694 9.54004C43.173 9.57227 43.1748 9.60807 43.1748 9.64746C43.1748 9.68327 43.1766 9.71729 43.1802 9.74951C43.1838 9.81396 43.1873 9.89632 43.1909 9.99658C43.1981 10.0933 43.2088 10.1971 43.2231 10.3081C43.241 10.4191 43.2625 10.5319 43.2876 10.6465C43.3162 10.7575 43.3538 10.8577 43.4004 10.9473C43.4469 11.0368 43.5024 11.1102 43.5669 11.1675C43.6349 11.2248 43.7155 11.2534 43.8086 11.2534C43.8945 11.2534 43.9715 11.2284 44.0396 11.1782C44.1076 11.1281 44.1649 11.0618 44.2114 10.9795C44.258 10.8936 44.2902 10.7969 44.3081 10.6895C44.3296 10.582 44.3385 10.4692 44.335 10.3511C44.3278 10.1864 44.3045 10.0288 44.2651 9.87842C44.2257 9.72803 44.1792 9.58659 44.1255 9.4541C44.0754 9.32161 44.0216 9.20166 43.9644 9.09424C43.9106 8.98324 43.8623 8.88656 43.8193 8.8042L44.4907 8.44971ZM47.8047 9.58301C47.8763 9.82292 47.9443 10.0592 48.0088 10.292C48.0339 10.3923 48.0607 10.4961 48.0894 10.6035C48.118 10.7109 48.1431 10.8184 48.1646 10.9258C48.1896 11.0332 48.2111 11.137 48.229 11.2373C48.2469 11.3376 48.2612 11.4307 48.272 11.5166C48.2756 11.5452 48.2773 11.5775 48.2773 11.6133C48.2809 11.6491 48.2827 11.6885 48.2827 11.7314C48.2827 12.0645 48.2111 12.3831 48.0679 12.6875C47.9246 12.9919 47.7349 13.2747 47.4985 13.5361C47.2622 13.8011 46.9919 14.041 46.6875 14.2559C46.3831 14.4743 46.0698 14.6641 45.7476 14.8252L45.4146 14.1484C45.6831 14.016 45.9427 13.862 46.1934 13.6865C46.4476 13.5111 46.6732 13.3195 46.8701 13.1118C47.0706 12.9077 47.23 12.6875 47.3481 12.4512C47.4699 12.2184 47.5308 11.9785 47.5308 11.7314C47.5308 11.7171 47.529 11.6956 47.5254 11.667C47.5254 11.6383 47.5236 11.6097 47.52 11.5811V11.5864C47.5093 11.5076 47.495 11.4217 47.4771 11.3286C47.4627 11.2355 47.443 11.1406 47.418 11.0439C47.3965 10.9437 47.3732 10.8452 47.3481 10.7485C47.3231 10.6483 47.298 10.5516 47.2729 10.4585C47.2121 10.2437 47.1458 10.0288 47.0742 9.81396L47.8047 9.58301ZM50.6138 12C50.3345 12 50.0928 11.966 49.8887 11.8979C49.6882 11.8299 49.5199 11.7279 49.3838 11.5918C49.2979 11.5059 49.2316 11.4146 49.1851 11.3179C49.1421 11.2212 49.1099 11.1263 49.0884 11.0332C49.0705 10.9365 49.0597 10.8452 49.0562 10.7593C49.0526 10.6733 49.0508 10.5999 49.0508 10.5391V10.4692C49.0508 10.4657 49.0508 10.4191 49.0508 10.3296C49.0544 10.2365 49.0562 10.113 49.0562 9.95898C49.0597 9.80501 49.0615 9.62777 49.0615 9.42725C49.0615 9.22314 49.0597 9.0083 49.0562 8.78271C49.0562 8.56429 49.0526 8.33691 49.0454 8.10059C49.0418 7.86068 49.0347 7.62972 49.0239 7.40771C49.0132 7.18571 48.9989 6.98161 48.981 6.79541C48.9666 6.60563 48.9469 6.44987 48.9219 6.32812L49.6738 6.18848C49.6989 6.31738 49.7204 6.47852 49.7383 6.67188C49.7562 6.86165 49.7705 7.06755 49.7812 7.28955C49.792 7.51156 49.7992 7.7443 49.8027 7.98779C49.8099 8.2277 49.8135 8.46224 49.8135 8.69141C49.8171 8.91699 49.8188 9.13363 49.8188 9.34131C49.8188 9.54541 49.8188 9.72982 49.8188 9.89453C49.8188 10.0557 49.8171 10.1882 49.8135 10.292C49.8135 10.3958 49.8135 10.4585 49.8135 10.48V10.5498C49.8099 10.6608 49.8135 10.7593 49.8242 10.8452C49.835 10.9312 49.869 11.0028 49.9263 11.0601C50.0444 11.1782 50.2629 11.2391 50.5815 11.2427H50.6138C50.7176 11.2427 50.8071 11.2803 50.8823 11.3555C50.9575 11.4307 50.9951 11.5202 50.9951 11.624C50.9951 11.7279 50.9575 11.8174 50.8823 11.8926C50.8071 11.9642 50.7176 12 50.6138 12ZM53.1167 6.86523L52.4937 7.48828L51.8652 6.85986L52.4883 6.23682L53.1167 6.86523ZM52.4292 9.15869C52.3576 9.15869 52.2824 9.18376 52.2036 9.23389C52.1248 9.28044 52.0496 9.35026 51.978 9.44336C51.91 9.53288 51.8527 9.64209 51.8062 9.771C51.7632 9.8999 51.7417 10.0431 51.7417 10.2007C51.7417 10.3188 51.7972 10.437 51.9082 10.5552C52.0228 10.6698 52.1875 10.7772 52.4023 10.8774L52.4614 10.9043C52.5903 10.8291 52.6888 10.7503 52.7568 10.668C52.8285 10.582 52.8804 10.4961 52.9126 10.4102C52.9448 10.3242 52.9627 10.2419 52.9663 10.1631C52.9735 10.0807 52.9771 10.0073 52.9771 9.94287C52.9771 9.76025 52.9538 9.61702 52.9072 9.51318C52.8643 9.40934 52.8123 9.33236 52.7515 9.28223C52.6906 9.22852 52.6297 9.1945 52.5688 9.18018C52.508 9.16585 52.4614 9.15869 52.4292 9.15869ZM50.1948 11.624C50.1948 11.5166 50.2324 11.4271 50.3076 11.3555C50.3792 11.2803 50.467 11.2427 50.5708 11.2427C50.7534 11.2427 50.9199 11.2391 51.0703 11.2319C51.2207 11.2212 51.3604 11.2069 51.4893 11.189C51.1562 10.8989 50.9897 10.5695 50.9897 10.2007C50.9897 9.96436 51.0256 9.73877 51.0972 9.52393C51.1724 9.3055 51.278 9.11035 51.4141 8.93848C51.5537 8.7666 51.7113 8.63411 51.8867 8.54102C52.0658 8.44792 52.2484 8.40137 52.4346 8.40137C52.6064 8.40137 52.7694 8.43359 52.9233 8.49805C53.0773 8.5625 53.2134 8.65739 53.3315 8.78271C53.3781 8.83285 53.4246 8.89372 53.4712 8.96533C53.5213 9.03337 53.5661 9.11393 53.6055 9.20703C53.6449 9.30013 53.6771 9.40755 53.7021 9.5293C53.7272 9.65104 53.7397 9.7889 53.7397 9.94287C53.7397 10.437 53.6073 10.8416 53.3423 11.1567C53.4927 11.1854 53.6466 11.2069 53.8042 11.2212C53.9653 11.2355 54.1318 11.2427 54.3037 11.2427C54.4111 11.2427 54.5007 11.2803 54.5723 11.3555C54.6475 11.4271 54.6851 11.5166 54.6851 11.624C54.6851 11.7279 54.6475 11.8174 54.5723 11.8926C54.5007 11.9642 54.4111 12 54.3037 12H54.2715C54.1104 12 53.9528 11.9946 53.7988 11.9839C53.6484 11.9731 53.498 11.9552 53.3477 11.9302C53.1937 11.9051 53.0451 11.8765 52.9019 11.8442C52.7622 11.812 52.6243 11.7726 52.4883 11.7261C52.0085 11.9087 51.38 12 50.603 12H50.5708C50.467 12 50.3792 11.9642 50.3076 11.8926C50.2324 11.8174 50.1948 11.7279 50.1948 11.624ZM53.8472 11.624C53.8472 11.5238 53.8812 11.4378 53.9492 11.3662C54.0173 11.291 54.1014 11.2498 54.2017 11.2427C54.3521 11.2427 54.4881 11.214 54.6099 11.1567C54.7316 11.0959 54.839 11.0171 54.9321 10.9204C55.0252 10.8201 55.1076 10.7074 55.1792 10.582C55.2508 10.4531 55.3117 10.3188 55.3618 10.1792C55.4155 10.0396 55.4585 9.8999 55.4907 9.76025C55.5265 9.61702 55.557 9.48275 55.582 9.35742L56.3394 9.51855C56.3215 9.57943 56.2964 9.6582 56.2642 9.75488C56.2355 9.85156 56.2069 9.9554 56.1782 10.0664C56.1496 10.1774 56.1245 10.292 56.103 10.4102C56.0851 10.5247 56.0762 10.6322 56.0762 10.7324C56.0762 10.8005 56.0815 10.8685 56.0923 10.9365C56.1066 11.001 56.1281 11.0583 56.1567 11.1084C56.189 11.1585 56.2319 11.1997 56.2856 11.2319C56.3394 11.2642 56.4074 11.2803 56.4897 11.2803C56.6187 11.2803 56.735 11.2445 56.8389 11.1729C56.9427 11.1012 57.034 11.0081 57.1128 10.8936C57.1951 10.779 57.2668 10.6483 57.3276 10.5015C57.3885 10.3547 57.4386 10.2061 57.478 10.0557C57.521 9.90527 57.555 9.75846 57.5801 9.61523C57.6087 9.47201 57.632 9.34847 57.6499 9.24463L58.3857 9.37891C58.3857 9.37891 58.3786 9.42008 58.3643 9.50244C58.3499 9.5848 58.3338 9.68685 58.3159 9.80859C58.298 9.92676 58.2801 10.0539 58.2622 10.1899C58.2479 10.3224 58.2407 10.4406 58.2407 10.5444C58.2407 10.6411 58.2479 10.7324 58.2622 10.8184C58.2765 10.9007 58.2998 10.9759 58.332 11.0439C58.3643 11.1084 58.4054 11.1621 58.4556 11.2051C58.5093 11.2445 58.5737 11.2695 58.6489 11.2803C58.7671 11.2946 58.8638 11.2928 58.939 11.2749C59.0177 11.257 59.0804 11.2337 59.127 11.2051C59.1735 11.1729 59.2075 11.1406 59.229 11.1084C59.2505 11.0762 59.2666 11.0529 59.2773 11.0386H59.272C59.3078 10.9813 59.3328 10.9168 59.3472 10.8452C59.3615 10.7736 59.3687 10.6966 59.3687 10.6143C59.3687 10.471 59.349 10.3153 59.3096 10.147C59.2702 9.9751 59.2218 9.80859 59.1646 9.64746C59.1108 9.48275 59.0535 9.33236 58.9927 9.19629C58.9354 9.05664 58.8853 8.94564 58.8423 8.86328L59.5137 8.50879C59.5352 8.54818 59.5781 8.6377 59.6426 8.77734C59.7106 8.91699 59.7804 9.08529 59.8521 9.28223C59.9237 9.47917 59.9881 9.69401 60.0454 9.92676C60.1027 10.1595 60.1313 10.3851 60.1313 10.6035C60.1313 10.8219 60.1009 11.0207 60.04 11.1997C59.9792 11.3787 59.8861 11.5309 59.7607 11.6562C59.639 11.7816 59.485 11.8783 59.2988 11.9463C59.1126 12.0143 58.896 12.0465 58.6489 12.043C58.452 12.0394 58.2604 11.9821 58.0742 11.8711C57.888 11.7601 57.7394 11.6222 57.6284 11.4575C57.4744 11.6401 57.299 11.7834 57.1021 11.8872C56.9087 11.991 56.7046 12.043 56.4897 12.043C56.3966 12.043 56.2982 12.0304 56.1943 12.0054C56.0941 11.9803 55.9974 11.9445 55.9043 11.8979C55.8148 11.8478 55.7324 11.7869 55.6572 11.7153C55.582 11.6437 55.5229 11.5614 55.48 11.4683C55.3296 11.6294 55.1559 11.7565 54.959 11.8496C54.7656 11.9427 54.5329 11.9928 54.2607 12H54.2017C54.1014 11.9928 54.0173 11.9552 53.9492 11.8872C53.8812 11.8156 53.8472 11.7279 53.8472 11.624Z" fill="#915858"/>
</svg>
