<svg xmlns="http://www.w3.org/2000/svg" width="53.871" height="54.438" viewBox="0 0 53.871 54.438">
  <g id="list" transform="translate(-16 -16)">
    <path id="Path_13" data-name="Path 13" d="M24.671,38.847a5.671,5.671,0,1,0,5.671,5.671A5.671,5.671,0,0,0,24.671,38.847Zm0,19.847a5.671,5.671,0,1,0,5.671,5.671A5.671,5.671,0,0,0,24.671,58.695Zm0-39.695a5.671,5.671,0,1,0,5.671,5.671A5.671,5.671,0,0,0,24.671,19Z" transform="translate(-1.299 -1.299)" fill="#ccdeef"/>
    <path id="Path_14" data-name="Path 14" d="M23.372,65.744a7.372,7.372,0,1,1,7.372-7.372A7.357,7.357,0,0,1,23.372,65.744Zm0-11.341a3.969,3.969,0,1,0,3.969,3.969A3.945,3.945,0,0,0,23.372,54.4Z" transform="translate(0 -15.153)" fill="#ccdeef"/>
    <path id="Path_15" data-name="Path 15" d="M23.372,100.744a7.372,7.372,0,1,1,7.372-7.372A7.357,7.357,0,0,1,23.372,100.744Zm0-11.341a3.969,3.969,0,1,0,3.969,3.969A3.945,3.945,0,0,0,23.372,89.4Z" transform="translate(0 -30.305)" fill="#ccdeef"/>
    <path id="Path_16" data-name="Path 16" d="M23.372,30.744a7.372,7.372,0,1,1,7.372-7.372A7.357,7.357,0,0,1,23.372,30.744Zm0-11.341a3.969,3.969,0,1,0,3.969,3.969A3.945,3.945,0,0,0,23.372,19.4Zm44.8,5.671H37.548a1.7,1.7,0,1,1,0-3.4H68.17a1.7,1.7,0,0,1,0,3.4Zm0,19.847H37.548a1.7,1.7,0,1,1,0-3.4H68.17a1.7,1.7,0,1,1,0,3.4Z" fill="#ccdeef"/>
    <path id="Path_17" data-name="Path 17" d="M83.323,99.4H52.7a1.7,1.7,0,1,1,0-3.4H83.323a1.7,1.7,0,1,1,0,3.4Z" transform="translate(-15.153 -34.635)" fill="#ccdeef"/>
  </g>
</svg>
