<svg width="24" height="24" viewBox="0 0 24 24" fill="none" xmlns="http://www.w3.org/2000/svg">
<path d="M12.1651 3C9.36022 3 7.07813 5.2821 7.07813 8.08696C7.07813 10.074 8.29331 12.5273 9.48098 14.5404C10.6671 16.5535 11.8533 18.108 11.8533 18.108L12.1651 18.5131L12.4769 18.108C12.4769 18.108 13.663 16.5535 14.8492 14.5404C16.0369 12.5273 17.252 10.074 17.252 8.08696C17.252 5.2821 14.9699 3 12.1651 3ZM12.1651 3.78261C14.5465 3.78261 16.4694 5.7055 16.4694 8.08696C16.4694 9.73624 15.3368 12.1743 14.1766 14.143C13.1709 15.8473 12.4173 16.8286 12.1651 17.1649C11.9129 16.8286 11.1593 15.8473 10.1535 14.143C8.99338 12.1743 7.86073 9.73624 7.86073 8.08696C7.86073 5.7055 9.78363 3.78261 12.1651 3.78261ZM12.1651 6.13043C11.089 6.13043 10.2086 7.01087 10.2086 8.08696C10.2086 9.16304 11.089 10.0435 12.1651 10.0435C13.2412 10.0435 14.1216 9.16304 14.1216 8.08696C14.1216 7.01087 13.2412 6.13043 12.1651 6.13043ZM12.1651 6.91304C12.8178 6.91304 13.339 7.43427 13.339 8.08696C13.339 8.73964 12.8178 9.26087 12.1651 9.26087C11.5124 9.26087 10.9912 8.73964 10.9912 8.08696C10.9912 7.43427 11.5124 6.91304 12.1651 6.91304ZM5.23777 14.7391L3 21H21.3302L19.0924 14.7391H16.098C15.9451 15.0082 15.7923 15.2695 15.6394 15.5217H18.5421L20.2174 20.2174H4.11277L5.78804 15.5217H8.69073C8.53787 15.2695 8.38502 15.0082 8.23217 14.7391H5.23777Z" fill="#272727"/>
<rect x="0.375" y="0.375" width="23.25" height="23.25" rx="4.625" stroke="#272727" stroke-width="0.75"/>
</svg>
