<svg width="21" height="24" viewBox="0 0 21 24" fill="none" xmlns="http://www.w3.org/2000/svg">
<path d="M17.4612 0C18.9901 0 20.2305 1.24038 20.2305 2.76923V21.2308C20.2305 22.7596 18.9901 24 17.4612 24H4.53816C3.00932 24 1.76893 22.7596 1.76893 21.2308V16.4423L3.61509 18.0577V21.2308C3.61509 21.7392 4.02975 22.1538 4.53816 22.1538H17.4612C17.9697 22.1538 18.3843 21.7392 18.3843 21.2308V2.76923C18.3843 2.26082 17.9697 1.84615 17.4612 1.84615H4.53816C4.02975 1.84615 3.61509 2.26082 3.61509 2.76923V5.94231L1.76893 7.55769V2.76923C1.76893 1.24038 3.00932 0 4.53816 0H17.4612ZM7.76893 5.97115C7.9997 6.03966 8.23047 6.27404 8.23047 6.89423V9.23077H13.7689C14.2773 9.23077 14.692 9.64543 14.692 10.1538V13.8462C14.692 14.3546 14.2773 14.7692 13.7689 14.7692H8.23047V17.0769C8.23047 18.2596 7.30739 18 7.30739 18L0.384315 12L7.30739 6C7.30739 6 7.53816 5.90264 7.76893 5.97115Z" fill="#DFE0DF"/>
</svg>
