<svg width="30" height="27" viewBox="0 0 30 27" fill="none" xmlns="http://www.w3.org/2000/svg">
<path fill-rule="evenodd" clip-rule="evenodd" d="M4.62811 0.062778C4.71062 0.0221218 4.8027 0 4.89836 0H24.4899C24.7219 0 24.9335 0.130937 25.0375 0.338403L29.3232 8.9097C29.4751 9.21223 29.3519 9.57933 29.0494 9.73119C28.9621 9.77484 28.8688 9.79576 28.7767 9.79576C28.5519 9.79576 28.3355 9.672 28.2279 9.45736L25.1021 3.20586V12.4659C24.5114 12.3266 23.8992 12.2447 23.2654 12.2447C18.8698 12.2447 15.3064 15.8081 15.3064 20.2038C15.3064 21.2889 15.5252 22.3221 15.9186 23.2649H4.89836C4.56115 23.2649 4.28612 22.9911 4.28612 22.6527V3.20586L1.16038 9.45736C1.0683 9.64151 0.896111 9.75869 0.707179 9.78799C0.58521 9.80712 0.457263 9.78978 0.338881 9.73119C0.105706 9.6146 -0.0210458 9.36887 0.00286959 9.12314C0.0100442 9.0508 0.0303723 8.97845 0.0650497 8.9097L4.3507 0.338403C4.41168 0.216435 4.50973 0.120773 4.62811 0.062778ZM17.7553 4.28565H11.6329C11.2957 4.28565 11.0207 4.55948 11.0207 4.89788C11.0207 5.06051 11.0841 5.20818 11.1881 5.31819C11.3005 5.43658 11.4584 5.51012 11.6329 5.51012H17.7553C18.0937 5.51012 18.3675 5.23628 18.3675 4.89788C18.3675 4.55948 18.0937 4.28565 17.7553 4.28565Z" fill="#727272"/>
<path fill-rule="evenodd" clip-rule="evenodd" d="M30 20.2038C30 23.9232 26.9843 26.9383 23.2654 26.9383C19.5466 26.9383 16.5308 23.9232 16.5308 20.2038C16.5308 16.4843 19.5466 13.4692 23.2654 13.4692C26.9843 13.4692 30 16.4843 30 20.2038ZM22.2538 16.5303C22.1593 16.5333 22.0708 16.5734 22.0063 16.6416L19.592 19.1042L22.0063 21.5669C22.0386 21.6016 22.0792 21.6303 22.1223 21.6494C22.1665 21.6686 22.2143 21.6787 22.2622 21.6793L22.3315 21.6734C22.3554 21.6692 22.3793 21.662 22.4021 21.6524C22.4463 21.6339 22.4858 21.6064 22.5204 21.5717C22.5539 21.5376 22.5802 21.4964 22.5982 21.4509C22.6173 21.4061 22.6257 21.3577 22.6257 21.3087C22.6257 21.2853 22.6233 21.2626 22.6185 21.2405L22.5958 21.167L22.5635 21.1066C22.5491 21.085 22.5324 21.0653 22.5145 21.0474L20.9695 19.4713H24.3906C25.407 19.4713 26.219 20.2916 26.219 21.3069C26.219 22.3227 25.407 23.143 24.3906 23.143L24.3225 23.1489C24.2974 23.1531 24.2734 23.1603 24.2507 23.1693C24.2065 23.1872 24.1658 23.2141 24.1323 23.2488C24.0989 23.2829 24.0714 23.3235 24.0534 23.3684C24.0343 23.4132 24.0247 23.461 24.0247 23.5101C24.0247 23.5585 24.0343 23.6069 24.0534 23.6518C24.0714 23.6966 24.0989 23.7373 24.1323 23.7713C24.1658 23.8054 24.2065 23.8323 24.2507 23.8509C24.295 23.8688 24.3428 23.8778 24.3906 23.8772C25.7909 23.8772 26.9388 22.725 26.9388 21.3069C26.9388 19.8893 25.7909 18.7371 24.3906 18.7371H20.9695L22.5145 17.1611C22.5671 17.1091 22.6018 17.0427 22.6161 16.9704C22.6305 16.898 22.6233 16.8227 22.5958 16.7546C22.579 16.7145 22.5563 16.678 22.5276 16.6469C22.5073 16.6248 22.4834 16.6051 22.4583 16.5883C22.3973 16.5483 22.3255 16.5286 22.2538 16.5303Z" fill="#727272"/>
</svg>
