<svg width="29" height="28" viewBox="0 0 29 28" fill="none" xmlns="http://www.w3.org/2000/svg">
<path d="M3.20005 0.399902C2.20765 0.399902 1.40005 1.2075 1.40005 2.1999V4.54131C1.31305 4.98351 0.800049 7.6659 0.800049 9.0999C0.800049 10.0149 1.01845 10.762 1.40005 11.3206V23.7999C1.40005 24.7923 2.20765 25.5999 3.20005 25.5999H15.2422L15.9336 16.5999H18.8118C18.966 14.5887 20.6504 12.9999 22.7 12.9999C24.7496 12.9999 26.4347 14.5887 26.5883 16.5999H26.6V11.3206C26.9816 10.762 27.2 10.0149 27.2 9.0999C27.2 7.6659 26.687 4.98351 26.6 4.54131V2.1999C26.6 1.2075 25.7924 0.399902 24.8 0.399902H3.20005ZM3.80005 2.1999C4.13125 2.1999 4.40005 2.4687 4.40005 2.7999C4.40005 3.1311 4.13125 3.3999 3.80005 3.3999C3.46885 3.3999 3.20005 3.1311 3.20005 2.7999C3.20005 2.4687 3.46885 2.1999 3.80005 2.1999ZM5.60005 2.1999C5.93125 2.1999 6.20005 2.4687 6.20005 2.7999C6.20005 3.1311 5.93125 3.3999 5.60005 3.3999C5.26885 3.3999 5.00005 3.1311 5.00005 2.7999C5.00005 2.4687 5.26885 2.1999 5.60005 2.1999ZM7.40005 2.1999C7.73125 2.1999 8.00005 2.4687 8.00005 2.7999C8.00005 3.1311 7.73125 3.3999 7.40005 3.3999C7.06885 3.3999 6.80005 3.1311 6.80005 2.7999C6.80005 2.4687 7.06885 2.1999 7.40005 2.1999ZM2.49692 5.1999H5.00005V10.5354C4.60165 10.9536 4.06945 11.1999 3.50005 11.1999C2.26045 11.1999 2.00005 10.0581 2.00005 9.0999C2.00005 8.0331 2.33192 6.0987 2.49692 5.1999ZM6.20005 5.1999H9.20005V10.5354C8.80165 10.9536 8.26945 11.1999 7.70005 11.1999C7.13065 11.1999 6.59845 10.9536 6.20005 10.5354V5.1999ZM10.4 5.1999H13.4V10.5354C13.0016 10.9536 12.4694 11.1999 11.9 11.1999C11.3306 11.1999 10.7984 10.9536 10.4 10.5354V5.1999ZM14.6 5.1999H17.6V10.5343C17.2022 10.9531 16.67 11.1999 16.1 11.1999C15.5306 11.1999 14.9984 10.9536 14.6 10.5354V5.1999ZM18.8 5.1999H21.8V10.5343C21.4022 10.9531 20.87 11.1999 20.3 11.1999C19.73 11.1999 19.1978 10.9531 18.8 10.5343V5.1999ZM23 5.1999H25.5032C25.6682 6.0981 26 8.0325 26 9.0999C26 10.0581 25.7396 11.1999 24.5 11.1999C23.93 11.1999 23.3978 10.9531 23 10.5343V5.1999ZM22.7 14.1999C21.216 14.1999 20 15.4158 20 16.8999V17.7999H17.0446L16.4 26.1999C16.4 27.1923 17.2076 27.9999 18.2 27.9999H27.2C28.1924 27.9999 28.9995 27.1928 28.9977 26.1542L28.3555 17.7999H25.4V16.8999C25.4 15.4158 24.1841 14.1999 22.7 14.1999ZM22.7 15.3999C23.5356 15.3999 24.2 16.0644 24.2 16.8999V17.7999H21.2V16.8999C21.2 16.0644 21.8645 15.3999 22.7 15.3999Z" fill="#915858"/>
</svg>
