<svg width="29" height="28" viewBox="0 0 29 28" fill="none" xmlns="http://www.w3.org/2000/svg">
<path d="M3.20005 0.399902C2.21307 0.399902 1.40005 1.21292 1.40005 2.1999V4.54717C1.37758 4.65667 0.800049 7.47947 0.800049 9.0999C0.800049 9.92709 0.959685 10.719 1.39771 11.3511C1.3985 11.3522 1.39925 11.3534 1.40005 11.3546V23.7999C1.40005 24.7923 2.20765 25.5999 3.20005 25.5999H15.2411L15.3336 24.3999H3.20005C2.86945 24.3999 2.60005 24.1311 2.60005 23.7999V12.2487C2.87663 12.3447 3.17793 12.3999 3.50005 12.3999C4.30136 12.3999 5.03137 12.104 5.60005 11.6276C6.16873 12.104 6.89874 12.3999 7.70005 12.3999C8.50136 12.3999 9.23137 12.104 9.80005 11.6276C10.3687 12.104 11.0987 12.3999 11.9 12.3999C12.7243 12.3999 13.4249 12.0322 14 11.5315C14.5752 12.0322 15.2758 12.3999 16.1 12.3999C16.9243 12.3999 17.6249 12.0324 18.2 11.5315C18.7752 12.0324 19.4758 12.3999 20.3 12.3999C21.1008 12.3999 21.8316 12.1047 22.4 11.6288C22.9685 12.1047 23.6993 12.3999 24.5 12.3999C24.8222 12.3999 25.1235 12.3447 25.4 12.2487V14.0933C26.0684 14.7383 26.5092 15.6183 26.5848 16.5999H26.6V11.3546C26.6009 11.3534 26.6016 11.3522 26.6024 11.3511C27.0404 10.719 27.2 9.92709 27.2 9.0999C27.2 7.47947 26.6225 4.65667 26.6 4.54717V2.1999C26.6 1.21292 25.787 0.399902 24.8 0.399902H3.20005ZM3.20005 1.5999H24.8C25.1391 1.5999 25.4 1.86088 25.4 2.1999V3.9999H18.3008C18.236 3.98919 18.1699 3.98919 18.1051 3.9999H14.1008C14.036 3.98919 13.9699 3.98919 13.9051 3.9999H9.89263C9.85894 3.99427 9.82483 3.99153 9.79067 3.9917C9.76161 3.99233 9.73262 3.99507 9.70396 3.9999H2.60005V2.1999C2.60005 1.86088 2.86103 1.5999 3.20005 1.5999ZM3.80005 2.1999C3.64092 2.1999 3.48831 2.26312 3.37578 2.37564C3.26326 2.48816 3.20005 2.64077 3.20005 2.7999C3.20005 2.95903 3.26326 3.11164 3.37578 3.22417C3.48831 3.33669 3.64092 3.3999 3.80005 3.3999C3.95918 3.3999 4.11179 3.33669 4.22431 3.22417C4.33683 3.11164 4.40005 2.95903 4.40005 2.7999C4.40005 2.64077 4.33683 2.48816 4.22431 2.37564C4.11179 2.26312 3.95918 2.1999 3.80005 2.1999ZM5.60005 2.1999C5.44092 2.1999 5.28831 2.26312 5.17579 2.37564C5.06326 2.48816 5.00005 2.64077 5.00005 2.7999C5.00005 2.95903 5.06326 3.11164 5.17579 3.22417C5.28831 3.33669 5.44092 3.3999 5.60005 3.3999C5.75918 3.3999 5.91179 3.33669 6.02431 3.22417C6.13683 3.11164 6.20005 2.95903 6.20005 2.7999C6.20005 2.64077 6.13683 2.48816 6.02431 2.37564C5.91179 2.26312 5.75918 2.1999 5.60005 2.1999ZM7.40005 2.1999C7.24092 2.1999 7.08831 2.26312 6.97579 2.37564C6.86326 2.48816 6.80005 2.64077 6.80005 2.7999C6.80005 2.95903 6.86326 3.11164 6.97579 3.22417C7.08831 3.33669 7.24092 3.3999 7.40005 3.3999C7.55918 3.3999 7.71179 3.33669 7.82431 3.22417C7.93683 3.11164 8.00005 2.95903 8.00005 2.7999C8.00005 2.64077 7.93683 2.48816 7.82431 2.37564C7.71179 2.26312 7.55918 2.1999 7.40005 2.1999ZM2.52388 5.1999H5.00005V10.5354C4.61663 10.9397 4.09713 11.1999 3.50005 11.1999C2.91672 11.1999 2.62365 11.0119 2.38442 10.6667C2.14519 10.3215 2.00005 9.76371 2.00005 9.0999C2.00005 7.91637 2.42123 5.74677 2.52388 5.1999ZM6.20005 5.1999H9.20005V10.5354C8.81663 10.9397 8.29713 11.1999 7.70005 11.1999C7.10296 11.1999 6.58347 10.9397 6.20005 10.5354V5.1999ZM10.4 5.1999H13.4V10.5097C13.0157 10.9208 12.5029 11.1999 11.9 11.1999C11.2972 11.1999 10.7844 10.9208 10.4 10.5097V5.1999ZM14.6 5.1999H17.6V10.5097C17.2162 10.9205 16.7029 11.1999 16.1 11.1999C15.4972 11.1999 14.9844 10.9208 14.6 10.5097V5.1999ZM18.8 5.1999H21.8V10.5097C21.4162 10.9205 20.9029 11.1999 20.3 11.1999C19.6972 11.1999 19.1839 10.9205 18.8 10.5097V5.1999ZM23 5.1999H25.4762C25.5789 5.74677 26 7.91637 26 9.0999C26 9.76371 25.8549 10.3215 25.6157 10.6667C25.3764 11.0119 25.0834 11.1999 24.5 11.1999C23.903 11.1999 23.383 10.9394 23 10.5354V5.1999ZM22.7 14.1999C21.216 14.1999 20 15.4158 20 16.8999V17.7999H17.0446L17.0024 18.3542L16.4 26.1765V26.1999C16.4 27.1869 17.2131 27.9999 18.2 27.9999H27.2C28.187 27.9999 29 27.1869 29 26.1999V26.1765L28.3555 17.7999H25.4V16.8999C25.4 15.4158 24.1841 14.1999 22.7 14.1999ZM22.7 15.3999C23.5356 15.3999 24.2 16.0644 24.2 16.8999V17.7999H21.2V16.8999C21.2 16.0644 21.8645 15.3999 22.7 15.3999ZM18.1555 18.9999H27.2446L27.7989 26.2022C27.7974 26.5399 27.5381 26.7999 27.2 26.7999H18.2C17.862 26.7999 17.6027 26.5399 17.6012 26.2022L18.1555 18.9999Z" fill="#999999"/>
</svg>
