<svg width="29" height="25" viewBox="0 0 29 25" fill="none" xmlns="http://www.w3.org/2000/svg">
<path d="M10.6675 0C6.93281 0 3.8675 3.06531 3.8675 6.8V18.87L1.9125 16.915L0 18.8488L5.2275 24.0763L10.455 18.8488L8.5425 16.9363L6.5875 18.87V6.8C6.5875 4.55016 8.41766 2.72 10.6675 2.72H18.1475V0H10.6675Z" fill="#727272"/>
<path d="M22.9903 0L17.7416 5.24875L19.6753 7.16125L21.6303 5.20625V17.2763C21.6303 19.5261 19.8002 21.3563 17.5503 21.3563H10.0703V24.0763H17.5503C21.285 24.0763 24.3503 21.0109 24.3503 17.2763V5.20625L26.3053 7.16125L28.2178 5.2275L22.9903 0Z" fill="#915858"/>
</svg>
