<svg width="179" height="142" viewBox="0 0 179 142" fill="none" xmlns="http://www.w3.org/2000/svg">
<path d="M100.03 0C77.6971 0 68.4418 14.3115 68.4418 31.5578C68.4418 37.3645 71.2181 43.1968 71.2181 43.1968C70.1019 43.8385 68.2664 45.8754 68.7297 49.494C69.5931 56.2421 72.5214 57.9606 74.3851 58.1026C75.0958 64.3984 81.8668 72.4518 84.2359 73.6247V84.144C78.9712 99.9229 36.8535 89.4036 36.8535 126.221H99.7524C96.5883 119.878 94.7653 112.751 94.7653 105.183C94.7653 85.1223 107.277 68.0129 124.914 61.1228C125.277 60.0919 125.564 59.0756 125.675 58.1026C127.539 57.9606 130.467 56.2421 131.33 49.494C131.794 45.8701 129.958 43.8385 128.842 43.1968C128.842 43.1968 131.618 37.9273 131.618 31.5578C131.618 18.7874 126.601 7.88946 115.824 7.88946C115.824 7.88946 112.081 0 100.03 0ZM142.148 68.365C121.794 68.365 105.295 84.8488 105.295 105.183C105.295 125.516 121.794 142 142.148 142C162.501 142 179.001 125.516 179.001 105.183C179.001 84.8488 162.501 68.365 142.148 68.365ZM157.942 89.4036C159.288 89.4036 160.635 89.9163 161.664 90.9445C163.723 93.001 163.723 96.3255 161.664 98.382L140.605 119.421C139.579 120.446 138.231 120.961 136.883 120.961C135.535 120.961 134.187 120.446 133.161 119.421L122.631 108.901C120.573 106.845 120.573 103.52 122.631 101.464C124.69 99.4073 128.017 99.4073 130.076 101.464L136.883 108.264L154.219 90.9445C155.249 89.9163 156.595 89.4036 157.942 89.4036Z" fill="#00A745"/>
<path d="M63.6708 21.0283C42.5832 21.3858 33.3412 38.1509 39.6835 52.4875C39.0049 52.8204 37.6722 54.5832 38.0054 57.6157C38.6841 63.015 40.6953 64.3217 42.0526 64.3217C42.719 69.3759 45.705 75.0465 47.3832 76.0573C47.3832 79.4226 47.4202 79.324 47.087 83.355C44.3477 91.9841 15.7949 91.3431 15.7949 112.546C15.7949 112.546 15.7949 115.702 18.9537 115.702H33.2672C38.0918 102.068 51.2083 96.8164 61.1043 92.921C66.5582 90.7761 72.1478 88.6065 73.8383 85.9191C74.0234 82.9852 74.1221 80.4951 74.1344 77.7338C71.136 74.3068 68.9026 68.9691 67.8168 64.4203C65.2503 62.5219 62.4739 58.8731 61.7953 52.0931C61.4991 48.8756 62.1778 46.2006 63.276 44.105C60.7711 36.3265 60.9315 28.2028 63.6708 21.0283Z" fill="#00A745"/>
<path d="M30.2431 36.8073C16.9221 37.0456 11.0839 48.2223 15.0904 57.7801C14.6617 58.002 13.8199 59.1772 14.0303 61.1988C14.459 64.7984 15.7295 65.6695 16.5869 65.6695C17.0079 69.039 18.8941 72.8193 19.9542 73.4932C19.9542 75.7368 19.9776 75.6711 19.7671 78.3584C18.0367 84.1111 0 83.6838 0 97.8191C0 97.8191 0 99.9229 1.99542 99.9229H11.0372C14.0849 90.8336 22.3705 87.3327 28.6218 84.7357C32.067 83.3058 35.598 81.8594 36.6659 80.0678C36.7828 78.1119 36.8451 76.4518 36.8529 74.6109C34.9588 72.3263 33.548 68.7678 32.8621 65.7353C31.2408 64.4697 29.487 62.0371 29.0583 57.5171C28.8713 55.3721 29.3 53.5888 29.9937 52.1917C28.4114 47.006 28.5127 41.5902 30.2431 36.8073Z" fill="#00A745"/>
</svg>
