<svg width="24" height="24" viewBox="0 0 24 24" fill="none" xmlns="http://www.w3.org/2000/svg">
<path d="M6.03906 3C4.84961 3 4 4.07227 4 5.25V17.25C4 18.4277 4.84961 19.5 6.03906 19.5H7V18H6.03906C5.80469 18 5.5 17.7246 5.5 17.25V5.25C5.5 4.77539 5.80469 4.5 6.03906 4.5H15.877C15.5957 3.62695 14.8457 3 13.9609 3H6.03906Z" fill="#727272"/>
<path d="M10.0391 5.5C8.84961 5.5 8 6.57227 8 7.75V19.75C8 20.9277 8.84961 22 10.0391 22H17.9609C19.1504 22 20 20.9277 20 19.75V7.75C20 6.57227 19.1504 5.5 17.9609 5.5H10.0391ZM10.0391 7H17.9609C18.1953 7 18.5 7.27539 18.5 7.75V19.75C18.5 20.2246 18.1953 20.5 17.9609 20.5H10.0391C9.80469 20.5 9.5 20.2246 9.5 19.75V7.75C9.5 7.27539 9.80469 7 10.0391 7ZM12.5 17.5V19H15.5V17.5H12.5Z" fill="#915858"/>
</svg>
