<svg width="31" height="32" viewBox="0 0 31 32" fill="none" xmlns="http://www.w3.org/2000/svg">
<g filter="url(#filter0_b_385_4599)">
<path d="M30 16C30 14.6252 29.442 13.3293 28.4745 12.3895C28.8428 11.0913 28.6777 9.6895 27.99 8.5C27.303 7.30975 26.172 6.46675 24.864 6.136C24.534 4.828 23.6903 3.69775 22.5 3.01C21.3105 2.32225 19.9088 2.15725 18.6097 2.5255C17.6707 1.558 16.374 1 15 1C13.626 1 12.3293 1.558 11.3903 2.5255C10.0928 2.158 8.69025 2.323 7.5 3.01C6.30975 3.69775 5.466 4.82875 5.136 6.136C3.828 6.46675 2.697 7.30975 2.01 8.5C1.323 9.6895 1.15725 11.0913 1.5255 12.3895C0.558 13.3293 0 14.6252 0 16C0 17.3748 0.558 18.6707 1.5255 19.6105C1.15725 20.9087 1.323 22.3105 2.01 23.5C2.697 24.6903 3.828 25.5333 5.136 25.864C5.466 27.172 6.30975 28.303 7.5 28.99C8.68875 29.6763 10.0905 29.842 11.3895 29.4745C12.3293 30.442 13.626 31 15 31C16.374 31 17.6707 30.442 18.6105 29.4745C19.9087 29.842 21.3105 29.677 22.5 28.99C23.6903 28.3022 24.534 27.1712 24.864 25.864C26.172 25.534 27.303 24.6903 27.99 23.5C28.677 22.3105 28.8428 20.9087 28.4745 19.6105C29.442 18.6707 30 17.3748 30 16Z" fill="#915858" fill-opacity="0.3"/>
</g>
<path d="M7.80576 17.916C7.48326 17.916 7.16691 17.8524 6.85672 17.7252C6.54899 17.598 6.26342 17.3931 6 17.1107L6.66839 16.1374C6.78902 16.2519 6.90596 16.3461 7.0192 16.4198C7.13245 16.4911 7.24077 16.5471 7.34416 16.5878C7.44756 16.6285 7.5448 16.6565 7.63589 16.6718C7.72944 16.687 7.81684 16.6947 7.89808 16.6947C7.96455 16.6947 8.03594 16.6908 8.11226 16.6832C8.18858 16.673 8.26366 16.6578 8.33752 16.6374C8.41383 16.617 8.48523 16.5916 8.5517 16.5611C8.61817 16.5305 8.67602 16.4924 8.72526 16.4466C8.63171 16.2125 8.52954 15.9695 8.41876 15.7176C8.31044 15.4631 8.20089 15.2087 8.0901 14.9542C7.97932 14.6972 7.86977 14.4427 7.76145 14.1908C7.65313 13.9389 7.55219 13.6972 7.45864 13.4656L8.53693 13L9.75554 16.042C9.79985 16.1539 9.84047 16.2519 9.8774 16.3359C9.91433 16.4198 9.95741 16.4898 10.0066 16.5458C10.0583 16.6018 10.1187 16.6438 10.1876 16.6718C10.259 16.6972 10.3501 16.7099 10.4609 16.7099H10.5679V17.916H10.4609C10.3107 17.916 10.1777 17.9059 10.062 17.8855C9.94879 17.8651 9.84663 17.8359 9.75554 17.7977C9.66691 17.7621 9.5869 17.7188 9.51551 17.6679C9.44658 17.6145 9.38134 17.556 9.31979 17.4924C9.20655 17.5712 9.0933 17.6374 8.98006 17.6908C8.86681 17.7468 8.74864 17.7913 8.62555 17.8244C8.50246 17.8575 8.37321 17.8804 8.23781 17.8931C8.10487 17.9084 7.96086 17.916 7.80576 17.916Z" fill="#915858"/>
<path d="M10.4214 16.7099H11.3076C11.4135 16.7099 11.5304 16.7048 11.6584 16.6947C11.7864 16.6819 11.9058 16.6578 12.0166 16.6221C12.1299 16.5865 12.2234 16.5344 12.2973 16.4656C12.3736 16.3944 12.4118 16.3015 12.4118 16.187C12.4118 16.126 12.3933 16.0356 12.3564 15.916C12.3219 15.7939 12.2751 15.659 12.216 15.5115C12.1594 15.3613 12.0942 15.2048 12.0203 15.042C11.9489 14.8791 11.8775 14.7239 11.8061 14.5763L12.8623 14.0344C12.9312 14.1947 12.9989 14.3651 13.0654 14.5458C13.1343 14.7265 13.1959 14.9097 13.25 15.0954C13.3042 15.2812 13.3473 15.4669 13.3793 15.6527C13.4137 15.8359 13.431 16.0115 13.431 16.1794C13.431 16.4949 13.3743 16.7634 13.2611 16.9847C13.1503 17.2036 12.9989 17.383 12.8069 17.5229C12.6149 17.6603 12.3896 17.7595 12.1311 17.8206C11.8726 17.8842 11.5957 17.916 11.3002 17.916H10.4214V16.7099ZM11.8615 19.0344L11.1673 19.7519L10.4509 19.0153L11.1599 18.2786L11.8615 19.0038L12.5558 18.2863L13.2722 19.0229L12.5632 19.7595L11.8615 19.0344Z" fill="#915858"/>
<path d="M15.5609 17.916C15.2384 17.916 14.9221 17.8524 14.6119 17.7252C14.3041 17.598 14.0186 17.3931 13.7552 17.1107L14.4235 16.1374C14.5442 16.2519 14.6611 16.3461 14.7744 16.4198C14.8876 16.4911 14.9959 16.5471 15.0993 16.5878C15.2027 16.6285 15.3 16.6565 15.391 16.6718C15.4846 16.687 15.572 16.6947 15.6532 16.6947C15.7197 16.6947 15.7911 16.6908 15.8674 16.6832C15.9437 16.673 16.0188 16.6578 16.0927 16.6374C16.169 16.617 16.2404 16.5916 16.3069 16.5611C16.3733 16.5305 16.4312 16.4924 16.4804 16.4466C16.3869 16.2125 16.2847 15.9695 16.1739 15.7176C16.0656 15.4631 15.956 15.2087 15.8453 14.9542C15.7345 14.6972 15.6249 14.4427 15.5166 14.1908C15.4083 13.9389 15.3073 13.6972 15.2138 13.4656L16.2921 13L17.5107 16.042C17.555 16.1539 17.5956 16.2519 17.6326 16.3359C17.6695 16.4198 17.7126 16.4898 17.7618 16.5458C17.8135 16.6018 17.8738 16.6438 17.9427 16.6718C18.0141 16.6972 18.1052 16.7099 18.216 16.7099H18.3231V17.916H18.216C18.0658 17.916 17.9329 17.9059 17.8172 17.8855C17.7039 17.8651 17.6018 17.8359 17.5107 17.7977C17.4221 17.7621 17.3421 17.7188 17.2707 17.6679C17.2017 17.6145 17.1365 17.556 17.0749 17.4924C16.9617 17.5712 16.8485 17.6374 16.7352 17.6908C16.622 17.7468 16.5038 17.7913 16.3807 17.8244C16.2576 17.8575 16.1284 17.8804 15.993 17.8931C15.86 17.9084 15.716 17.916 15.5609 17.916Z" fill="#915858"/>
<path d="M18.1765 16.7099H18.9557C19.3545 16.7099 19.7201 16.6858 20.0524 16.6374C20.3872 16.5865 20.6999 16.5191 20.9904 16.4351C21.2809 16.3511 21.5554 16.2545 21.8139 16.145C22.0748 16.0331 22.3309 15.9173 22.582 15.7977C22.4146 15.7494 22.2459 15.6896 22.0761 15.6183C21.9087 15.5471 21.74 15.4784 21.5702 15.4122C21.4028 15.3461 21.2354 15.2901 21.0679 15.2443C20.9005 15.1959 20.7344 15.1718 20.5694 15.1718C20.4562 15.1718 20.3442 15.2036 20.2334 15.2672C20.1251 15.3308 20.0266 15.4033 19.938 15.4847C19.8493 15.5662 19.7755 15.6463 19.7164 15.7252C19.6573 15.8015 19.6204 15.8537 19.6056 15.8817L18.7526 15.313C18.8461 15.1425 18.9569 14.9758 19.0849 14.813C19.213 14.6501 19.3533 14.5064 19.5059 14.3817C19.661 14.2545 19.8272 14.1527 20.0044 14.0763C20.1841 14 20.3725 13.9618 20.5694 13.9618C20.7147 13.9618 20.8599 13.9784 21.0052 14.0115C21.1504 14.042 21.2944 14.0827 21.4372 14.1336C21.5825 14.1845 21.7253 14.243 21.8656 14.3092C22.0059 14.3728 22.145 14.4377 22.2829 14.5038C22.4133 14.5674 22.5451 14.631 22.678 14.6947C22.8109 14.7557 22.9476 14.813 23.0879 14.8664C23.2282 14.9173 23.3735 14.9593 23.5236 14.9924C23.6738 15.0254 23.8326 15.0433 24 15.0458L23.9077 16.2176L23.3833 16.4771C23.1691 16.584 22.9562 16.6947 22.7445 16.8092C22.5327 16.9211 22.3173 17.0305 22.0982 17.1374C21.8791 17.2417 21.6526 17.3422 21.4188 17.4389C21.1849 17.5331 20.9399 17.6158 20.6839 17.687C20.4279 17.7557 20.1571 17.8104 19.8715 17.8511C19.5859 17.8944 19.2807 17.916 18.9557 17.916H18.1765V16.7099ZM21.223 20L20.4033 19.1527L21.223 18.3053L22.0428 19.1527L21.223 20Z" fill="#915858"/>
<defs>
<filter id="filter0_b_385_4599" x="-2" y="-1" width="34" height="34" filterUnits="userSpaceOnUse" color-interpolation-filters="sRGB">
<feFlood flood-opacity="0" result="BackgroundImageFix"/>
<feGaussianBlur in="BackgroundImageFix" stdDeviation="1"/>
<feComposite in2="SourceAlpha" operator="in" result="effect1_backgroundBlur_385_4599"/>
<feBlend mode="normal" in="SourceGraphic" in2="effect1_backgroundBlur_385_4599" result="shape"/>
</filter>
</defs>
</svg>
