<svg width="15" height="13" viewBox="0 0 15 13" fill="none" xmlns="http://www.w3.org/2000/svg">
<path d="M7.49105 0C6.94808 0 6.40511 0.257812 6.09652 0.773437L0.217612 10.5977C-0.407389 11.6367 0.393393 12.9922 1.60824 12.9922H13.37C14.5887 12.9922 15.3895 11.6367 14.7684 10.5977L8.88558 0.773437C8.57699 0.257812 8.03402 0 7.49105 0ZM7.49105 0.984375C7.69808 0.984375 7.90511 1.08594 8.03011 1.28906L13.909 11.1094C14.1551 11.5195 13.8817 11.9922 13.37 11.9922H1.60824C1.10042 11.9922 0.826987 11.5195 1.07308 11.1094L6.95199 1.28906C7.07699 1.08594 7.28402 0.984375 7.49105 0.984375ZM6.98324 3.99219V8.99219H7.98324V3.99219H6.98324ZM6.98324 9.99219V10.9922H7.98324V9.99219H6.98324Z" fill="#F20000"/>
</svg>
