<svg width="26" height="26" viewBox="0 0 26 26" fill="none" xmlns="http://www.w3.org/2000/svg">
<circle cx="13" cy="13" r="13" fill="#F20000" fill-opacity="0.2"/>
<circle cx="12.9999" cy="12.9999" r="8.66667" fill="#F20000"/>
<path d="M16.5039 8.66697C16.2899 8.67203 16.0866 8.76154 15.9384 8.91597L13 11.8543L10.0617 8.91597C9.98614 8.83819 9.89577 8.77636 9.79592 8.73413C9.69606 8.6919 9.58875 8.67014 9.48033 8.67014C9.31907 8.67018 9.16149 8.71833 9.02775 8.80843C8.89401 8.89853 8.79019 9.02648 8.72958 9.17592C8.66896 9.32535 8.65431 9.48947 8.6875 9.64728C8.72069 9.80509 8.8002 9.94941 8.91587 10.0618L11.8542 13.0001L8.91587 15.9385C8.8381 16.0132 8.77602 16.1026 8.73325 16.2015C8.69048 16.3005 8.66789 16.407 8.66679 16.5148C8.66569 16.6226 8.68612 16.7295 8.72687 16.8293C8.76762 16.9292 8.82787 17.0198 8.9041 17.0961C8.98033 17.1723 9.071 17.2325 9.17081 17.2733C9.27062 17.314 9.37756 17.3345 9.48536 17.3334C9.59316 17.3323 9.69966 17.3097 9.79862 17.2669C9.89757 17.2241 9.98701 17.1621 10.0617 17.0843L13 14.1459L15.9384 17.0843C16.0131 17.1621 16.1025 17.2241 16.2014 17.2669C16.3004 17.3097 16.4069 17.3323 16.5147 17.3334C16.6225 17.3345 16.7294 17.314 16.8292 17.2733C16.9291 17.2325 17.0197 17.1723 17.096 17.0961C17.1722 17.0198 17.2324 16.9292 17.2732 16.8293C17.3139 16.7295 17.3344 16.6226 17.3333 16.5148C17.3322 16.407 17.3096 16.3005 17.2668 16.2015C17.224 16.1026 17.162 16.0132 17.0842 15.9385L14.1458 13.0001L17.0842 10.0618C17.202 9.94868 17.2829 9.80262 17.3163 9.64274C17.3497 9.48287 17.334 9.31663 17.2712 9.16584C17.2085 9.01505 17.1017 8.88673 16.9647 8.79771C16.8278 8.70869 16.6672 8.66312 16.5039 8.66697Z" fill="white"/>
</svg>
