<svg width="92" height="78" viewBox="0 0 92 78" fill="none" xmlns="http://www.w3.org/2000/svg">
<path d="M0 0.360107V77.6401H92V0.360107H0ZM9.2 9.56011H82.8V68.4401H9.2V9.56011ZM60.72 20.6001C56.6591 20.6001 53.36 23.8992 53.36 27.9601C53.36 32.021 56.6591 35.3201 60.72 35.3201C64.7809 35.3201 68.08 32.021 68.08 27.9601C68.08 23.8992 64.7809 20.6001 60.72 20.6001ZM31.3375 22.4401C30.7769 22.4257 30.2666 22.6414 29.9 23.0726L12.88 42.9676V64.7601H79.12V46.5901L65.09 40.9551C64.6084 40.761 64.0694 40.7826 63.595 41.0126L50.255 47.6826L32.775 23.1876C32.4444 22.7276 31.9053 22.4689 31.3375 22.4401Z" fill="#D9D9D9"/>
</svg>
