<svg width="130" height="130" viewBox="0 0 130 130" fill="none" xmlns="http://www.w3.org/2000/svg">
<path d="M102.916 10.8334H70.416C70.416 13.8261 67.9921 16.25 64.9994 16.25C62.0066 16.25 59.5827 13.8261 59.5827 10.8334H27.0827C24.09 10.8334 21.666 13.2573 21.666 16.25V113.75C21.666 116.743 24.09 119.167 27.0827 119.167H102.916C105.909 119.167 108.333 116.743 108.333 113.75V16.25C108.333 13.2573 105.909 10.8334 102.916 10.8334Z" fill="#D7D7D7"/>
<path d="M100.209 113.75H29.7923C28.2973 113.75 27.084 112.537 27.084 111.042V86.6666H102.917V111.042C102.917 112.537 101.704 113.75 100.209 113.75Z" fill="#D7D7D7"/>
<path d="M100.209 108.333H29.7923C28.2973 108.333 27.084 107.12 27.084 105.625V18.9583C27.084 17.4633 28.2973 16.25 29.7923 16.25H100.209C101.704 16.25 102.917 17.4633 102.917 18.9583V105.625C102.917 107.12 101.704 108.333 100.209 108.333Z" fill="#F3F3F3"/>
<path d="M83.9577 21.6666V10.8333H72.626C71.5075 7.6835 68.531 5.41663 64.9994 5.41663C61.4677 5.41663 58.4912 7.6835 57.3727 10.8333H46.041V21.6666C46.041 23.1616 47.2543 24.375 48.7493 24.375H81.2494C82.7444 24.375 83.9577 23.1616 83.9577 21.6666ZM64.9994 10.8333C66.4944 10.8333 67.7077 12.0466 67.7077 13.5416C67.7077 15.0366 66.4944 16.25 64.9994 16.25C63.5044 16.25 62.291 15.0366 62.291 13.5416C62.291 12.0466 63.5044 10.8333 64.9994 10.8333Z" fill="#D7D7D7"/>
<path d="M65 73.125C51.5396 73.125 40.625 80.0719 40.625 87.6471V89.2585C40.625 90.8185 41.99 92.0833 43.6719 92.0833H86.3281C88.01 92.0833 89.375 90.8185 89.375 89.2585V87.6471C89.375 80.0719 78.4604 73.125 65 73.125Z" fill="#D7D7D7"/>
<path d="M70.988 76.0473C70.988 78.5146 67.5971 81.25 64.9998 81.25C62.4026 81.25 59.0117 78.5146 59.0117 76.0473C59.0117 72.6159 59.0117 66.8959 59.0117 66.8959H70.9853C70.9853 66.8959 70.988 72.6159 70.988 76.0473Z" fill="#D7D7D7"/>
<path d="M77.5955 54.665H76.8047V62.1482H77.8582C78.6274 62.1482 79.2855 61.5632 79.4155 60.7642L79.9301 57.5792C80.1793 56.0544 79.0634 54.665 77.5955 54.665Z" fill="#D7D7D7"/>
<path d="M52.4027 54.665H53.1935V62.1482H52.14C51.3708 62.1482 50.7127 61.5632 50.5827 60.7642L50.0681 57.5792C49.819 56.0544 50.9348 54.665 52.4027 54.665Z" fill="#D7D7D7"/>
<path d="M65.0009 39.8992C59.0913 39.8992 53.0273 40.8119 53.0273 53.7767C53.0273 54.8167 53.0273 61.7148 53.0273 62.8225C53.0273 67.451 60.2126 73.125 65.0009 73.125C69.7892 73.125 76.9744 67.451 76.9744 62.8225C76.9744 61.7121 76.9744 54.8167 76.9744 53.7767C76.9744 40.8119 70.9105 39.8992 65.0009 39.8992Z" fill="white"/>
<path d="M64.9995 35.2084C58.4832 35.2084 57.5163 37.6567 57.5163 37.6567C54.8676 38.0494 50.0332 39.6961 50.0332 47.1819C50.0332 49.6573 51.252 55.8323 53.0259 59.1555C53.8438 49.3567 54.8947 44.1892 57.5163 44.1892C59.4122 44.1892 60.918 41.1965 64.9995 41.1965C68.4444 41.1965 69.3003 44.1892 72.4826 44.1892C76.973 44.1892 76.973 57.6117 76.973 59.1555C78.9013 55.705 79.9657 49.3432 79.9657 47.1819C79.9657 39.6284 74.2944 35.2084 64.9995 35.2084Z" fill="#D7D7D7"/>
<path d="M62.0082 35.2084C56.0337 35.2084 56.0201 41.1965 56.0201 41.1965C55.947 43.2196 57.423 44.1892 65.0009 44.1892C69.5753 44.1892 76.9745 42.8296 76.9745 35.2084C76.9745 35.2084 72.3757 35.2084 62.0082 35.2084Z" fill="#D7D7D7"/>
<path d="M129.999 108.333C129.999 120.298 120.297 130 108.333 130C96.3683 130 86.666 120.298 86.666 108.333C86.666 96.369 96.3683 86.6666 108.333 86.6666C120.297 86.6666 129.999 96.369 129.999 108.333Z" fill="#F20000"/>
<path fill-rule="evenodd" clip-rule="evenodd" d="M118.803 99.606L117.058 97.861C116.575 97.3797 115.795 97.3797 115.313 97.861L108.81 104.365L102.309 97.8641C101.828 97.3829 101.045 97.3829 100.564 97.8641L98.8189 99.6091C98.3376 100.09 98.3376 100.873 98.8189 101.354L105.32 107.855L97.861 115.313C97.3797 115.795 97.3797 116.577 97.861 117.058L99.606 118.803C100.087 119.285 100.87 119.285 101.351 118.803L108.81 111.345L116.271 118.806C116.753 119.288 117.535 119.288 118.016 118.806L119.761 117.061C120.243 116.578 120.243 115.798 119.761 115.316L112.299 107.855L118.803 101.351C119.285 100.87 119.285 100.087 118.803 99.606Z" fill="white"/>
</svg>
