<svg width="41" height="41" viewBox="0 0 41 41" fill="none" xmlns="http://www.w3.org/2000/svg">
<path d="M15.682 3.41699C15.2984 3.41699 14.9344 3.58857 14.691 3.88411L11.5329 7.72786C11.0836 8.27453 11.1623 9.08033 11.7081 9.52962L18.9685 15.5088C19.2051 15.7044 19.4931 15.8024 19.7826 15.8024C20.0722 15.8024 20.3602 15.7052 20.5968 15.5105L27.8572 9.53129C28.1262 9.31006 28.2945 8.98807 28.321 8.64042C28.3474 8.29278 28.2296 7.94835 27.9973 7.68783L24.5606 3.84408C24.3172 3.57245 23.9702 3.41699 23.6064 3.41699H15.682ZM11.2276 11.3197C7.45562 14.0061 5.125 18.3621 5.125 23.0395C5.125 31.014 11.6973 37.5019 19.776 37.5019C27.8547 37.5019 34.4269 31.014 34.4269 23.0395C34.4269 18.3638 32.0996 14.0119 28.331 11.3247L26.2773 13.0247C29.7145 15.1909 31.8644 18.9686 31.8644 23.0378C31.8644 29.5995 26.4419 34.9377 19.776 34.9377C13.11 34.9377 7.6875 29.5995 7.6875 23.0378C7.6875 18.966 9.84071 15.1867 13.2813 13.0214L11.2276 11.3197Z" fill="#F20000"/>
<path fill-rule="evenodd" clip-rule="evenodd" d="M19.6432 24.9251L23.3771 28.6589C23.8869 29.1688 24.7155 29.1688 25.2254 28.6589L25.24 28.6443C25.7499 28.1344 25.7499 27.3059 25.24 26.796L21.5062 23.0622L25.24 19.3283C25.7499 18.8185 25.7499 17.9899 25.24 17.48L25.2254 17.4654C24.7155 16.9555 23.8869 16.9555 23.3771 17.4654L19.6432 21.1992L15.9094 17.4654C15.3995 16.9555 14.571 16.9555 14.0611 17.4654L14.0465 17.48C13.5366 17.9899 13.5366 18.8185 14.0465 19.3283L17.7803 23.0622L14.0465 26.796C13.5366 27.3059 13.5366 28.1344 14.0465 28.6443L14.0611 28.6589C14.571 29.1688 15.3995 29.1688 15.9094 28.6589L19.6432 24.9251Z" fill="#F20000"/>
</svg>
