<svg width="60" height="60" viewBox="0 0 60 60" fill="none" xmlns="http://www.w3.org/2000/svg">
<path d="M45.017 17.4545C45.017 16.8001 45.4466 16.3636 46.0927 16.3636H50.3994C51.0455 16.3636 51.4771 16.8001 51.4771 17.4545C51.4771 18.109 51.0455 18.5455 50.3994 18.5455H46.0927C45.4466 18.5455 45.017 18.109 45.017 17.4545Z" fill="#0070F6"/>
<path d="M38.5738 34.1509C38.8752 33.8388 39.2854 33.6573 39.7173 33.6445C40.0522 33.6349 40.3821 33.7273 40.664 33.9094C40.9459 34.092 41.1666 34.3558 41.2971 34.6669C41.4278 34.9776 41.4622 35.321 41.3959 35.652C41.3298 35.983 41.1659 36.2862 40.926 36.5217L29.8366 47.6985C29.5246 48.0128 29.1016 48.1893 28.6605 48.1893C28.2195 48.1893 27.7964 48.0128 27.4844 47.6985L21.9398 42.1101C21.7801 41.9556 21.6528 41.7706 21.5649 41.5657C21.5223 41.4663 21.4893 41.3629 21.4666 41.2578C21.4424 41.1463 21.4296 41.0323 21.4285 40.9176C21.4262 40.6946 21.4682 40.4734 21.5518 40.2667C21.6355 40.0604 21.7591 39.8729 21.9156 39.7148C22.0722 39.5572 22.2582 39.4325 22.4631 39.3484C22.668 39.2639 22.8876 39.2216 23.1089 39.2241C23.3302 39.2262 23.5488 39.2731 23.752 39.3615C23.9551 39.4499 24.1387 39.5785 24.292 39.7393L28.6605 44.1424L38.5738 34.1509Z" fill="#0070F6"/>
<path fill-rule="evenodd" clip-rule="evenodd" d="M17.197 12C17.7449 5.29261 23.2736 0 30 0C36.7264 0 42.2551 5.29261 42.803 12H53.7372C55.4591 12 56.8591 13.31 56.9662 15.0554L59.9797 56.3992C60.0868 57.381 59.7657 58.1456 59.1196 58.9091C58.4746 59.6726 57.6122 60 56.7507 60H3.24932C2.38896 60 1.52652 59.5636 0.880406 58.9091C0.234292 58.2546 -0.0868461 57.3828 0.0203164 56.5099L2.92704 15.0554C3.03421 13.31 4.43316 12 6.15604 12H17.197ZM40.6622 12C40.1263 6.47763 35.5678 2.18182 30 2.18182C24.4322 2.18182 19.8737 6.47763 19.3378 12H40.6622ZM17.1426 14.1818H6.15604C5.61709 14.1818 5.07832 14.6186 5.07832 15.1641L4.97159 16.3636H17.1426V14.1818ZM40.7145 16.3636V14.1818H19.2855V16.3636H40.7145ZM53.844 14.1818H42.8574V17.4055C42.858 17.4233 42.8658 17.4368 42.8658 17.4545C42.8658 17.4723 42.858 17.4858 42.8574 17.5036V20.951C43.382 21.1303 43.8584 21.3906 44.1946 21.7756C44.7481 22.4094 45.0003 23.212 45.0003 24C45.0003 24.788 44.7481 25.5906 44.1946 26.2244C43.6411 26.8583 42.7681 27.2727 41.786 27.2727C40.8038 27.2727 39.9308 26.8583 39.3773 26.2244C38.8238 25.5906 38.5716 24.788 38.5716 24C38.5716 23.212 38.8238 22.4094 39.3773 21.7756C39.7135 21.3906 40.1899 21.1303 40.7145 20.951V18.5455H19.2855V20.951C19.8101 21.1303 20.2865 21.3906 20.6227 21.7756C21.1762 22.4094 21.4284 23.212 21.4284 24C21.4284 24.788 21.1762 25.5906 20.6227 26.2244C20.0692 26.8583 19.1962 27.2727 18.214 27.2727C17.2319 27.2727 16.3589 26.8583 15.8054 26.2244C15.2519 25.5906 14.9997 24.788 14.9997 24C14.9997 23.212 15.2519 22.4094 15.8054 21.7756C16.1416 21.3906 16.6179 21.1303 17.1426 20.951V18.5455H4.75604L2.06695 56.6186C2.06695 56.946 2.17386 57.272 2.38923 57.4901C2.6046 57.7081 2.82006 57.8182 3.14259 57.8182H56.7507C56.9661 57.8182 57.2887 57.7081 57.5041 57.4901C57.7194 57.272 57.8284 56.946 57.8284 56.6186L54.9217 15.1641C54.9217 14.6186 54.3819 14.1818 53.844 14.1818ZM18.2496 22.9219C18.2266 22.9226 18.2036 22.9226 18.1806 22.9219C17.9572 22.9276 17.7933 22.9645 17.6655 23.0259C17.5595 23.0771 17.4782 23.1445 17.4084 23.2244C17.2476 23.4087 17.1426 23.6971 17.1426 24C17.1426 24.3029 17.2476 24.5913 17.4084 24.7756C17.4992 24.8796 17.6021 24.9666 17.7549 25.0227C17.8725 25.0661 18.0198 25.0909 18.214 25.0909C18.4327 25.0909 18.5919 25.0593 18.7163 25.0057C18.8459 24.9496 18.9377 24.8697 19.0197 24.7756C19.1805 24.5913 19.2855 24.3029 19.2855 24C19.2855 23.6971 19.1805 23.4087 19.0197 23.2244C18.866 23.0483 18.6563 22.9325 18.2496 22.9219ZM41.7935 22.9222L41.7525 22.9219C41.3438 22.9322 41.1344 23.0479 40.9803 23.2244C40.8195 23.4087 40.7145 23.6971 40.7145 24C40.7145 24.3029 40.8195 24.5913 40.9803 24.7756C41.1411 24.9599 41.3395 25.0909 41.786 25.0909C42.2324 25.0909 42.4308 24.9599 42.5916 24.7756C42.7524 24.5913 42.8574 24.3029 42.8574 24C42.8574 23.6971 42.7524 23.4087 42.5916 23.2244C42.4379 23.0483 42.2282 22.9325 41.8215 22.9219L41.7935 22.9222Z" fill="#0070F6"/>
</svg>
