<svg width="60" height="60" viewBox="0 0 60 60" fill="none" xmlns="http://www.w3.org/2000/svg">
<path d="M45.0167 17.3455C45.0167 16.695 45.4463 16.2614 46.0924 16.2614H50.399C51.0451 16.2614 51.4768 16.695 51.4768 17.3455C51.4768 17.9959 51.0451 18.4295 50.399 18.4295H46.0924C45.4463 18.4295 45.0167 17.9959 45.0167 17.3455Z" fill="#999999"/>
<path d="M29.1461 28.7757C29.366 28.5467 29.6668 28.4155 29.9823 28.4108C30.1415 28.4084 30.2995 28.4384 30.4471 28.4989C30.5946 28.5594 30.7286 28.6493 30.8413 28.7631C30.9539 28.8769 31.0428 29.0125 31.1027 29.1617C31.1627 29.3109 31.1925 29.4708 31.1903 29.6318V32.6432C31.1925 32.8028 31.1634 32.9613 31.1045 33.1094C31.0457 33.2575 30.9584 33.3923 30.8476 33.506C30.7368 33.6197 30.6048 33.7099 30.4593 33.7715C30.3138 33.8332 30.1576 33.8649 29.9998 33.8649C29.842 33.8649 29.6858 33.8332 29.5403 33.7715C29.3947 33.7099 29.2627 33.6197 29.152 33.506C29.0412 33.3923 28.9539 33.2575 28.895 33.1094C28.8362 32.9613 28.8071 32.8028 28.8093 32.6432V29.6318C28.805 29.3126 28.9261 29.0046 29.1461 28.7757Z" fill="#999999"/>
<path d="M34.767 30.0279C34.9517 29.9193 35.1619 29.8629 35.3756 29.8647C35.5852 29.8665 35.7907 29.9242 35.9712 30.032C36.1518 30.1399 36.301 30.294 36.4037 30.4789C36.5065 30.6638 36.5591 30.8729 36.5564 31.085C36.5537 31.2971 36.4957 31.5047 36.3882 31.6868L34.9001 34.2947C34.822 34.4318 34.7179 34.5519 34.5938 34.6483C34.4698 34.7446 34.3282 34.8153 34.1772 34.8563C34.0261 34.8972 33.8686 34.9077 33.7135 34.8871C33.5585 34.8665 33.409 34.8151 33.2735 34.736C33.1381 34.6569 33.0194 34.5516 32.9242 34.4261C32.829 34.3006 32.7592 34.1573 32.7187 34.0045C32.6782 33.8516 32.6679 33.6922 32.6883 33.5353C32.7087 33.3785 32.7595 33.2272 32.8377 33.0902L34.3258 30.4823C34.4299 30.2935 34.5823 30.1366 34.767 30.0279Z" fill="#999999"/>
<path d="M24.0054 30.0465C24.1808 29.9362 24.3815 29.874 24.5879 29.8659C24.8075 29.8573 25.0252 29.9102 25.2168 30.019C25.4085 30.1278 25.5666 30.2882 25.6738 30.4823L27.1619 33.0902C27.2401 33.2272 27.2909 33.3785 27.3113 33.5353C27.3317 33.6922 27.3214 33.8516 27.2809 34.0045C27.2404 34.1573 27.1706 34.3006 27.0754 34.4261C26.9802 34.5516 26.8615 34.6569 26.726 34.736C26.5906 34.8151 26.4411 34.8665 26.286 34.8871C26.131 34.9077 25.9735 34.8972 25.8224 34.8563C25.6714 34.8153 25.5298 34.7446 25.4057 34.6483C25.2817 34.5519 25.1776 34.4318 25.0995 34.2947L23.6114 31.6868C23.5055 31.5074 23.4477 31.3031 23.4435 31.0942C23.4393 30.8853 23.4889 30.6788 23.5874 30.4951C23.6859 30.3114 23.8299 30.1568 24.0054 30.0465Z" fill="#999999"/>
<path d="M20.0045 34.0694C20.2209 33.91 20.484 33.829 20.7514 33.8395C20.9508 33.8472 21.1451 33.9054 21.3164 34.0089L23.8939 35.5146C24.0293 35.5936 24.148 35.6989 24.2433 35.8245C24.3385 35.95 24.4084 36.0932 24.4489 36.246C24.4894 36.3989 24.4997 36.5583 24.4793 36.7151C24.4589 36.872 24.4082 37.0233 24.33 37.1603C24.2518 37.2974 24.1477 37.4175 24.0237 37.5138C23.8996 37.6101 23.758 37.6808 23.607 37.7217C23.4559 37.7627 23.2984 37.7731 23.1433 37.7525C22.9883 37.7318 22.8388 37.6805 22.7034 37.6013L20.1259 36.0957C19.8921 35.9639 19.709 35.7563 19.6062 35.5063C19.5033 35.2564 19.4867 34.9786 19.5589 34.7179C19.6312 34.4572 19.7882 34.2287 20.0045 34.0694Z" fill="#999999"/>
<path d="M38.6832 34.0089C38.8786 33.891 39.1033 33.8322 39.3307 33.8395C39.591 33.8477 39.8415 33.942 40.0438 34.108C40.246 34.274 40.3889 34.5026 40.4505 34.7586C40.5121 35.0146 40.4891 35.284 40.3849 35.5255C40.2807 35.767 40.1011 35.9673 39.8737 36.0957L37.2962 37.6013C37.1608 37.6805 37.0113 37.7318 36.8562 37.7525C36.7012 37.7731 36.5437 37.7627 36.3926 37.7217C36.2416 37.6808 36.1 37.6101 35.9759 37.5138C35.8518 37.4175 35.7477 37.2974 35.6696 37.1603C35.5914 37.0233 35.5407 36.872 35.5203 36.7151C35.4999 36.5583 35.5102 36.3989 35.5507 36.246C35.5912 36.0932 35.6611 35.95 35.7563 35.8245C35.8515 35.6989 35.9703 35.5936 36.1057 35.5146L38.6832 34.0089Z" fill="#999999"/>
<path d="M18.8246 39.3549C18.971 39.2954 19.1276 39.2659 19.2854 39.2682H22.2616C22.4193 39.2659 22.576 39.2954 22.7224 39.3549C22.8688 39.4145 23.002 39.5028 23.1143 39.6149C23.2267 39.727 23.3159 39.8605 23.3768 40.0078C23.4377 40.1551 23.469 40.3131 23.469 40.4727C23.469 40.6324 23.4377 40.7904 23.3768 40.9377C23.3159 41.0849 23.2267 41.2185 23.1143 41.3306C23.002 41.4426 22.8688 41.531 22.7224 41.5905C22.576 41.65 22.4193 41.6795 22.2616 41.6773H19.2854C19.1276 41.6795 18.971 41.65 18.8246 41.5905C18.6782 41.531 18.545 41.4426 18.4326 41.3306C18.3203 41.2185 18.2311 41.0849 18.1702 40.9377C18.1093 40.7904 18.0779 40.6324 18.0779 40.4727C18.0779 40.3131 18.1093 40.1551 18.1702 40.0078C18.2311 39.8605 18.3203 39.727 18.4326 39.6149C18.545 39.5028 18.6782 39.4145 18.8246 39.3549Z" fill="#999999"/>
<path d="M37.2772 39.3549C37.4236 39.2954 37.5802 39.2659 37.738 39.2682H40.7142C40.872 39.2659 41.0286 39.2954 41.175 39.3549C41.3214 39.4145 41.4546 39.5028 41.567 39.6149C41.6793 39.727 41.7685 39.8605 41.8294 40.0078C41.8903 40.1551 41.9217 40.3131 41.9217 40.4727C41.9217 40.6324 41.8903 40.7904 41.8294 40.9377C41.7685 41.0849 41.6793 41.2185 41.567 41.3306C41.4546 41.4426 41.3214 41.531 41.175 41.5905C41.0286 41.65 40.872 41.6795 40.7142 41.6773H37.738C37.5802 41.6795 37.4236 41.65 37.2772 41.5905C37.1308 41.531 36.9976 41.4426 36.8852 41.3306C36.7729 41.2185 36.6837 41.0849 36.6228 40.9377C36.5619 40.7904 36.5305 40.6324 36.5305 40.4727C36.5305 40.3131 36.5619 40.1551 36.6228 40.0078C36.6837 39.8605 36.7729 39.727 36.8852 39.6149C36.9976 39.5028 37.1308 39.4145 37.2772 39.3549Z" fill="#999999"/>
<path d="M22.7034 43.3441C22.8988 43.2262 23.1235 43.1674 23.3509 43.1747C23.6112 43.1829 23.8617 43.2772 24.064 43.4433C24.2662 43.6093 24.4091 43.8378 24.4707 44.0938C24.5323 44.3498 24.5093 44.6193 24.4051 44.8608C24.3009 45.1023 24.1213 45.3025 23.8939 45.4309L21.3164 46.9366C21.181 47.0157 21.0315 47.0671 20.8764 47.0877C20.7214 47.1084 20.5639 47.0979 20.4128 47.057C20.2618 47.016 20.1202 46.9454 19.9961 46.849C19.872 46.7527 19.7679 46.6326 19.6898 46.4956C19.6116 46.3585 19.5609 46.2073 19.5405 46.0504C19.5201 45.8935 19.5304 45.7341 19.5709 45.5813C19.6114 45.4284 19.6813 45.2852 19.7765 45.1597C19.8717 45.0342 19.9905 44.9289 20.1259 44.8498L22.7034 43.3441Z" fill="#999999"/>
<path d="M35.9843 43.4046C36.2007 43.2452 36.4638 43.1642 36.7312 43.1747C36.9306 43.1824 37.1249 43.2406 37.2962 43.3441L39.8737 44.8498C40.0091 44.9289 40.1278 45.0342 40.2231 45.1597C40.3183 45.2852 40.3881 45.4284 40.4287 45.5813C40.4692 45.7341 40.4795 45.8935 40.4591 46.0504C40.4387 46.2073 40.388 46.3585 40.3098 46.4956C40.2316 46.6326 40.1275 46.7527 40.0035 46.849C39.8794 46.9454 39.7378 47.016 39.5868 47.057C39.4357 47.0979 39.2782 47.1084 39.1231 47.0877C38.9681 47.0671 38.8186 47.0157 38.6832 46.9366L36.1057 45.4309C35.8719 45.2991 35.6888 45.0915 35.586 44.8415C35.4831 44.5916 35.4665 44.3138 35.5387 44.0531C35.611 43.7924 35.768 43.564 35.9843 43.4046Z" fill="#999999"/>
<path d="M25.5407 46.1963C25.7254 46.0877 25.9356 46.0313 26.1493 46.0332C26.3589 46.0349 26.5644 46.0926 26.7449 46.2004C26.9255 46.3083 27.0746 46.4625 27.1774 46.6474C27.2802 46.8322 27.3328 47.0413 27.3301 47.2534C27.3274 47.4655 27.2694 47.6731 27.1619 47.8553L25.6738 50.4632C25.5956 50.6002 25.4916 50.7203 25.3675 50.8167C25.2435 50.913 25.1019 50.9837 24.9508 51.0247C24.7998 51.0657 24.6423 51.0762 24.4872 51.0555C24.3322 51.0349 24.1827 50.9836 24.0472 50.9045C23.9118 50.8254 23.7931 50.72 23.6979 50.5945C23.6027 50.469 23.5328 50.3257 23.4924 50.1729C23.4519 50.0201 23.4416 49.8607 23.462 49.7038C23.4824 49.5469 23.5332 49.3956 23.6114 49.2586L25.0995 46.6507C25.2036 46.462 25.356 46.305 25.5407 46.1963Z" fill="#999999"/>
<path d="M33.2317 46.215C33.4071 46.1046 33.6079 46.0424 33.8142 46.0343C34.0338 46.0257 34.2515 46.0787 34.4432 46.1875C34.6348 46.2963 34.793 46.4566 34.9001 46.6507L36.3882 49.2586C36.4664 49.3956 36.5172 49.5469 36.5376 49.7038C36.558 49.8607 36.5477 50.0201 36.5072 50.1729C36.4667 50.3257 36.3969 50.469 36.3017 50.5945C36.2065 50.72 36.0878 50.8254 35.9524 50.9045C35.8169 50.9836 35.6674 51.0349 35.5124 51.0555C35.3573 51.0762 35.1998 51.0657 35.0487 51.0247C34.8977 50.9837 34.7561 50.913 34.6321 50.8167C34.508 50.7203 34.4039 50.6002 34.3258 50.4632L32.8377 47.8553C32.7319 47.6758 32.674 47.4716 32.6698 47.2626C32.6656 47.0537 32.7152 46.8472 32.8137 46.6636C32.9122 46.4799 33.0562 46.3253 33.2317 46.215Z" fill="#999999"/>
<path d="M29.1461 47.4461C29.366 47.2172 29.6668 47.0859 29.9823 47.0813C30.1415 47.0789 30.2995 47.1089 30.4471 47.1694C30.5946 47.2299 30.7286 47.3197 30.8413 47.4336C30.9539 47.5474 31.0428 47.6829 31.1027 47.8321C31.1627 47.9814 31.1925 48.1412 31.1903 48.3023V51.3136C31.1925 51.4733 31.1634 51.6317 31.1045 51.7799C31.0457 51.928 30.9584 52.0628 30.8476 52.1765C30.7368 52.2901 30.6048 52.3804 30.4593 52.442C30.3138 52.5036 30.1576 52.5353 29.9998 52.5353C29.842 52.5353 29.6858 52.5036 29.5403 52.442C29.3947 52.3804 29.2627 52.2901 29.152 52.1765C29.0412 52.0628 28.9539 51.928 28.895 51.7799C28.8362 51.6317 28.8071 51.4733 28.8093 51.3136V48.3023C28.805 47.983 28.9261 47.6751 29.1461 47.4461Z" fill="#999999"/>
<path fill-rule="evenodd" clip-rule="evenodd" d="M17.1969 11.925C17.7447 5.25964 23.2734 0 29.9998 0C36.7261 0 42.2549 5.25964 42.8027 11.925H53.7369C55.4587 11.925 56.8587 13.2268 56.9658 14.9613L59.9793 56.0467C60.0864 57.0223 59.7653 57.782 59.1192 58.5409C58.4742 59.2998 57.6117 59.625 56.7503 59.625H3.24929C2.38892 59.625 1.52647 59.1914 0.880394 58.5409C0.234314 57.8905 -0.0868344 57.024 0.0203099 56.1568L2.92702 14.9613C3.03416 13.2268 4.43311 11.925 6.15599 11.925H17.1969ZM40.6619 11.925C40.126 6.43725 35.5676 2.16818 29.9998 2.16818C24.432 2.16818 19.8736 6.43725 19.3377 11.925H40.6619ZM17.1425 14.0932H6.15599C5.61706 14.0932 5.07827 14.5272 5.07827 15.0693L4.97155 16.2614H17.1425V14.0932ZM40.7142 16.2614V14.0932H19.2854V16.2614H40.7142ZM53.8436 14.0932H42.8571V17.2968C42.8574 17.3051 42.8593 17.3126 42.8613 17.32C42.8634 17.3281 42.8655 17.3362 42.8655 17.3455C42.8655 17.3547 42.8634 17.3628 42.8613 17.3709C42.8593 17.3784 42.8574 17.3858 42.8571 17.3942V20.8201C43.3817 20.9982 43.8581 21.2568 44.1943 21.6395C44.7478 22.2695 45 23.067 45 23.85C45 24.633 44.7478 25.4305 44.1943 26.0605C43.6408 26.6906 42.7678 27.1023 41.7857 27.1023C40.8035 27.1023 39.9305 26.6906 39.377 26.0605C38.8235 25.4305 38.5713 24.633 38.5713 23.85C38.5713 23.067 38.8235 22.2695 39.377 21.6395C39.7132 21.2568 40.1896 20.9982 40.7142 20.8201V18.4295H19.2854V20.8201C19.81 20.9982 20.2864 21.2568 20.6226 21.6395C21.1761 22.2695 21.4282 23.067 21.4282 23.85C21.4282 24.633 21.1761 25.4305 20.6226 26.0605C20.0691 26.6906 19.1961 27.1023 18.2139 27.1023C17.2318 27.1023 16.3588 26.6906 15.8053 26.0605C15.2517 25.4305 14.9996 24.633 14.9996 23.85C14.9996 23.067 15.2517 22.2695 15.8053 21.6395C16.1415 21.2568 16.6179 20.9982 17.1425 20.8201V18.4295H4.756L2.06693 56.2647C2.06693 56.59 2.17384 56.9139 2.3892 57.1307C2.60456 57.3476 2.82006 57.4568 3.14256 57.4568H56.7503C56.9656 57.4568 57.2883 57.3476 57.5036 57.1307C57.719 56.9139 57.828 56.59 57.828 56.2647L54.9213 15.0693C54.9213 14.5272 54.3814 14.0932 53.8436 14.0932ZM18.2495 22.7786C18.2265 22.7794 18.2034 22.7794 18.1804 22.7786C17.7718 22.7889 17.5624 22.9038 17.4082 23.0793C17.2475 23.2623 17.1425 23.5489 17.1425 23.85C17.1425 24.1511 17.2475 24.4377 17.4082 24.6207C17.569 24.8037 17.7675 24.9341 18.2139 24.9341C18.6603 24.9341 18.8588 24.8037 19.0196 24.6207C19.1804 24.4377 19.2854 24.1511 19.2854 23.85C19.2854 23.5489 19.1804 23.2623 19.0196 23.0793C18.8658 22.9043 18.6561 22.7893 18.2495 22.7786ZM41.8212 22.7786C41.7982 22.7794 41.7752 22.7794 41.7522 22.7786C41.3435 22.7889 41.1341 22.9038 40.98 23.0793C40.8192 23.2623 40.7142 23.5489 40.7142 23.85C40.7142 24.1511 40.8192 24.4377 40.98 24.6207C41.1408 24.8037 41.3392 24.9341 41.7857 24.9341C42.2321 24.9341 42.4305 24.8037 42.5913 24.6207C42.7521 24.4377 42.8571 24.1511 42.8571 23.85C42.8571 23.5489 42.7521 23.2623 42.5913 23.0793C42.4376 22.9043 42.2279 22.7893 41.8212 22.7786Z" fill="#999999"/>
</svg>
