<svg width="150" height="150" viewBox="0 0 150 150" fill="none" xmlns="http://www.w3.org/2000/svg">
<g clip-path="url(#clip0_377_20806)">
<path d="M55.4998 3C53.5107 3 51.603 3.79018 50.1965 5.1967C48.79 6.60322 47.9998 8.51088 47.9998 10.5C47.9998 12.4891 48.79 14.3968 50.1965 15.8033C51.603 17.2098 53.5107 18 55.4998 18C57.4889 18 59.3966 17.2098 60.8031 15.8033C62.2096 14.3968 62.9998 12.4891 62.9998 10.5C62.9998 8.51088 62.2096 6.60322 60.8031 5.1967C59.3966 3.79018 57.4889 3 55.4998 3ZM94.4998 3C92.5107 3 90.603 3.79018 89.1965 5.1967C87.79 6.60322 86.9998 8.51088 86.9998 10.5C86.9998 12.4891 87.79 14.3968 89.1965 15.8033C90.603 17.2098 92.5107 18 94.4998 18C96.4889 18 98.3966 17.2098 99.8031 15.8033C101.21 14.3968 102 12.4891 102 10.5C102 8.51088 101.21 6.60322 99.8031 5.1967C98.3966 3.79018 96.4889 3 94.4998 3ZM36.0467 44.3496C35.6758 44.3504 35.3082 44.4199 34.9627 44.5547L17.0564 51.1523C17.0362 51.1591 17.0179 51.1686 16.9978 51.1758L16.9627 51.1875C16.5175 51.3305 16.1118 51.5755 15.7782 51.9031C15.4445 52.2307 15.192 52.6317 15.0408 53.0742L0.456822 76.4121C-0.0231784 77.1801 -0.133007 78.1177 0.157993 78.9727C0.451993 79.8277 1.11368 80.5064 1.96268 80.8184L14.9998 85.6172V120C14.9998 121.257 15.7837 122.381 16.9627 122.812L71.9998 143.092V85.4531L74.7537 81.0469C74.839 81.0396 74.9126 81 74.9998 81C75.087 81 75.1606 81.0396 75.2459 81.0469L77.9998 85.4531V143.092L133.037 122.812C134.216 122.381 135 121.257 135 120V85.6172L148.037 80.8184C148.883 80.5064 149.548 79.8277 149.842 78.9727C150.133 78.1177 150.023 77.1801 149.543 76.4121L134.959 53.0742L134.953 53.0625C134.801 52.6228 134.549 52.2245 134.216 51.8991C133.883 51.5737 133.48 51.3301 133.037 51.1875L132.972 51.1641L115.037 44.5547C114.662 44.41 114.261 44.3423 113.859 44.3555C113.162 44.3813 112.496 44.6493 111.975 45.1131C111.454 45.577 111.111 46.2079 111.005 46.8973C110.899 47.5866 111.036 48.2914 111.394 48.8905C111.751 49.4895 112.306 49.9454 112.963 50.1797L123.328 54L74.9998 71.8008L26.6717 54L37.0369 50.1797C37.7041 49.9446 38.2668 49.4813 38.6256 48.8716C38.9844 48.2618 39.1162 47.545 38.9978 46.8475C38.8793 46.15 38.5182 45.5169 37.9782 45.0598C37.4382 44.6028 36.7541 44.3512 36.0467 44.3496ZM19.2537 57.6562L70.4998 76.541L58.7459 95.3379L7.49979 76.459L19.2537 57.6562ZM130.746 57.6621L142.5 76.4648L91.2537 95.3379L79.4998 76.541L130.746 57.6621Z" fill="#D7D7D7"/>
<path d="M47.9825 54.082C48.4881 54.0853 48.9863 53.9608 49.4309 53.7201C49.8754 53.4794 50.252 53.1302 50.5255 52.705C50.5255 52.705 60.2504 38.9999 75.0587 38.9999C89.867 38.9999 99.5919 52.705 99.5919 52.705C99.872 53.1232 100.253 53.4642 100.699 53.6966C101.146 53.9291 101.643 54.0455 102.147 54.0351C102.692 54.0233 103.224 53.8631 103.685 53.5717C104.146 53.2803 104.519 52.8687 104.763 52.3812C105.008 51.8938 105.115 51.3488 105.073 50.805C105.031 50.2612 104.842 49.7391 104.525 49.2949C104.525 49.2949 93.4784 32.9999 75.0587 32.9999C56.639 32.9999 45.5919 49.2949 45.5919 49.2949C45.2619 49.74 45.0616 50.2678 45.0132 50.8198C44.9648 51.3718 45.0703 51.9264 45.3179 52.4222C45.5654 52.9179 45.9454 53.3354 46.4158 53.6284C46.8861 53.9214 47.4284 54.0784 47.9825 54.082Z" fill="#D7D7D7"/>
</g>
<defs>
<clipPath id="clip0_377_20806">
<rect width="150" height="150" fill="white"/>
</clipPath>
</defs>
</svg>
