<svg width="60" height="60" viewBox="0 0 60 60" fill="none" xmlns="http://www.w3.org/2000/svg">
<path d="M60 9.59998V12H26.2875C25.8094 12 25.2 12.6094 25.2 13.0875V45.6H37.3125C37.8844 42.1969 40.8422 39.6 44.4 39.6C47.9578 39.6 50.9156 42.1969 51.4875 45.6H56.4C57.0656 45.6 57.6 45.0656 57.6 44.4V33.6H60V44.4C60 46.3734 58.3734 48 56.4 48H51.4875C50.9156 51.4031 47.9578 54 44.4 54C40.8422 54 37.8844 51.4031 37.3125 48H19.0875C18.5156 51.4031 15.5578 54 12 54C8.44219 54 5.48438 51.4031 4.9125 48H3.6C2.60156 48 1.725 47.55 1.0875 46.9125C0.450005 46.275 0 45.3984 0 44.4V32.8875C0 31.5375 0.515629 30.3 0.975002 29.3625C1.43438 28.425 1.9125 27.75 1.9125 27.75V27.7125L6.825 21.1125H6.8625V21.075C7.92656 19.7437 9.63282 18 12 18H21.6C22.0312 18 22.425 18.0797 22.8 18.225V13.0875C22.8 11.1656 24.3656 9.59998 26.2875 9.59998H60ZM60 14.4V16.8H53.4V14.4H60ZM60 19.2V21.6H54.5V19.2H60ZM21.6 20.4H16.8V31.2C16.8 32.1984 16.35 33.075 15.7125 33.7125C15.075 34.35 14.1984 34.8 13.2 34.8H2.4V44.4C2.4 44.6015 2.55 44.925 2.8125 45.1875C3.075 45.45 3.39844 45.6 3.6 45.6H4.9125C5.48438 42.1969 8.44219 39.6 12 39.6C15.5578 39.6 18.5156 42.1969 19.0875 45.6H22.8V21.6C22.8 21.3984 22.65 21.075 22.3875 20.8125C22.125 20.55 21.8016 20.4 21.6 20.4ZM14.4 20.4H12C11.0109 20.4 9.63281 21.5109 8.775 22.575L3.8625 29.1375L3.825 29.175C3.80156 29.2078 3.47813 29.6672 3.1125 30.4125C2.80782 31.0312 2.64844 31.7672 2.55 32.4H13.2C13.4016 32.4 13.725 32.25 13.9875 31.9875C14.25 31.725 14.4 31.4015 14.4 31.2V20.4ZM60 24V26.4H55.6V24H60ZM60 28.8V31.2H56.7V28.8H60ZM44.4 42C41.7328 42 39.6 44.1328 39.6 46.8C39.6 49.4672 41.7328 51.6 44.4 51.6C47.0672 51.6 49.2 49.4672 49.2 46.8C49.2 44.1328 47.0672 42 44.4 42ZM12 42C9.33282 42 7.2 44.1328 7.2 46.8C7.2 49.4672 9.33282 51.6 12 51.6C14.6672 51.6 16.8 49.4672 16.8 46.8C16.8 44.1328 14.6672 42 12 42Z" fill="#00A745"/>
<path d="M48.2886 20.0007C47.8566 20.0138 47.4465 20.2011 47.145 20.523L37.232 30.8266L32.8635 26.286C32.7102 26.1201 32.5266 25.9876 32.3235 25.8964C32.1204 25.8051 31.9017 25.7569 31.6804 25.7546C31.4591 25.7522 31.2396 25.7958 31.0347 25.8827C30.8299 25.9697 30.6437 26.0983 30.4872 26.2609C30.3308 26.4236 30.2071 26.617 30.1234 26.83C30.0398 27.0429 29.9978 27.2711 30.0001 27.5011C30.0023 27.7311 30.0487 27.9584 30.1365 28.1695C30.2243 28.3807 30.3518 28.5715 30.5114 28.7308L36.0559 34.4938C36.3679 34.8179 36.7909 35 37.232 35C37.6731 35 38.0961 34.8179 38.408 34.4938L49.4971 22.9678C49.7371 22.7249 49.9009 22.4123 49.9671 22.071C50.0334 21.7297 49.999 21.3756 49.8684 21.055C49.7378 20.7343 49.5171 20.4622 49.2352 20.2741C48.9533 20.086 48.6234 19.9907 48.2886 20.0007Z" fill="#00A745"/>
</svg>
