<svg width="60" height="60" viewBox="0 0 60 60" fill="none" xmlns="http://www.w3.org/2000/svg">
<path d="M46.0927 16.3636C45.4466 16.3636 45.017 16.8001 45.017 17.4545C45.017 18.109 45.4466 18.5455 46.0927 18.5455H50.3994C51.0455 18.5455 51.4771 18.109 51.4771 17.4545C51.4771 16.8001 51.0455 16.3636 50.3994 16.3636H46.0927Z" fill="#FF395D"/>
<path d="M20.6079 32.5573C20.9421 32.1859 21.3979 32 21.8612 32C22.3246 32 22.7951 32.1859 23.1597 32.5573L30.027 39.6135L36.9549 32.5573C37.6233 31.8146 38.7775 31.8146 39.5067 32.5573C40.1752 33.3 40.1754 34.4753 39.4462 35.218L32.5788 42.2126L39.4462 49.2072C40.1754 49.8881 40.1754 51.0636 39.4462 51.8063C39.0816 52.1777 38.5956 52.3636 38.1703 52.3636C37.7449 52.3636 37.259 52.1777 36.8944 51.8063L30.027 44.8117L23.0991 51.8063C22.7345 52.1777 22.2486 52.3636 21.8232 52.3636C21.3979 52.3636 20.9119 52.1777 20.5473 51.8063C19.8181 51.1255 19.8181 49.95 20.5473 49.2072L27.4752 42.2126L20.6079 35.1564C19.8786 34.4756 19.8786 33.3 20.6079 32.5573Z" fill="#FF395D"/>
<path fill-rule="evenodd" clip-rule="evenodd" d="M30 0C23.2736 0 17.7449 5.29261 17.197 12H6.15604C4.43316 12 3.03421 13.31 2.92704 15.0554L0.0203164 56.5099C-0.0868461 57.3828 0.234292 58.2546 0.880406 58.9091C1.52652 59.5636 2.38896 60 3.24932 60H56.7507C57.6122 60 58.4746 59.6726 59.1196 58.9091C59.7657 58.1456 60.0868 57.381 59.9797 56.3992L56.9662 15.0554C56.8591 13.31 55.4591 12 53.7372 12H42.803C42.2551 5.29261 36.7264 0 30 0ZM30 2.18182C35.5678 2.18182 40.1263 6.47763 40.6622 12H19.3378C19.8737 6.47763 24.4322 2.18182 30 2.18182ZM6.15604 14.1818H17.1426V16.3636H4.97159L5.07832 15.1641C5.07832 14.6186 5.61709 14.1818 6.15604 14.1818ZM40.7145 14.1818V16.3636H19.2855V14.1818H40.7145ZM42.8574 14.1818H53.844C54.3819 14.1818 54.9217 14.6186 54.9217 15.1641L57.8284 56.6186C57.8284 56.946 57.7194 57.272 57.5041 57.4901C57.2887 57.7081 56.9661 57.8182 56.7507 57.8182H3.14259C2.82006 57.8182 2.6046 57.7081 2.38923 57.4901C2.17386 57.272 2.06695 56.946 2.06695 56.6186L4.75604 18.5455H17.1426V20.951C16.6179 21.1303 16.1416 21.3906 15.8054 21.7756C15.2519 22.4094 14.9997 23.212 14.9997 24C14.9997 24.788 15.2519 25.5906 15.8054 26.2244C16.3589 26.8583 17.2319 27.2727 18.214 27.2727C19.1962 27.2727 20.0692 26.8583 20.6227 26.2244C21.1762 25.5906 21.4284 24.788 21.4284 24C21.4284 23.212 21.1762 22.4094 20.6227 21.7756C20.2865 21.3906 19.8101 21.1303 19.2855 20.951V18.5455H40.7145V20.951C40.1899 21.1303 39.7135 21.3906 39.3773 21.7756C38.8238 22.4094 38.5716 23.212 38.5716 24C38.5716 24.788 38.8238 25.5906 39.3773 26.2244C39.9308 26.8583 40.8038 27.2727 41.786 27.2727C42.7681 27.2727 43.6411 26.8583 44.1946 26.2244C44.7481 25.5906 45.0003 24.788 45.0003 24C45.0003 23.212 44.7481 22.4094 44.1946 21.7756C43.8584 21.3906 43.382 21.1303 42.8574 20.951V17.5036C42.8577 17.495 42.8597 17.4874 42.8616 17.4799C42.8637 17.4718 42.8658 17.4637 42.8658 17.4545C42.8658 17.4454 42.8637 17.4373 42.8616 17.4292C42.8597 17.4217 42.8577 17.4141 42.8574 17.4055V14.1818ZM18.1806 22.9219C18.2036 22.9226 18.2266 22.9226 18.2496 22.9219C18.6563 22.9325 18.866 23.0483 19.0197 23.2244C19.1805 23.4087 19.2855 23.6971 19.2855 24C19.2855 24.3029 19.1805 24.5913 19.0197 24.7756C18.9377 24.8697 18.8459 24.9496 18.7163 25.0057C18.5919 25.0593 18.4327 25.0909 18.214 25.0909C18.0198 25.0909 17.8725 25.0661 17.7549 25.0227C17.6021 24.9666 17.4992 24.8796 17.4084 24.7756C17.2476 24.5913 17.1426 24.3029 17.1426 24C17.1426 23.6971 17.2476 23.4087 17.4084 23.2244C17.4782 23.1445 17.5595 23.0771 17.6655 23.0259C17.7933 22.9645 17.9572 22.9276 18.1806 22.9219ZM41.7525 22.9219L41.7935 22.9222L41.8215 22.9219C42.2282 22.9325 42.4379 23.0483 42.5916 23.2244C42.7524 23.4087 42.8574 23.6971 42.8574 24C42.8574 24.3029 42.7524 24.5913 42.5916 24.7756C42.4308 24.9599 42.2324 25.0909 41.786 25.0909C41.3395 25.0909 41.1411 24.9599 40.9803 24.7756C40.8195 24.5913 40.7145 24.3029 40.7145 24C40.7145 23.6971 40.8195 23.4087 40.9803 23.2244C41.1344 23.0479 41.3438 22.9322 41.7525 22.9219Z" fill="#FF395D"/>
</svg>
