<svg width="30" height="27" viewBox="0 0 30 27" fill="none" xmlns="http://www.w3.org/2000/svg">
<path fill-rule="evenodd" clip-rule="evenodd" d="M4.35026 0.338409C4.45429 0.130939 4.66595 0 4.89793 0H24.4898C24.5855 0 24.6775 0.02272 24.76 0.063377C24.8784 0.121373 24.9765 0.217036 25.0375 0.338409L29.3232 8.90985C29.475 9.21238 29.3519 9.57949 29.0493 9.73136C29.0063 9.75288 28.9609 9.76902 28.9154 9.77978C28.87 9.79055 28.8233 9.79593 28.7767 9.79593C28.5519 9.79593 28.3355 9.67216 28.2278 9.45752L25.102 3.20592V12.4661C24.5113 12.3268 23.8991 12.2449 23.2653 12.2449C18.8696 12.2449 15.3061 15.8084 15.3061 20.2041C15.3061 21.2893 15.5249 22.3224 15.9184 23.2653H4.89793C4.56072 23.2653 4.28569 22.9915 4.28569 22.6531V3.20592L1.15989 9.45752C1.00922 9.75946 0.642109 9.88143 0.338378 9.73136C0.0358424 9.58009 -0.0861284 9.21238 0.0645414 8.90985L4.35026 0.338409ZM17.7551 4.28572H11.6326C11.4784 4.28572 11.3373 4.34252 11.2297 4.43639C11.1017 4.54879 11.0204 4.71381 11.0204 4.89796C11.0204 5.23637 11.2954 5.51021 11.6326 5.51021H17.7551C18.0935 5.51021 18.3673 5.23637 18.3673 4.89796C18.3673 4.55955 18.0935 4.28572 17.7551 4.28572Z" fill="#727272"/>
<path fill-rule="evenodd" clip-rule="evenodd" d="M30 20.2041C30 23.9236 26.9842 26.9388 23.2653 26.9388C19.5464 26.9388 16.5306 23.9236 16.5306 20.2041C16.5306 16.4846 19.5464 13.4694 23.2653 13.4694C26.9842 13.4694 30 16.4846 30 20.2041ZM23.2653 15.9184C21.5864 15.9184 20.1778 16.9468 19.825 18.3165L19.8896 18.3088L19.935 18.3058L19.9996 18.3082L20.0498 18.3136C20.1084 18.3207 20.1658 18.3333 20.222 18.3482C20.5544 17.1524 21.7909 16.2592 23.2653 16.2592C24.7397 16.2592 25.9762 17.1524 26.3086 18.3482C26.3995 18.3237 26.4951 18.3058 26.5956 18.3058L26.6697 18.3118L26.7056 18.3165C26.3528 16.9468 24.9442 15.9184 23.2653 15.9184ZM19.935 18.6466C19.611 18.6466 19.3467 18.8768 19.3467 19.1584V21.7162C19.3467 21.9984 19.611 22.228 19.935 22.228C20.2579 22.228 20.5222 21.9984 20.5222 21.7162V19.1584C20.5222 18.8768 20.2579 18.6466 19.935 18.6466ZM26.5956 18.6466C26.2727 18.6466 26.0084 18.8768 26.0084 19.1584V21.7162C26.0084 21.9984 26.2727 22.228 26.5956 22.228C26.9196 22.228 27.1839 21.9984 27.1839 21.7162V19.1584C27.1839 19.0233 27.1229 18.9001 27.0237 18.808C26.9161 18.7088 26.7642 18.6466 26.5956 18.6466ZM18.9557 19.1799C18.8002 19.2881 18.6687 19.4376 18.5694 19.6176C18.4415 19.849 18.3673 20.13 18.3673 20.4373C18.3673 20.9844 18.6017 21.4477 18.9557 21.6953V19.1799ZM27.5749 19.1799V21.6953C27.9289 21.4477 28.1633 20.9844 28.1633 20.4373C28.1633 20.1658 28.1059 19.9147 28.0042 19.7007C27.9396 19.5644 27.8571 19.443 27.7615 19.3407C27.7041 19.2804 27.6419 19.2265 27.5749 19.1799ZM26.3205 22.5317C26.1472 22.9945 25.6987 23.251 25.0291 23.251H24.8138C24.827 23.3066 24.833 23.3628 24.833 23.4214C24.833 23.48 24.827 23.5368 24.8138 23.5924H25.0291C25.9092 23.5924 26.5179 23.2073 26.7187 22.5586L26.6889 22.5622L26.5956 22.5688C26.4999 22.5688 26.4078 22.5544 26.3205 22.5317ZM22.8731 22.9102C22.5502 22.9102 22.2859 23.1398 22.2859 23.4214C22.2859 23.5607 22.3505 23.6868 22.4546 23.7789C22.4988 23.8184 22.5502 23.8519 22.6076 23.877C22.6877 23.9129 22.7774 23.9332 22.8731 23.9332H23.8536C24.1765 23.9332 24.4408 23.7036 24.4408 23.4214C24.4408 23.1398 24.1765 22.9102 23.8536 22.9102H22.8731Z" fill="#727272"/>
</svg>
