<svg width="24" height="24" viewBox="0 0 24 24" fill="none" xmlns="http://www.w3.org/2000/svg">
<path d="M6.61488 3.00418C6.30024 2.97862 5.95046 3.06966 5.62783 3.29646C5.34353 3.49451 4.73022 3.98165 4.15683 4.53267C3.87094 4.80738 3.59782 5.09328 3.387 5.37438C3.17457 5.65548 2.9893 5.91263 3.00048 6.28637C3.01166 6.62177 3.0452 7.61362 3.75914 9.13412C4.47307 10.653 5.85782 12.7373 8.55864 15.4398C11.2611 18.1422 13.3454 19.5269 14.8643 20.2409C16.3832 20.9548 17.3766 20.9883 17.712 20.9995C18.0842 21.0107 18.3413 20.8254 18.6224 20.613C18.9035 20.4006 19.1894 20.1291 19.4641 19.8432C20.0136 19.2698 20.5007 18.6565 20.6988 18.3722C21.1508 17.7285 21.0757 16.9683 20.5726 16.6153C20.2563 16.3933 17.3479 14.4575 16.9103 14.1892C16.4662 13.9177 15.9551 14.0406 15.4984 14.2818C15.139 14.4719 14.1663 15.0293 13.8884 15.189C13.6792 15.0564 12.8854 14.5278 11.178 12.8204C9.46903 11.113 8.94196 10.3192 8.8094 10.11C8.96912 9.83209 9.52493 8.8642 9.71659 8.49845C9.95617 8.04325 10.0903 7.52737 9.80444 7.08016C9.68465 6.8901 9.14001 6.06116 8.59059 5.22904C8.03956 4.39691 7.51729 3.60791 7.38153 3.41944V3.41784C7.20424 3.17348 6.92793 3.02973 6.61488 3.00418ZM6.53982 3.8395C6.65162 3.85387 6.7187 3.89859 6.7187 3.89859C6.78418 3.98963 7.35757 4.84891 7.907 5.67944C8.45642 6.51157 9.01703 7.36446 9.11446 7.51938C9.13043 7.54334 9.15279 7.81486 8.99307 8.11673V8.11832C8.81259 8.46171 7.97088 9.93271 7.97088 9.93271L7.85429 10.1387L7.97408 10.3432C7.97408 10.3432 8.60177 11.4021 10.5982 13.3986C12.5963 15.395 13.6552 16.0243 13.6552 16.0243L13.8597 16.1441L14.0657 16.0275C14.0657 16.0275 15.5335 15.1874 15.8801 15.0053C16.1819 14.8472 16.4535 14.868 16.4854 14.8871C16.7681 15.0612 19.9097 17.1487 20.103 17.2845C20.1094 17.2893 20.2803 17.548 20.0311 17.9026H20.0295C19.8794 18.1182 19.3875 18.7427 18.8748 19.2762C18.6176 19.5429 18.3541 19.7921 18.1305 19.9598C17.9069 20.1275 17.7072 20.1802 17.7392 20.1818C17.391 20.1706 16.6228 20.1626 15.2125 19.4998C13.8022 18.8385 11.7897 17.5145 9.13682 14.86C6.48551 12.2087 5.16146 10.1962 4.49863 8.78434C3.8374 7.37404 3.82941 6.6058 3.81823 6.25921C3.81983 6.29116 3.87254 6.08991 4.04024 5.86631C4.20794 5.6427 4.45551 5.37757 4.72223 5.12043C5.25729 4.60774 5.88018 4.11581 6.0958 3.96567V3.96727C6.27309 3.84269 6.42801 3.82672 6.53982 3.8395Z" fill="#272727"/>
<rect x="0.375" y="0.375" width="23.25" height="23.25" rx="4.625" stroke="#272727" stroke-width="0.75"/>
</svg>
