<svg width="15" height="14" viewBox="0 0 15 14" fill="none" xmlns="http://www.w3.org/2000/svg">
<path d="M5.76894 0C5.5923 0 5.44894 0.14336 5.44894 0.32V4.48C5.44894 6.42029 7.02865 8 8.96894 8C10.9092 8 12.4889 6.42029 12.4889 4.48V0.32C12.4889 0.14336 12.3456 0 12.1689 0C11.9923 0 11.8489 0.14336 11.8489 0.32V4.48C11.8489 6.07443 10.5634 7.36 8.96894 7.36C7.37451 7.36 6.08894 6.07443 6.08894 4.48V0.32C6.08894 0.14336 5.94558 0 5.76894 0ZM7.04894 0C6.8723 0 6.72894 0.14336 6.72894 0.32V2.19625C6.9203 2.00873 7.13566 1.84691 7.36894 1.71187V0.32C7.36894 0.14336 7.22558 0 7.04894 0ZM8.32894 0C8.1523 0 8.00894 0.14336 8.00894 0.32V1.42687C8.21406 1.36255 8.42814 1.31833 8.64894 1.29625V0.32C8.64894 0.14336 8.50558 0 8.32894 0ZM9.60894 0C9.4323 0 9.28894 0.14336 9.28894 0.32V1.29625C9.50974 1.31833 9.72382 1.36255 9.92894 1.42687V0.32C9.92894 0.14336 9.78558 0 9.60894 0ZM10.8889 0C10.7123 0 10.5689 0.14336 10.5689 0.32V1.71187C10.8022 1.84691 11.0176 2.00873 11.2089 2.19625V0.32C11.2089 0.14336 11.0656 0 10.8889 0ZM8.64894 2.24V2.80625C7.80158 2.94833 7.77457 3.70134 7.77457 3.79062C7.77457 4.58294 8.41592 4.72605 8.93144 4.84125C9.39416 4.94493 9.65582 5.01896 9.65582 5.33C9.65582 5.51656 9.56669 5.83 8.96957 5.83C8.95645 5.83 8.646 5.82768 8.45144 5.63312C8.33656 5.51824 8.281 5.35216 8.28644 5.14L8.28707 5.12H7.69269L7.69332 5.14062C7.71252 5.81262 8.02685 6.1966 8.64957 6.315V6.72H8.68019H9.26269H9.28894V6.325C10.1997 6.17716 10.2489 5.47122 10.2489 5.32562C10.2493 4.5605 9.60789 4.4134 9.09269 4.295C8.62997 4.18876 8.36832 4.11405 8.36832 3.82125C8.36832 3.47085 8.562 3.3075 8.97832 3.3075C9.43144 3.3075 9.55075 3.58624 9.56707 3.84H10.1608C10.1611 3.59168 10.0603 3.32456 9.88269 3.13C9.72717 2.96008 9.52288 2.85071 9.28832 2.80687V2.24H9.26269H8.67957H8.64894ZM13.4996 7.035C13.4413 7.03587 13.3832 7.04124 13.3252 7.05062C13.1705 7.07565 13.0184 7.13166 12.8783 7.22L9.32644 9.40875C9.24445 9.36392 9.14393 9.31442 9.01144 9.25062C8.8592 9.17732 8.7 9.10253 8.61019 9.06187C8.12677 8.84326 6.58555 8.20712 5.41582 7.69375C4.91542 7.47415 4.38059 7.36192 3.84519 7.35687C3.3098 7.35183 2.77337 7.45415 2.26894 7.66437L0.205816 8.52375C0.166112 8.53927 0.129909 8.56257 0.0993328 8.59227C0.0687562 8.62198 0.0444224 8.65749 0.0277601 8.69673C0.0110977 8.73597 0.00244267 8.77814 0.00230303 8.82077C0.00216339 8.8634 0.010542 8.90563 0.0269469 8.94497C0.0433519 8.98432 0.0674524 9.01999 0.0978337 9.0499C0.128215 9.0798 0.164265 9.10333 0.203866 9.11911C0.243468 9.1349 0.285823 9.1426 0.328445 9.14179C0.371067 9.14098 0.413096 9.13166 0.452066 9.11437L2.51519 8.255C3.36298 7.90168 4.31719 7.91087 5.15832 8.28C6.3393 8.79831 7.9057 9.44569 8.34644 9.645C8.4256 9.68083 8.58546 9.756 8.73394 9.8275C8.88242 9.89899 9.03848 9.97809 9.05144 9.98562C9.19422 10.0687 9.28894 10.2173 9.28894 10.3962C9.28894 10.6653 9.078 10.8762 8.80894 10.8762C8.77081 10.8762 8.73463 10.872 8.70019 10.8637H8.69957C8.69149 10.8618 8.43832 10.7907 8.13144 10.7006C7.82456 10.6105 7.43408 10.4948 7.05019 10.3806C6.28242 10.1523 5.54082 9.93 5.54082 9.93C5.45951 9.90563 5.37186 9.91456 5.29713 9.95482C5.22241 9.99509 5.16675 10.0634 5.14238 10.1447C5.11801 10.226 5.12694 10.3136 5.1672 10.3884C5.20747 10.4631 5.27576 10.5188 5.35707 10.5431C5.35707 10.5431 6.09977 10.7652 6.86832 10.9937C7.25259 11.108 7.6432 11.2239 7.95144 11.3144C8.25938 11.4048 8.45541 11.4635 8.55144 11.4862C8.63476 11.5062 8.72099 11.5162 8.80894 11.5162C9.42372 11.5162 9.92894 11.011 9.92894 10.3962C9.92894 10.2068 9.87946 10.0287 9.79519 9.87187L13.2171 7.76312C13.2181 7.76251 13.2192 7.76188 13.2202 7.76125C13.488 7.59237 13.8326 7.67041 14.0014 7.93812C14.1654 8.19806 14.0969 8.53232 13.8439 8.70687C13.8399 8.70949 13.836 8.7122 13.8321 8.715L8.78457 12.5394C8.44002 12.8006 7.98848 12.8709 7.58082 12.7262L3.85332 11.405C2.99145 11.0493 2.00507 11.1691 1.25332 11.7206L0.138316 12.5387C0.103063 12.5631 0.0730483 12.5942 0.0500516 12.6303C0.027055 12.6665 0.0115438 12.7068 0.00443701 12.7491C-0.00266974 12.7913 -0.00122748 12.8345 0.00867838 12.8762C0.0185842 12.9179 0.0367522 12.9571 0.0621058 12.9916C0.0874594 13.0262 0.119483 13.0552 0.156279 13.0772C0.193075 13.0991 0.233895 13.1134 0.276321 13.1192C0.318747 13.1251 0.361915 13.1223 0.403268 13.1112C0.444622 13.1001 0.483318 13.0807 0.517066 13.0544L1.63207 12.2369C2.20447 11.8169 2.95272 11.726 3.60894 11.9969C3.61389 11.9989 3.6189 12.0008 3.62394 12.0025L7.36707 13.3294C7.977 13.5457 8.65583 13.4403 9.17144 13.0494L14.2071 9.23375C14.7369 8.86814 14.8862 8.14142 14.5427 7.59687C14.3108 7.22908 13.9075 7.02892 13.4996 7.035Z" fill="#272727"/>
</svg>
