<svg width="26" height="26" viewBox="0 0 26 26" fill="none" xmlns="http://www.w3.org/2000/svg">
<path d="M3.39844 0.398438C1.75116 0.398438 0.398438 1.75116 0.398438 3.39844V22.5984C0.398438 24.2457 1.75116 25.5984 3.39844 25.5984H22.5984C24.2457 25.5984 25.5984 24.2457 25.5984 22.5984V3.39844C25.5984 1.75116 24.2457 0.398438 22.5984 0.398438H3.39844ZM3.39844 1.59844H22.5984C23.5912 1.59844 24.3984 2.40571 24.3984 3.39844V22.5984C24.3984 23.411 23.8536 24.091 23.1129 24.3141C22.9334 23.3543 22.5013 22.5844 21.9293 22.0031C21.233 21.2956 20.3651 20.847 19.5199 20.482C18.6748 20.117 17.842 19.832 17.2078 19.5164C16.5934 19.2106 16.2315 18.8952 16.0746 18.532C16.0376 17.9165 16.0318 17.4093 16.0312 16.8621C16.2721 16.6205 16.4547 16.3395 16.6324 15.975C16.8434 15.5425 16.9855 15.0154 17.0754 14.4855C17.5438 14.2205 17.9263 13.7265 18.0176 12.8191L18.0187 12.8168V12.8133C18.0676 12.2793 17.9027 11.908 17.6918 11.6168C17.9469 10.8051 18.2482 9.5396 18.1406 8.21484C18.0809 7.4787 17.8919 6.73304 17.4363 6.11367C17.029 5.55995 16.3683 5.17735 15.5555 5.00508C15.3184 4.68274 15.0039 4.42602 14.6215 4.275C14.1346 4.08272 13.5678 3.99844 12.9445 3.99844H12.9375H12.9305C10.5466 4.05563 8.99588 5.04662 8.33086 6.54961C7.70215 7.97051 7.83422 9.72237 8.27226 11.5312C8.03797 11.8221 7.83881 12.2168 7.93477 12.7898C8.03085 13.705 8.42445 14.1812 8.87461 14.4352C8.9697 14.9544 9.12064 15.4746 9.34219 15.9094C9.4734 16.1669 9.61415 16.3983 9.76055 16.5949C9.8189 16.6733 9.90482 16.7248 9.96562 16.793C9.97306 17.4012 9.99689 17.8805 9.92461 18.4875C9.7776 18.8638 9.42066 19.183 8.80664 19.4965C8.17706 19.8179 7.34431 20.107 6.49687 20.475C5.64944 20.843 4.77734 21.293 4.07695 22.0008C3.50132 22.5825 3.06471 23.3529 2.88398 24.3141C2.14326 24.091 1.59844 23.411 1.59844 22.5984V3.39844C1.59844 2.40571 2.40571 1.59844 3.39844 1.59844ZM12.9504 5.19961C13.4567 5.20033 13.8871 5.27578 14.1809 5.3918C14.4761 5.50837 14.6131 5.64767 14.6648 5.76094L14.802 6.06328L15.1324 6.10664C15.8207 6.19651 16.197 6.45452 16.4695 6.825C16.742 7.19548 16.896 7.71956 16.9441 8.31211C17.0403 9.49722 16.6957 10.9117 16.4766 11.5418L16.3242 11.9812L16.7109 12.2391C16.6686 12.2109 16.858 12.3154 16.8234 12.7031V12.7043C16.729 13.5928 16.351 13.5551 16.5586 13.5551H16.016L15.9609 14.0941C15.9167 14.5342 15.7489 15.0473 15.5531 15.4488C15.3573 15.8504 15.035 16.1562 15.1289 16.1027L14.8254 16.275V16.6242C14.8254 17.322 14.8252 17.9335 14.8805 18.7582L14.8875 18.8496L14.9203 18.9352C15.2318 19.7376 15.9289 20.2205 16.6734 20.591C17.4179 20.9615 18.2578 21.244 19.0441 21.5836C19.8305 21.9232 20.5533 22.3156 21.0738 22.8445C21.4757 23.2529 21.7718 23.7356 21.9141 24.3984H4.08398C4.2272 23.737 4.52503 23.255 4.93008 22.8457C5.45495 22.3153 6.18304 21.9199 6.97383 21.5766C7.76462 21.2332 8.60754 20.9451 9.35156 20.5652C10.0956 20.1854 10.7899 19.6849 11.0824 18.866L11.1035 18.8062L11.1117 18.743C11.2279 17.8769 11.1715 17.2934 11.1715 16.5703V16.2211L10.868 16.0488C10.9189 16.0778 10.8174 16.0061 10.7227 15.8789C10.628 15.7517 10.5157 15.57 10.4109 15.3645C10.2015 14.9534 10.0232 14.438 9.98086 14.0379L9.92461 13.5012H9.40781C9.37025 13.4856 9.18821 13.365 9.11953 12.648L9.11719 12.6223L9.1125 12.5977C9.0496 12.2538 9.22297 12.1904 9.23086 12.1852L9.58828 11.9484L9.4793 11.5324C9.0118 9.74852 8.94661 8.1233 9.42773 7.03594C9.90813 5.95021 10.8643 5.25169 12.9504 5.19961Z" fill="#999999"/>
</svg>
