<svg width="30" height="30" viewBox="0 0 30 30" fill="none" xmlns="http://www.w3.org/2000/svg">
<path d="M24.6 2.40002H5.40002C3.74402 2.40002 2.40002 3.74402 2.40002 5.40002V24.6C2.40002 25.818 3.13202 26.874 4.17602 27.342C4.54802 27.504 4.96202 27.6 5.40002 27.6H24.6C25.038 27.6 25.452 27.504 25.824 27.342C26.868 26.874 27.6 25.818 27.6 24.6V5.40002C27.6 3.74402 26.256 2.40002 24.6 2.40002ZM12.522 20.664C12.624 19.86 12.576 19.326 12.576 18.57C12.198 18.354 11.496 17.124 11.388 16.104C11.118 16.104 10.632 15.834 10.524 14.706C10.416 14.118 10.74 13.794 10.902 13.686C9.93002 9.98402 10.47 6.70802 14.946 6.60002C16.08 6.60002 16.944 6.92402 17.214 7.51202C20.502 7.94402 19.53 12.342 19.044 13.74C19.206 13.848 19.476 14.172 19.422 14.76C19.314 15.834 18.828 16.158 18.558 16.158C18.45 17.232 17.802 18.408 17.424 18.624C17.424 19.326 17.424 19.914 17.478 20.718C18.354 22.974 23.79 22.488 24.522 26.4H5.47802C6.21602 22.488 11.7 22.968 12.522 20.664Z" fill="#915858"/>
</svg>
