<svg width="24" height="24" viewBox="0 0 24 24" fill="none" xmlns="http://www.w3.org/2000/svg">
<path d="M18 3.5V6H15.5C14.672 6 14 6.672 14 7.5C14 8.328 14.672 9 15.5 9H19C20.105 9 21 8.105 21 7V3.5C21 2.672 20.328 2 19.5 2C18.672 2 18 2.672 18 3.5Z" fill="#915858"/>
<path d="M5.13598 10.598C5.66898 7.85004 7.89398 5.64404 10.645 5.12704C13.134 4.66004 15.442 5.51404 17 7.10604V7.00004H20.651C18.766 3.74704 15.11 1.64704 10.996 2.04904C6.36698 2.50104 2.57498 6.23704 2.06298 10.859C2.02098 11.244 2.00098 11.624 2.00098 12H5.00998C5.00998 11.541 5.04398 11.074 5.13598 10.598Z" fill="#915858"/>
<path d="M12 22C16.927 22 21.022 18.436 21.848 13.746C22.008 12.84 21.34 12 20.42 12H20.327C19.6 12 19.017 12.543 18.887 13.258C18.294 16.524 15.436 19 12 19C8.13498 19 5.01098 15.865 5.00998 12H2.00098C2.00098 17.523 6.47698 22 12 22Z" fill="#727272"/>
</svg>
