<svg width="16" height="19" viewBox="0 0 16 19" fill="none" xmlns="http://www.w3.org/2000/svg">
<path d="M0.413043 0C0.18463 0 0 0.185043 0 0.413043V18.587C0 18.7348 0.078872 18.8716 0.207328 18.9451C0.335785 19.0187 0.493548 19.0179 0.621179 18.9435L5.36957 16.174L10.118 18.9435C10.182 18.9811 10.2542 19 10.3261 19C10.3971 19 10.4682 18.9819 10.5318 18.9451C10.6603 18.8716 10.7391 18.7348 10.7391 18.587V12.8737L9.91304 13.4021V17.8682L5.5777 15.3391C5.51368 15.3015 5.44143 15.2826 5.36957 15.2826C5.2977 15.2826 5.22545 15.3015 5.16143 15.3391L0.826087 17.8682V0.826087H9.91304V4.54348L10.1196 4.33696C10.2104 4.24609 10.3261 4.13043 10.7399 3.7658V0.413043C10.7399 0.185043 10.5553 0 10.3269 0H0.413043Z" fill="#999999"/>
<path d="M8.05854 13.6307C8.02218 13.6307 7.98581 13.6125 7.94944 13.5943C7.89489 13.5578 7.85852 13.4667 7.87671 13.3938L8.67678 10.4053L6.27656 8.45551C6.20382 8.41906 6.18564 8.32795 6.20382 8.25506C6.22201 8.18217 6.29474 8.1275 6.36748 8.1275L9.45867 7.9635L10.5679 5.06612C10.6042 5.01145 10.677 4.95679 10.7497 4.95679C10.8224 4.95679 10.8952 5.01145 10.9134 5.06612L12.0226 7.9635L15.1138 8.1275C15.1865 8.1275 15.2592 8.18217 15.2774 8.25506C15.2956 8.32795 15.2774 8.40084 15.2229 8.45551L12.8226 10.4053L13.6227 13.3938C13.6409 13.4667 13.6227 13.5396 13.55 13.5943C13.4954 13.6307 13.4045 13.6489 13.3499 13.5943L10.7497 11.9178L8.14946 13.5943C8.11309 13.6307 8.09491 13.6307 8.05854 13.6307Z" fill="#C49664"/>
</svg>
