<svg width="30" height="35" viewBox="0 0 30 35" fill="none" xmlns="http://www.w3.org/2000/svg">
<path fill-rule="evenodd" clip-rule="evenodd" d="M9.691 0.883748C9.93444 0.588207 10.2984 0.416626 10.682 0.416626H18.6064C18.9702 0.416626 19.3172 0.572084 19.5606 0.843709L22.9973 4.68746C23.2296 4.94798 23.3474 5.29241 23.321 5.64005C23.2945 5.9877 23.1262 6.3097 22.8572 6.53092L15.5968 12.5101C15.3602 12.7048 15.0722 12.802 14.7826 12.802C14.4931 12.802 14.2051 12.704 13.9685 12.5084L6.70809 6.52926C6.16228 6.07996 6.08363 5.27416 6.53292 4.7275L9.691 0.883748ZM0.125 20.0391C0.125 15.3617 2.45562 11.0057 6.22762 8.31934L8.28129 10.021C4.84071 12.1863 2.6875 15.9656 2.6875 20.0374C2.6875 26.5991 8.11004 31.9374 14.776 31.9374C21.4419 31.9374 26.8644 26.5991 26.8644 20.0374C26.8644 15.9682 24.7145 12.1905 21.2773 10.0243L23.331 8.32434C27.0996 11.0115 29.4269 15.3634 29.4269 20.0391C29.4269 28.0136 22.8547 34.5015 14.776 34.5015C6.69725 34.5015 0.125 28.0136 0.125 20.0391ZM21.1557 16.1792C21.3879 15.9407 21.7038 15.8019 22.0366 15.7922C22.2945 15.7847 22.5486 15.8553 22.7658 15.9947C22.9829 16.1341 23.1529 16.3358 23.2534 16.5734C23.354 16.811 23.3806 17.0735 23.3295 17.3264C23.2785 17.5793 23.1523 17.8109 22.9675 17.991L14.4258 26.5326C14.1855 26.7728 13.8597 26.9078 13.5199 26.9078C13.1802 26.9078 12.8543 26.7728 12.614 26.5326L8.34321 22.2618C8.22025 22.1437 8.12208 22.0023 8.05445 21.8459C7.98683 21.6894 7.9511 21.521 7.94937 21.3505C7.94763 21.1801 7.97993 21.011 8.04436 20.8532C8.1088 20.6953 8.20407 20.552 8.32461 20.4314C8.44514 20.3109 8.58852 20.2156 8.74634 20.1512C8.90416 20.0867 9.07325 20.0545 9.2437 20.0562C9.41416 20.0579 9.58256 20.0936 9.73903 20.1613C9.89551 20.2289 10.0369 20.3271 10.155 20.45L13.5199 23.815L21.1557 16.1792Z" fill="#00A745"/>
</svg>
