<svg width="24" height="24" viewBox="0 0 24 24" fill="none" xmlns="http://www.w3.org/2000/svg">
<path d="M10.16 1C5.65812 1 2 4.65813 2 9.16C2 13.6619 5.65812 17.32 10.16 17.32C11.9412 17.32 13.5875 16.7463 14.93 15.775L21.245 22.075L22.595 20.725L16.355 14.47C17.5813 13.0413 18.32 11.1869 18.32 9.16C18.32 4.65813 14.6619 1 10.16 1ZM10.16 1.96C14.1425 1.96 17.36 5.1775 17.36 9.16C17.36 13.1425 14.1425 16.36 10.16 16.36C6.1775 16.36 2.96 13.1425 2.96 9.16C2.96 5.1775 6.1775 1.96 10.16 1.96Z" fill="#999999"/>
</svg>
