<svg xmlns="http://www.w3.org/2000/svg" width="57.902" height="57.907" viewBox="0 0 57.902 57.907">
  <path id="settings" d="M27.435,2a1.259,1.259,0,0,0-1.242,1.055l-1.224,7.5a21.112,21.112,0,0,0-4.2,1.726L14.583,7.859a1.259,1.259,0,0,0-1.62.133l-4.9,4.893a1.259,1.259,0,0,0-.14,1.613l4.352,6.225a21.3,21.3,0,0,0-1.76,4.229L3.052,26.194A1.259,1.259,0,0,0,2,27.435v6.924A1.259,1.259,0,0,0,3.04,35.6l7.47,1.323a21.174,21.174,0,0,0,1.756,4.229L7.859,47.316a1.259,1.259,0,0,0,.133,1.62l4.9,4.9a1.259,1.259,0,0,0,1.61.143l6.238-4.367a21.216,21.216,0,0,0,4.212,1.738l1.247,7.506a1.259,1.259,0,0,0,1.242,1.052h6.924a1.259,1.259,0,0,0,1.242-1.04l1.335-7.536a21.21,21.21,0,0,0,4.192-1.758l6.28,4.406a1.259,1.259,0,0,0,1.613-.14l4.9-4.9a1.259,1.259,0,0,0,.13-1.625L49.568,41.1a21.108,21.108,0,0,0,1.721-4.168L58.864,35.6a1.259,1.259,0,0,0,1.04-1.242V27.438A1.259,1.259,0,0,0,58.849,26.2l-7.563-1.237A21.251,21.251,0,0,0,49.56,20.8L53.976,14.5a1.259,1.259,0,0,0-.14-1.613L48.938,8a1.259,1.259,0,0,0-1.625-.13l-6.2,4.458a21.1,21.1,0,0,0-4.2-1.748L35.6,3.042A1.259,1.259,0,0,0,34.358,2Zm1.072,2.518H33.3l1.254,7.157a1.259,1.259,0,0,0,.934,1.006,18.627,18.627,0,0,1,5.149,2.141,1.259,1.259,0,0,0,1.387-.054l5.891-4.234,3.391,3.391L47.112,19.9a1.259,1.259,0,0,0-.049,1.372A18.791,18.791,0,0,1,49.184,26.4a1.259,1.259,0,0,0,1.018.937l7.184,1.175V33.3l-7.2,1.264a1.259,1.259,0,0,0-1,.939,18.63,18.63,0,0,1-2.117,5.121,1.259,1.259,0,0,0,.057,1.384l4.254,5.9-3.39,3.393L42.02,47.122a1.259,1.259,0,0,0-1.377-.044,18.75,18.75,0,0,1-5.136,2.151,1.259,1.259,0,0,0-.932,1L33.3,57.389H28.5l-1.185-7.128a1.259,1.259,0,0,0-.939-1.015,18.758,18.758,0,0,1-5.168-2.134,1.259,1.259,0,0,0-1.37.049l-5.92,4.148-3.393-3.4,4.185-5.849a1.259,1.259,0,0,0,.052-1.384,18.706,18.706,0,0,1-2.154-5.18,1.259,1.259,0,0,0-1-.934L4.52,33.3V28.5L11.6,27.325a1.259,1.259,0,0,0,1.015-.937A18.823,18.823,0,0,1,14.772,21.2a1.259,1.259,0,0,0-.044-1.374L10.593,13.92l3.4-3.393,5.869,4.195a1.259,1.259,0,0,0,1.379.054A18.669,18.669,0,0,1,26.4,12.654a1.259,1.259,0,0,0,.942-1.02Zm2.446,16.365A10.071,10.071,0,1,0,41.024,30.954,10.09,10.09,0,0,0,30.953,20.883Zm0,2.518A7.553,7.553,0,1,1,23.4,30.954,7.534,7.534,0,0,1,30.953,23.4Z" transform="translate(-2.002 -2)" fill="#ccdeef"/>
</svg>
