<svg width="20" height="20" viewBox="0 0 20 20" fill="none" xmlns="http://www.w3.org/2000/svg">
<path d="M16.25 0.5C15.7508 0.500628 15.2584 0.616264 14.811 0.837937C14.3637 1.05961 13.9734 1.38136 13.6706 1.77823C13.3677 2.17509 13.1603 2.63641 13.0645 3.12637C12.9687 3.61634 12.9871 4.12179 13.1182 4.60352L13.0605 4.63184L6.36914 7.97656L6.31152 8.00488C6.00809 7.6147 5.61966 7.29886 5.17579 7.08141C4.73191 6.86396 4.24428 6.75061 3.75 6.75C2.88805 6.75 2.0614 7.09241 1.4519 7.7019C0.84241 8.3114 0.5 9.13805 0.5 10C0.5 10.862 0.84241 11.6886 1.4519 12.2981C2.0614 12.9076 2.88805 13.25 3.75 13.25C4.24461 13.2497 4.73262 13.1365 5.17686 12.919C5.6211 12.7016 6.00984 12.3856 6.31348 11.9951L6.36914 12.0234L13.0605 15.3682L13.1152 15.3955C12.9839 15.8775 12.9654 16.3833 13.0613 16.8737C13.1572 17.364 13.3648 17.8256 13.668 18.2226C13.9713 18.6197 14.362 18.9415 14.8098 19.163C15.2576 19.3845 15.7504 19.4999 16.25 19.5C17.112 19.5 17.9386 19.1576 18.5481 18.5481C19.1576 17.9386 19.5 17.112 19.5 16.25C19.5 15.388 19.1576 14.5614 18.5481 13.9519C17.9386 13.3424 17.112 13 16.25 13C15.7945 13.0006 15.3441 13.097 14.9283 13.2829C14.5124 13.4688 14.1402 13.7401 13.8359 14.0791L13.7305 14.0264L7.04004 10.6816L6.93555 10.6299C7.01726 10.2142 7.01693 9.78662 6.93457 9.37109L7.04004 9.31836L13.7305 5.97363L13.833 5.92188C14.1377 6.26107 14.5104 6.53236 14.9268 6.7181C15.3432 6.90385 15.794 6.9999 16.25 7C17.112 7 17.9386 6.65759 18.5481 6.0481C19.1576 5.4386 19.5 4.61195 19.5 3.75C19.5 2.88805 19.1576 2.0614 18.5481 1.4519C17.9386 0.84241 17.112 0.5 16.25 0.5Z" fill="#454545"/>
</svg>
