<svg width="32" height="38" viewBox="0 0 32 38" fill="none" xmlns="http://www.w3.org/2000/svg">
<path d="M10.7998 0.599976C10.1374 0.599976 9.5998 1.13758 9.5998 1.79998V6.59998C9.5998 7.26238 10.1374 7.79998 10.7998 7.79998H21.1998C21.8622 7.79998 22.3998 7.26238 22.3998 6.59998V1.79998C22.3998 1.13758 21.8622 0.599976 21.1998 0.599976H10.7998ZM3.1998 2.19998C1.8766 2.19998 0.799805 3.27678 0.799805 4.59998V35C0.799805 36.3232 1.8766 37.4 3.1998 37.4H28.7998C29.7262 37.4 30.5311 36.8735 30.9311 36.1031C31.1023 35.7727 31.1998 35.3968 31.1998 35V4.59998C31.1998 3.27678 30.123 2.19998 28.7998 2.19998H23.9998V6.19998H27.1998V33.4H4.7998V6.19998H7.9998V2.19998H3.1998ZM23.1951 12.5906C23.0653 12.5924 22.9378 12.6258 22.8238 12.6878C22.7097 12.7499 22.6125 12.8388 22.5404 12.9469L14.8326 24.1859L9.34043 19.1437C9.26392 19.0682 9.17296 19.0088 9.07299 18.9692C8.97302 18.9296 8.86609 18.9105 8.75859 18.9131C8.65109 18.9158 8.54522 18.9401 8.44732 18.9845C8.34941 19.029 8.26147 19.0928 8.18876 19.172C8.11605 19.2512 8.06006 19.3443 8.02413 19.4456C7.98819 19.547 7.97306 19.6546 7.97964 19.7619C7.98621 19.8692 8.01435 19.9741 8.06238 20.0703C8.11041 20.1665 8.17734 20.2521 8.25918 20.3219L15.1092 26.6125L23.8592 13.8531C23.9446 13.7326 23.9949 13.5908 24.0047 13.4434C24.0144 13.2961 23.9832 13.1489 23.9144 13.0181C23.8457 12.8874 23.7421 12.7783 23.6151 12.7028C23.4882 12.6274 23.3428 12.5885 23.1951 12.5906Z" fill="#00A745"/>
</svg>
