<svg width="27" height="29" viewBox="0 0 27 29" fill="none" xmlns="http://www.w3.org/2000/svg">
<path fill-rule="evenodd" clip-rule="evenodd" d="M0.884375 0.888495C0.972575 0.833295 1.07201 0.803707 1.17266 0.799432C1.27331 0.795157 1.37497 0.816814 1.46797 0.862714L2.39961 1.32912L3.33125 0.862714C3.50045 0.778114 3.69937 0.778114 3.86797 0.862714L4.79961 1.32912L5.73125 0.862714C5.90045 0.778114 6.09937 0.778114 6.26797 0.862714L7.19961 1.32912L8.13125 0.862714C8.30045 0.778114 8.49937 0.778114 8.66797 0.862714L9.59961 1.32912L10.5312 0.862714C10.7004 0.778114 10.8994 0.778114 11.068 0.862714L11.9996 1.32912L12.9313 0.862714C13.1005 0.778114 13.2994 0.778114 13.468 0.862714L14.3996 1.32912L15.3313 0.862714C15.5005 0.778114 15.6994 0.778114 15.868 0.862714L16.7996 1.32912L17.7313 0.862714C17.9004 0.778114 18.0994 0.778114 18.268 0.862714L19.1996 1.32912L20.1313 0.862714C20.3005 0.778114 20.4994 0.778114 20.668 0.862714L21.5996 1.32912L22.5312 0.862714C22.7173 0.770314 22.9372 0.777495 23.1148 0.888495C23.2918 0.998295 23.3996 1.19123 23.3996 1.39943V17.5045C25.5152 18.4332 26.9996 20.5462 26.9996 22.9994C26.9996 26.306 24.3062 28.9994 20.9996 28.9994C19.1634 28.9994 17.5182 28.1668 16.4164 26.8619L15.868 27.1362C15.6988 27.2208 15.4999 27.2208 15.3313 27.1362L14.3996 26.6697L13.468 27.1362C13.2988 27.2208 13.0999 27.2208 12.9313 27.1362L11.9996 26.6697L11.068 27.1362C10.8988 27.2208 10.6999 27.2208 10.5312 27.1362L9.59961 26.6697L8.66797 27.1362C8.49877 27.2208 8.29985 27.2208 8.13125 27.1362L7.19961 26.6697L6.26797 27.1362C6.09877 27.2208 5.89985 27.2208 5.73125 27.1362L4.79961 26.6697L3.86797 27.1362C3.69877 27.2208 3.49985 27.2208 3.33125 27.1362L2.39961 26.6697L1.46797 27.1362C1.28197 27.2286 1.06198 27.2202 0.884375 27.1092C0.707375 26.9994 0.599609 26.8065 0.599609 26.5983V1.39943C0.599609 1.19123 0.707975 0.998295 0.884375 0.888495ZM13.7996 6.19943H4.79961C4.46781 6.19943 4.19961 6.46763 4.19961 6.79943C4.19961 7.13123 4.46781 7.39943 4.79961 7.39943H13.7996C14.1314 7.39943 14.3996 7.13123 14.3996 6.79943C14.3996 6.46763 14.1314 6.19943 13.7996 6.19943ZM19.1996 6.19943H17.3996C17.0678 6.19943 16.7996 6.46763 16.7996 6.79943C16.7996 7.13123 17.0678 7.39943 17.3996 7.39943H19.1996C19.5314 7.39943 19.7996 7.13123 19.7996 6.79943C19.7996 6.46763 19.5314 6.19943 19.1996 6.19943ZM11.3996 9.79943H4.79961C4.46781 9.79943 4.19961 10.0676 4.19961 10.3994C4.19961 10.7312 4.46781 10.9994 4.79961 10.9994H11.3996C11.7314 10.9994 11.9996 10.7312 11.9996 10.3994C11.9996 10.0676 11.7314 9.79943 11.3996 9.79943ZM19.1996 9.79943H17.3996C17.0678 9.79943 16.7996 10.0676 16.7996 10.3994C16.7996 10.7312 17.0678 10.9994 17.3996 10.9994H19.1996C19.5314 10.9994 19.7996 10.7312 19.7996 10.3994C19.7996 10.0676 19.5314 9.79943 19.1996 9.79943ZM13.7996 13.3994H4.79961C4.46781 13.3994 4.19961 13.6676 4.19961 13.9994C4.19961 14.3312 4.46781 14.5994 4.79961 14.5994H13.7996C14.1314 14.5994 14.3996 14.3312 14.3996 13.9994C14.3996 13.6676 14.1314 13.3994 13.7996 13.3994ZM19.1996 13.3994H17.3996C17.0678 13.3994 16.7996 13.6676 16.7996 13.9994C16.7996 14.3312 17.0678 14.5994 17.3996 14.5994H19.1996C19.5314 14.5994 19.7996 14.3312 19.7996 13.9994C19.7996 13.6676 19.5314 13.3994 19.1996 13.3994ZM5.39961 17.5994C5.39961 17.2682 5.13081 16.9994 4.79961 16.9994C4.46841 16.9994 4.19961 17.2682 4.19961 17.5994C4.19961 17.9306 4.46841 18.1994 4.79961 18.1994C5.13081 18.1994 5.39961 17.9306 5.39961 17.5994ZM7.79961 17.5994C7.79961 17.2682 7.53081 16.9994 7.19961 16.9994C6.86841 16.9994 6.59961 17.2682 6.59961 17.5994C6.59961 17.9306 6.86841 18.1994 7.19961 18.1994C7.53081 18.1994 7.79961 17.9306 7.79961 17.5994ZM10.1996 17.5994C10.1996 17.2682 9.93081 16.9994 9.59961 16.9994C9.26841 16.9994 8.99961 17.2682 8.99961 17.5994C8.99961 17.9306 9.26841 18.1994 9.59961 18.1994C9.93081 18.1994 10.1996 17.9306 10.1996 17.5994ZM12.5996 17.5994C12.5996 17.2682 12.3308 16.9994 11.9996 16.9994C11.6684 16.9994 11.3996 17.2682 11.3996 17.5994C11.3996 17.9306 11.6684 18.1994 11.9996 18.1994C12.3308 18.1994 12.5996 17.9306 12.5996 17.5994ZM14.9996 17.5994C14.9996 17.2682 14.7308 16.9994 14.3996 16.9994C14.0684 16.9994 13.7996 17.2682 13.7996 17.5994C13.7996 17.9306 14.0684 18.1994 14.3996 18.1994C14.7308 18.1994 14.9996 17.9306 14.9996 17.5994ZM17.3996 17.5994C17.3996 17.2682 17.1308 16.9994 16.7996 16.9994C16.4684 16.9994 16.1996 17.2682 16.1996 17.5994C16.1996 17.9306 16.4684 18.1994 16.7996 18.1994C17.1308 18.1994 17.3996 17.9306 17.3996 17.5994ZM25.7996 22.9994C25.7996 20.3414 23.6577 18.1994 20.9996 18.1994C18.3415 18.1994 16.1996 20.3414 16.1996 22.9994C16.1996 25.6575 18.3415 27.7994 20.9996 27.7994C23.6577 27.7994 25.7996 25.6575 25.7996 22.9994ZM12.5996 20.5994H4.79961C4.46781 20.5994 4.19961 20.8676 4.19961 21.1994C4.19961 21.5312 4.46781 21.7994 4.79961 21.7994H12.5996C12.9314 21.7994 13.1996 21.5312 13.1996 21.1994C13.1996 20.8676 12.9314 20.5994 12.5996 20.5994ZM19.792 20.4744C20.1275 20.1707 20.5537 20 21.0051 20C21.0093 20 21.0136 20 21.018 20C21.0796 19.9999 21.1504 19.9999 21.2106 20.0124C22.0357 20.1047 22.7088 20.792 22.7863 21.65C22.8765 22.4023 22.5012 23.1293 21.8433 23.4856C21.5597 23.6439 21.3799 23.9327 21.3799 24.2364V25.016C21.3799 25.1614 21.264 25.28 21.1219 25.28H20.864C20.722 25.28 20.6061 25.1614 20.6061 25.016V24.2364C20.6061 23.629 20.9391 23.0747 21.4806 22.7844C21.8544 22.573 22.076 22.1641 22.0247 21.7284C21.9733 21.253 21.599 20.857 21.1219 20.8044C21.0857 20.7919 21.0491 20.7919 21.0128 20.792C21.0102 20.792 21.0076 20.792 21.0051 20.792C20.7471 20.792 20.5134 20.8843 20.32 21.056C20.1008 21.2674 19.9734 21.5443 19.9734 21.848C19.9734 21.9934 19.8575 22.112 19.7155 22.112H19.4575C19.3155 22.112 19.1996 21.9934 19.1996 21.848C19.1996 21.32 19.4182 20.8178 19.792 20.4744ZM20.6182 25.94C20.6182 25.8668 20.6761 25.808 20.7471 25.808H21.263C21.3345 25.808 21.3919 25.8668 21.3919 25.94V26.468C21.3919 26.5412 21.3345 26.6 21.263 26.6H20.7471C20.6761 26.6 20.6182 26.5412 20.6182 26.468V25.94Z" fill="#0074FF"/>
</svg>
