<svg width="19" height="19" viewBox="0 0 19 19" fill="none" xmlns="http://www.w3.org/2000/svg">
<g clip-path="url(#clip0_104_11794)">
<path d="M9.49469 4C5.014 4 1.06603 7.10568 0.0186535 11.1753C-0.0205095 11.3278 0.00253221 11.4897 0.0827098 11.6252C0.162887 11.7608 0.293633 11.8589 0.446184 11.8981C0.598736 11.9373 0.760596 11.9142 0.896159 11.8341C1.03172 11.7539 1.12988 11.6231 1.16904 11.4706C2.07155 7.96391 5.56787 5.1875 9.49469 5.1875C13.4215 5.1875 16.9289 7.96488 17.8312 11.4706C17.8703 11.6231 17.9685 11.7539 18.104 11.8341C18.2396 11.9142 18.4015 11.9373 18.554 11.8981C18.7066 11.8589 18.8373 11.7608 18.9175 11.6252C18.9977 11.4897 19.0207 11.3278 18.9815 11.1753C17.9339 7.1047 13.9754 4 9.49469 4ZM9.50087 7.16667C7.39501 7.16667 5.67551 8.88617 5.67551 10.992C5.67551 13.0979 7.39501 14.8182 9.50087 14.8182C11.6067 14.8182 13.327 13.0979 13.327 10.992C13.327 8.88617 11.6067 7.16667 9.50087 7.16667ZM9.50087 8.35417C10.965 8.35417 12.1395 9.52794 12.1395 10.992C12.1395 12.4561 10.965 13.6307 9.50087 13.6307C8.03678 13.6307 6.86301 12.4561 6.86301 10.992C6.86301 9.52794 8.03678 8.35417 9.50087 8.35417Z" fill="#727272"/>
</g>
<defs>
<clipPath id="clip0_104_11794">
<rect width="19" height="19" fill="white"/>
</clipPath>
</defs>
</svg>
