<svg width="154" height="154" viewBox="0 0 154 154" fill="none" xmlns="http://www.w3.org/2000/svg">
<path d="M6.4 0.400024C2.8625 0.400024 0 3.26252 0 6.80002C0 10.3375 2.8625 13.2 6.4 13.2C9.9375 13.2 12.8 10.3375 12.8 6.80002H27.7C34.375 6.80002 36.9375 8.93753 39.1 16.2L64.7 119.5C66.0625 124.65 67.6 130.35 73.4 133.1C71.575 135.313 70.4 138.113 70.4 141.2C70.4 148.263 76.1375 154 83.2 154C90.2625 154 96 148.263 96 141.2C96 138.863 95.3 136.688 94.2 134.8H113.8C112.7 136.688 112 138.863 112 141.2C112 148.263 117.738 154 124.8 154C131.863 154 137.6 148.263 137.6 141.2C137.6 137.875 136.288 134.875 134.2 132.6C134.313 132.275 134.4 131.963 134.4 131.6C134.4 129.838 132.963 128.4 131.2 128.4H82.3C73.675 128.4 72.7375 124.95 70.9 118L68.7 109.2H127.4C128.725 109.2 129.938 108.338 130.4 107.1L153.4 46.3C153.775 45.325 153.588 44.2625 153 43.4C152.413 42.5375 151.438 42 150.4 42H52.1L45.3 14.5C43.125 7.17503 39.425 0.400024 27.7 0.400024H6.4ZM86.4 58C87.2125 58 88.075 58.275 88.7 58.9L99.2 69.5L109.7 58.9C110.95 57.65 113.05 57.65 114.3 58.9C115.55 60.15 115.55 62.25 114.3 63.5L103.7 74L114.3 84.5C115.55 85.75 115.55 87.85 114.3 89.1C113.675 89.725 112.825 90 112 90C111.175 90 110.325 89.725 109.7 89.1L99.2 78.5L88.7 89.1C88.075 89.725 87.225 90 86.4 90C85.575 90 84.725 89.725 84.1 89.1C82.85 87.85 82.85 85.75 84.1 84.5L94.7 74L84.1 63.5C82.85 62.25 82.85 60.15 84.1 58.9C84.725 58.275 85.5875 58 86.4 58ZM83.2 134.8C86.725 134.8 89.6 137.675 89.6 141.2C89.6 144.725 86.725 147.6 83.2 147.6C79.675 147.6 76.8 144.725 76.8 141.2C76.8 137.675 79.675 134.8 83.2 134.8ZM124.8 134.8C128.325 134.8 131.2 137.675 131.2 141.2C131.2 144.725 128.325 147.6 124.8 147.6C121.275 147.6 118.4 144.725 118.4 141.2C118.4 137.675 121.275 134.8 124.8 134.8Z" fill="#D7D7D7"/>
</svg>
