<svg width="360" height="66" viewBox="0 0 360 66" fill="none" xmlns="http://www.w3.org/2000/svg">
<path fill-rule="evenodd" clip-rule="evenodd" d="M136 34.3181C136 34.3181 143.213 24.4538 152 14.5C159.633 5.85374 168.001 0.000711333 179.5 5.04036e-08C189.874 -0.000641494 199.5 6.12305 207 14.5C215.464 23.9538 224 34.3181 224 34.3181C224 34.3181 234.224 44.9959 241.166 48.3799C247.843 51.635 260 50.8529 260 50.8529V51H360C360 59.2843 353.284 66 345 66L260 66.0001H99V66H15C6.71573 66 0 59.2843 0 51H99V50.8529C99 50.8529 113.926 51.2798 122.087 47.1551C128.845 43.7391 136 34.3181 136 34.3181Z" fill="#915858"/>
<path d="M145.831 49.2348C145.585 49.2348 145.337 49.2186 145.087 49.1861C144.841 49.1536 144.605 49.1003 144.377 49.0261C144.15 48.9519 143.937 48.8591 143.737 48.7478C143.543 48.6319 143.371 48.4928 143.223 48.3304C143.079 48.1681 142.965 47.9803 142.882 47.767C142.798 47.5536 142.756 47.3125 142.756 47.0435C142.756 46.7559 142.807 46.4823 142.909 46.2226C143.012 45.9629 143.148 45.7194 143.32 45.4922C143.492 45.2649 143.691 45.0539 143.918 44.8591C144.145 44.6643 144.384 44.4881 144.635 44.3304C144.885 44.1681 145.138 44.0243 145.393 43.8991C145.653 43.7693 145.898 43.658 146.13 43.5652L146.04 42.5078L147.8 42.1322C147.805 42.1739 147.814 42.2667 147.828 42.4104C147.842 42.5496 147.858 42.7165 147.876 42.9113C147.9 43.1061 147.923 43.3148 147.946 43.5374C147.969 43.7554 147.99 43.9617 148.009 44.1565C148.032 44.3467 148.05 44.5136 148.064 44.6574C148.078 44.7965 148.087 44.8823 148.092 44.9148C148.162 45.5084 148.224 45.993 148.28 46.3687C148.34 46.7443 148.391 47.0435 148.433 47.2661C148.475 47.4841 148.509 47.6394 148.537 47.7322C148.57 47.8203 148.593 47.8783 148.607 47.9061C148.653 48.0081 148.707 48.0939 148.767 48.1635C148.827 48.2284 148.897 48.2817 148.976 48.3235C149.054 48.3606 149.147 48.3884 149.254 48.407C149.36 48.4209 149.486 48.4278 149.629 48.4278H149.769V50.2087H149.629C149.384 50.2041 149.152 50.1948 148.934 50.1809C148.72 50.1716 148.514 50.1322 148.315 50.0626C148.12 49.9977 147.934 49.8933 147.758 49.7496C147.582 49.6058 147.415 49.3971 147.257 49.1235C146.993 49.1606 146.745 49.1884 146.513 49.207C146.281 49.2255 146.054 49.2348 145.831 49.2348ZM146.638 47.4052C146.615 47.28 146.592 47.1316 146.569 46.96C146.545 46.7884 146.522 46.6029 146.499 46.4035C146.476 46.1994 146.45 45.9884 146.423 45.7704C146.399 45.5525 146.374 45.3345 146.346 45.1165C146.225 45.1675 146.091 45.2325 145.943 45.3113C145.794 45.3901 145.641 45.4783 145.483 45.5757C145.326 45.673 145.17 45.7797 145.017 45.8957C144.869 46.007 144.737 46.1229 144.621 46.2435C144.505 46.3594 144.41 46.4777 144.336 46.5983C144.266 46.7188 144.231 46.8348 144.231 46.9461C144.231 47.0481 144.282 47.1339 144.384 47.2035C144.486 47.2684 144.614 47.3217 144.767 47.3635C144.925 47.4006 145.094 47.4284 145.275 47.447C145.456 47.4609 145.627 47.4678 145.789 47.4678C145.938 47.4678 146.086 47.4632 146.235 47.4539C146.383 47.44 146.518 47.4238 146.638 47.4052ZM149.625 48.4278C149.964 48.4278 150.258 48.3652 150.508 48.24C150.759 48.1101 150.979 47.9432 151.169 47.7391C151.364 47.5351 151.533 47.3055 151.677 47.0504C151.826 46.7954 151.965 46.5403 152.095 46.2852C152.224 46.0162 152.366 45.7496 152.519 45.4852C152.672 45.2209 152.846 44.9843 153.041 44.7757C153.235 44.5623 153.458 44.3907 153.708 44.2609C153.959 44.1264 154.249 44.0591 154.578 44.0591C154.875 44.0591 155.146 44.1055 155.392 44.1983C155.642 44.2864 155.865 44.4116 156.06 44.5739C156.259 44.7316 156.433 44.9171 156.582 45.1304C156.73 45.3391 156.853 45.5664 156.95 45.8122C157.048 46.0533 157.119 46.3038 157.166 46.5635C157.217 46.8232 157.242 47.0806 157.242 47.3357C157.242 47.5722 157.222 47.8017 157.18 48.0243C157.143 48.247 157.085 48.4626 157.006 48.6713C156.918 48.8939 156.802 49.0957 156.658 49.2765C156.519 49.4574 156.359 49.6128 156.178 49.7426C155.997 49.8678 155.802 49.9652 155.594 50.0348C155.385 50.1043 155.167 50.1391 154.94 50.1391C154.745 50.1391 154.539 50.1136 154.321 50.0626C154.107 50.0162 153.889 49.9513 153.667 49.8678C153.569 49.8261 153.46 49.7774 153.34 49.7217C153.219 49.6614 153.096 49.5965 152.971 49.527C152.846 49.4574 152.721 49.3855 152.595 49.3113C152.475 49.2325 152.361 49.1559 152.255 49.0817C151.888 49.4435 151.494 49.7217 151.072 49.9165C150.655 50.1113 150.172 50.2087 149.625 50.2087H149.486V48.4278H149.625ZM153.298 47.6139C153.423 47.6974 153.579 47.7901 153.764 47.8922C153.954 47.9942 154.151 48.087 154.355 48.1704C154.559 48.2539 154.761 48.3165 154.961 48.3583C155.072 48.3861 155.174 48.4 155.267 48.4C155.341 48.4 155.408 48.3907 155.468 48.3722C155.515 48.3629 155.564 48.3351 155.615 48.2887C155.67 48.2377 155.719 48.1704 155.761 48.087C155.807 48.0035 155.844 47.9061 155.872 47.7948C155.891 47.702 155.9 47.6 155.9 47.4887C155.9 47.4655 155.9 47.4423 155.9 47.4191C155.9 47.2104 155.863 47.0017 155.788 46.793C155.719 46.5797 155.622 46.3919 155.496 46.2296C155.371 46.0672 155.223 45.942 155.051 45.8539C154.935 45.7983 154.81 45.7704 154.675 45.7704C154.611 45.7704 154.543 45.7774 154.474 45.7913C154.409 45.8052 154.344 45.8423 154.279 45.9026C154.219 45.9583 154.144 46.0557 154.056 46.1948C153.968 46.3293 153.864 46.5125 153.743 46.7443C153.623 46.9716 153.474 47.2614 153.298 47.6139ZM162.214 50.2087H161.936C160.995 50.2087 160.28 49.9722 159.794 49.4991C159.307 49.0261 159.061 48.3119 159.056 47.3565C159.056 47.2081 159.061 46.9646 159.07 46.6261C159.079 46.2829 159.084 45.8655 159.084 45.3739C159.084 45.0817 159.082 44.7687 159.077 44.4348C159.072 44.0962 159.065 43.753 159.056 43.4052C159.047 43.0528 159.033 42.7026 159.014 42.3548C159 42.0023 158.982 41.6638 158.959 41.3391C158.936 41.0099 158.908 40.7038 158.875 40.4209C158.843 40.1333 158.806 39.8806 158.764 39.6626L160.51 39.1409C160.561 39.4099 160.607 39.7391 160.649 40.1287C160.691 40.5136 160.728 40.9264 160.76 41.367C160.793 41.8075 160.816 42.2574 160.83 42.7165C160.849 43.171 160.858 43.6 160.858 44.0035C160.858 44.2493 160.86 44.5113 160.865 44.7896C160.869 45.0632 160.872 45.3043 160.872 45.513C160.872 45.6893 160.869 45.8562 160.865 46.0139C160.865 46.167 160.862 46.3154 160.858 46.4591C160.858 46.6029 160.856 46.7443 160.851 46.8835C160.851 47.0226 160.851 47.1641 160.851 47.3078C160.851 47.3449 160.851 47.382 160.851 47.4191C160.851 47.5861 160.867 47.7345 160.9 47.8643C160.937 47.9942 160.999 48.1032 161.087 48.1913C161.176 48.2748 161.287 48.3351 161.421 48.3722C161.56 48.4093 161.72 48.4278 161.901 48.4278H162.214V50.2087ZM161.939 48.4278H163.059C163.277 48.4278 163.5 48.4162 163.727 48.393C163.959 48.3652 164.167 48.3119 164.353 48.233C164.538 48.1496 164.689 48.0313 164.805 47.8783C164.926 47.7252 164.986 47.5212 164.986 47.2661C164.986 47.1455 164.96 46.9762 164.909 46.7583C164.858 46.5403 164.791 46.2991 164.708 46.0348C164.624 45.7704 164.525 45.4968 164.409 45.2139C164.297 44.931 164.179 44.6667 164.054 44.4209L165.661 43.6278C165.777 43.8922 165.893 44.1728 166.009 44.4696C166.125 44.7664 166.227 45.0725 166.315 45.3878C166.407 45.6986 166.482 46.0116 166.537 46.327C166.593 46.6423 166.621 46.9507 166.621 47.2522C166.621 47.7716 166.533 48.2191 166.356 48.5948C166.18 48.9658 165.934 49.2719 165.619 49.513C165.304 49.7496 164.926 49.9235 164.485 50.0348C164.049 50.1507 163.569 50.2087 163.045 50.2087H161.939V48.4278ZM165.494 41.2696L164.158 42.6052L162.829 41.2696L164.158 39.9409L165.494 41.2696ZM172.918 50.2087H172.702C172.582 50.2087 172.429 50.1948 172.243 50.167C172.062 50.1391 171.863 50.0557 171.645 49.9165C171.585 50.5009 171.406 51.0597 171.109 51.593C170.813 52.131 170.439 52.6342 169.989 53.1026C169.544 53.571 169.041 54 168.48 54.3896C167.923 54.7791 167.351 55.12 166.762 55.4122L165.982 53.8052C166.307 53.6383 166.634 53.4574 166.963 53.2626C167.288 53.0678 167.599 52.8591 167.895 52.6365C168.192 52.4139 168.468 52.182 168.723 51.9409C168.983 51.6997 169.206 51.447 169.391 51.1826C169.581 50.9183 169.73 50.647 169.836 50.3687C169.948 50.0904 170.003 49.8052 170.003 49.513C170.003 49.3043 169.973 49.0748 169.913 48.8243C169.853 48.5693 169.776 48.3049 169.683 48.0313C169.591 47.7577 169.491 47.4817 169.384 47.2035C169.277 46.9206 169.18 46.647 169.092 46.3826L170.762 45.687C170.942 46.2296 171.107 46.6794 171.255 47.0365C171.409 47.389 171.557 47.6696 171.701 47.8783C171.849 48.0823 172.002 48.2261 172.16 48.3096C172.322 48.3884 172.505 48.4278 172.709 48.4278H172.925L172.918 50.2087ZM172.642 48.4278H173.762C173.98 48.4278 174.203 48.4162 174.43 48.393C174.662 48.3652 174.871 48.3119 175.056 48.233C175.242 48.1496 175.392 48.0313 175.508 47.8783C175.629 47.7252 175.689 47.5212 175.689 47.2661C175.689 47.1455 175.664 46.9762 175.613 46.7583C175.562 46.5403 175.494 46.2991 175.411 46.0348C175.327 45.7704 175.228 45.4968 175.112 45.2139C175 44.931 174.882 44.6667 174.757 44.4209L176.364 43.6278C176.48 43.8922 176.596 44.1728 176.712 44.4696C176.828 44.7664 176.93 45.0725 177.018 45.3878C177.111 45.6986 177.185 46.0116 177.24 46.327C177.296 46.6423 177.324 46.9507 177.324 47.2522C177.324 47.7716 177.236 48.2191 177.06 48.5948C176.883 48.9658 176.637 49.2719 176.322 49.513C176.007 49.7496 175.629 49.9235 175.188 50.0348C174.752 50.1507 174.272 50.2087 173.748 50.2087H172.642V48.4278ZM176.225 52.4696L174.889 53.8052L173.56 52.4696L174.889 51.1409L176.225 52.4696ZM188.354 55.12C187.927 55.12 187.5 55.0783 187.074 54.9948C186.652 54.9113 186.248 54.7838 185.863 54.6122C185.478 54.4406 185.119 54.2272 184.785 53.9722C184.451 53.7171 184.161 53.418 183.915 53.0748C183.67 52.7316 183.475 52.3443 183.331 51.913C183.192 51.4864 183.12 51.0133 183.115 50.4939C183.115 50.48 183.115 50.4638 183.115 50.4452C183.115 49.8794 183.199 49.3554 183.366 48.873C183.533 48.3861 183.767 47.9432 184.069 47.5443C184.375 47.1455 184.739 46.7907 185.161 46.48C185.587 46.1646 186.051 45.8957 186.552 45.673C186.422 45.5617 186.297 45.4342 186.176 45.2904C186.06 45.1467 185.956 44.9843 185.863 44.8035C185.775 44.618 185.703 44.4139 185.648 44.1913C185.597 43.9687 185.571 43.7206 185.571 43.447C185.576 43.178 185.62 42.9159 185.703 42.6609C185.791 42.4012 185.907 42.1577 186.051 41.9304C186.2 41.7032 186.373 41.4922 186.573 41.2974C186.777 41.1026 186.997 40.9357 187.234 40.7965C187.475 40.6528 187.728 40.5391 187.992 40.4557C188.256 40.3722 188.528 40.3258 188.806 40.3165C188.862 40.3119 188.915 40.3096 188.966 40.3096C189.184 40.3096 189.409 40.3351 189.641 40.3861C189.877 40.4371 190.118 40.5159 190.364 40.6226C190.615 40.7293 190.858 40.8568 191.095 41.0052C191.331 41.1536 191.565 41.3136 191.797 41.4852L190.782 42.8765C190.587 42.7235 190.39 42.5913 190.19 42.48C189.991 42.3733 189.782 42.2875 189.564 42.2226C189.351 42.1577 189.142 42.1206 188.938 42.1113C188.92 42.1113 188.901 42.1113 188.882 42.1113C188.692 42.1113 188.507 42.1345 188.326 42.1809C188.145 42.2272 187.983 42.3084 187.839 42.4243C187.7 42.5357 187.586 42.6817 187.498 42.8626C187.415 43.0435 187.371 43.2638 187.366 43.5235C187.366 43.5328 187.366 43.542 187.366 43.5513C187.366 43.8017 187.429 44.0058 187.554 44.1635C187.684 44.3212 187.846 44.4464 188.041 44.5391C188.235 44.6272 188.447 44.6875 188.674 44.72C188.906 44.7478 189.124 44.7617 189.328 44.7617C189.754 44.7617 190.169 44.7246 190.573 44.6504C190.981 44.5716 191.382 44.4997 191.776 44.4348L192.166 46.2157C191.934 46.2435 191.67 46.2829 191.373 46.3339C191.081 46.3803 190.772 46.4359 190.448 46.5009C190.128 46.5612 189.803 46.6284 189.474 46.7026C189.144 46.7768 188.829 46.8533 188.528 46.9322C188.231 47.011 187.955 47.0922 187.7 47.1757C187.449 47.2591 187.241 47.3403 187.074 47.4191C186.962 47.4748 186.828 47.549 186.67 47.6417C186.517 47.7345 186.357 47.8481 186.19 47.9826C186.028 48.1125 185.866 48.2609 185.703 48.4278C185.541 48.5948 185.395 48.7826 185.265 48.9913C185.14 49.2 185.038 49.4272 184.959 49.673C184.88 49.9188 184.841 50.1855 184.841 50.473C184.841 50.9322 184.94 51.3357 185.14 51.6835C185.339 52.0313 185.604 52.3212 185.933 52.553C186.262 52.7849 186.638 52.9588 187.06 53.0748C187.487 53.1954 187.927 53.2557 188.382 53.2557C188.961 53.2557 189.548 53.1513 190.142 52.9426C190.735 52.7386 191.292 52.4209 191.811 51.9896L192.848 53.4852C192.421 53.8377 192.008 54.1206 191.609 54.3339C191.215 54.5472 190.83 54.7119 190.455 54.8278C190.084 54.9438 189.722 55.0203 189.369 55.0574C189.022 55.0991 188.683 55.12 188.354 55.12ZM196.853 45.687C196.733 45.687 196.603 45.738 196.464 45.84C196.325 45.942 196.197 46.0742 196.081 46.2365C195.965 46.3942 195.868 46.5704 195.789 46.7652C195.715 46.96 195.678 47.1501 195.678 47.3357C195.678 47.5304 195.722 47.6928 195.81 47.8226C195.903 47.9478 196.019 48.0499 196.158 48.1287C196.302 48.2075 196.462 48.2678 196.638 48.3096C196.819 48.3467 196.997 48.3745 197.173 48.393C197.271 48.3977 197.378 48.4023 197.493 48.407C197.609 48.4116 197.728 48.4162 197.848 48.4209C197.973 48.4209 198.096 48.4232 198.217 48.4278C198.338 48.4278 198.451 48.4278 198.558 48.4278C198.544 48.2562 198.509 48.0707 198.453 47.8713C198.402 47.6672 198.335 47.4632 198.252 47.2591C198.168 47.0551 198.073 46.8603 197.967 46.6748C197.86 46.4846 197.744 46.3177 197.619 46.1739C197.498 46.0255 197.373 45.9072 197.243 45.8191C197.113 45.731 196.983 45.687 196.853 45.687ZM193.695 53.3391C194.377 53.2046 194.991 53.0238 195.539 52.7965C196.091 52.5739 196.568 52.3235 196.972 52.0452C197.375 51.767 197.702 51.4701 197.953 51.1548C198.208 50.8394 198.377 50.5241 198.46 50.2087C198.085 50.2087 197.718 50.1971 197.361 50.1739C197.004 50.1507 196.666 50.1043 196.346 50.0348C196.03 49.9699 195.738 49.8771 195.469 49.7565C195.205 49.6313 194.975 49.469 194.78 49.2696C194.59 49.0655 194.442 48.8197 194.335 48.5322C194.229 48.2446 194.175 47.9014 194.175 47.5026C194.175 47.2475 194.203 46.9809 194.259 46.7026C194.314 46.4243 194.393 46.153 194.495 45.8887C194.602 45.6197 194.732 45.367 194.885 45.1304C195.038 44.8893 195.214 44.6783 195.413 44.4974C195.613 44.3119 195.833 44.1658 196.074 44.0591C196.316 43.9525 196.575 43.8991 196.853 43.8991C197.572 43.8991 198.229 44.2191 198.822 44.8591C199.036 45.0957 199.226 45.3646 199.393 45.6661C199.564 45.9629 199.708 46.2829 199.824 46.6261C199.944 46.9646 200.035 47.3194 200.095 47.6904C200.16 48.0614 200.193 48.4371 200.193 48.8174C200.193 49.411 200.116 49.9652 199.963 50.48C199.815 50.9994 199.604 51.4771 199.33 51.913C199.061 52.349 198.739 52.7409 198.363 53.0887C197.987 53.4412 197.575 53.7496 197.125 54.0139C196.675 54.2783 196.195 54.4986 195.685 54.6748C195.175 54.8557 194.651 54.9901 194.113 55.0783L193.695 53.3391ZM206.559 50.2087H206.343C206.222 50.2087 206.069 50.1948 205.884 50.167C205.703 50.1391 205.504 50.0557 205.286 49.9165C205.225 50.5009 205.047 51.0597 204.75 51.593C204.453 52.131 204.08 52.6342 203.63 53.1026C203.185 53.571 202.682 54 202.12 54.3896C201.564 54.7791 200.991 55.12 200.402 55.4122L199.623 53.8052C199.948 53.6383 200.275 53.4574 200.604 53.2626C200.929 53.0678 201.239 52.8591 201.536 52.6365C201.833 52.4139 202.109 52.182 202.364 51.9409C202.624 51.6997 202.846 51.447 203.032 51.1826C203.222 50.9183 203.37 50.647 203.477 50.3687C203.588 50.0904 203.644 49.8052 203.644 49.513C203.644 49.3043 203.614 49.0748 203.553 48.8243C203.493 48.5693 203.417 48.3049 203.324 48.0313C203.231 47.7577 203.131 47.4817 203.025 47.2035C202.918 46.9206 202.821 46.647 202.733 46.3826L204.402 45.687C204.583 46.2296 204.748 46.6794 204.896 47.0365C205.049 47.389 205.198 47.6696 205.341 47.8783C205.49 48.0823 205.643 48.2261 205.8 48.3096C205.963 48.3884 206.146 48.4278 206.35 48.4278H206.566L206.559 50.2087ZM206.561 48.4278C206.816 48.4278 207.043 48.3722 207.243 48.2609C207.447 48.1496 207.625 48.0012 207.778 47.8157C207.936 47.6301 208.073 47.4191 208.189 47.1826C208.309 46.9461 208.414 46.7026 208.502 46.4522C208.59 46.2017 208.667 45.9559 208.731 45.7148C208.796 45.469 208.854 45.2487 208.905 45.0539L210.644 45.4365C210.603 45.5664 210.547 45.7333 210.478 45.9374C210.408 46.1368 210.341 46.3501 210.276 46.5774C210.215 46.8 210.164 47.0249 210.123 47.2522C210.09 47.4238 210.074 47.5838 210.074 47.7322C210.074 47.7786 210.079 47.8597 210.088 47.9757C210.097 48.0916 210.144 48.2075 210.227 48.3235C210.315 48.4348 210.457 48.4904 210.651 48.4904C210.86 48.4904 211.048 48.4325 211.215 48.3165C211.382 48.1959 211.53 48.0406 211.66 47.8504C211.795 47.6557 211.911 47.4354 212.008 47.1896C212.11 46.9438 212.196 46.6933 212.265 46.4383C212.34 46.1786 212.4 45.9258 212.446 45.68C212.497 45.4342 212.537 45.2139 212.564 45.0191L214.192 45.3322C214.178 45.4435 214.158 45.5757 214.13 45.7287C214.107 45.8817 214.081 46.0487 214.053 46.2296C214.025 46.4058 213.998 46.5913 213.97 46.7861C213.947 46.9809 213.928 47.1757 213.914 47.3704C213.914 47.4075 213.914 47.4446 213.914 47.4817C213.914 47.593 213.926 47.709 213.949 47.8296C213.972 47.9455 214.021 48.0568 214.095 48.1635C214.169 48.2655 214.267 48.349 214.387 48.4139C214.508 48.4742 214.656 48.5067 214.832 48.5113C215.162 48.5113 215.431 48.4278 215.639 48.2609C215.848 48.0939 215.952 47.8388 215.952 47.4957C215.952 47.2452 215.918 46.9739 215.848 46.6817C215.783 46.3896 215.702 46.1043 215.604 45.8261C215.512 45.5478 215.412 45.2858 215.305 45.04C215.199 44.7942 215.106 44.5901 215.027 44.4278L216.523 43.593C216.551 43.6441 216.595 43.7368 216.655 43.8713C216.72 44.0058 216.792 44.1728 216.871 44.3722C216.954 44.567 217.038 44.7872 217.121 45.033C217.204 45.2788 217.281 45.5386 217.351 45.8122C217.425 46.0812 217.483 46.3571 217.524 46.64C217.571 46.9229 217.594 47.2012 217.594 47.4748C217.594 47.9061 217.527 48.2957 217.392 48.6435C217.262 48.9913 217.068 49.2881 216.808 49.5339C216.553 49.7797 216.238 49.9675 215.862 50.0974C215.5 50.2272 215.085 50.2922 214.617 50.2922C214.603 50.2922 214.587 50.2922 214.568 50.2922C214.549 50.2922 214.533 50.2922 214.519 50.2922C214.301 50.2922 214.102 50.262 213.921 50.2017C213.74 50.1461 213.573 50.0672 213.42 49.9652C213.272 49.8586 213.137 49.738 213.017 49.6035C212.901 49.469 212.796 49.3322 212.704 49.193C212.597 49.3461 212.481 49.4899 212.356 49.6243C212.231 49.7542 212.084 49.8678 211.918 49.9652C211.755 50.0626 211.57 50.1391 211.361 50.1948C211.157 50.2551 210.92 50.2875 210.651 50.2922C210.638 50.2922 210.621 50.2922 210.603 50.2922C210.394 50.2922 210.199 50.2643 210.018 50.2087C209.842 50.153 209.678 50.0765 209.524 49.9791C209.376 49.8771 209.239 49.7588 209.114 49.6243C208.993 49.4899 208.882 49.3484 208.78 49.2C208.692 49.3299 208.585 49.4551 208.46 49.5757C208.34 49.6962 208.189 49.8052 208.008 49.9026C207.832 49.9954 207.623 50.0696 207.382 50.1252C207.141 50.1809 206.858 50.2087 206.533 50.2087H206.283V48.4278H206.561ZM212.683 41.7843L211.5 42.967L210.304 41.7774L211.486 40.5878L212.683 41.7843ZM215.312 41.7913L214.13 42.9809L212.933 41.7843L214.116 40.6017L215.312 41.7913ZM211.723 39.7739L212.808 38.6887L213.9 39.7809L212.815 40.8661L211.723 39.7739Z" fill="#FFFFFF"/>
<path d="M189.167 16.9063L180.834 8.57292L180.235 8L179.636 8.57292L171.302 16.9063L172.5 18.1042L179.401 11.2031V27.5052H181.068V11.2031L187.969 18.1042L189.167 16.9063Z" fill="#FFFFFF"/>
</svg>
