<svg width="22" height="16" viewBox="0 0 22 16" fill="none" xmlns="http://www.w3.org/2000/svg">
<path d="M17.5586 0.50626C17.5397 0.509698 17.5208 0.514854 17.5036 0.52001C17.2991 0.566416 17.1547 0.750323 17.1599 0.96001V13.9538L13.9974 10.7913C13.9149 10.7036 13.8014 10.6555 13.6811 10.6538C13.5024 10.6555 13.3425 10.7638 13.2755 10.9305C13.2102 11.0955 13.2497 11.2863 13.3786 11.41L17.2836 15.3288L17.5999 15.6313L17.9161 15.3288L21.8211 11.41C21.9518 11.3034 22.0119 11.1333 21.9741 10.9683C21.9363 10.805 21.8074 10.6761 21.6441 10.6383C21.4791 10.6005 21.3089 10.6606 21.2024 10.7913L18.0399 13.9538V0.96001C18.045 0.832823 17.9935 0.710792 17.9024 0.624854C17.8096 0.537198 17.6841 0.494229 17.5586 0.50626ZM0.357384 0.53376C0.135665 0.571573 -0.0173038 0.774385 0.00332116 0.997823C0.0256649 1.22126 0.214727 1.39142 0.439884 1.38626H3.07988C3.24488 1.40689 3.40645 1.32954 3.49582 1.19032C3.58348 1.04939 3.58348 0.870635 3.49582 0.729698C3.40645 0.590479 3.24488 0.513135 3.07988 0.53376H0.439884C0.412384 0.530323 0.384884 0.530323 0.357384 0.53376ZM0.357384 4.05376C0.149415 4.10532 0.0101962 4.30126 0.0308212 4.5161C0.0514464 4.72923 0.22504 4.89595 0.439884 4.90626H4.83988C5.01004 4.93548 5.18192 4.86157 5.27645 4.7172C5.37098 4.57282 5.37098 4.3872 5.27645 4.24282C5.18192 4.09845 5.01004 4.02454 4.83988 4.05376H0.439884C0.412384 4.05032 0.384884 4.05032 0.357384 4.05376ZM0.357384 7.56001C0.11504 7.58235 -0.06371 7.79892 -0.0413663 8.04126C-0.0190226 8.2836 0.19754 8.46235 0.439884 8.44001H6.59988C6.84223 8.44001 7.03988 8.24235 7.03988 8.00001C7.03988 7.75767 6.84223 7.56001 6.59988 7.56001H0.439884C0.426134 7.56001 0.412384 7.56001 0.398634 7.56001C0.384884 7.56001 0.371134 7.56001 0.357384 7.56001ZM0.316134 11.08C0.07379 11.1144 -0.0963663 11.3395 -0.0619913 11.5819C-0.0276163 11.8242 0.19754 11.9944 0.439884 11.96H8.35988C8.60223 11.96 8.79988 11.7624 8.79988 11.52C8.79988 11.2777 8.60223 11.08 8.35988 11.08H0.439884C0.426134 11.08 0.412384 11.08 0.398634 11.08C0.384884 11.08 0.371134 11.08 0.357384 11.08C0.343634 11.08 0.329884 11.08 0.316134 11.08ZM0.316134 14.6C0.07379 14.6344 -0.0963663 14.8595 -0.0619913 15.1019C-0.0276163 15.3442 0.19754 15.5144 0.439884 15.48H11.4399C11.6822 15.48 11.8799 15.2824 11.8799 15.04C11.8799 14.7977 11.6822 14.6 11.4399 14.6H0.439884C0.426134 14.6 0.412384 14.6 0.398634 14.6C0.384884 14.6 0.371134 14.6 0.357384 14.6C0.343634 14.6 0.329884 14.6 0.316134 14.6Z" fill="#5B5B5B"/>
</svg>
