<svg width="360" height="800" viewBox="0 0 360 800" fill="none" xmlns="http://www.w3.org/2000/svg">
<rect width="360" height="800" fill="#915858"/>
<path d="M202 215.601V251.607C201.999 254.647 200.957 257.598 199.046 259.973C197.135 262.349 194.468 264.01 191.482 264.682H191.424C189.498 265.106 187.502 265.106 185.576 264.682H185.525C182.537 264.011 179.869 262.351 177.956 259.975C176.044 257.599 175.001 254.648 175 251.607V215.601C175 215.176 175.17 214.769 175.472 214.469C175.775 214.169 176.185 214 176.612 214H184.616C184.828 214 185.037 214.041 185.232 214.122C185.428 214.203 185.605 214.321 185.754 214.469C185.903 214.618 186.022 214.795 186.102 214.989C186.182 215.183 186.223 215.391 186.222 215.601V251.607C186.222 252.207 186.462 252.782 186.889 253.206C187.317 253.63 187.896 253.869 188.5 253.869C189.104 253.869 189.683 253.63 190.111 253.206C190.538 252.782 190.778 252.207 190.778 251.607V215.601C190.778 215.176 190.948 214.769 191.25 214.469C191.552 214.169 191.962 214 192.39 214H200.388C200.815 214 201.225 214.169 201.528 214.469C201.83 214.769 202 215.176 202 215.601V215.601Z" fill="#FFFFFF"/>
<path d="M171 243.648V251.455C170.999 254.596 169.979 257.644 168.106 260.099C166.232 262.554 163.618 264.271 160.69 264.967H160.64L160.502 265C160.347 264.87 160.221 264.705 160.134 264.517C160.048 264.33 160.002 264.125 160 263.917V243.648C160.002 243.21 160.169 242.791 160.465 242.482C160.762 242.173 161.163 242 161.581 242H169.425C169.842 242.002 170.242 242.176 170.537 242.485C170.832 242.793 170.998 243.211 171 243.648V243.648Z" fill="#FFFFFF"/>
<path d="M257.835 236.777C257.317 231.888 255.392 227.254 252.293 223.436C249.194 219.619 245.054 216.782 240.375 215.271C237.911 214.47 235.342 214.041 232.751 214H232.503C228.011 214.001 223.601 215.206 219.733 217.488C219.524 217.614 219.286 217.683 219.043 217.687C218.799 217.691 218.559 217.63 218.347 217.51C218.135 217.39 217.958 217.216 217.835 217.006C217.713 216.796 217.648 216.556 217.649 216.313C217.649 215.699 217.405 215.111 216.971 214.677C216.537 214.244 215.949 214 215.336 214H209.516C208.903 214 208.314 214.244 207.881 214.677C207.447 215.111 207.203 215.699 207.203 216.313C207.203 216.313 207 238.861 207 239.497C207.005 246.258 209.693 252.741 214.473 257.522C219.253 262.304 225.736 264.993 232.497 265H232.751C239.468 264.926 245.884 262.209 250.611 257.436C255.337 252.663 257.992 246.22 258 239.503C257.992 238.592 257.937 237.683 257.835 236.777V236.777ZM234.962 254.135C234.214 254.261 233.458 254.331 232.7 254.345H232.446C228.719 254.359 225.123 252.971 222.372 250.457C219.622 247.942 217.917 244.485 217.597 240.772C217.277 237.059 218.365 233.361 220.645 230.413C222.925 227.465 226.23 225.482 229.905 224.858C230.847 224.719 231.799 224.668 232.751 224.706C236.646 224.771 240.36 226.362 243.093 229.138C245.826 231.914 247.36 235.652 247.364 239.548C247.364 240.399 247.294 241.249 247.154 242.089C246.638 245.118 245.187 247.909 243.005 250.072C240.824 252.236 238.02 253.663 234.987 254.154L234.962 254.135Z" fill="#FFFFFF"/>
<path d="M248.897 237.186C248.554 233.925 247.272 230.833 245.208 228.286C243.143 225.738 240.384 223.844 237.265 222.833C235.607 222.301 233.879 222.02 232.138 222H231.971C228.977 221.999 226.037 222.803 223.46 224.327C223.321 224.411 223.162 224.457 223 224.459C222.838 224.462 222.678 224.421 222.537 224.342C222.395 224.262 222.277 224.146 222.195 224.006C222.113 223.866 222.07 223.707 222.069 223.545C222.069 223.135 221.908 222.741 221.621 222.449C221.478 222.305 221.308 222.191 221.121 222.114C220.934 222.037 220.733 221.998 220.531 222H216.686C216.276 222 215.883 222.163 215.593 222.453C215.304 222.742 215.141 223.135 215.141 223.545C215.141 223.545 215 238.571 215 239C215.007 243.508 216.801 247.829 219.988 251.016C223.175 254.202 227.496 255.995 232.003 256H232.17C236.647 255.951 240.925 254.139 244.075 250.957C247.226 247.774 248.995 243.478 249 239C248.998 238.394 248.963 237.788 248.897 237.186V237.186ZM241.751 240.68C241.414 242.699 240.454 244.563 239.006 246.011C237.559 247.459 235.695 248.419 233.676 248.756C233.176 248.841 232.67 248.888 232.163 248.897H231.997C229.52 248.893 227.135 247.961 225.311 246.284C223.488 244.607 222.359 242.308 222.148 239.84C221.936 237.372 222.657 234.914 224.168 232.951C225.679 230.988 227.871 229.663 230.311 229.237C230.923 229.136 231.543 229.091 232.163 229.103C234.757 229.15 237.228 230.212 239.047 232.061C240.866 233.91 241.888 236.399 241.892 238.994C241.889 239.558 241.842 240.122 241.751 240.68V240.68Z" fill="#FFFFFF"/>
<path d="M248.897 237.186C248.554 233.925 247.272 230.833 245.208 228.286C243.143 225.738 240.384 223.844 237.265 222.833C235.607 222.301 233.879 222.02 232.138 222H231.971C228.977 221.999 226.037 222.803 223.46 224.327C223.321 224.411 223.162 224.457 223 224.459C222.838 224.462 222.678 224.421 222.537 224.342C222.395 224.262 222.277 224.146 222.195 224.006C222.113 223.866 222.07 223.707 222.069 223.545C222.069 223.135 221.908 222.741 221.621 222.449C221.478 222.305 221.308 222.191 221.121 222.114C220.934 222.037 220.733 221.998 220.531 222H216.686C216.276 222 215.883 222.163 215.593 222.453C215.304 222.742 215.141 223.135 215.141 223.545C215.141 223.545 215 238.571 215 239C215.007 243.508 216.801 247.829 219.988 251.016C223.175 254.202 227.496 255.995 232.003 256H232.17C236.647 255.951 240.925 254.139 244.075 250.957C247.226 247.774 248.995 243.478 249 239C248.998 238.394 248.963 237.788 248.897 237.186V237.186ZM241.751 240.68C241.414 242.699 240.454 244.563 239.006 246.011C237.559 247.459 235.695 248.419 233.676 248.756C233.176 248.841 232.67 248.888 232.163 248.897H231.997C229.52 248.893 227.135 247.961 225.311 246.284C223.488 244.607 222.359 242.308 222.148 239.84C221.936 237.372 222.657 234.914 224.168 232.951C225.679 230.988 227.871 229.663 230.311 229.237C230.923 229.136 231.543 229.091 232.163 229.103C234.757 229.15 237.228 230.212 239.047 232.061C240.866 233.91 241.888 236.399 241.892 238.994C241.889 239.558 241.842 240.122 241.751 240.68V240.68Z" fill="#FFFFFF"/>
<path d="M143.727 218.444C139.437 215.546 134.358 213.997 129.159 214H127.575C121.446 214.062 115.539 216.271 110.909 220.231C106.278 224.192 103.227 229.646 102.298 235.62C101.37 241.594 102.625 247.699 105.84 252.845C109.055 257.991 114.021 261.842 119.85 263.711C122.345 264.514 124.95 264.942 127.575 264.981H128.901C133.537 265.032 138.099 263.831 142.092 261.509C142.304 261.384 142.545 261.317 142.792 261.315C143.039 261.312 143.281 261.374 143.496 261.494C143.71 261.614 143.889 261.788 144.013 261.998C144.137 262.208 144.203 262.446 144.204 262.689C144.204 262.993 144.265 263.294 144.383 263.575C144.501 263.856 144.674 264.111 144.892 264.325C145.111 264.54 145.37 264.71 145.655 264.826C145.94 264.942 146.245 265.001 146.554 265H152.444C153.066 265 153.663 264.757 154.103 264.324C154.544 263.89 154.792 263.303 154.794 262.689C154.794 262.689 155 240.154 155 239.519C155.004 235.366 153.979 231.276 152.014 227.603C150.05 223.93 147.205 220.786 143.727 218.444V218.444ZM131.708 254.119C130.781 254.271 129.841 254.339 128.901 254.323H127.575C123.826 254.26 120.236 252.821 117.508 250.286C114.779 247.752 113.107 244.304 112.821 240.618C112.534 236.932 113.653 233.273 115.958 230.358C118.263 227.443 121.588 225.48 125.283 224.855C126.041 224.732 126.807 224.664 127.575 224.652H128.901C131.114 224.615 133.309 225.06 135.328 225.955C137.347 226.85 139.14 228.173 140.582 229.829C142.023 231.486 143.075 233.436 143.665 235.54C144.254 237.644 144.366 239.85 143.991 242.001C143.921 242.433 143.837 242.852 143.727 243.271C142.999 246.03 141.477 248.522 139.344 250.447C137.212 252.372 134.559 253.648 131.708 254.119V254.119Z" fill="#FFFFFF"/>
<path d="M129.157 222.019H128.99C119.617 222.019 112 228.983 112 239.01C112.027 243.536 113.849 247.867 117.065 251.052C120.281 254.238 124.63 256.017 129.157 256C130.015 255.995 130.872 255.922 131.719 255.782C132.588 255.633 133.445 255.419 134.282 255.141C138.114 253.891 141.376 251.318 143.486 247.884C145.596 244.449 146.416 240.377 145.8 236.393C145.184 232.41 143.172 228.775 140.123 226.138C137.074 223.502 133.187 222.035 129.157 222V222.019ZM129.157 248.895H128.984C128.424 248.894 127.864 248.849 127.312 248.76C124.858 248.334 122.655 246.998 121.142 245.019C119.63 243.04 118.919 240.563 119.152 238.083C119.385 235.603 120.544 233.302 122.398 231.639C124.253 229.976 126.666 229.074 129.157 229.111C129.663 229.124 130.168 229.171 130.669 229.252C133.101 229.666 135.29 230.973 136.808 232.918C138.326 234.862 139.063 237.304 138.873 239.763C138.684 242.223 137.583 244.523 135.785 246.213C133.987 247.902 131.623 248.859 129.157 248.895V248.895Z" fill="#FFFFFF"/>
<path d="M170 232.5C170.001 232.813 169.979 233.126 169.932 233.435C169.762 234.558 169.279 235.594 168.549 236.399C167.819 237.204 166.88 237.738 165.862 237.925C165.611 237.973 165.356 237.998 165.101 238H165.015C163.761 238.008 162.551 237.495 161.625 236.563C160.699 235.63 160.125 234.347 160.018 232.969C159.911 231.591 160.279 230.219 161.048 229.127C161.817 228.034 162.931 227.302 164.168 227.075C164.476 227.021 164.788 226.996 165.101 227.001C166.408 227.027 167.653 227.618 168.569 228.646C169.485 229.675 169.999 231.058 170 232.5Z" fill="#FFFFFF"/>
<path d="M164.595 274H161.405C161.181 274 161 274.195 161 274.436V287.564C161 287.805 161.181 288 161.405 288H164.595C164.819 288 165 287.805 165 287.564V274.436C165 274.195 164.819 274 164.595 274Z" fill="#FFFFFF"/>
<path d="M132.381 279.319H130.764C130.653 279.319 130.547 279.275 130.468 279.195C130.39 279.116 130.346 279.009 130.346 278.897V275.418C130.345 275.342 130.324 275.269 130.285 275.204C130.247 275.139 130.192 275.087 130.126 275.051C130.06 275.015 129.986 274.998 129.912 275C129.837 275.003 129.764 275.026 129.702 275.067L126.906 276.367C126.794 276.441 126.701 276.542 126.637 276.661C126.573 276.781 126.539 276.914 126.539 277.05V278.89C126.539 279.002 126.495 279.11 126.417 279.189C126.338 279.268 126.232 279.313 126.121 279.313H125.425C125.369 279.313 125.314 279.324 125.262 279.345C125.211 279.367 125.164 279.399 125.125 279.438C125.085 279.478 125.054 279.526 125.032 279.578C125.011 279.63 125 279.685 125 279.742V281.953C125 282.009 125.011 282.065 125.032 282.117C125.054 282.169 125.085 282.216 125.125 282.256C125.164 282.296 125.211 282.328 125.262 282.349C125.314 282.371 125.369 282.382 125.425 282.382H126.121C126.232 282.382 126.338 282.426 126.417 282.506C126.495 282.585 126.539 282.692 126.539 282.805V287.571C126.541 287.684 126.586 287.792 126.666 287.872C126.745 287.953 126.852 287.998 126.964 288H129.933C130.046 288 130.154 287.955 130.234 287.874C130.314 287.794 130.359 287.685 130.359 287.571V282.844C130.359 282.731 130.403 282.624 130.481 282.545C130.56 282.465 130.666 282.421 130.777 282.421H132.394C132.551 282.412 132.7 282.344 132.812 282.232C132.923 282.119 132.99 281.969 132.999 281.81V279.963C133.004 279.879 132.991 279.795 132.962 279.716C132.932 279.637 132.887 279.565 132.829 279.505C132.771 279.444 132.701 279.397 132.624 279.365C132.547 279.333 132.464 279.317 132.381 279.319V279.319Z" fill="#FFFFFF"/>
<path d="M221.33 279.319H219.58C219.46 279.319 219.345 279.275 219.26 279.195C219.175 279.116 219.127 279.009 219.127 278.897V275.418C219.126 275.342 219.104 275.269 219.062 275.204C219.02 275.139 218.961 275.087 218.889 275.051C218.818 275.015 218.738 274.998 218.657 275C218.577 275.003 218.498 275.026 218.43 275.067L215.056 276.367C214.936 276.442 214.837 276.544 214.769 276.663C214.701 276.782 214.666 276.915 214.666 277.05V278.89C214.666 278.946 214.654 279.002 214.631 279.053C214.608 279.105 214.574 279.152 214.531 279.191C214.488 279.231 214.437 279.262 214.381 279.282C214.326 279.303 214.266 279.314 214.206 279.313H213.453C213.332 279.314 213.217 279.36 213.132 279.441C213.047 279.521 213 279.629 213 279.742V281.953C213 282.065 213.047 282.174 213.132 282.254C213.217 282.334 213.332 282.38 213.453 282.382H214.206C214.464 282.382 214.666 283.182 214.666 283.416V287.571C214.666 287.684 214.713 287.792 214.798 287.872C214.883 287.952 214.998 287.998 215.119 288H218.688C218.809 287.998 218.924 287.952 219.009 287.872C219.094 287.792 219.141 287.684 219.141 287.571V283.455C219.141 283.221 219.343 282.421 219.594 282.421H221.344C221.514 282.412 221.675 282.344 221.796 282.232C221.917 282.119 221.989 281.969 221.999 281.81V279.963C222.004 279.879 221.99 279.795 221.958 279.716C221.927 279.637 221.878 279.565 221.815 279.505C221.752 279.444 221.677 279.397 221.593 279.365C221.51 279.333 221.42 279.317 221.33 279.319V279.319Z" fill="#FFFFFF"/>
<path d="M147.208 274H146.792C144.99 274 143.263 274.737 141.989 276.049C140.716 277.361 140 279.141 140 280.997C140 282.852 140.716 284.632 141.989 285.944C143.263 287.256 144.99 287.993 146.792 287.993H147.137C148.356 288.007 149.556 287.678 150.607 287.041C150.663 287.006 150.726 286.987 150.791 286.986C150.855 286.985 150.919 287.002 150.976 287.035C151.032 287.068 151.079 287.115 151.111 287.173C151.144 287.231 151.161 287.296 151.161 287.363C151.169 287.529 151.237 287.687 151.351 287.804C151.465 287.922 151.618 287.992 151.78 288H153.329C153.49 287.99 153.641 287.92 153.754 287.802C153.867 287.685 153.934 287.528 153.941 287.363C153.941 287.363 154 281.171 154 280.997C153.998 279.142 153.282 277.363 152.009 276.051C150.736 274.739 149.009 274.002 147.208 274ZM147.078 278.266C147.211 278.27 147.344 278.284 147.475 278.307C147.817 278.334 148.151 278.43 148.457 278.589C148.763 278.749 149.036 278.969 149.259 279.237C149.482 279.505 149.652 279.816 149.759 280.152C149.866 280.488 149.907 280.842 149.881 281.195C149.855 281.547 149.762 281.891 149.607 282.206C149.452 282.521 149.238 282.802 148.978 283.032C148.718 283.262 148.416 283.437 148.09 283.547C147.764 283.657 147.42 283.7 147.078 283.673C146.914 283.676 146.751 283.663 146.59 283.633C146.057 283.541 145.565 283.28 145.182 282.887C144.8 282.494 144.545 281.988 144.454 281.439C144.383 281.047 144.398 280.643 144.498 280.257C144.598 279.871 144.781 279.513 145.032 279.209C145.284 278.905 145.598 278.662 145.952 278.499C146.306 278.336 146.691 278.257 147.078 278.266Z" fill="#FFFFFF"/>
<path d="M199.534 274H199.466C197.751 274 196.106 274.737 194.894 276.049C193.681 277.361 193 279.141 193 280.997C193 282.852 193.681 284.632 194.894 285.944C196.106 287.256 197.751 287.993 199.466 287.993C200.627 288.007 201.769 287.678 202.77 287.041C202.823 287.006 202.883 286.987 202.945 286.986C203.006 286.985 203.067 287.002 203.121 287.035C203.174 287.068 203.219 287.115 203.25 287.173C203.281 287.231 203.297 287.296 203.297 287.363C203.305 287.529 203.369 287.687 203.478 287.804C203.587 287.922 203.732 287.992 203.886 288H205.361C205.514 287.99 205.658 287.92 205.766 287.802C205.873 287.685 205.937 287.528 205.944 287.363C205.944 287.363 206 281.178 206 280.997C205.998 279.142 205.317 277.363 204.104 276.051C202.892 274.739 201.248 274.002 199.534 274V274ZM197.054 280.54C197.141 279.992 197.383 279.486 197.748 279.093C198.112 278.7 198.58 278.439 199.088 278.347C199.212 278.32 199.339 278.307 199.466 278.307C200.124 278.24 200.779 278.459 201.287 278.915C201.796 279.371 202.116 280.027 202.178 280.738C202.24 281.45 202.038 282.159 201.616 282.709C201.195 283.26 200.589 283.607 199.931 283.673C199.777 283.699 199.622 283.713 199.466 283.713C199.106 283.705 198.753 283.613 198.429 283.442C198.106 283.271 197.821 283.027 197.594 282.725C197.367 282.423 197.203 282.071 197.114 281.694C197.025 281.317 197.013 280.923 197.079 280.54H197.054Z" fill="#FFFFFF"/>
<path d="M172.04 281.748C172.222 283.453 173.025 285.031 174.295 286.182C175.566 287.334 177.215 287.978 178.929 287.993C180.186 288.007 181.422 287.678 182.505 287.041C182.562 287.006 182.627 286.987 182.694 286.986C182.76 286.985 182.826 287.002 182.884 287.035C182.942 287.068 182.99 287.115 183.024 287.173C183.058 287.231 183.075 287.296 183.075 287.363C183.083 287.529 183.153 287.687 183.271 287.804C183.389 287.922 183.546 287.992 183.712 288H185.309C185.474 287.99 185.63 287.92 185.746 287.802C185.863 287.685 185.932 287.528 185.94 287.363C185.94 287.363 186 281.178 186 280.997C185.998 279.142 185.26 277.363 183.949 276.051C182.637 274.739 180.858 274.002 179.003 274H178.929C177.953 274.01 176.99 274.225 176.101 274.629C175.213 275.034 174.419 275.62 173.77 276.349C173.121 277.079 172.632 277.936 172.334 278.866C172.036 279.796 171.936 280.777 172.04 281.748ZM176.347 280.54C176.44 279.992 176.703 279.486 177.097 279.093C177.491 278.7 177.998 278.439 178.547 278.347C178.682 278.32 178.819 278.307 178.956 278.307C179.668 278.24 180.377 278.459 180.927 278.915C181.478 279.371 181.824 280.027 181.891 280.738C181.958 281.45 181.739 282.159 181.283 282.709C180.827 283.26 180.171 283.607 179.459 283.673C179.293 283.699 179.125 283.713 178.956 283.713C178.565 283.709 178.179 283.62 177.826 283.45C177.473 283.281 177.161 283.037 176.912 282.735C176.664 282.432 176.484 282.079 176.386 281.7C176.289 281.321 176.275 280.925 176.347 280.54Z" fill="#FFFFFF"/>
<path d="M235.578 274.002H235.516C234.656 273.978 233.8 274.143 233 274.486C232.201 274.829 231.474 275.344 230.865 275.998C230.256 276.653 229.777 277.434 229.456 278.294C229.136 279.154 228.981 280.075 229.002 281.001C229.015 282.865 229.713 284.647 230.943 285.958C232.173 287.269 233.835 288.004 235.566 288C236.229 287.988 236.887 287.872 237.518 287.653C238.983 287.137 240.231 286.078 241.038 284.665C241.845 283.252 242.159 281.575 241.924 279.936C241.69 278.296 240.922 276.799 239.757 275.713C238.593 274.626 237.107 274.02 235.566 274.002H235.578ZM235.578 283.677C235.425 283.68 235.271 283.666 235.12 283.637C234.612 283.545 234.144 283.286 233.78 282.895C233.416 282.504 233.173 282.001 233.087 281.455C233.023 281.067 233.039 280.669 233.135 280.29C233.23 279.91 233.403 279.557 233.64 279.258C233.876 278.958 234.172 278.719 234.505 278.556C234.838 278.394 235.2 278.313 235.566 278.319C235.695 278.322 235.823 278.336 235.95 278.359C236.608 278.414 237.218 278.748 237.647 279.287C238.076 279.826 238.288 280.527 238.238 281.235C238.187 281.942 237.876 282.599 237.375 283.061C236.874 283.523 236.224 283.751 235.566 283.697L235.578 283.677Z" fill="#FFFFFF"/>
<path d="M169.808 217.209L165.803 222.616C165.687 222.781 165.519 222.9 165.328 222.953L167.76 217.267L167.149 215.244C167.919 215 168.45 214.651 168.597 214.233C168.666 214.29 168.727 214.356 168.778 214.43L169.842 216.105C169.947 216.27 170 216.465 169.994 216.662C169.988 216.86 169.923 217.051 169.808 217.209V217.209Z" fill="#FFFFFF"/>
<path d="M164.785 222.942C164.602 222.897 164.441 222.785 164.332 222.628L160.192 217.151C160.079 216.997 160.013 216.813 160.001 216.621C159.989 216.429 160.032 216.237 160.124 216.07L161.006 214.535C161.096 214.381 161.225 214.256 161.38 214.174C161.504 214.628 162.092 215.023 162.952 215.337L162.353 217.326L164.785 222.942Z" fill="#FFFFFF"/>
<path d="M168.597 214.233C168.45 214.651 167.918 215 167.149 215.244H167.025C166.364 215.424 165.683 215.514 165 215.512C164.356 215.512 163.714 215.433 163.088 215.279H162.952C162.093 215.023 161.504 214.628 161.38 214.116C161.508 214.043 161.652 214.003 161.798 214L167.986 213.942C168.218 213.957 168.436 214.06 168.597 214.233V214.233Z" fill="#FFFFFF"/>
<path d="M167.761 217.267L165.328 222.954C165.16 223.012 164.977 223.012 164.808 222.954L162.376 217.279L162.976 215.291H163.111C163.737 215.445 164.379 215.523 165.023 215.523C165.706 215.526 166.387 215.436 167.048 215.256H167.172L167.761 217.267Z" fill="#FFFFFF"/>
<path fill-rule="evenodd" clip-rule="evenodd" d="M192.977 756.441H292.328V757.441H192.977V756.441Z" fill="#FFFFFF"/>
<path fill-rule="evenodd" clip-rule="evenodd" d="M67 757.441H166.09V758.441H67V757.441Z" fill="#FFFFFF"/>
<path d="M183.29 757.805C181.438 759.383 180.204 761.608 179.796 764C179.262 761.618 177.912 759.477 175.977 757.993C178.624 756.802 179.701 753 179.701 753C179.701 753 181.041 756.949 183.29 757.805Z" fill="#FFFFFF"/>
<path d="M190.727 758.045C189.524 759.08 188.718 760.521 188.456 762.078C188.111 760.532 187.232 759.132 185.977 758.171C187.703 757.387 188.404 754.922 188.404 754.922C188.404 754.922 189.272 757.492 190.748 758.045H190.727Z" fill="#FFFFFF"/>
<path d="M173.727 758.045C172.524 759.08 171.718 760.521 171.456 762.078C171.111 760.532 170.232 759.132 168.977 758.171C170.703 757.387 171.404 754.922 171.404 754.922C171.404 754.922 172.272 757.492 173.748 758.045H173.727Z" fill="#FFFFFF"/>
<path d="M76.6527 735.426C76.6527 734.945 76.815 734.554 77.1397 734.252C77.4643 733.951 77.873 733.8 78.3657 733.8C78.8643 733.8 79.2759 733.951 79.6005 734.252C79.9252 734.554 80.0875 734.945 80.0875 735.426C80.0875 735.901 79.9252 736.29 79.6005 736.591C79.2817 736.887 78.8701 737.035 78.3657 737.035C77.8672 737.035 77.4556 736.887 77.131 736.591C76.8121 736.29 76.6527 735.901 76.6527 735.426ZM85.9814 737.522C85.2219 737.522 84.477 737.377 83.7466 737.087C83.0219 736.797 82.3495 736.33 81.7292 735.687L83.3031 733.47C83.5872 733.73 83.8625 733.945 84.1292 734.113C84.3959 734.275 84.6509 734.403 84.8944 734.496C85.1379 734.588 85.3669 734.652 85.5814 734.687C85.8017 734.722 86.0075 734.739 86.1988 734.739C86.3553 734.739 86.5234 734.73 86.7031 734.713C86.8828 734.69 87.0596 734.655 87.2335 734.609C87.4133 734.562 87.5814 734.504 87.7379 734.435C87.8944 734.365 88.0306 734.278 88.1466 734.174C87.9263 733.641 87.6857 733.087 87.4248 732.513C87.1698 731.933 86.9118 731.354 86.6509 730.774C86.3901 730.188 86.1321 729.609 85.877 729.035C85.6219 728.461 85.3843 727.91 85.164 727.383L87.7031 726.322L90.5727 733.252C90.677 733.507 90.7727 733.73 90.8596 733.922C90.9466 734.113 91.048 734.272 91.164 734.4C91.2857 734.528 91.4277 734.623 91.5901 734.687C91.7582 734.745 91.9727 734.774 92.2335 734.774H92.4857V737.522H92.2335C91.8799 737.522 91.5669 737.499 91.2944 737.452C91.0277 737.406 90.7872 737.339 90.5727 737.252C90.364 737.171 90.1756 737.072 90.0075 736.957C89.8451 736.835 89.6915 736.701 89.5466 736.557C89.2799 736.736 89.0133 736.887 88.7466 737.009C88.4799 737.136 88.2017 737.238 87.9118 737.313C87.6219 737.388 87.3176 737.441 86.9988 737.47C86.6857 737.504 86.3466 737.522 85.9814 737.522ZM92.1405 734.774H94.2275C94.4768 734.774 94.7521 734.762 95.0536 734.739C95.355 734.71 95.6362 734.655 95.8971 734.574C96.1637 734.493 96.384 734.374 96.5579 734.217C96.7376 734.055 96.8275 733.843 96.8275 733.583C96.8275 733.443 96.784 733.238 96.6971 732.965C96.6159 732.687 96.5058 732.38 96.3666 732.043C96.2333 731.701 96.0797 731.345 95.9058 730.974C95.7376 730.603 95.5695 730.249 95.4014 729.913L97.8884 728.678C98.0507 729.043 98.2101 729.432 98.3666 729.843C98.5289 730.255 98.6739 730.672 98.8014 731.096C98.9289 731.519 99.0304 731.942 99.1058 732.365C99.1869 732.783 99.2275 733.183 99.2275 733.565C99.2275 734.284 99.0942 734.896 98.8275 735.4C98.5666 735.899 98.2101 736.307 97.7579 736.626C97.3058 736.939 96.7753 737.165 96.1666 737.304C95.5579 737.449 94.9058 737.522 94.2101 737.522H92.1405V734.774ZM95.5318 740.07L93.8971 741.704L92.2101 740.026L93.8797 738.348L95.5318 740L97.1666 738.365L98.8536 740.043L97.184 741.722L95.5318 740.07ZM104.243 737.522C103.484 737.522 102.739 737.377 102.008 737.087C101.284 736.797 100.611 736.33 99.9909 735.687L101.565 733.47C101.849 733.73 102.124 733.945 102.391 734.113C102.658 734.275 102.913 734.403 103.156 734.496C103.4 734.588 103.629 734.652 103.843 734.687C104.063 734.722 104.269 734.739 104.46 734.739C104.617 734.739 104.785 734.73 104.965 734.713C105.145 734.69 105.321 734.655 105.495 734.609C105.675 734.562 105.843 734.504 106 734.435C106.156 734.365 106.292 734.278 106.408 734.174C106.188 733.641 105.947 733.087 105.687 732.513C105.431 731.933 105.174 731.354 104.913 730.774C104.652 730.188 104.394 729.609 104.139 729.035C103.884 728.461 103.646 727.91 103.426 727.383L105.965 726.322L108.834 733.252C108.939 733.507 109.034 733.73 109.121 733.922C109.208 734.113 109.31 734.272 109.426 734.4C109.547 734.528 109.689 734.623 109.852 734.687C110.02 734.745 110.234 734.774 110.495 734.774H110.747V737.522H110.495C110.142 737.522 109.829 737.499 109.556 737.452C109.289 737.406 109.049 737.339 108.834 737.252C108.626 737.171 108.437 737.072 108.269 736.957C108.107 736.835 107.953 736.701 107.808 736.557C107.542 736.736 107.275 736.887 107.008 737.009C106.742 737.136 106.463 737.238 106.174 737.313C105.884 737.388 105.579 737.441 105.26 737.47C104.947 737.504 104.608 737.522 104.243 737.522ZM117.941 737.496C117.594 737.496 117.234 737.458 116.863 737.383C116.492 737.313 116.127 737.217 115.767 737.096C115.414 736.974 115.072 736.835 114.741 736.678C114.417 736.516 114.127 736.351 113.872 736.183C113.681 736.438 113.475 736.652 113.254 736.826C113.04 736.994 112.808 737.13 112.559 737.235C112.315 737.339 112.049 737.412 111.759 737.452C111.475 737.499 111.167 737.522 110.837 737.522H110.402V734.774H110.837C111.22 734.774 111.541 734.696 111.802 734.539C112.063 734.383 112.286 734.183 112.472 733.939C112.657 733.69 112.82 733.417 112.959 733.122C113.104 732.82 113.252 732.528 113.402 732.243C113.576 731.89 113.77 731.536 113.985 731.183C114.205 730.829 114.457 730.51 114.741 730.226C115.025 729.942 115.344 729.713 115.698 729.539C116.057 729.359 116.46 729.27 116.907 729.27C117.515 729.27 118.037 729.412 118.472 729.696C118.912 729.974 119.275 730.342 119.559 730.8C119.843 731.252 120.052 731.768 120.185 732.348C120.324 732.922 120.394 733.501 120.394 734.087C120.394 734.58 120.321 735.035 120.176 735.452C120.031 735.87 119.843 736.229 119.611 736.53C119.379 736.832 119.115 737.067 118.82 737.235C118.53 737.409 118.237 737.496 117.941 737.496ZM116.828 731.922C116.66 731.922 116.504 731.988 116.359 732.122C116.214 732.249 116.078 732.409 115.95 732.6C115.823 732.791 115.707 733 115.602 733.226C115.504 733.452 115.414 733.661 115.333 733.852C115.524 733.974 115.741 734.087 115.985 734.191C116.228 734.296 116.481 734.388 116.741 734.47C117.002 734.545 117.266 734.609 117.533 734.661C117.799 734.713 118.054 734.751 118.298 734.774C118.327 734.42 118.31 734.072 118.246 733.73C118.182 733.388 118.081 733.084 117.941 732.817C117.808 732.551 117.646 732.336 117.454 732.174C117.263 732.006 117.054 731.922 116.828 731.922ZM122.6 737.548C122.629 737.072 122.658 736.58 122.687 736.07C122.716 735.559 122.739 735.055 122.756 734.557C122.78 734.058 122.794 733.574 122.8 733.104C122.806 732.635 122.8 732.203 122.782 731.809C122.748 730.939 122.713 730.18 122.678 729.53C122.643 728.875 122.609 728.301 122.574 727.809C122.545 727.31 122.513 726.878 122.478 726.513C122.443 726.142 122.406 725.803 122.365 725.496L125.043 724.643C125.124 725.304 125.188 725.959 125.235 726.609C125.287 727.252 125.327 727.867 125.356 728.452C125.385 729.032 125.403 729.574 125.409 730.078C125.42 730.577 125.426 731.012 125.426 731.383C125.426 731.783 125.423 732.214 125.417 732.678C125.417 733.142 125.411 733.623 125.4 734.122C125.394 734.62 125.382 735.125 125.365 735.635C125.348 736.145 125.322 736.643 125.287 737.13L122.6 737.548ZM120.304 723.704C120.356 723.414 120.458 723.136 120.609 722.87C120.759 722.603 120.939 722.368 121.148 722.165C121.356 721.962 121.585 721.803 121.835 721.687C122.09 721.565 122.351 721.504 122.617 721.504C122.89 721.504 123.13 721.536 123.339 721.6C123.553 721.664 123.753 721.736 123.939 721.817C124.188 721.922 124.406 721.991 124.591 722.026C124.782 722.055 124.956 722.043 125.113 721.991C125.275 721.939 125.429 721.846 125.574 721.713C125.724 721.58 125.884 721.403 126.052 721.183L127.243 721.948C127.238 721.965 127.206 722.014 127.148 722.096C127.09 722.177 127.009 722.275 126.904 722.391C126.806 722.507 126.684 722.632 126.539 722.765C126.394 722.893 126.232 723.014 126.052 723.13C125.872 723.241 125.678 723.333 125.469 723.409C125.261 723.484 125.04 723.525 124.809 723.53C124.577 723.536 124.365 723.51 124.174 723.452C123.982 723.394 123.797 723.33 123.617 723.261C123.438 723.191 123.252 723.13 123.061 723.078C122.875 723.02 122.672 722.994 122.452 723C122.301 723.006 122.18 723.055 122.087 723.148C121.994 723.235 121.922 723.339 121.869 723.461C121.817 723.583 121.777 723.707 121.748 723.835C121.724 723.962 121.701 724.061 121.678 724.13L120.304 723.704ZM154.555 728.348C154.589 728.417 154.65 728.545 154.737 728.73C154.83 728.91 154.934 729.13 155.05 729.391C155.166 729.646 155.288 729.933 155.416 730.252C155.543 730.571 155.659 730.907 155.763 731.261C155.868 731.609 155.952 731.965 156.016 732.33C156.085 732.696 156.12 733.049 156.12 733.391C156.114 733.965 156.027 734.501 155.859 735C155.697 735.499 155.456 735.933 155.137 736.304C154.818 736.67 154.424 736.959 153.955 737.174C153.485 737.388 152.943 737.496 152.329 737.496C151.795 737.496 151.358 737.406 151.016 737.226C150.679 737.046 150.401 736.8 150.181 736.487C150.059 736.643 149.929 736.786 149.789 736.913C149.65 737.035 149.485 737.139 149.294 737.226C149.108 737.319 148.888 737.388 148.633 737.435C148.384 737.481 148.085 737.504 147.737 737.504C147.494 737.504 147.271 737.487 147.068 737.452C146.865 737.417 146.679 737.374 146.511 737.322C146.505 738 146.401 738.617 146.198 739.174C146.001 739.73 145.729 740.229 145.381 740.67C145.039 741.11 144.636 741.493 144.172 741.817C143.708 742.142 143.21 742.409 142.676 742.617C142.143 742.832 141.584 742.991 140.998 743.096C140.418 743.2 139.842 743.252 139.268 743.252C138.381 743.252 137.561 743.104 136.807 742.809C136.053 742.519 135.401 742.107 134.85 741.574C134.305 741.046 133.879 740.409 133.572 739.661C133.265 738.919 133.111 738.099 133.111 737.2C133.129 736.678 133.198 736.145 133.32 735.6C133.447 735.055 133.607 734.522 133.798 734C133.995 733.478 134.213 732.983 134.45 732.513C134.694 732.038 134.94 731.612 135.189 731.235L137.085 732.696C136.876 733.038 136.674 733.4 136.476 733.783C136.279 734.165 136.105 734.554 135.955 734.948C135.804 735.342 135.682 735.736 135.589 736.13C135.497 736.525 135.45 736.904 135.45 737.27C135.433 737.71 135.52 738.125 135.711 738.513C135.908 738.901 136.178 739.241 136.52 739.53C136.868 739.826 137.274 740.058 137.737 740.226C138.207 740.394 138.705 740.478 139.233 740.478C139.83 740.478 140.381 740.423 140.885 740.313C141.395 740.203 141.845 740.049 142.233 739.852C142.627 739.661 142.958 739.426 143.224 739.148C143.491 738.875 143.682 738.574 143.798 738.243L143.789 738.252C143.934 737.794 144.007 737.304 144.007 736.783C144.007 736.394 143.952 736 143.842 735.6C143.732 735.2 143.589 734.797 143.416 734.391C143.242 733.98 143.047 733.568 142.833 733.157C142.624 732.739 142.418 732.322 142.216 731.904L144.598 730.565C144.749 730.907 144.9 731.252 145.05 731.6C145.201 731.948 145.352 732.281 145.503 732.6C145.659 732.913 145.818 733.206 145.981 733.478C146.143 733.751 146.311 733.986 146.485 734.183C146.659 734.374 146.839 734.519 147.024 734.617C147.216 734.716 147.418 734.751 147.633 734.722C147.876 734.687 148.074 734.603 148.224 734.47C148.375 734.33 148.488 734.159 148.563 733.957C148.645 733.754 148.694 733.528 148.711 733.278C148.734 733.023 148.74 732.765 148.729 732.504C148.717 732.243 148.697 731.986 148.668 731.73C148.645 731.475 148.624 731.241 148.607 731.026L151.007 730.704C151.047 730.884 151.082 731.101 151.111 731.357C151.14 731.606 151.172 731.87 151.207 732.148C151.247 732.426 151.297 732.707 151.355 732.991C151.413 733.275 151.491 733.539 151.589 733.783C151.688 734.026 151.81 734.238 151.955 734.417C152.1 734.597 152.282 734.725 152.503 734.8C152.682 734.8 152.85 734.768 153.007 734.704C153.163 734.635 153.3 734.536 153.416 734.409C153.532 734.281 153.621 734.125 153.685 733.939C153.755 733.748 153.789 733.528 153.789 733.278C153.789 733.07 153.749 732.829 153.668 732.557C153.592 732.278 153.488 731.98 153.355 731.661C153.221 731.342 153.065 731.009 152.885 730.661C152.711 730.307 152.526 729.951 152.329 729.591L154.555 728.348ZM149.703 726.565L148.068 728.2L146.381 726.522L148.05 724.843L149.703 726.496L151.337 724.861L153.024 726.539L151.355 728.217L149.703 726.565ZM151.259 724.026L149.711 725.574L148.155 724.017L149.703 722.47L151.259 724.026ZM156.581 740.974C157.399 740.812 158.144 740.606 158.816 740.357C159.489 740.113 160.077 739.838 160.581 739.53C161.092 739.229 161.512 738.907 161.842 738.565C162.178 738.223 162.416 737.875 162.555 737.522C162.306 737.522 162.042 737.516 161.764 737.504C161.486 737.499 161.257 737.49 161.077 737.478C160.503 737.432 159.981 737.322 159.512 737.148C159.042 736.98 158.636 736.748 158.294 736.452C157.958 736.151 157.697 735.786 157.512 735.357C157.326 734.928 157.234 734.435 157.234 733.878C157.234 733.525 157.271 733.162 157.347 732.791C157.422 732.42 157.529 732.058 157.668 731.704C157.813 731.351 157.99 731.017 158.199 730.704C158.413 730.391 158.654 730.116 158.92 729.878C159.187 729.641 159.48 729.455 159.799 729.322C160.123 729.183 160.471 729.113 160.842 729.113C161.283 729.113 161.689 729.194 162.06 729.357C162.431 729.513 162.77 729.728 163.077 730C163.39 730.272 163.665 730.594 163.903 730.965C164.147 731.33 164.355 731.725 164.529 732.148C164.709 732.565 164.854 733 164.964 733.452C165.08 733.899 165.161 734.339 165.207 734.774H165.581V737.522H165.025C164.799 738.374 164.436 739.145 163.938 739.835C163.445 740.53 162.854 741.136 162.164 741.652C161.474 742.168 160.706 742.594 159.86 742.93C159.019 743.267 158.141 743.504 157.225 743.643L156.581 740.974ZM160.842 731.87C160.72 731.846 160.581 731.89 160.425 732C160.268 732.104 160.123 732.249 159.99 732.435C159.857 732.614 159.744 732.814 159.651 733.035C159.558 733.255 159.515 733.467 159.52 733.67C159.526 733.867 159.59 734.029 159.712 734.157C159.834 734.284 159.99 734.391 160.181 734.478C160.373 734.559 160.587 734.62 160.825 734.661C161.068 734.701 161.309 734.73 161.547 734.748C161.784 734.765 162.007 734.774 162.216 734.774H162.755C162.668 734.414 162.564 734.07 162.442 733.739C162.326 733.409 162.19 733.113 162.034 732.852C161.877 732.591 161.7 732.374 161.503 732.2C161.306 732.026 161.086 731.916 160.842 731.87ZM165.226 734.774H167.061C168 734.774 168.861 734.719 169.644 734.609C170.432 734.493 171.169 734.339 171.853 734.148C172.537 733.957 173.183 733.736 173.792 733.487C174.406 733.232 175.009 732.968 175.6 732.696C175.206 732.586 174.809 732.449 174.409 732.287C174.015 732.125 173.618 731.968 173.218 731.817C172.824 731.667 172.429 731.539 172.035 731.435C171.641 731.325 171.25 731.27 170.861 731.27C170.595 731.27 170.331 731.342 170.07 731.487C169.815 731.632 169.583 731.797 169.374 731.983C169.166 732.168 168.992 732.351 168.853 732.53C168.713 732.704 168.626 732.823 168.592 732.887L166.583 731.591C166.803 731.203 167.064 730.823 167.366 730.452C167.667 730.081 167.997 729.754 168.357 729.47C168.722 729.18 169.113 728.948 169.531 728.774C169.954 728.6 170.397 728.513 170.861 728.513C171.203 728.513 171.545 728.551 171.887 728.626C172.229 728.696 172.569 728.788 172.905 728.904C173.247 729.02 173.583 729.154 173.913 729.304C174.244 729.449 174.571 729.597 174.896 729.748C175.203 729.893 175.513 730.038 175.826 730.183C176.14 730.322 176.461 730.452 176.792 730.574C177.122 730.69 177.464 730.786 177.818 730.861C178.171 730.936 178.545 730.977 178.94 730.983L178.722 733.652L177.487 734.243C176.983 734.487 176.482 734.739 175.983 735C175.484 735.255 174.977 735.504 174.461 735.748C173.945 735.986 173.412 736.214 172.861 736.435C172.311 736.649 171.734 736.838 171.131 737C170.528 737.157 169.89 737.281 169.218 737.374C168.545 737.472 167.826 737.522 167.061 737.522H165.226V734.774ZM170.853 727.678L168.922 725.748L170.853 723.817L172.783 725.748L170.853 727.678ZM185.507 740.974C186.325 740.812 187.069 740.606 187.742 740.357C188.414 740.113 189.003 739.838 189.507 739.53C190.017 739.229 190.438 738.907 190.768 738.565C191.104 738.223 191.342 737.875 191.481 737.522C191.232 737.522 190.968 737.516 190.69 737.504C190.411 737.499 190.183 737.49 190.003 737.478C189.429 737.432 188.907 737.322 188.438 737.148C187.968 736.98 187.562 736.748 187.22 736.452C186.884 736.151 186.623 735.786 186.438 735.357C186.252 734.928 186.159 734.435 186.159 733.878C186.159 733.525 186.197 733.162 186.272 732.791C186.348 732.42 186.455 732.058 186.594 731.704C186.739 731.351 186.916 731.017 187.125 730.704C187.339 730.391 187.58 730.116 187.846 729.878C188.113 729.641 188.406 729.455 188.725 729.322C189.049 729.183 189.397 729.113 189.768 729.113C190.209 729.113 190.614 729.194 190.985 729.357C191.356 729.513 191.696 729.728 192.003 730C192.316 730.272 192.591 730.594 192.829 730.965C193.072 731.33 193.281 731.725 193.455 732.148C193.635 732.565 193.78 733 193.89 733.452C194.006 733.899 194.087 734.339 194.133 734.774H194.507V737.522H193.951C193.725 738.374 193.362 739.145 192.864 739.835C192.371 740.53 191.78 741.136 191.09 741.652C190.4 742.168 189.632 742.594 188.785 742.93C187.945 743.267 187.067 743.504 186.151 743.643L185.507 740.974ZM189.768 731.87C189.646 731.846 189.507 731.89 189.351 732C189.194 732.104 189.049 732.249 188.916 732.435C188.783 732.614 188.669 732.814 188.577 733.035C188.484 733.255 188.44 733.467 188.446 733.67C188.452 733.867 188.516 734.029 188.638 734.157C188.759 734.284 188.916 734.391 189.107 734.478C189.298 734.559 189.513 734.62 189.751 734.661C189.994 734.701 190.235 734.73 190.472 734.748C190.71 734.765 190.933 734.774 191.142 734.774H191.681C191.594 734.414 191.49 734.07 191.368 733.739C191.252 733.409 191.116 733.113 190.959 732.852C190.803 732.591 190.626 732.374 190.429 732.2C190.232 732.026 190.011 731.916 189.768 731.87ZM194.152 734.774H196.239C196.488 734.774 196.764 734.762 197.065 734.739C197.367 734.71 197.648 734.655 197.909 734.574C198.175 734.493 198.396 734.374 198.57 734.217C198.749 734.055 198.839 733.843 198.839 733.583C198.839 733.443 198.796 733.238 198.709 732.965C198.628 732.687 198.517 732.38 198.378 732.043C198.245 731.701 198.091 731.345 197.917 730.974C197.749 730.603 197.581 730.249 197.413 729.913L199.9 728.678C200.062 729.043 200.222 729.432 200.378 729.843C200.541 730.255 200.686 730.672 200.813 731.096C200.941 731.519 201.042 731.942 201.117 732.365C201.199 732.783 201.239 733.183 201.239 733.565C201.239 734.284 201.106 734.896 200.839 735.4C200.578 735.899 200.222 736.307 199.77 736.626C199.317 736.939 198.787 737.165 198.178 737.304C197.57 737.449 196.917 737.522 196.222 737.522H194.152V734.774ZM198.204 725.809L196.57 727.443L194.883 725.765L196.552 724.087L198.204 725.739L199.839 724.104L201.526 725.783L199.857 727.461L198.204 725.809ZM213.99 734.774V737.522H213.468C212.842 737.522 212.311 737.406 211.876 737.174C211.447 736.942 211.097 736.597 210.824 736.139C210.79 736.186 210.752 736.229 210.711 736.27L210.598 736.383C210.262 736.69 209.888 736.954 209.476 737.174C209.065 737.4 208.63 737.588 208.172 737.739C207.714 737.89 207.242 738 206.755 738.07C206.274 738.145 205.795 738.183 205.32 738.183C205.042 738.183 204.74 738.168 204.416 738.139C204.091 738.11 203.743 738.07 203.372 738.017L203.842 735.287C204.294 735.345 204.668 735.388 204.963 735.417C205.265 735.446 205.517 735.461 205.72 735.461C205.824 735.461 205.961 735.455 206.129 735.443C206.303 735.426 206.45 735.412 206.572 735.4C206.514 734.919 206.401 734.426 206.233 733.922C206.071 733.417 205.874 732.916 205.642 732.417C205.416 731.919 205.163 731.432 204.885 730.957C204.613 730.481 204.337 730.032 204.059 729.609C203.781 729.186 203.508 728.797 203.242 728.443C202.981 728.084 202.746 727.777 202.537 727.522C202.334 727.261 202.169 727.055 202.042 726.904C201.914 726.754 201.847 726.675 201.842 726.67L203.85 724.609C204.337 725.241 204.784 725.878 205.19 726.522C205.601 727.159 205.975 727.788 206.311 728.409C206.647 729.023 206.949 729.62 207.216 730.2C207.482 730.78 207.717 731.325 207.92 731.835C208.123 732.345 208.294 732.814 208.433 733.243C208.578 733.672 208.694 734.043 208.781 734.357C208.932 734.264 209.076 734.145 209.216 734C209.361 733.849 209.488 733.678 209.598 733.487C209.708 733.29 209.795 733.075 209.859 732.843C209.929 732.606 209.963 732.357 209.963 732.096C209.963 732.078 209.961 732.055 209.955 732.026C209.955 731.997 209.949 731.945 209.937 731.87C209.926 731.788 209.908 731.672 209.885 731.522C209.862 731.365 209.827 731.157 209.781 730.896C209.734 730.629 209.676 730.299 209.607 729.904C209.543 729.51 209.459 729.029 209.355 728.461C209.256 727.887 209.14 727.22 209.007 726.461C208.874 725.696 208.72 724.814 208.546 723.817L211.172 723.183C211.172 723.194 211.19 723.316 211.224 723.548C211.265 723.774 211.314 724.081 211.372 724.47C211.43 724.858 211.497 725.31 211.572 725.826C211.647 726.342 211.723 726.896 211.798 727.487C211.879 728.078 211.955 728.69 212.024 729.322C212.1 729.954 212.166 730.577 212.224 731.191C212.294 731.696 212.363 732.168 212.433 732.609C212.508 733.043 212.601 733.423 212.711 733.748C212.827 734.067 212.972 734.319 213.146 734.504C213.32 734.684 213.543 734.774 213.816 734.774H213.99ZM213.644 734.774H214.801C214.9 734.606 215.036 734.38 215.21 734.096C215.384 733.812 215.61 733.496 215.888 733.148C215.934 732.783 215.975 732.336 216.01 731.809C216.044 731.275 216.065 730.693 216.071 730.061C216.071 729.713 216.059 729.319 216.036 728.878C216.013 728.432 215.978 727.948 215.931 727.426C215.891 726.904 215.839 726.351 215.775 725.765C215.711 725.18 215.642 724.571 215.566 723.939L218.366 723.226C218.447 723.823 218.52 724.4 218.584 724.957C218.647 725.513 218.7 726.07 218.74 726.626C218.786 727.183 218.821 727.748 218.844 728.322C218.868 728.89 218.879 729.484 218.879 730.104C219.181 729.867 219.491 729.643 219.81 729.435C220.134 729.22 220.468 729.035 220.81 728.878C221.157 728.722 221.517 728.6 221.888 728.513C222.259 728.42 222.65 728.374 223.062 728.374C223.537 728.374 223.986 728.449 224.41 728.6C224.833 728.751 225.207 728.968 225.531 729.252C225.862 729.536 226.131 729.881 226.34 730.287C226.555 730.693 226.688 731.151 226.74 731.661C226.769 732.357 226.685 732.986 226.488 733.548C226.291 734.11 226.01 734.609 225.644 735.043C225.285 735.478 224.853 735.852 224.349 736.165C223.85 736.478 223.308 736.736 222.723 736.939C222.143 737.142 221.537 737.29 220.905 737.383C220.273 737.481 219.644 737.53 219.018 737.53L213.871 737.522H213.644V734.774ZM222.792 731.157C222.444 731.151 222.05 731.235 221.61 731.409C221.175 731.577 220.729 731.82 220.271 732.139C219.813 732.458 219.36 732.841 218.914 733.287C218.473 733.733 218.071 734.229 217.705 734.774C217.908 734.791 218.12 734.806 218.34 734.817C218.56 734.823 218.763 734.826 218.949 734.826C219.818 734.826 220.601 734.742 221.297 734.574C221.998 734.4 222.592 734.183 223.079 733.922C223.572 733.655 223.946 733.365 224.201 733.052C224.462 732.733 224.584 732.426 224.566 732.13C224.537 731.957 224.462 731.809 224.34 731.687C224.224 731.565 224.082 731.467 223.914 731.391C223.746 731.316 223.563 731.261 223.366 731.226C223.169 731.186 222.978 731.162 222.792 731.157ZM238.497 731.148C238.619 731.507 238.746 731.901 238.88 732.33C239.019 732.754 239.143 733.188 239.254 733.635C239.369 734.081 239.465 734.528 239.541 734.974C239.616 735.414 239.654 735.829 239.654 736.217C239.654 736.762 239.578 737.293 239.427 737.809C239.283 738.33 239.074 738.835 238.801 739.322C238.535 739.809 238.216 740.275 237.845 740.722C237.474 741.168 237.062 741.588 236.61 741.983C236.158 742.383 235.674 742.751 235.158 743.087C234.642 743.429 234.109 743.736 233.558 744.009L231.975 741.809C232.393 741.6 232.816 741.362 233.245 741.096C233.668 740.835 234.074 740.554 234.462 740.252C234.856 739.951 235.222 739.635 235.558 739.304C235.9 738.974 236.196 738.638 236.445 738.296C236.7 737.954 236.9 737.606 237.045 737.252C237.19 736.904 237.262 736.562 237.262 736.226C237.262 735.983 237.227 735.719 237.158 735.435C237.094 735.151 237.004 734.846 236.888 734.522C236.772 734.191 236.636 733.843 236.48 733.478C236.329 733.107 236.164 732.713 235.984 732.296L238.497 731.148ZM241.253 737.548C241.282 737.072 241.311 736.58 241.34 736.07C241.369 735.559 241.392 735.055 241.41 734.557C241.433 734.058 241.447 733.574 241.453 733.104C241.459 732.635 241.453 732.203 241.436 731.809C241.401 730.986 241.366 730.264 241.332 729.643C241.303 729.017 241.271 728.464 241.236 727.983C241.207 727.501 241.175 727.081 241.14 726.722C241.111 726.357 241.079 726.023 241.045 725.722C241.01 725.42 240.972 725.139 240.932 724.878C240.891 724.612 240.847 724.336 240.801 724.052L243.488 723.165C243.616 723.942 243.717 724.725 243.792 725.513C243.874 726.301 243.934 727.058 243.975 727.783C244.016 728.501 244.042 729.171 244.053 729.791C244.071 730.412 244.079 730.942 244.079 731.383C244.079 731.783 244.076 732.214 244.071 732.678C244.071 733.142 244.065 733.623 244.053 734.122C244.047 734.62 244.036 735.125 244.018 735.635C244.001 736.145 243.975 736.643 243.94 737.13L241.253 737.548ZM249.591 731.148C249.713 731.507 249.84 731.901 249.973 732.33C250.113 732.754 250.237 733.188 250.347 733.635C250.463 734.081 250.559 734.528 250.634 734.974C250.71 735.414 250.747 735.829 250.747 736.217C250.747 736.762 250.672 737.293 250.521 737.809C250.376 738.33 250.168 738.835 249.895 739.322C249.628 739.809 249.31 740.275 248.939 740.722C248.568 741.168 248.156 741.588 247.704 741.983C247.252 742.383 246.768 742.751 246.252 743.087C245.736 743.429 245.202 743.736 244.652 744.009L243.069 741.809C243.486 741.6 243.91 741.362 244.339 741.096C244.762 740.835 245.168 740.554 245.556 740.252C245.95 739.951 246.315 739.635 246.652 739.304C246.994 738.974 247.289 738.638 247.539 738.296C247.794 737.954 247.994 737.606 248.139 737.252C248.284 736.904 248.356 736.562 248.356 736.226C248.356 735.983 248.321 735.719 248.252 735.435C248.188 735.151 248.098 734.846 247.982 734.522C247.866 734.191 247.73 733.843 247.573 733.478C247.423 733.107 247.257 732.713 247.078 732.296L249.591 731.148ZM248.113 729.452L246.182 727.522L248.113 725.591L250.043 727.522L248.113 729.452ZM256.655 737.522C255.931 737.522 255.316 737.423 254.812 737.226C254.308 737.035 253.896 736.768 253.577 736.426C253.258 736.084 253.026 735.681 252.881 735.217C252.742 734.748 252.673 734.241 252.673 733.696C252.673 733.417 252.679 733.072 252.69 732.661C252.702 732.243 252.708 731.762 252.708 731.217C252.708 730.672 252.705 730.075 252.699 729.426C252.693 728.771 252.676 728.116 252.647 727.461C252.623 726.806 252.586 726.177 252.534 725.574C252.487 724.971 252.421 724.446 252.334 724L254.934 723.209C255.009 723.591 255.07 724.043 255.116 724.565C255.168 725.081 255.209 725.623 255.238 726.191C255.267 726.759 255.287 727.33 255.299 727.904C255.316 728.478 255.328 729.012 255.334 729.504C255.339 729.939 255.331 730.397 255.308 730.878C255.29 731.354 255.276 731.812 255.264 732.252C255.252 732.687 255.255 733.081 255.273 733.435C255.296 733.788 255.351 734.058 255.438 734.243C255.49 734.377 255.554 734.478 255.629 734.548C255.71 734.617 255.803 734.67 255.908 734.704C256.012 734.739 256.125 734.759 256.247 734.765C256.374 734.771 256.513 734.774 256.664 734.774H256.899V737.522H256.655ZM256.555 734.774H257.729C257.972 734.774 258.239 734.754 258.529 734.713C258.824 734.672 259.097 734.609 259.346 734.522C259.601 734.429 259.813 734.307 259.981 734.157C260.155 734 260.242 733.809 260.242 733.583C260.242 733.443 260.201 733.238 260.12 732.965C260.039 732.687 259.931 732.38 259.798 732.043C259.665 731.701 259.514 731.345 259.346 730.974C259.178 730.603 259.01 730.249 258.842 729.913L261.329 728.678C261.491 729.043 261.65 729.432 261.807 729.843C261.969 730.255 262.114 730.672 262.242 731.096C262.369 731.519 262.471 731.942 262.546 732.365C262.627 732.783 262.668 733.183 262.668 733.565C262.668 734.261 262.552 734.858 262.32 735.357C262.088 735.855 261.763 736.267 261.346 736.591C260.929 736.91 260.43 737.145 259.85 737.296C259.271 737.446 258.633 737.522 257.937 737.522H256.555V734.774ZM259.363 742.287L257.433 740.357L259.363 738.426L261.294 740.357L259.363 742.287ZM273.725 736.304C273.156 736.304 272.623 736.246 272.125 736.13C271.626 736.014 271.191 735.835 270.82 735.591C270.449 735.348 270.156 735.038 269.942 734.661C269.727 734.284 269.62 733.832 269.62 733.304C269.62 732.904 269.693 732.528 269.838 732.174C269.988 731.814 270.183 731.481 270.42 731.174C270.664 730.861 270.936 730.577 271.238 730.322C271.545 730.061 271.852 729.829 272.159 729.626C272.472 729.423 272.771 729.252 273.055 729.113C273.345 728.974 273.597 728.867 273.812 728.791C273.806 728.722 273.8 728.652 273.794 728.583C273.788 728.507 273.783 728.417 273.777 728.313C273.771 728.209 273.762 728.087 273.751 727.948C273.739 727.809 273.725 727.638 273.707 727.435L276.42 726.852C276.542 727.942 276.658 728.936 276.768 729.835C276.878 730.733 276.974 731.507 277.055 732.157C277.142 732.806 277.212 733.316 277.264 733.687C277.322 734.058 277.356 734.255 277.368 734.278C277.455 734.464 277.583 734.594 277.751 734.67C277.925 734.739 278.159 734.774 278.455 734.774H278.646V737.522H278.394C278.151 737.522 277.87 737.499 277.551 737.452C277.232 737.412 276.898 737.31 276.551 737.148C276.307 737.032 276.093 736.901 275.907 736.757C275.727 736.606 275.554 736.417 275.385 736.191C275.09 736.232 274.803 736.261 274.525 736.278C274.252 736.296 273.985 736.304 273.725 736.304ZM273.672 733.574C273.794 733.574 273.919 733.571 274.046 733.565C274.18 733.554 274.307 733.542 274.429 733.53C274.412 733.432 274.394 733.325 274.377 733.209C274.365 733.087 274.348 732.942 274.325 732.774C274.307 732.6 274.284 732.394 274.255 732.157C274.226 731.919 274.194 731.629 274.159 731.287C273.939 731.397 273.693 731.53 273.42 731.687C273.148 731.838 272.89 732 272.646 732.174C272.409 732.342 272.209 732.516 272.046 732.696C271.884 732.87 271.803 733.032 271.803 733.183C271.803 733.258 271.867 733.322 271.994 733.374C272.127 733.42 272.29 733.461 272.481 733.496C272.672 733.525 272.875 733.545 273.09 733.557C273.304 733.568 273.498 733.574 273.672 733.574ZM278.293 734.774H279.467C279.71 734.774 279.977 734.754 280.267 734.713C280.562 734.672 280.835 734.609 281.084 734.522C281.339 734.429 281.551 734.307 281.719 734.157C281.893 734 281.98 733.809 281.98 733.583C281.98 733.443 281.939 733.238 281.858 732.965C281.777 732.687 281.67 732.38 281.536 732.043C281.403 731.701 281.252 731.345 281.084 730.974C280.916 730.603 280.748 730.249 280.58 729.913L283.067 728.678C283.229 729.043 283.389 729.432 283.545 729.843C283.707 730.255 283.852 730.672 283.98 731.096C284.107 731.519 284.209 731.942 284.284 732.365C284.365 732.783 284.406 733.183 284.406 733.565C284.406 734.261 284.29 734.858 284.058 735.357C283.826 735.855 283.502 736.267 283.084 736.591C282.667 736.91 282.168 737.145 281.589 737.296C281.009 737.446 280.371 737.522 279.675 737.522H278.293V734.774ZM281.102 742.287L279.171 740.357L281.102 738.426L283.032 740.357L281.102 742.287Z" fill="#FFFFFF"/>
</svg>
