<svg width="328" height="40" viewBox="0 0 328 40" fill="none" xmlns="http://www.w3.org/2000/svg">
<rect x="0.5" y="0.5" width="327" height="39" rx="4.5" fill="#F20000" fill-opacity="0.1" stroke="#F20000"/>
<circle cx="308" cy="20" r="13" fill="#F20000" fill-opacity="0.2"/>
<circle cx="308.001" cy="19.9999" r="8.66667" fill="#F20000"/>
<path d="M311.503 15.667C311.289 15.672 311.086 15.7615 310.938 15.916L307.999 18.8543L305.061 15.916C304.985 15.8382 304.895 15.7764 304.795 15.7341C304.695 15.6919 304.588 15.6701 304.48 15.6701C304.318 15.6702 304.161 15.7183 304.027 15.8084C303.893 15.8985 303.789 16.0265 303.729 16.1759C303.668 16.3254 303.654 16.4895 303.687 16.6473C303.72 16.8051 303.799 16.9494 303.915 17.0618L306.853 20.0001L303.915 22.9385C303.837 23.0132 303.775 23.1026 303.733 23.2015C303.69 23.3005 303.667 23.407 303.666 23.5148C303.665 23.6226 303.685 23.7295 303.726 23.8293C303.767 23.9292 303.827 24.0198 303.903 24.0961C303.98 24.1723 304.07 24.2325 304.17 24.2733C304.27 24.314 304.377 24.3345 304.485 24.3334C304.592 24.3323 304.699 24.3097 304.798 24.2669C304.897 24.2241 304.986 24.1621 305.061 24.0843L307.999 21.1459L310.938 24.0843C311.012 24.1621 311.102 24.2241 311.201 24.2669C311.3 24.3097 311.406 24.3323 311.514 24.3334C311.622 24.3345 311.729 24.314 311.829 24.2733C311.928 24.2325 312.019 24.1723 312.095 24.0961C312.171 24.0198 312.232 23.9292 312.272 23.8293C312.313 23.7295 312.334 23.6226 312.333 23.5148C312.331 23.407 312.309 23.3005 312.266 23.2015C312.223 23.1026 312.161 23.0132 312.083 22.9385L309.145 20.0001L312.083 17.0618C312.201 16.9487 312.282 16.8026 312.316 16.6427C312.349 16.4829 312.333 16.3166 312.271 16.1658C312.208 16.015 312.101 15.8867 311.964 15.7977C311.827 15.7087 311.666 15.6631 311.503 15.667Z" fill="white"/>
</svg>
