<svg width="328" height="40" viewBox="0 0 328 40" fill="none" xmlns="http://www.w3.org/2000/svg">
<rect x="0.5" y="0.5" width="327" height="39" rx="4.5" fill="#E86D00" fill-opacity="0.1" stroke="#E86D00"/>
<circle cx="308" cy="20" r="13" fill="#E86D00" fill-opacity="0.2"/>
<circle cx="308.001" cy="19.9999" r="8.66667" fill="#E86D00"/>
<path d="M304 14V14.4615C304 14.7157 304.2 14.9231 304.444 14.9231H304.889V15.3846C304.889 15.6388 305.089 15.8462 305.333 15.8462H305.375C305.455 18.6478 307.278 19.5511 307.278 20C307.278 20.4435 305.457 21.3486 305.375 24.1538H305.333C305.089 24.1538 304.889 24.3612 304.889 24.6154V25.0769H304.444C304.2 25.0769 304 25.2843 304 25.5385V26H312V25.5385C312 25.2843 311.8 25.0769 311.556 25.0769H311.111V24.6154C311.111 24.3612 310.911 24.1538 310.667 24.1538H310.625C310.543 21.3522 308.694 20.4489 308.694 20C308.694 19.5565 310.543 18.6514 310.625 15.8462H310.667C310.911 15.8462 311.111 15.6388 311.111 15.3846V14.9231H311.556C311.8 14.9231 312 14.7157 312 14.4615V14H304ZM305.819 15.8462H310.181C310.122 17.6526 309.273 18.5883 308.75 19.149C308.46 19.4609 308.25 19.6863 308.25 20C308.25 20.3173 308.458 20.5499 308.75 20.8654C309.271 21.4261 310.122 22.3528 310.181 24.1538H309.653C309.658 24.134 309.667 24.1178 309.667 24.0962C309.667 23.1064 308 22.351 308 22.351C308 22.351 306.333 22.9531 306.333 24.1106C306.333 24.1268 306.344 24.1394 306.347 24.1538H305.819C305.878 22.3456 306.72 21.4117 307.236 20.851C307.523 20.5391 307.722 20.3119 307.722 20C307.722 19.6863 307.524 19.4627 307.236 19.149C306.722 18.5883 305.877 17.649 305.819 15.8462ZM308 17.6923C307.474 17.6923 306.958 17.759 306.958 18.0096C306.958 18.6298 308 19.25 308 19.25C308 19.25 309.042 18.7218 309.042 17.9952C309.042 17.7428 308.526 17.6923 308 17.6923Z" fill="white"/>
</svg>
