<svg width="30" height="27" viewBox="0 0 30 27" fill="none" xmlns="http://www.w3.org/2000/svg">
<path fill-rule="evenodd" clip-rule="evenodd" d="M4.35061 0.338404C4.45465 0.130937 4.6663 0 4.89828 0H24.4899C24.7218 0 24.9335 0.130937 25.0375 0.338404L29.3232 8.90972C29.4751 9.21225 29.3519 9.57936 29.0494 9.73122C28.9621 9.77487 28.8688 9.79579 28.7767 9.79579C28.5519 9.79579 28.3355 9.67203 28.2279 9.45739L25.1021 3.20587V12.466C24.5114 12.3267 23.8992 12.2447 23.2654 12.2447C18.8697 12.2447 15.3063 15.8082 15.3063 20.2038C15.3063 21.289 15.5251 22.3221 15.9185 23.265H4.89828C4.56107 23.265 4.28604 22.9912 4.28604 22.6528V3.20587L1.16029 9.45739C1.09213 9.59371 0.979723 9.69355 0.849384 9.74796C0.690346 9.81433 0.505 9.81373 0.338788 9.73122C0.0960451 9.60985 -0.0307071 9.34977 0.00636196 9.09507C0.0159282 9.03229 0.0350606 8.96951 0.064955 8.90972L4.35061 0.338404ZM17.7553 4.28566H11.6329C11.2957 4.28566 11.0207 4.55949 11.0207 4.8979C11.0207 5.2363 11.2957 5.51013 11.6329 5.51013H17.7553C18.0937 5.51013 18.3675 5.2363 18.3675 4.8979C18.3675 4.55949 18.0937 4.28566 17.7553 4.28566Z" fill="#727272"/>
<path fill-rule="evenodd" clip-rule="evenodd" d="M16.5308 20.2038C16.5308 16.4897 19.5513 13.4692 23.2654 13.4692C26.9795 13.4692 30 16.4897 30 20.2038C30 23.9179 26.9795 26.9384 23.2654 26.9384C19.5513 26.9384 16.5308 23.9179 16.5308 20.2038ZM27.2653 17.5068C27.1804 17.4219 27.0692 17.3794 26.9591 17.3794C26.8479 17.3794 26.7367 17.4219 26.6518 17.5068L21.7444 22.4136L19.879 20.5482C19.7092 20.3784 19.4353 20.3784 19.2655 20.5482C19.1615 20.6522 19.1208 20.7957 19.1448 20.9303C19.1591 21.0152 19.1998 21.0971 19.2655 21.1628L21.4371 23.335C21.522 23.4199 21.6332 23.4623 21.7444 23.4623C21.8556 23.4623 21.9668 23.4199 22.0517 23.335L27.2653 18.1214C27.4351 17.9516 27.4351 17.6766 27.2653 17.5068Z" fill="#727272"/>
</svg>
