<svg width="24" height="24" viewBox="0 0 24 24" fill="none" xmlns="http://www.w3.org/2000/svg">
<g clip-path="url(#clip0_1491_21571)">
<path d="M12.0009 0.960022C18.0984 0.960022 23.0409 5.90258 23.0409 12C23.0409 18.0975 18.0984 23.04 12.0009 23.04C5.9035 23.04 0.960938 18.0975 0.960938 12C0.960938 5.90258 5.9035 0.960022 12.0009 0.960022ZM15.8093 16.5C16.0123 15.877 16.9637 9.6677 17.0813 8.44418C17.1168 8.07362 16.9997 7.82738 16.7702 7.71746C16.4928 7.58402 16.0819 7.65074 15.6053 7.82258C14.9515 8.05826 6.59374 11.6069 6.11086 11.8123C5.65294 12.0067 5.21998 12.2189 5.21998 12.5261C5.21998 12.7421 5.34814 12.8635 5.70142 12.9898C6.0691 13.1208 6.99502 13.4016 7.54174 13.5523C8.0683 13.6978 8.66782 13.5715 9.00382 13.3627C9.35998 13.1415 13.4702 10.3911 13.7654 10.1501C14.0601 9.90914 14.2953 10.2178 14.0544 10.4592C13.8134 10.7002 10.992 13.4386 10.62 13.8178C10.1683 14.2781 10.4889 14.7552 10.7918 14.9463C11.1379 15.1642 13.6267 16.8336 14.0016 17.1015C14.3765 17.3693 14.7566 17.4907 15.1046 17.4907C15.4526 17.4907 15.636 17.0323 15.8093 16.5Z" fill="#727272"/>
</g>
<defs>
<clipPath id="clip0_1491_21571">
<rect width="24" height="24" fill="white"/>
</clipPath>
</defs>
</svg>
