<svg xmlns="http://www.w3.org/2000/svg" width="272.004" height="271.814" viewBox="0 0 272.004 271.814">
  <path id="touch_id" d="M138,2A136.118,136.118,0,0,0,12.686,85.04a10.462,10.462,0,1,0,19.27,8.153A115.133,115.133,0,0,1,211.867,49.752a10.465,10.465,0,1,0,13.445-16.04A135.614,135.614,0,0,0,138,2Zm0,41.847A94.011,94.011,0,0,0,106.617,49.2a10.469,10.469,0,1,0,6.988,19.738A73.268,73.268,0,0,1,211.234,138c0,30.875-10.339,101.164-10.339,101.164a10.463,10.463,0,1,0,20.679,3.106S232.158,173.287,232.158,138A94.317,94.317,0,0,0,138,43.847ZM247.891,67.12a10.463,10.463,0,0,0-8.929,15.611,115.121,115.121,0,0,1,9.3,88.209,10.463,10.463,0,1,0,20.024,6.028,135.935,135.935,0,0,0-10.972-104.29,10.463,10.463,0,0,0-9.42-5.558ZM71.554,75.968a10.463,10.463,0,0,0-7.785,4.127A93.889,93.889,0,0,0,43.847,138c0,49.209-8.153,81.16-8.153,81.16a10.463,10.463,0,1,0,20.27,5.17S64.77,189.561,64.77,138A72.779,72.779,0,0,1,80.258,92.968a10.463,10.463,0,0,0-8.7-17ZM138,85.694A52.469,52.469,0,0,0,85.694,138c0,73.423-10.114,111.81-10.114,111.81A10.463,10.463,0,1,0,95.808,255.1s10.809-41.718,10.809-117.1a31.385,31.385,0,1,1,62.77,0c0,12.53-.532,25.609-1.349,38.333a10.463,10.463,0,1,0,20.883,1.328c.837-13.054,1.389-26.538,1.389-39.66A52.469,52.469,0,0,0,138,85.694ZM12.257,118.918a10.463,10.463,0,0,0-9.951,9.889Q2,133.368,2,138a135.71,135.71,0,0,0,4.107,33.183A10.462,10.462,0,1,0,26.4,166.077,114.64,114.64,0,0,1,22.923,138c0-2.626.093-5.217.266-7.785a10.463,10.463,0,0,0-10.932-11.3ZM137.839,127.4A10.463,10.463,0,0,0,127.541,138a657.122,657.122,0,0,1-3.535,70.413,10.462,10.462,0,1,0,20.8,2.247A678.223,678.223,0,0,0,148.464,138,10.463,10.463,0,0,0,137.839,127.4Zm36.329,86.289a10.463,10.463,0,0,0-10.421,9.4c-2.424,20.946-4.7,35.124-4.7,35.124a10.471,10.471,0,1,0,20.679,3.31s2.35-14.662,4.822-36.023a10.463,10.463,0,0,0-10.38-11.81Zm-46.362,27.666a10.463,10.463,0,0,0-10.258,8.357c-1.6,7.3-2.615,10.5-2.615,10.5a10.463,10.463,0,1,0,19.963,6.274s1.355-4.386,3.085-12.3a10.463,10.463,0,0,0-10.175-12.832Z" transform="translate(-2 -2)" fill="#fc6a6a"/>
</svg>
