<svg width="18" height="18" viewBox="0 0 18 18" fill="none" xmlns="http://www.w3.org/2000/svg">
<path d="M7.56 0.719971V1.79997H8.28V2.19513C4.44612 2.55865 1.44 5.79195 1.44 9.71997C1.44 13.891 4.82899 17.28 9 17.28C13.171 17.28 16.56 13.891 16.56 9.71997C16.56 5.79195 13.5539 2.55865 9.72 2.19513V1.79997H10.44V0.719971H7.56ZM14.4851 1.85271L13.763 2.57481L15.4245 4.2363L16.1466 3.51419L14.4851 1.85271ZM9 2.87997C12.7819 2.87997 15.84 5.93808 15.84 9.71997C15.84 13.5019 12.7819 16.56 9 16.56C5.21811 16.56 2.16 13.5019 2.16 9.71997C2.16 5.93808 5.21811 2.87997 9 2.87997ZM5.39649 5.75646C5.32487 5.75647 5.25489 5.77785 5.19548 5.81785C5.13608 5.85785 5.08996 5.91466 5.06301 5.98101C5.03606 6.04737 5.02951 6.12025 5.0442 6.19034C5.05889 6.26043 5.09415 6.32455 5.14547 6.3745L8.30531 9.53435C8.28883 9.59486 8.28032 9.65726 8.28 9.71997C8.28 9.91093 8.35586 10.0941 8.49089 10.2291C8.62591 10.3641 8.80905 10.44 9 10.44C9.06292 10.4399 9.12556 10.4317 9.18633 10.4154L9.82547 11.0545C9.85864 11.0891 9.89838 11.1166 9.94234 11.1356C9.98631 11.1546 10.0336 11.1647 10.0815 11.1652C10.1294 11.1657 10.1769 11.1566 10.2213 11.1385C10.2656 11.1204 10.3059 11.0936 10.3398 11.0597C10.3736 11.0259 10.4004 10.9856 10.4185 10.9412C10.4366 10.8969 10.4457 10.8494 10.4452 10.8015C10.4447 10.7536 10.4347 10.7063 10.4157 10.6623C10.3967 10.6183 10.3691 10.5786 10.3345 10.5454L9.69469 9.9056C9.71117 9.84509 9.71968 9.78269 9.72 9.71997C9.72 9.52902 9.64415 9.34588 9.50912 9.21085C9.37409 9.07583 9.19096 8.99997 9 8.99997C8.93708 9 8.87444 9.00827 8.81367 9.02458L5.65453 5.86544C5.62099 5.83095 5.58087 5.80354 5.53654 5.78482C5.49222 5.7661 5.4446 5.75646 5.39649 5.75646Z" fill="white"/>
</svg>
