<svg width="24" height="19" viewBox="0 0 24 19" fill="none" xmlns="http://www.w3.org/2000/svg">
<path d="M0 0.840027V1.80003H13.485C13.6762 1.80003 13.92 2.04378 13.92 2.23503V15.24H9.075C8.84625 13.8788 7.66312 12.84 6.24 12.84C4.81687 12.84 3.63375 13.8788 3.405 15.24H1.44C1.17375 15.24 0.96 15.0263 0.96 14.76V10.44H0V14.76C0 15.5494 0.650625 16.2 1.44 16.2H3.405C3.63375 17.5613 4.81687 18.6 6.24 18.6C7.66312 18.6 8.84625 17.5613 9.075 16.2H16.365C16.5937 17.5613 17.7769 18.6 19.2 18.6C20.6231 18.6 21.8062 17.5613 22.035 16.2H22.56C22.9594 16.2 23.31 16.02 23.565 15.765C23.82 15.51 24 15.1594 24 14.76V10.155C24 9.61503 23.7937 9.12003 23.61 8.74503C23.4262 8.37003 23.235 8.10003 23.235 8.10003V8.08503L21.27 5.44503H21.255V5.43003C20.8294 4.89753 20.1469 4.20003 19.2 4.20003H15.36C15.1875 4.20003 15.03 4.2319 14.88 4.29003V2.23503C14.88 1.46628 14.2537 0.840027 13.485 0.840027H0ZM0 2.76003V3.72003H8.64V2.76003H0ZM0 4.68003V5.64003H7.2V4.68003H0ZM15.36 5.16003H17.28V9.48003C17.28 9.8794 17.46 10.23 17.715 10.485C17.97 10.74 18.3206 10.92 18.72 10.92H23.04V14.76C23.04 14.8407 22.98 14.97 22.875 15.075C22.77 15.18 22.6406 15.24 22.56 15.24H22.035C21.8062 13.8788 20.6231 12.84 19.2 12.84C17.7769 12.84 16.5937 13.8788 16.365 15.24H14.88V5.64003C14.88 5.5594 14.94 5.43003 15.045 5.32503C15.15 5.22003 15.2794 5.16003 15.36 5.16003ZM18.24 5.16003H19.2C19.5956 5.16003 20.1469 5.6044 20.49 6.03003L22.455 8.65503L22.47 8.67003C22.4794 8.68315 22.6087 8.8669 22.755 9.16503C22.8769 9.41253 22.9406 9.7069 22.98 9.96003H18.72C18.6394 9.96003 18.51 9.90003 18.405 9.79503C18.3 9.69003 18.24 9.56065 18.24 9.48003V5.16003ZM0 6.60003V7.56003H5.76V6.60003H0ZM0 8.52003V9.48003H4.32V8.52003H0ZM6.24 13.8C7.30687 13.8 8.16 14.6532 8.16 15.72C8.16 16.7869 7.30687 17.64 6.24 17.64C5.17312 17.64 4.32 16.7869 4.32 15.72C4.32 14.6532 5.17312 13.8 6.24 13.8ZM19.2 13.8C20.2669 13.8 21.12 14.6532 21.12 15.72C21.12 16.7869 20.2669 17.64 19.2 17.64C18.1331 17.64 17.28 16.7869 17.28 15.72C17.28 14.6532 18.1331 13.8 19.2 13.8Z" fill="#C49664"/>
</svg>
