<svg width="51" height="60" viewBox="0 0 51 60" fill="none" xmlns="http://www.w3.org/2000/svg">
<path fill-rule="evenodd" clip-rule="evenodd" d="M17.0822 1.6309C17.4978 1.12632 18.1193 0.833374 18.7741 0.833374H32.3035C32.9248 0.833374 33.5172 1.09879 33.9328 1.56254L39.8003 8.12504C40.197 8.56983 40.3981 9.15788 40.3529 9.75142C40.3077 10.345 40.0204 10.8947 39.561 11.2724L27.1652 21.4808C26.7612 21.8133 26.2696 21.9792 25.7752 21.9792C25.2809 21.9792 24.7892 21.8119 24.3853 21.4779L11.9894 11.2696C11.0575 10.5025 10.9233 9.12673 11.6903 8.1934L17.0822 1.6309ZM0.75 34.3352C0.75 26.3493 4.72911 18.9123 11.1691 14.3258L14.6754 17.2311C8.80121 20.928 5.125 27.3804 5.125 34.3323C5.125 45.5352 14.383 54.6493 25.7638 54.6493C37.1447 54.6493 46.4027 45.5352 46.4027 34.3323C46.4027 27.3848 42.732 20.9351 36.8637 17.2368L40.37 14.3343C46.8041 18.9223 50.7777 26.3522 50.7777 34.3352C50.7777 47.9502 39.5567 59.0271 25.7638 59.0271C11.9709 59.0271 0.75 47.9502 0.75 34.3352ZM36.6561 27.7451C37.0525 27.3378 37.5919 27.1008 38.16 27.0843C38.6003 27.0716 39.0342 27.1921 39.4049 27.4301C39.7756 27.6681 40.0658 28.0125 40.2376 28.4182C40.4093 28.8238 40.4546 29.2719 40.3675 29.7037C40.2804 30.1355 40.0649 30.531 39.7494 30.8384L25.166 45.4217C24.7558 45.8318 24.1995 46.0621 23.6194 46.0621C23.0393 46.0621 22.483 45.8318 22.0728 45.4217L14.7811 38.13C14.5712 37.9284 14.4036 37.687 14.2881 37.4199C14.1726 37.1527 14.1116 36.8652 14.1087 36.5742C14.1057 36.2832 14.1609 35.9945 14.2709 35.725C14.3809 35.4556 14.5435 35.2108 14.7493 35.005C14.9551 34.7992 15.1999 34.6365 15.4694 34.5265C15.7388 34.4165 16.0275 34.3614 16.3185 34.3643C16.6095 34.3673 16.897 34.4283 17.1642 34.5437C17.4314 34.6592 17.6728 34.8268 17.8744 35.0368L23.6194 40.7818L36.6561 27.7451Z" fill="#C49664"/>
</svg>
