<svg width="20" height="20" viewBox="0 0 20 20" fill="none" xmlns="http://www.w3.org/2000/svg">
<path d="M9.9998 0.803223C4.92352 0.803223 0.799805 4.92694 0.799805 10.0032C0.799805 14.845 4.55233 18.8174 9.30371 19.1743C9.31308 19.1751 9.32245 19.1759 9.33184 19.1767C9.55277 19.1926 9.77486 19.2032 9.9998 19.2032C10.2248 19.2032 10.4468 19.1926 10.6678 19.1767C10.6772 19.1759 10.6865 19.1751 10.6959 19.1743C15.4473 18.8174 19.1998 14.845 19.1998 10.0032C19.1998 4.92694 15.0761 0.803223 9.9998 0.803223ZM9.9998 1.60322C14.6437 1.60322 18.3998 5.35929 18.3998 10.0032C18.3998 12.2959 17.4817 14.3697 15.9959 15.8845C15.3602 15.4216 14.5747 15.1455 13.8709 14.8985C13.0373 14.6065 12.2487 14.3297 12.0303 13.8485C11.9959 13.4377 11.9989 13.1169 12.0021 12.7485L12.0029 12.5923C12.3581 12.2543 12.8048 11.5409 12.9576 10.8821C13.2216 10.7413 13.5444 10.4038 13.6412 9.59541C13.6896 9.19421 13.5754 8.8835 13.4154 8.6751C13.6314 7.9331 14.0612 6.05469 13.3084 4.84229C12.99 4.32989 12.5095 4.0066 11.8779 3.879C11.5231 3.4398 10.8536 3.2001 9.9584 3.2001C8.598 3.2253 7.6007 3.64198 6.9959 4.43838C6.2827 5.37838 6.14794 6.79862 6.59434 8.66182C6.42914 8.87022 6.30998 9.18543 6.35918 9.59463C6.45638 10.403 6.77799 10.7405 7.04199 10.8813C7.19479 11.5409 7.64108 12.2543 7.99668 12.5923L7.99746 12.7446C8.00066 13.1146 8.00374 13.4361 7.96934 13.8485C7.75014 14.3309 6.95772 14.6107 6.12012 14.9063C5.42056 15.1534 4.63966 15.4299 4.00527 15.8868C2.51829 14.3719 1.5998 12.2969 1.5998 10.0032C1.5998 5.35929 5.35588 1.60322 9.9998 1.60322Z" fill="#999999"/>
</svg>
