<svg width="28" height="26" viewBox="0 0 28 26" fill="none" xmlns="http://www.w3.org/2000/svg">
<path d="M3.20005 0.400024C2.21307 0.400024 1.40005 1.21304 1.40005 2.20002V4.54729C1.37758 4.65679 0.800049 7.47959 0.800049 9.10003C0.800049 9.92721 0.959685 10.7191 1.39771 11.3512C1.3985 11.3523 1.39925 11.3536 1.40005 11.3547V23.8C1.40005 24.787 2.21307 25.6 3.20005 25.6H4.89927C4.96406 25.6107 5.03018 25.6107 5.09497 25.6H10.2993C10.3641 25.6107 10.4302 25.6107 10.495 25.6H24.8C25.787 25.6 26.6 24.787 26.6 23.8V11.3547C26.6009 11.3536 26.6016 11.3523 26.6024 11.3512C27.0404 10.7191 27.2001 9.92721 27.2001 9.10003C27.2001 7.47959 26.6225 4.65679 26.6 4.54729V2.20002C26.6 1.21304 25.787 0.400024 24.8 0.400024H3.20005ZM3.20005 1.60002H24.8C25.1391 1.60002 25.4 1.86101 25.4 2.20002V4.00002H18.2926C18.2589 3.99439 18.2248 3.99165 18.1907 3.99182C18.1616 3.99245 18.1326 3.99519 18.104 4.00002H14.0926C14.0589 3.99439 14.0248 3.99165 13.9907 3.99182C13.9616 3.99245 13.9326 3.99519 13.904 4.00002H9.89263C9.85894 3.99439 9.82483 3.99165 9.79067 3.99182C9.76161 3.99245 9.73263 3.99519 9.70396 4.00002H2.60005V2.20002C2.60005 1.86101 2.86103 1.60002 3.20005 1.60002ZM3.80005 2.20002C3.64092 2.20002 3.48831 2.26324 3.37578 2.37576C3.26326 2.48828 3.20005 2.64089 3.20005 2.80002C3.20005 2.95915 3.26326 3.11177 3.37578 3.22429C3.48831 3.33681 3.64092 3.40002 3.80005 3.40002C3.95918 3.40002 4.11179 3.33681 4.22431 3.22429C4.33683 3.11177 4.40005 2.95915 4.40005 2.80002C4.40005 2.64089 4.33683 2.48828 4.22431 2.37576C4.11179 2.26324 3.95918 2.20002 3.80005 2.20002ZM5.60005 2.20002C5.44092 2.20002 5.28831 2.26324 5.17579 2.37576C5.06326 2.48828 5.00005 2.64089 5.00005 2.80002C5.00005 2.95915 5.06326 3.11177 5.17579 3.22429C5.28831 3.33681 5.44092 3.40002 5.60005 3.40002C5.75918 3.40002 5.91179 3.33681 6.02431 3.22429C6.13683 3.11177 6.20005 2.95915 6.20005 2.80002C6.20005 2.64089 6.13683 2.48828 6.02431 2.37576C5.91179 2.26324 5.75918 2.20002 5.60005 2.20002ZM7.40005 2.20002C7.24092 2.20002 7.08831 2.26324 6.97579 2.37576C6.86326 2.48828 6.80005 2.64089 6.80005 2.80002C6.80005 2.95915 6.86326 3.11177 6.97579 3.22429C7.08831 3.33681 7.24092 3.40002 7.40005 3.40002C7.55918 3.40002 7.71179 3.33681 7.82431 3.22429C7.93683 3.11177 8.00005 2.95915 8.00005 2.80002C8.00005 2.64089 7.93683 2.48828 7.82431 2.37576C7.71179 2.26324 7.55918 2.20002 7.40005 2.20002ZM2.52388 5.20002H5.00005V10.5321C4.61696 10.9379 4.09803 11.2 3.50005 11.2C2.91672 11.2 2.62365 11.012 2.38442 10.6668C2.14519 10.3216 2.00005 9.76383 2.00005 9.10003C2.00005 7.91649 2.42123 5.74689 2.52388 5.20002ZM6.20005 5.20002H9.20005V10.5321C8.81696 10.9379 8.29803 11.2 7.70005 11.2C7.10296 11.2 6.58347 10.9398 6.20005 10.5356V5.20002ZM10.4 5.20002H13.4V10.5321C13.017 10.9379 12.498 11.2 11.9 11.2C11.303 11.2 10.7835 10.9398 10.4 10.5356V5.20002ZM14.6 5.20002H17.6V10.5321C17.2175 10.9374 16.6979 11.2 16.1 11.2C15.503 11.2 14.9835 10.9398 14.6 10.5356V5.20002ZM18.8 5.20002H21.8V10.5356C21.4172 10.9395 20.8971 11.2 20.3 11.2C19.703 11.2 19.183 10.9396 18.8 10.5356V5.20002ZM23 5.20002H25.4762C25.5789 5.74689 26 7.91649 26 9.10003C26 9.76383 25.8549 10.3216 25.6157 10.6668C25.3764 11.012 25.0834 11.2 24.5 11.2C23.903 11.2 23.383 10.9396 23 10.5356V5.20002ZM5.60005 11.6278C6.16873 12.1041 6.89874 12.4 7.70005 12.4C8.50136 12.4 9.23137 12.1041 9.80005 11.6278C10.3687 12.1041 11.0987 12.4 11.9 12.4C12.7014 12.4 13.4314 12.1041 14 11.6278C14.5687 12.1041 15.2987 12.4 16.1 12.4C16.9008 12.4 17.6316 12.1049 18.2001 11.6289C18.7685 12.1049 19.4993 12.4 20.3 12.4C21.1008 12.4 21.8316 12.1049 22.4 11.6289C22.9685 12.1049 23.6993 12.4 24.5 12.4C24.8222 12.4 25.1235 12.3448 25.4 12.2489V23.8C25.4 24.139 25.1391 24.4 24.8 24.4H11V14.2H4.40005V24.4H3.20005C2.86103 24.4 2.60005 24.139 2.60005 23.8V12.2489C2.87663 12.3448 3.17793 12.4 3.50005 12.4C4.30136 12.4 5.03137 12.1041 5.60005 11.6278ZM12.8 14.2V14.8V22.6H23.6V14.2H12.8ZM5.60005 15.4H9.80005V24.4H5.60005V15.4ZM14 15.4H22.4V21.4H14V15.4Z" fill="#999999"/>
</svg>
