<svg width="30" height="30" viewBox="0 0 30 30" fill="none" xmlns="http://www.w3.org/2000/svg">
<path d="M4.20005 2.40002C3.20765 2.40002 2.40005 3.20762 2.40005 4.20002V6.54729C2.37758 6.65679 1.80005 9.47959 1.80005 11.1C1.80005 11.9272 1.95969 12.7191 2.39771 13.3512C2.3985 13.3523 2.39925 13.3536 2.40005 13.3547V25.8C2.40005 26.7942 3.20585 27.6 4.20005 27.6H25.8C26.7943 27.6 27.6 26.7942 27.6 25.8V13.3547C27.6009 13.3536 27.6016 13.3523 27.6024 13.3512C28.0404 12.7191 28.2001 11.9272 28.2001 11.1C28.2001 9.47959 27.6225 6.65679 27.6 6.54729V4.20002C27.6 3.20762 26.7924 2.40002 25.8 2.40002H4.20005ZM4.80005 4.20002C5.13125 4.20002 5.40005 4.46882 5.40005 4.80002C5.40005 5.13122 5.13125 5.40002 4.80005 5.40002C4.46885 5.40002 4.20005 5.13122 4.20005 4.80002C4.20005 4.46882 4.46885 4.20002 4.80005 4.20002ZM6.60005 4.20002C6.93125 4.20002 7.20005 4.46882 7.20005 4.80002C7.20005 5.13122 6.93125 5.40002 6.60005 5.40002C6.26885 5.40002 6.00005 5.13122 6.00005 4.80002C6.00005 4.46882 6.26885 4.20002 6.60005 4.20002ZM8.40005 4.20002C8.73125 4.20002 9.00005 4.46882 9.00005 4.80002C9.00005 5.13122 8.73125 5.40002 8.40005 5.40002C8.06885 5.40002 7.80005 5.13122 7.80005 4.80002C7.80005 4.46882 8.06885 4.20002 8.40005 4.20002ZM3.52388 7.20002H6.00005V12.5321C5.61696 12.9379 5.09803 13.2 4.50005 13.2C3.91672 13.2 3.62365 13.012 3.38442 12.6668C3.14519 12.3216 3.00005 11.7638 3.00005 11.1C3.00005 9.91649 3.42123 7.74689 3.52388 7.20002ZM7.20005 7.20002H10.2V12.5321C9.81696 12.9379 9.29803 13.2 8.70005 13.2C8.10296 13.2 7.58347 12.9398 7.20005 12.5356V7.20002ZM11.4 7.20002H14.4V12.5321C14.017 12.9379 13.498 13.2 12.9 13.2C12.303 13.2 11.7835 12.9398 11.4 12.5356V7.20002ZM15.6 7.20002H18.6V12.5321C18.2175 12.9374 17.6979 13.2 17.1 13.2C16.503 13.2 15.9835 12.9398 15.6 12.5356V7.20002ZM19.8 7.20002H22.8V12.5356C22.4172 12.9395 21.8971 13.2 21.3 13.2C20.703 13.2 20.183 12.9396 19.8 12.5356V7.20002ZM24 7.20002H26.4762C26.5789 7.74689 27 9.91649 27 11.1C27 11.7638 26.8549 12.3216 26.6157 12.6668C26.3764 13.012 26.0834 13.2 25.5 13.2C24.903 13.2 24.383 12.9396 24 12.5356V7.20002ZM6.00005 16.8H11.4V26.4H6.00005V16.8ZM14.4 16.8H24V24H14.4V16.8Z" fill="#915858"/>
</svg>
