<svg width="26" height="26" viewBox="0 0 26 26" fill="none" xmlns="http://www.w3.org/2000/svg">
<circle cx="13" cy="13" r="13" fill="#E86D00" fill-opacity="0.2"/>
<circle cx="12.9999" cy="12.9999" r="8.66667" fill="#E86D00"/>
<path d="M9 7V7.46154C9 7.71575 9.19965 7.92308 9.44444 7.92308H9.88889V8.38462C9.88889 8.63882 10.0885 8.84615 10.3333 8.84615H10.375C10.4549 11.6478 12.2778 12.5511 12.2778 13C12.2778 13.4435 10.4566 14.3486 10.375 17.1538H10.3333C10.0885 17.1538 9.88889 17.3612 9.88889 17.6154V18.0769H9.44444C9.19965 18.0769 9 18.2843 9 18.5385V19H17V18.5385C17 18.2843 16.8003 18.0769 16.5556 18.0769H16.1111V17.6154C16.1111 17.3612 15.9115 17.1538 15.6667 17.1538H15.625C15.5434 14.3522 13.6944 13.4489 13.6944 13C13.6944 12.5565 15.5434 11.6514 15.625 8.84615H15.6667C15.9115 8.84615 16.1111 8.63882 16.1111 8.38462V7.92308H16.5556C16.8003 7.92308 17 7.71575 17 7.46154V7H9ZM10.8194 8.84615H15.1806C15.1215 10.6526 14.2726 11.5883 13.75 12.149C13.4601 12.4609 13.25 12.6863 13.25 13C13.25 13.3173 13.4583 13.5499 13.75 13.8654C14.2708 14.4261 15.1215 15.3528 15.1806 17.1538H14.6528C14.658 17.134 14.6667 17.1178 14.6667 17.0962C14.6667 16.1064 13 15.351 13 15.351C13 15.351 11.3333 15.9531 11.3333 17.1106C11.3333 17.1268 11.3438 17.1394 11.3472 17.1538H10.8194C10.8785 15.3456 11.7205 14.4117 12.2361 13.851C12.5226 13.5391 12.7222 13.3119 12.7222 13C12.7222 12.6863 12.5243 12.4627 12.2361 12.149C11.7222 11.5883 10.8767 10.649 10.8194 8.84615ZM13 10.6923C12.474 10.6923 11.9583 10.759 11.9583 11.0096C11.9583 11.6298 13 12.25 13 12.25C13 12.25 14.0417 11.7218 14.0417 10.9952C14.0417 10.7428 13.526 10.6923 13 10.6923Z" fill="white"/>
</svg>
