<svg width="24" height="24" viewBox="0 0 24 24" fill="none" xmlns="http://www.w3.org/2000/svg">
<path d="M11.6882 3C7.53821 3 4.03635 5.82473 3 9.65217H3.81624C4.10971 8.67238 4.58509 7.77361 5.19497 6.98488C5.86294 7.3609 6.63638 7.67578 7.49236 7.91729C7.34868 8.46603 7.23098 9.04382 7.14844 9.65217H7.94633C8.02582 9.11413 8.13434 8.60054 8.26274 8.11141C9.20584 8.31929 10.2254 8.4431 11.2969 8.46603V9.65217H12.0795V8.46603C13.151 8.4431 14.1705 8.32082 15.1136 8.11141C15.242 8.60054 15.3505 9.11413 15.43 9.65217H16.2279C16.1454 9.04382 16.0277 8.46603 15.884 7.91729C16.74 7.67578 17.5134 7.3609 18.1814 6.98488C18.7913 7.77361 19.2666 8.67238 19.5586 9.65217H20.3764C19.34 5.82473 15.8381 3 11.6882 3ZM11.2969 3.82999V7.68342C10.3018 7.6605 9.35564 7.54586 8.48438 7.35632C9.12789 5.4319 10.1474 4.08373 11.2969 3.82999ZM12.0795 3.82999C13.2289 4.08373 14.2485 5.4319 14.892 7.35632C14.0207 7.54586 13.0746 7.6605 12.0795 7.68342V3.82999ZM9.39232 4.11583C8.70296 4.84341 8.1267 5.89198 7.71094 7.16372C6.96349 6.95279 6.28787 6.68529 5.71009 6.375C6.70058 5.32184 7.96773 4.53312 9.39232 4.11583ZM13.984 4.11583C15.4086 4.53312 16.6758 5.32184 17.6663 6.375C17.0885 6.68529 16.4129 6.95279 15.6654 7.16372C15.2497 5.89198 14.6734 4.84341 13.984 4.11583ZM3.07948 10.4348L4.07303 13.5652H4.98404L5.8125 11.225L6.64097 13.5652H7.5321L8.54399 10.4348H7.69718L7.05825 12.6221L6.32762 10.4348H5.32948L4.56827 12.5854L3.94005 10.4348H3.07948ZM8.95516 10.4348L9.95024 13.5652H10.8628L11.6882 11.225L12.5182 13.5652H13.4093L14.4212 10.4348H13.5729L12.9355 12.6221L12.2048 10.4348H11.2052L10.444 12.5854L9.81726 10.4348H8.95516ZM14.8125 10.4348L15.8091 13.5652H16.7247L17.5547 11.225L18.3877 13.5652H19.2819L20.2969 10.4348H19.447L18.805 12.6221L18.0729 10.4348H17.0701L16.3059 12.5854L15.6746 10.4348H14.8125ZM3 14.3478C4.03635 18.1753 7.53821 21 11.6882 21C15.8381 21 19.34 18.1753 20.3764 14.3478H19.5586C19.2666 15.3276 18.7913 16.2264 18.1814 17.0151C17.5134 16.6391 16.74 16.3242 15.884 16.0827C16.0277 15.534 16.1454 14.9562 16.2279 14.3478H15.43C15.3505 14.8859 15.242 15.3995 15.1136 15.8886C14.1705 15.6807 13.151 15.5569 12.0795 15.534V14.3478H11.2969V15.534C10.2254 15.5569 9.20584 15.6792 8.26274 15.8886C8.13434 15.3995 8.02582 14.8859 7.94633 14.3478H7.14844C7.23098 14.9562 7.34868 15.534 7.49236 16.0827C6.63638 16.3242 5.86294 16.6391 5.19497 17.0151C4.58509 16.2264 4.10971 15.3276 3.81624 14.3478H3ZM11.2969 16.3166V20.17C10.1474 19.9163 9.12789 18.5681 8.48438 16.6437C9.35564 16.4541 10.3018 16.3395 11.2969 16.3166ZM12.0795 16.3166C13.0746 16.3395 14.0207 16.4541 14.892 16.6437C14.2485 18.5681 13.2289 19.9163 12.0795 20.17V16.3166ZM7.71247 16.8363C8.12823 18.108 8.70296 19.1566 9.39232 19.8826C7.96773 19.4669 6.70058 18.6782 5.71009 17.625C6.28787 17.3132 6.96349 17.0472 7.71247 16.8363ZM15.6654 16.8363C16.4129 17.0472 17.0885 17.3147 17.6663 17.625C16.6758 18.6782 15.4086 19.4669 13.984 19.8826C14.6734 19.1566 15.2497 18.108 15.6654 16.8363Z" fill="#272727"/>
<rect x="0.375" y="0.375" width="23.25" height="23.25" rx="4.625" stroke="#272727" stroke-width="0.75"/>
</svg>
