<svg width="24" height="24" viewBox="0 0 24 24" fill="none" xmlns="http://www.w3.org/2000/svg">
<g clip-path="url(#clip0_1491_21573)">
<path d="M11.9991 0.960022C5.9117 0.960022 0.959056 5.91266 0.959056 12C0.959056 13.9008 1.4501 15.7699 2.3813 17.4192L0.976816 22.4304C0.930736 22.5951 0.975376 22.7717 1.09442 22.8941C1.1861 22.9887 1.3109 23.04 1.43906 23.04C1.47746 23.04 1.51634 23.0352 1.55426 23.0261L6.78434 21.7306C8.3813 22.5879 10.1799 23.04 11.9991 23.04C18.0864 23.04 23.0391 18.0874 23.0391 12C23.0391 5.91266 18.0864 0.960022 11.9991 0.960022ZM17.5527 15.8957C17.3165 16.5495 16.1837 17.1461 15.6394 17.2263C15.1507 17.2978 14.5325 17.3285 13.8538 17.1154C13.4424 16.9858 12.9144 16.8139 12.2381 16.5255C9.39505 15.313 7.53842 12.4863 7.39634 12.2995C7.25474 12.1128 6.23906 10.7823 6.23906 9.40514C6.23906 8.02802 6.97106 7.35074 7.23122 7.07042C7.49138 6.7901 7.7981 6.72002 7.98722 6.72002C8.17634 6.72002 8.36498 6.72242 8.53058 6.7301C8.70482 6.73874 8.93858 6.66434 9.1685 7.21058C9.40466 7.77122 9.97154 9.14834 10.0416 9.28898C10.1127 9.42914 10.1597 9.59282 10.0656 9.77954C9.97154 9.96626 9.9245 10.0829 9.78242 10.2466C9.64034 10.4103 9.48482 10.6114 9.35714 10.7371C9.21506 10.8768 9.0677 11.028 9.23282 11.3083C9.39793 11.5887 9.96673 12.505 10.8096 13.2471C11.892 14.2003 12.8055 14.496 13.0887 14.6362C13.3719 14.7763 13.5375 14.7528 13.7026 14.5661C13.8677 14.3789 14.4111 13.7487 14.5997 13.4688C14.7883 13.189 14.9775 13.2351 15.2376 13.3287C15.4978 13.4218 16.8912 14.0986 17.1744 14.2387C17.4576 14.3789 17.6467 14.449 17.7178 14.5656C17.7888 14.6818 17.7888 15.2424 17.5527 15.8957Z" fill="#727272"/>
</g>
<defs>
<clipPath id="clip0_1491_21573">
<rect width="24" height="24" fill="white"/>
</clipPath>
</defs>
</svg>
