<svg width="308" height="171" viewBox="0 0 308 171" fill="none" xmlns="http://www.w3.org/2000/svg">
<g filter="url(#filter0_b_2275_42525)">
<rect x="10" y="31" width="288" height="130" rx="5" fill="#EDEDED"/>
</g>
<g filter="url(#filter1_b_2275_42525)">
<path fill-rule="evenodd" clip-rule="evenodd" d="M114 21H10C4.47715 21 0 25.4772 0 31V161C0 166.523 4.47716 171 10 171H298C303.523 171 308 166.523 308 161V31C308 25.4772 303.523 21 298 21H194V22H298C302.971 22 307 26.0294 307 31V161C307 165.971 302.971 170 298 170H10C5.02944 170 1 165.971 1 161V31C1 26.0294 5.02944 22 10 22H114V21Z" fill="#C49664"/>
</g>
<path d="M164.795 0.784741V17.8144C164.794 19.2526 164.307 20.648 163.413 21.7716C162.518 22.8953 161.27 23.6806 159.873 23.9988H159.846C158.944 24.1992 158.01 24.1992 157.109 23.9988H157.085C155.687 23.6812 154.438 22.8962 153.543 21.7724C152.649 20.6487 152.161 19.253 152.16 17.8144V0.784741C152.16 0.5839 152.24 0.391285 152.381 0.249268C152.523 0.107252 152.715 0.0274658 152.915 0.0274658H156.66C156.759 0.027465 156.857 0.0470745 156.948 0.0851679C157.04 0.123261 157.123 0.179088 157.193 0.249447C157.262 0.319806 157.318 0.403312 157.355 0.495172C157.393 0.587031 157.412 0.685437 157.412 0.784741V17.8144C157.412 18.0981 157.524 18.3702 157.724 18.5709C157.924 18.7715 158.195 18.8842 158.477 18.8842C158.76 18.8842 159.031 18.7715 159.231 18.5709C159.431 18.3702 159.543 18.0981 159.543 17.8144V0.784741C159.543 0.5839 159.623 0.391285 159.764 0.249268C159.906 0.107252 160.098 0.0274658 160.298 0.0274658H164.04C164.24 0.0274658 164.432 0.107252 164.574 0.249268C164.715 0.391285 164.795 0.5839 164.795 0.784741V0.784741Z" fill="#C49664"/>
<path d="M150.288 14.0502V17.7426C150.288 19.2284 149.81 20.6701 148.934 21.8312C148.057 22.9924 146.834 23.8042 145.464 24.1336H145.44L145.376 24.1491C145.303 24.0875 145.244 24.0095 145.204 23.9209C145.163 23.8323 145.141 23.7352 145.141 23.6367V14.0502C145.141 13.8432 145.22 13.645 145.358 13.4989C145.497 13.3528 145.685 13.2708 145.881 13.2708H149.551C149.746 13.2716 149.933 13.354 150.071 13.5C150.209 13.646 150.287 13.8437 150.288 14.0502V14.0502Z" fill="#C49664"/>
<path d="M190.921 10.8006C190.679 8.48797 189.778 6.29604 188.328 4.49052C186.877 2.68501 184.94 1.34345 182.751 0.628478C181.598 0.249624 180.395 0.0470499 179.183 0.0274658H179.067C176.965 0.0280511 174.901 0.597719 173.091 1.67725C172.994 1.73698 172.882 1.76942 172.768 1.77124C172.654 1.77306 172.542 1.74419 172.442 1.68759C172.343 1.631 172.261 1.54872 172.203 1.4492C172.146 1.34968 172.116 1.23651 172.116 1.12131C172.116 0.831203 172.002 0.55298 171.799 0.347845C171.596 0.14271 171.321 0.0274658 171.034 0.0274658H168.31C168.023 0.0274658 167.748 0.14271 167.545 0.347845C167.342 0.55298 167.228 0.831203 167.228 1.12131C167.228 1.12131 167.133 11.7863 167.133 12.0868C167.135 15.2846 168.393 18.3509 170.63 20.6124C172.867 22.8739 175.9 24.1459 179.064 24.1491H179.183C182.326 24.1143 185.329 22.8289 187.54 20.5715C189.752 18.3142 190.994 15.2667 190.998 12.0898C190.994 11.659 190.969 11.2287 190.921 10.8006V10.8006ZM180.218 19.0104C179.868 19.0698 179.514 19.103 179.159 19.1096H179.04C177.296 19.1162 175.614 18.4597 174.326 17.2704C173.039 16.0811 172.241 14.4461 172.092 12.6899C171.942 10.9337 172.451 9.18477 173.518 7.79041C174.585 6.39606 176.132 5.45822 177.851 5.16312C178.292 5.09709 178.738 5.07295 179.183 5.09099C181.006 5.12171 182.743 5.87455 184.022 7.18746C185.301 8.50036 186.019 10.2683 186.021 12.1108C186.021 12.5135 185.988 12.9156 185.923 13.3128C185.681 14.7453 185.002 16.0655 183.981 17.0887C182.961 18.1119 181.649 18.787 180.229 19.0194L180.218 19.0104Z" fill="#C49664"/>
<path d="M186.741 10.9938C186.58 9.45135 185.981 7.98911 185.014 6.78425C184.048 5.57939 182.757 4.68361 181.298 4.20545C180.522 3.95345 179.713 3.82058 178.899 3.8113H178.821C177.419 3.8109 176.044 4.19101 174.838 4.91187C174.773 4.95159 174.699 4.97316 174.623 4.97438C174.547 4.9756 174.472 4.95642 174.406 4.91881C174.339 4.88119 174.284 4.82648 174.246 4.76028C174.207 4.69407 174.187 4.61874 174.187 4.54198C174.187 4.34803 174.111 4.16185 173.977 4.02354C173.91 3.95561 173.831 3.90185 173.743 3.8654C173.656 3.82896 173.562 3.81056 173.467 3.8113H171.668C171.476 3.8113 171.292 3.88829 171.157 4.02532C171.021 4.16235 170.945 4.34819 170.945 4.54198C170.945 4.54198 170.879 11.6487 170.879 11.8518C170.882 13.9839 171.721 16.0276 173.213 17.5349C174.705 19.0422 176.727 19.89 178.836 19.8924H178.914C181.009 19.8692 183.01 19.0122 184.485 17.5071C185.959 16.0019 186.787 13.97 186.789 11.8518C186.788 11.5652 186.772 11.2788 186.741 10.9938V10.9938ZM183.397 12.6462C183.239 13.6014 182.79 14.483 182.113 15.1678C181.435 15.8527 180.563 16.3066 179.618 16.4663C179.384 16.5063 179.148 16.5286 178.911 16.533H178.833C177.673 16.5311 176.557 16.0901 175.704 15.297C174.851 14.504 174.323 13.4164 174.224 12.249C174.125 11.0816 174.462 9.91905 175.169 8.99072C175.876 8.0624 176.902 7.4357 178.044 7.23429C178.33 7.18629 178.62 7.16498 178.911 7.17062C180.124 7.19284 181.281 7.69522 182.132 8.5699C182.983 9.44458 183.461 10.6218 183.463 11.8488C183.462 12.1159 183.44 12.3825 183.397 12.6462V12.6462Z" fill="#C49664"/>
<path d="M186.741 10.9938C186.58 9.45135 185.981 7.98911 185.014 6.78425C184.048 5.57939 182.757 4.68361 181.298 4.20545C180.522 3.95345 179.713 3.82058 178.899 3.8113H178.821C177.419 3.8109 176.044 4.19101 174.838 4.91187C174.773 4.95159 174.699 4.97316 174.623 4.97438C174.547 4.9756 174.472 4.95642 174.406 4.91881C174.339 4.88119 174.284 4.82648 174.246 4.76028C174.207 4.69407 174.187 4.61874 174.187 4.54198C174.187 4.34803 174.111 4.16185 173.977 4.02354C173.91 3.95561 173.831 3.90185 173.743 3.8654C173.656 3.82896 173.562 3.81056 173.467 3.8113H171.668C171.476 3.8113 171.292 3.88829 171.157 4.02532C171.021 4.16235 170.945 4.34819 170.945 4.54198C170.945 4.54198 170.879 11.6487 170.879 11.8518C170.882 13.9839 171.721 16.0276 173.213 17.5349C174.705 19.0422 176.727 19.89 178.836 19.8924H178.914C181.009 19.8692 183.01 19.0122 184.485 17.5071C185.959 16.0019 186.787 13.97 186.789 11.8518C186.788 11.5652 186.772 11.2788 186.741 10.9938V10.9938ZM183.397 12.6462C183.239 13.6014 182.79 14.483 182.113 15.1678C181.435 15.8527 180.563 16.3066 179.618 16.4663C179.384 16.5063 179.148 16.5286 178.911 16.533H178.833C177.673 16.5311 176.557 16.0901 175.704 15.297C174.851 14.504 174.323 13.4164 174.224 12.249C174.125 11.0816 174.462 9.91905 175.169 8.99072C175.876 8.0624 176.902 7.4357 178.044 7.23429C178.33 7.18629 178.62 7.16498 178.911 7.17062C180.124 7.19284 181.281 7.69522 182.132 8.5699C182.983 9.44458 183.461 10.6218 183.463 11.8488C183.462 12.1159 183.44 12.3825 183.397 12.6462V12.6462Z" fill="#C49664"/>
<path d="M137.526 2.12918C135.519 0.758677 133.142 0.0259718 130.709 0.0274681H129.968C127.1 0.0569524 124.335 1.10153 122.169 2.97467C120.002 4.8478 118.574 7.42752 118.14 10.2532C117.705 13.0788 118.293 15.9663 119.797 18.4001C121.302 20.8339 123.625 22.6555 126.353 23.5396C127.521 23.9193 128.739 24.1218 129.968 24.1401H130.588C132.758 24.1643 134.892 23.5963 136.761 22.4977C136.86 22.4389 136.973 22.4073 137.089 22.4061C137.204 22.4049 137.318 22.4341 137.418 22.4908C137.518 22.5476 137.602 22.6297 137.66 22.729C137.718 22.8283 137.749 22.9412 137.749 23.0562C137.749 23.2 137.778 23.3423 137.833 23.4751C137.888 23.6079 137.969 23.7285 138.071 23.83C138.174 23.9316 138.295 24.012 138.428 24.0668C138.562 24.1215 138.705 24.1495 138.849 24.1491H141.605C141.896 24.1491 142.176 24.034 142.382 23.8292C142.588 23.6243 142.704 23.3463 142.705 23.0562C142.705 23.0562 142.801 12.3975 142.801 12.0973C142.803 10.1332 142.323 8.19849 141.404 6.46125C140.485 4.72401 139.154 3.23689 137.526 2.12918V2.12918ZM131.902 19.0029C131.468 19.0747 131.028 19.1068 130.588 19.099H129.968C128.214 19.0695 126.534 18.3888 125.257 17.1899C123.98 15.991 123.198 14.3604 123.064 12.617C122.929 10.8737 123.453 9.14326 124.531 7.76434C125.61 6.38541 127.166 5.4573 128.895 5.16164C129.25 5.10326 129.608 5.07114 129.968 5.06556H130.588C131.624 5.04805 132.651 5.25841 133.596 5.68168C134.54 6.10494 135.38 6.73068 136.054 7.51429C136.729 8.29791 137.221 9.22011 137.497 10.2152C137.773 11.2103 137.825 12.2537 137.65 13.2712C137.617 13.4754 137.577 13.6736 137.526 13.8717C137.186 15.1767 136.473 16.3556 135.475 17.2661C134.477 18.1766 133.236 18.7798 131.902 19.0029V19.0029Z" fill="#C49664"/>
<path d="M130.708 3.82037H130.63C126.244 3.82037 122.68 7.11415 122.68 11.8563C122.692 13.9973 123.545 16.0458 125.05 17.5523C126.555 19.0588 128.59 19.9004 130.708 19.8923C131.11 19.8898 131.511 19.8554 131.907 19.7893C132.314 19.7187 132.715 19.6174 133.106 19.4863C134.9 18.8947 136.426 17.678 137.414 16.0536C138.401 14.4292 138.785 12.5029 138.497 10.6188C138.208 8.73469 137.267 7.01556 135.84 5.76851C134.413 4.52146 132.594 3.82774 130.708 3.81128V3.82037ZM130.708 16.5319H130.627C130.365 16.5315 130.103 16.5102 129.845 16.4682C128.696 16.2665 127.665 15.6345 126.958 14.6985C126.25 13.7624 125.917 12.5911 126.026 11.4181C126.135 10.2452 126.678 9.15686 127.546 8.37033C128.413 7.5838 129.543 7.15689 130.708 7.17475C130.945 7.18084 131.182 7.20311 131.416 7.24141C132.554 7.43693 133.578 8.05522 134.289 8.97496C134.999 9.89471 135.344 11.0495 135.255 12.2129C135.166 13.3762 134.651 14.4641 133.81 15.2632C132.969 16.0622 131.862 16.5147 130.708 16.5319V16.5319Z" fill="#C49664"/>
<path d="M149.82 8.77762C149.821 8.92571 149.81 9.0736 149.788 9.21969C149.709 9.75081 149.483 10.241 149.141 10.6217C148.8 11.0025 148.36 11.2548 147.884 11.3436C147.766 11.3663 147.647 11.3781 147.528 11.3788H147.487C146.901 11.3827 146.334 11.14 145.901 10.6991C145.468 10.2581 145.199 9.65122 145.149 8.99941C145.099 8.3476 145.271 7.6987 145.631 7.18205C145.991 6.6654 146.512 6.31894 147.091 6.21169C147.235 6.18586 147.381 6.17406 147.528 6.17645C148.139 6.18903 148.722 6.46853 149.15 6.9549C149.579 7.44126 149.819 8.0957 149.82 8.77762Z" fill="#C49664"/>
<path d="M149.729 1.54537L147.855 4.10272C147.801 4.1806 147.722 4.23686 147.633 4.26222L148.771 1.57287L148.485 0.615921C148.845 0.500428 149.094 0.33544 149.163 0.137451C149.195 0.164421 149.223 0.195881 149.247 0.230945L149.745 1.0229C149.794 1.1012 149.819 1.19329 149.816 1.28673C149.813 1.38017 149.783 1.47045 149.729 1.54537V1.54537Z" fill="#C49664"/>
<path d="M147.38 4.25675C147.295 4.23535 147.219 4.18262 147.168 4.10826L145.231 1.5179C145.178 1.44513 145.147 1.35796 145.142 1.2671C145.136 1.17624 145.156 1.08564 145.199 1.00643L145.612 0.280474C145.654 0.207738 145.714 0.148656 145.787 0.109985C145.845 0.324473 146.12 0.511462 146.523 0.659954L146.242 1.6004L147.38 4.25675Z" fill="#C49664"/>
<path d="M149.162 0.137492C149.094 0.335481 148.845 0.500469 148.485 0.615962H148.427C148.118 0.701169 147.799 0.743701 147.479 0.742457C147.178 0.742407 146.877 0.705486 146.584 0.632461H146.521C146.119 0.511467 145.843 0.324478 145.785 0.0824919C145.845 0.0477341 145.912 0.0288468 145.981 0.0274959L148.877 0C148.985 0.00702738 149.087 0.0560916 149.162 0.137492V0.137492Z" fill="#C49664"/>
<path d="M148.774 1.57291L147.636 4.26225C147.557 4.28992 147.471 4.28992 147.392 4.26225L146.254 1.5784L146.534 0.637958H146.598C146.891 0.710983 147.191 0.747905 147.493 0.747955C147.812 0.749199 148.131 0.706667 148.44 0.62146H148.498L148.774 1.57291Z" fill="#C49664"/>
<defs>
<filter id="filter0_b_2275_42525" x="-30" y="-9" width="368" height="210" filterUnits="userSpaceOnUse" color-interpolation-filters="sRGB">
<feFlood flood-opacity="0" result="BackgroundImageFix"/>
<feGaussianBlur in="BackgroundImageFix" stdDeviation="20"/>
<feComposite in2="SourceAlpha" operator="in" result="effect1_backgroundBlur_2275_42525"/>
<feBlend mode="normal" in="SourceGraphic" in2="effect1_backgroundBlur_2275_42525" result="shape"/>
</filter>
<filter id="filter1_b_2275_42525" x="-40" y="-19" width="388" height="230" filterUnits="userSpaceOnUse" color-interpolation-filters="sRGB">
<feFlood flood-opacity="0" result="BackgroundImageFix"/>
<feGaussianBlur in="BackgroundImageFix" stdDeviation="20"/>
<feComposite in2="SourceAlpha" operator="in" result="effect1_backgroundBlur_2275_42525"/>
<feBlend mode="normal" in="SourceGraphic" in2="effect1_backgroundBlur_2275_42525" result="shape"/>
</filter>
</defs>
</svg>
