<svg xmlns="http://www.w3.org/2000/svg" width="22.426" height="31.094" viewBox="0 0 22.426 31.094">
  <path id="trash" d="M15.688,0a1.876,1.876,0,0,0-1.866,1.866V3.109H8.964a.627.627,0,0,0-.233,0H7.545A.623.623,0,0,0,7.6,4.353h.68l2.235,25.186a1.714,1.714,0,0,0,1.691,1.555H24.142a1.714,1.714,0,0,0,1.691-1.555L28.068,4.353h.68a.622.622,0,1,0,0-1.244H22.529V1.866A1.876,1.876,0,0,0,20.663,0Zm0,1.244h4.975a.614.614,0,0,1,.622.622V3.109H15.066V1.866A.614.614,0,0,1,15.688,1.244ZM9.528,4.353h17.3L24.589,29.442a.49.49,0,0,1-.447.408H12.21a.49.49,0,0,1-.447-.408ZM14.386,6.2a.723.723,0,0,0-.078.019.623.623,0,0,0-.486.622V27.363a.622.622,0,1,0,1.244,0V6.841a.623.623,0,0,0-.68-.641Zm3.731,0a.723.723,0,0,0-.078.019.623.623,0,0,0-.486.622V27.363a.622.622,0,1,0,1.244,0V6.841a.623.623,0,0,0-.68-.641Zm3.731,0a.723.723,0,0,0-.078.019.623.623,0,0,0-.486.622V27.363a.622.622,0,1,0,1.244,0V6.841a.623.623,0,0,0-.68-.641Z" transform="translate(-6.952)"/>
</svg>
