<svg xmlns="http://www.w3.org/2000/svg" width="34.62" height="34.61" viewBox="0 0 34.62 34.61">
  <path id="sign_out" d="M19.305,2A17.305,17.305,0,1,0,33.263,29.532a.752.752,0,1,0-1.212-.891,15.8,15.8,0,1,1,0-18.672.752.752,0,1,0,1.212-.891A17.284,17.284,0,0,0,19.305,2ZM29.831,12.526a.752.752,0,0,0-.525,1.292l4.735,4.735H17.8a.752.752,0,1,0,0,1.5H34.042l-4.735,4.735a.752.752,0,1,0,1.064,1.064L36.324,19.9a.752.752,0,0,0,0-1.2l-5.952-5.952a.752.752,0,0,0-.539-.228Z" transform="translate(-2 -2)" fill="#d12d0c"/>
</svg>
