<svg xmlns="http://www.w3.org/2000/svg" viewBox="0 0 1024 1024"><path d="M25 0C19.355469 0 14.230469 1.011719 10.4375 2.71875C8.542969 3.570313 6.980469 4.601563 5.84375 5.8125C4.707031 7.023438 4 8.457031 4 10L4 19.8125C3.992188 19.875 3.992188 19.9375 4 20L4 29.8125C3.992188 29.875 3.992188 29.9375 4 30L4 39C4 40.542969 4.707031 41.976563 5.84375 43.1875C6.980469 44.398438 8.542969 45.429688 10.4375 46.28125C14.230469 47.988281 19.355469 49 25 49C30.644531 49 35.769531 47.988281 39.5625 46.28125C41.457031 45.429688 43.019531 44.398438 44.15625 43.1875C45.292969 41.976563 46 40.542969 46 39L46 10C46 8.457031 45.292969 7.023438 44.15625 5.8125C43.019531 4.601563 41.457031 3.570313 39.5625 2.71875C35.769531 1.011719 30.644531 0 25 0 Z M 25 2C30.402344 2 35.273438 3.011719 38.71875 4.5625C40.441406 5.335938 41.800781 6.242188 42.6875 7.1875C43.574219 8.132813 44 9.058594 44 10C44 10.941406 43.574219 11.867188 42.6875 12.8125C41.800781 13.757813 40.441406 14.664063 38.71875 15.4375C35.273438 16.988281 30.402344 18 25 18C19.597656 18 14.726563 16.988281 11.28125 15.4375C9.558594 14.664063 8.199219 13.757813 7.3125 12.8125C6.425781 11.867188 6 10.941406 6 10C6 9.058594 6.425781 8.132813 7.3125 7.1875C8.199219 6.242188 9.558594 5.335938 11.28125 4.5625C14.726563 3.011719 19.597656 2 25 2 Z M 6 14.34375C7.121094 15.488281 8.621094 16.464844 10.4375 17.28125C14.230469 18.988281 19.355469 20 25 20C30.644531 20 35.769531 18.988281 39.5625 17.28125C41.378906 16.464844 42.878906 15.488281 44 14.34375L44 19.84375C44 19.875 44 19.90625 44 19.9375L44 20C44 20.941406 43.574219 21.867188 42.6875 22.8125C41.800781 23.757813 40.441406 24.664063 38.71875 25.4375C35.273438 26.988281 30.402344 28 25 28C19.597656 28 14.726563 26.988281 11.28125 25.4375C9.558594 24.664063 8.199219 23.757813 7.3125 22.8125C6.425781 21.867188 6 20.941406 6 20C6.007813 19.9375 6.007813 19.875 6 19.8125 Z M 6 24.34375C7.121094 25.488281 8.621094 26.464844 10.4375 27.28125C14.230469 28.988281 19.355469 30 25 30C30.644531 30 35.769531 28.988281 39.5625 27.28125C41.378906 26.464844 42.878906 25.488281 44 24.34375L44 29.84375C44 29.875 44 29.90625 44 29.9375L44 30C44 30.941406 43.574219 31.867188 42.6875 32.8125C41.800781 33.757813 40.441406 34.664063 38.71875 35.4375C35.273438 36.988281 30.402344 38 25 38C19.597656 38 14.726563 36.988281 11.28125 35.4375C9.558594 34.664063 8.199219 33.757813 7.3125 32.8125C6.425781 31.867188 6 30.941406 6 30C6.007813 29.9375 6.007813 29.875 6 29.8125 Z M 6 34.34375C7.121094 35.488281 8.621094 36.464844 10.4375 37.28125C14.230469 38.988281 19.355469 40 25 40C30.644531 40 35.769531 38.988281 39.5625 37.28125C41.378906 36.464844 42.878906 35.488281 44 34.34375L44 39C44 39.941406 43.574219 40.867188 42.6875 41.8125C41.800781 42.757813 40.441406 43.664063 38.71875 44.4375C35.273438 45.988281 30.402344 47 25 47C19.597656 47 14.726563 45.988281 11.28125 44.4375C9.558594 43.664063 8.199219 42.757813 7.3125 41.8125C6.425781 40.867188 6 39.941406 6 39Z"/></svg>