<svg xmlns="http://www.w3.org/2000/svg" data-name="Слой 1" viewBox="0 0 1024 1024"><path fill="none" stroke="#010101" stroke-linejoin="round" stroke-width="2" d="M25,1C14,1,5,5,5,10s9,9,20,9,20-4,20-9S36.05,1,25,1Z"/><g data-name="IOS copy"><path fill="#010101" d="M30.05,46.7A42.46,42.46,0,0,1,25,47C13.63,47,6,42.86,6,39V34.3C9.32,37.7,16.48,40,25,40c1,0,2,0,3-.1a11.16,11.16,0,0,1,.19-2c-1,.07-2.09.12-3.2.12C13.63,38,6,33.86,6,30V24.3C9.32,27.7,16.48,30,25,30s15.68-2.3,19-5.7v4.44l2-1V10H44V20c0,3.86-7.63,8-19,8S6,23.86,6,20V10H4V39c0,5.61,9.22,10,21,10a43.94,43.94,0,0,0,6.55-.48A12.51,12.51,0,0,1,30.05,46.7Z"/><path fill="#010101" d="M49,39a1,1,0,0,0-1,1,8,8,0,1,1-8-8,7.51,7.51,0,0,1,5.9,3H42a1,1,0,0,0,0,2h7V30a1,1,0,0,0-2,0v3.2A9.44,9.44,0,0,0,40,30,10,10,0,1,0,50,40,.94.94,0,0,0,49,39Z"/></g></svg>