<svg xmlns="http://www.w3.org/2000/svg" viewBox="0 0 1024 1024"><path d="M24.984375 1.984375C24.433594 1.996094 23.992188 2.449219 24 3L24 25C23.996094 25.359375 24.183594 25.695313 24.496094 25.878906C24.808594 26.058594 25.191406 26.058594 25.503906 25.878906C25.816406 25.695313 26.003906 25.359375 26 25L26 3C26.003906 2.730469 25.898438 2.46875 25.707031 2.277344C25.515625 2.085938 25.253906 1.980469 24.984375 1.984375 Z M 18.046875 3.140625C17.921875 3.136719 17.796875 3.15625 17.683594 3.195313C8.566406 6.253906 2 14.867188 2 25C2 37.691406 12.308594 48 25 48C37.691406 48 48 37.691406 48 25C48 14.867188 41.433594 6.253906 32.316406 3.195313C31.792969 3.019531 31.226563 3.300781 31.050781 3.824219C30.875 4.347656 31.15625 4.914063 31.683594 5.09375C40 7.882813 46 15.730469 46 25C46 36.609375 36.609375 46 25 46C13.390625 46 4 36.609375 4 25C4 15.730469 10 7.882813 18.316406 5.09375C18.78125 4.941406 19.070313 4.484375 19 4C18.933594 3.519531 18.53125 3.15625 18.046875 3.140625Z"/></svg>