<svg xmlns="http://www.w3.org/2000/svg" viewBox="0 0 1024 1024"><path d="M43.984375 1.9863281 A 1.0001 1.0001 0 0 0 43 3L43 10.699219C38.785186 5.4020866 32.287796 2 25 2C12.309534 2 2 12.309534 2 25 A 1.0001 1.0001 0 0 0 2.0019531 25.025391 A 1.0001 1.0001 0 0 0 2.0039062 25.099609L2.0292969 26.15625L2.0292969 26.181641L2.03125 26.207031L2.1171875 27.324219L2.1191406 27.349609L2.1210938 27.375L2.2617188 28.476562L2.2636719 28.501953L2.2695312 28.525391L2.3808594 29.152344L2.9160156 29.871094L3.8125 29.873047L4.3496094 29.154297L4.3496094 28.802734L4.2460938 28.224609L4.2441406 28.207031L4.1113281 27.173828L4.1113281 27.162109L4.0292969 26.107422L4 25C4 24.995419 3.9999971 24.990909 4 24.986328L4 24.974609C4.0137494 13.376837 13.398974 4 25 4C31.692686 4 37.635193 7.130711 41.480469 12L34 12 A 1.0001 1.0001 0 1 0 34 14L43.449219 14L45 14L45 3 A 1.0001 1.0001 0 0 0 43.984375 1.9863281 z M 46.753906 24.03125L46.076172 24.617188L46 24.960938L45.935547 26.654297L45.908203 26.880859L46.214844 27.722656L47.072266 27.982422L47.792969 27.451172L47.894531 27.113281L47.925781 26.853516L47.929688 26.814453L47.931641 26.775391L48 25.039062L47.628906 24.222656L46.753906 24.03125 z M 45.955078 30.884766L45.130859 31.238281L44.955078 31.542969L44.464844 32.894531L44.265625 33.337891L44.302734 34.232422L45.041016 34.738281L45.890625 34.449219L46.087891 34.158203L46.308594 33.671875L46.324219 33.636719L46.335938 33.601562L46.835938 32.222656L46.730469 31.333984L45.955078 30.884766 z M 5.0273438 32.775391L4.1582031 32.994141L3.8144531 33.822266L3.9003906 34.164062L4.2558594 34.951172L4.265625 34.972656L4.2753906 34.994141L4.7617188 35.943359L4.7734375 35.964844L4.7851562 35.986328L5.3144531 36.90625L5.3261719 36.927734L5.3398438 36.949219L5.8828125 37.796875L6.6523438 38.255859L7.4804688 37.912109L7.7011719 37.044922L7.5664062 36.71875L7.0488281 35.910156L7.0410156 35.896484L6.5429688 35.03125L6.5410156 35.029297L6.078125 34.126953L6.0742188 34.117188L5.7226562 33.339844L5.0273438 32.775391 z M 43.398438 36.634766L42.507812 36.736328L42.251953 36.976562L41.480469 38.015625L41.476562 38.021484L40.716797 38.927734L40.703125 38.941406L40.443359 39.21875L40.185547 40.076172L40.71875 40.796875L41.615234 40.800781L41.898438 40.589844L42.171875 40.300781L42.191406 40.279297L42.210938 40.255859L43.044922 39.259766L43.064453 39.238281L43.082031 39.214844L43.857422 38.169922L44.013672 37.287109L43.398438 36.634766 z M 9.7929688 40.070312L9.0703125 40.599609L9.0605469 41.496094L9.2695312 41.779297L9.5117188 42.011719L9.5292969 42.027344L9.546875 42.042969L10.345703 42.734375L10.363281 42.75L10.382812 42.765625L11.212891 43.417969L11.232422 43.433594L11.251953 43.447266L12.113281 44.060547L12.132812 44.074219L12.154297 44.087891L12.568359 44.355469L13.458984 44.449219L14.068359 43.792969L13.908203 42.910156L13.648438 42.671875L13.240234 42.408203L13.234375 42.404297L12.449219 41.845703L11.630859 41.203125L11.619141 41.193359L10.863281 40.537109L10.857422 40.53125L10.650391 40.332031L9.7929688 40.070312 z M 37.175781 42.195312L36.851562 42.332031L35.953125 42.919922L34.896484 43.527344L34.884766 43.533203L34.369141 43.789062L33.830078 44.503906L34.080078 45.365234L34.917969 45.679688L35.257812 45.580078L35.783203 45.320312L35.810547 45.306641L35.835938 45.291016L36.972656 44.642578L36.998047 44.626953L37.021484 44.611328L37.947266 44.005859L38.396484 43.232422L38.046875 42.408203L37.175781 42.195312 z M 17.902344 44.775391L17.015625 44.898438L16.582031 45.683594L16.951172 46.5L17.259766 46.669922L18.130859 46.962891L18.154297 46.972656L18.177734 46.978516L19.220703 47.275391L19.246094 47.28125L19.269531 47.287109L20.333984 47.533203L20.357422 47.539062L20.382812 47.542969L21.273438 47.703125L22.132812 47.449219L22.443359 46.609375L21.955078 45.857422L21.625 45.734375L20.734375 45.574219L19.767578 45.351562L19.751953 45.347656L18.730469 45.056641L18.724609 45.054688L17.902344 44.775391 z M 30.263672 45.402344L29.912109 45.416016L28.921875 45.634766L27.603516 45.839844L27.078125 45.888672L26.316406 46.363281L26.242188 47.255859L26.912109 47.849609L27.263672 47.878906L27.851562 47.824219L27.882812 47.822266L27.914062 47.816406L29.255859 47.605469L29.287109 47.601562L29.316406 47.595703L30.341797 47.369141L31.037109 46.804688L31.001953 45.908203L30.263672 45.402344 z"/></svg>