<svg xmlns="http://www.w3.org/2000/svg" viewBox="0 0 512 512"><path fill="#fff" d="M2.5,36.5v-33h35V36c0,0.276-0.225,0.5-0.5,0.5H2.5z"/><path fill="#4788c7" d="M37,4v32H3V4H37 M38,3H2v34h35c0.552,0,1-0.448,1-1V3L38,3z"/><path fill="#98ccfd" d="M3 4H37V9H3z"/><path fill="#fff" d="M38 21L37 21 37 36 20 36 20 37 38 37z"/><path fill="none" stroke="#4788c7" stroke-linecap="round" d="M13.5 16.5L30.5 16.5M9.5 16.5L9.5 16.5M13.5 20.5L28.5 20.5M9.5 20.5L9.5 20.5M13.5 24.5L21.5 24.5M9.5 24.5L9.5 24.5M13.5 28.5L19.5 28.5M9.5 28.5L9.5 28.5"/><path fill="#4788c7" d="M37.5 22L37.5 22c-.275 0-.5-.225-.5-.5v-2c0-.275.225-.5.5-.5l0 0c.275 0 .5.225.5.5v2C38 21.775 37.775 22 37.5 22zM18.5 36h2c.275 0 .5.225.5.5l0 0c0 .275-.225.5-.5.5h-2c-.275 0-.5-.225-.5-.5l0 0C18 36.225 18.225 36 18.5 36z"/><path fill="#fff" d="M31 22A9 9 0 1 0 31 40A9 9 0 1 0 31 22Z"/><path fill="#98ccfd" d="M31,22v10l-6.404-7.319C22.992,26.306,22,28.536,22,31c0,4.971,4.029,9,9,9s9-4.029,9-9 C40,26.029,35.971,22,31,22z"/><path fill="#fff" d="M37,31c0,3.31-2.69,6-6,6s-6-2.69-6-6s2.69-6,6-6c0.34,0,0.68,0.03,1,0.09V27h1v-1.65 C35.33,26.16,37,28.39,37,31z"/><path fill="none" stroke="#4788c7" stroke-linecap="round" d="M27.5 27.5L31 31"/><path fill="#4788c7" d="M31 30A1 1 0 1 0 31 32A1 1 0 1 0 31 30Z"/><g><path fill="none" stroke="#4788c7" d="M24.979,25c-1.532,1.537-2.479,3.658-2.479,6 c0,4.695,3.805,8.5,8.5,8.5s8.5-3.805,8.5-8.5c0-4.527-3.538-8.227-8-8.486l0,4.486"/></g></svg>