<svg xmlns="http://www.w3.org/2000/svg" viewBox="0 0 1024 1024"><path d="M14 11C6.28125 11 0 17.28125 0 25C0 32.71875 6.28125 39 14 39L36 39C43.71875 39 50 32.71875 50 25C50 17.28125 43.71875 11 36 11 Z M 14 13C20.640625 13 26 18.359375 26 25C26 31.640625 20.640625 37 14 37C7.359375 37 2 31.640625 2 25C2 18.359375 7.359375 13 14 13 Z M 21.15625 13L36 13C42.640625 13 48 18.359375 48 25C48 31.640625 42.640625 37 36 37L21.15625 37C25.242188 34.550781 28 30.097656 28 25C28 19.902344 25.242188 15.449219 21.15625 13Z"/></svg>