<svg xmlns="http://www.w3.org/2000/svg" viewBox="0 0 1024 1024"><path d="M15 2C9.6246345 2 4.9962937 5.27036 3.0214844 9.9375 A 1.0001 1.0001 0 1 0 4.8632812 10.716797C6.532472 6.7719368 10.435366 4 15 4C17.693028 4 20.148277 4.9621815 22.060547 6.5644531 A 1.0002922 1.0002922 0 1 0 23.345703 5.03125C21.087973 3.1395216 18.170972 2 15 2 z M 15 6C13.950918 6 12.939349 6.1794548 12 6.5117188 A 1.000736 1.000736 0 1 0 12.667969 8.3984375C13.396619 8.1407014 14.179082 8 15 8C18.877484 8 22 11.122516 22 15C22 17.951163 21.011719 24.669922 21.011719 24.669922 A 1.0001 1.0001 0 1 0 22.988281 24.966797C22.988281 24.966797 24 18.372837 24 15C24 10.041484 19.958516 6 15 6 z M 25.503906 8.2246094 A 1.0001 1.0001 0 0 0 24.650391 9.7167969C25.510231 11.285226 26 13.081416 26 15C26 16.096255 25.838735 17.150447 25.539062 18.148438 A 1.0001 1.0001 0 1 0 27.453125 18.724609C27.807453 17.5446 28 16.293745 28 15C28 12.740584 27.420457 10.60943 26.404297 8.7558594 A 1.0001 1.0001 0 0 0 25.503906 8.2246094 z M 8.6484375 9.0703125 A 1.0001 1.0001 0 0 0 7.9042969 9.4648438C6.7124123 10.990681 6 12.917866 6 15C6 19.703735 5.2207031 22.757812 5.2207031 22.757812 A 1.0001 1.0001 0 1 0 7.1582031 23.251953C7.1582031 23.251953 8 19.928265 8 15C8 13.372134 8.5523532 11.883476 9.4804688 10.695312 A 1.0001 1.0001 0 0 0 8.6484375 9.0703125 z M 15 10C12.250484 10 10 12.250484 10 15C10 22.018262 9.0332031 25.6875 9.0332031 25.6875 A 1.0001 1.0001 0 1 0 10.966797 26.193359C10.966797 26.193359 12 22.205738 12 15C12 13.331516 13.331516 12 15 12C16.668484 12 18 13.331516 18 15C18 16.197724 17.94908 17.447894 17.871094 18.664062 A 1.0001 1.0001 0 1 0 19.867188 18.791016C19.947202 17.543184 20 16.254276 20 15C20 12.250484 17.749516 10 15 10 z M 2.9804688 13.175781 A 1.0001 1.0001 0 0 0 2.0292969 14.121094C2.009781 14.411663 2 14.705022 2 15C2 16.094745 2.1369969 17.157131 2.3925781 18.171875 A 1.0001 1.0001 0 1 0 4.3320312 17.683594C4.1156125 16.824338 4 15.927255 4 15C4 14.748978 4.0089096 14.50129 4.0253906 14.255859 A 1.0001 1.0001 0 0 0 2.9804688 13.175781 z M 14.984375 13.986328 A 1.0001 1.0001 0 0 0 14 15C14 17.719186 13.853249 19.962184 13.662109 21.730469 A 1.0001 1.0001 0 1 0 15.650391 21.945312C15.849251 20.105598 16 17.790814 16 15 A 1.0001 1.0001 0 0 0 14.984375 13.986328 z M 18.457031 22.234375 A 1.0001 1.0001 0 0 0 17.460938 23.132812C17.229233 25.134964 17.011719 26.490234 17.011719 26.490234 A 1.0008635 1.0008635 0 1 0 18.988281 26.806641C18.988281 26.806641 19.212922 25.405129 19.449219 23.363281 A 1.0001 1.0001 0 0 0 18.457031 22.234375 z M 14.025391 24.878906 A 1.0001 1.0001 0 0 0 13.044922 25.677734C12.892393 26.375145 12.794922 26.681641 12.794922 26.681641 A 1.0001 1.0001 0 1 0 14.703125 27.28125C14.703125 27.28125 14.832576 26.862058 14.998047 26.105469 A 1.0001 1.0001 0 0 0 14.025391 24.878906 z"/></svg>