<svg xmlns="http://www.w3.org/2000/svg" viewBox="0 0 1024 1024"><path d="M7 7C5.346 7 4 8.346 4 10L4 40C4 41.654 5.346 43 7 43L26.142578 43C26.361578 42.366 26.702625 41.729 27.265625 41L7 41C6.448 41 6 40.551 6 40L6 15L44 15L44 24.492188C44.625 24.216188 45.301 24.065297 46 24.029297L46 10C46 8.346 44.654 7 43 7L7 7 z M 7 9L43 9C43.552 9 44 9.449 44 10L44 13L6 13L6 10C6 9.449 6.448 9 7 9 z M 8 10 A 1 1 0 0 0 7 11 A 1 1 0 0 0 8 12 A 1 1 0 0 0 9 11 A 1 1 0 0 0 8 10 z M 11 10 A 1 1 0 0 0 10 11 A 1 1 0 0 0 11 12 A 1 1 0 0 0 12 11 A 1 1 0 0 0 11 10 z M 14 10 A 1 1 0 0 0 13 11 A 1 1 0 0 0 14 12 A 1 1 0 0 0 15 11 A 1 1 0 0 0 14 10 z M 46.298828 26.005859C45.349534 26.005859 44.40016 26.363512 43.681641 27.082031L41.21875 29.544922C40.837302 29.189832 40.347366 29.005859 39.853516 29.005859C39.33738 29.005859 38.821429 29.200056 38.433594 29.587891L36.589844 31.433594C35.814174 32.209264 35.814174 33.497766 36.589844 34.273438L36.628906 34.3125L29.9375 41.003906C29.117229 41.824177 28.631514 42.44149 28.322266 42.998047C28.013017 43.554604 27.906924 44.053457 27.841797 44.378906C27.776667 44.704356 27.751237 44.857498 27.572266 45.179688C27.393294 45.501875 27.032748 45.990452 26.291016 46.732422 A 1.0001 1.0001 0 0 0 26.292969 48.146484L27.855469 49.707031 A 1.0001 1.0001 0 0 0 29.269531 49.707031C30.01126 48.965302 30.498275 48.60472 30.820312 48.425781C31.14235 48.246843 31.295668 48.223326 31.621094 48.158203C31.946519 48.093083 32.445298 47.98695 33.001953 47.677734C33.558608 47.368519 34.175563 46.882768 34.996094 46.0625 A 1.0001 1.0001 0 0 0 34.998047 46.0625L41.6875 39.371094L41.726562 39.410156C42.502234 40.185826 43.790736 40.185826 44.566406 39.410156L46.412109 37.566406C47.172323 36.806192 47.182586 35.558262 46.455078 34.777344L48.916016 32.316406C50.353054 30.879368 50.353054 28.51907 48.916016 27.082031C48.197496 26.363512 47.248122 26.005859 46.298828 26.005859 z M 46.298828 27.994141C46.73215 27.994141 47.165473 28.161566 47.501953 28.498047C48.174914 29.171008 48.174914 30.229382 47.501953 30.902344L45.044922 33.359375L42.638672 30.953125L45.095703 28.498047C45.432184 28.161566 45.865506 27.994141 46.298828 27.994141 z M 39.847656 31.001953C39.859986 30.989623 39.847044 30.989623 39.859375 31.001953L44.996094 36.138672C45.007314 36.149922 45.007757 36.142574 44.998047 36.152344L43.152344 37.996094C43.140014 38.008424 43.152956 38.008424 43.140625 37.996094L38.003906 32.859375C37.991576 32.847045 37.991576 32.859987 38.003906 32.847656L39.847656 31.001953 z M 38.042969 35.726562L40.273438 37.957031L33.582031 44.648438C32.840062 45.390169 32.353439 45.750715 32.03125 45.929688C31.709061 46.10866 31.553965 46.132138 31.228516 46.197266C30.903066 46.262396 30.406166 46.368486 29.849609 46.677734C29.511097 46.865827 29.052395 47.305947 28.636719 47.660156L28.339844 47.365234C28.694256 46.949233 29.134121 46.489091 29.322266 46.150391C29.631481 45.593736 29.737612 45.09691 29.802734 44.771484C29.867854 44.446059 29.891375 44.29274 30.070312 43.970703C30.249251 43.648666 30.609835 43.159698 31.351562 42.417969L38.042969 35.726562 z"/></svg>